<svg width="32" height="34" viewBox="0 0 32 34" fill="none" xmlns="http://www.w3.org/2000/svg">
<rect x="11.8794" y="-7" width="16.8" height="16.8" rx="4" transform="rotate(45 11.8794 -7)" fill="#00B7CD"/>
<path fill-rule="evenodd" clip-rule="evenodd" d="M20.6274 31.9258L17.8092 27.5016C17.3849 26.8328 16.4154 26.8328 15.9918 27.5016L13.1721 31.9258C12.7119 32.6503 13.2283 33.6 14.0832 33.6H19.7187C20.572 33.6 21.0883 32.6503 20.6274 31.9258Z" fill="#FFDD00"/>
<path fill-rule="evenodd" clip-rule="evenodd" d="M29.2794 19.8C30.6049 19.8 31.6794 18.7255 31.6794 17.4C31.6794 16.0745 30.6049 15 29.2794 15C27.9539 15 26.8794 16.0745 26.8794 17.4C26.8794 18.7255 27.9539 19.8 29.2794 19.8Z" fill="#78BC8D"/>
</svg>
