<svg width="40" height="27" viewBox="0 0 40 27" fill="none" xmlns="http://www.w3.org/2000/svg">
<path fill-rule="evenodd" clip-rule="evenodd" d="M26.9909 27H0.00909424C0.27212 19.7758 6.21156 14 13.5 14C20.7885 14 26.7279 19.7758 26.9909 27Z" fill="#00B7CD"/>
<circle cx="14.619" cy="1.52383" r="0.619048" fill="#FFCA00"/>
<circle cx="29.4762" cy="1.52383" r="0.619048" fill="#FFCA00"/>
<circle cx="19.5714" cy="1.52383" r="0.619048" fill="#FFCA00"/>
<circle cx="34.4286" cy="1.52383" r="0.619048" fill="#FFCA00"/>
<circle cx="24.5238" cy="1.52383" r="0.619048" fill="#FFCA00"/>
<circle cx="39.381" cy="1.52383" r="0.619048" fill="#FFCA00"/>
<circle cx="14.619" cy="11.4286" r="0.619048" fill="#FFCA00"/>
<circle cx="29.4762" cy="11.4286" r="0.619048" fill="#FFCA00"/>
<circle cx="19.5714" cy="11.4286" r="0.619048" fill="#FFCA00"/>
<circle cx="34.4286" cy="11.4286" r="0.619048" fill="#FFCA00"/>
<circle cx="24.5238" cy="11.4286" r="0.619048" fill="#FFCA00"/>
<circle cx="39.381" cy="11.4286" r="0.619048" fill="#FFCA00"/>
<circle cx="14.619" cy="6.47623" r="0.619048" fill="#FFCA00"/>
<circle cx="29.4762" cy="6.47623" r="0.619048" fill="#FFCA00"/>
<circle cx="19.5714" cy="6.47623" r="0.619048" fill="#FFCA00"/>
<circle cx="34.4286" cy="6.47623" r="0.619048" fill="#FFCA00"/>
<circle cx="24.5238" cy="6.47623" r="0.619048" fill="#FFCA00"/>
<circle cx="39.381" cy="6.47623" r="0.619048" fill="#FFCA00"/>
<circle cx="14.619" cy="16.381" r="0.619048" fill="#FFCA00"/>
<circle cx="29.4762" cy="16.381" r="0.619048" fill="#FFCA00"/>
<circle cx="19.5714" cy="16.381" r="0.619048" fill="#FFCA00"/>
<circle cx="34.4286" cy="16.381" r="0.619048" fill="#FFCA00"/>
<circle cx="24.5238" cy="16.381" r="0.619048" fill="#FFCA00"/>
<circle cx="39.381" cy="16.381" r="0.619048" fill="#FFCA00"/>
</svg>
