<?xml version="1.0" encoding="UTF-8"?>
<svg width="202px" height="138px" viewBox="0 0 202 138" version="1.1" xmlns="http://www.w3.org/2000/svg" xmlns:xlink="http://www.w3.org/1999/xlink">
    <!-- Generator: Sketch 60.1 (88133) - https://sketch.com -->
    <title>Artboard</title>
    <desc>Created with Sketch.</desc>
    <g id="Artboard" stroke="none" stroke-width="1" fill="none" fill-rule="evenodd">
        <path d="M29.2874782,249.274006 C29.2188008,249.174181 29.9735047,249.403271 30.7912115,249.559129 C31.1980036,249.644423 31.6236912,249.691644 31.9530486,249.738837 C32.2847212,249.769397 32.5260994,249.769669 32.5717604,249.745683 C33.1423355,249.826165 33.6305144,249.832421 34.0869419,249.870833 C34.5436315,249.872521 34.9729931,249.894241 35.4282346,249.86732 C35.884128,249.843756 36.3684501,249.814288 36.9330502,249.719109 C37.2166775,249.684171 37.5184936,249.623385 37.8457286,249.54437 C37.9396543,249.523555 38.0403612,249.499586 38.1391591,249.477419 C37.0203734,249.776402 35.9495844,249.966125 34.8457807,250.04401 C33.4909521,250.134347 32.0742943,250.064939 30.4874194,249.678484 C30.8916504,249.762224 31.1804809,249.795326 31.3437562,249.809052 C31.5062273,249.824982 31.5438459,249.823039 31.4484762,249.801517 C31.2616057,249.753013 30.5379018,249.655001 29.2874782,249.274006 Z M19.105585,34 C21.8915465,34.1851395 19.0726611,34.0336542 17.6480029,34.2065869 C17.9933279,34.221254 18.3427689,34.1955685 18.6847464,34.1971553 C19.0267764,34.1968875 19.3602895,34.1822896 19.6744749,34.1675537 C20.2980812,34.1750763 20.8426744,34.1370865 21.1706528,34.1735686 C22.0185755,34.2942791 22.5511227,34.458648 22.4708876,34.5088733 L22.4708876,34.5088733 L23.1341354,34.6132105 C23.3529639,34.6575814 23.5703735,34.7126798 23.788992,34.7644692 C24.0067521,34.8203192 24.227736,34.8673454 24.4415189,34.9323706 L24.4415189,34.9323706 L25.0791357,35.1410826 C25.5074023,35.2726364 25.9131718,35.4503688 26.3169432,35.6198821 C26.7421455,35.7940434 27.0607899,35.9501777 27.4083473,36.109301 C28.7722748,36.7425028 30.0304842,37.3280036 31.0786725,37.7286801 L31.042,37.714 L30.9622056,37.6830131 C30.0315278,37.3201563 31.112401,37.7996095 31.4984465,38.0520483 L31.5397527,38.0801075 C32.5029395,38.5286565 30.9270246,37.6355959 33.2981251,38.7920037 C31.6451091,38.2588331 35.9746317,39.9286186 35.4502397,39.9096044 C36.2879233,40.2739246 37.2533349,40.7095402 37.2380143,40.594064 C38.0560589,41.0480687 38.2051353,41.2320296 40.4668872,42.2719684 C40.2508401,42.1293023 40.038105,41.9878371 39.4232459,41.684326 C40.1148895,41.9675882 45.6245459,44.7223106 47.2139594,45.3748171 C45.4428941,44.5334083 44.3616468,43.9083973 41.1808648,42.3965736 C40.1702375,41.8246492 46.1507804,44.7944552 44.6949987,43.8206684 L44.7,43.824 L44.8857094,43.9407811 C45.9541063,44.5901712 47.8276273,45.3813689 49.774371,46.3709548 L50.1400649,46.5588408 C51.2319918,46.990366 51.9232811,47.1941817 54.6992945,48.5717299 C55.0115006,48.5743883 52.4255508,47.4037818 52.6432715,47.3690576 C53.9057193,48.0159455 55.820996,48.9364066 57.4330402,49.7057393 C56.9875213,49.4819119 57.3027545,49.6026459 57.5889686,49.7400022 C57.6047996,49.7051857 56.9386151,49.3946558 56.5115707,49.1796914 C57.3943583,49.5395356 58.9973445,50.3019134 60.457064,50.9854381 C60.983739,51.4194292 58.0639892,49.9143477 57.5566162,49.7669477 L57.5681572,49.7702082 C58.9930735,50.4499361 60.154298,50.9994046 60.3692054,51.115378 C60.9151671,51.4757235 60.8532535,51.7324485 63.0424135,52.5262239 C62.8552832,52.4652417 64.3121294,53.3488545 65.7524009,53.9116836 C66.2483299,54.1745697 66.5020374,54.3920972 66.8288087,54.4712356 C68.1993263,55.1343072 66.8819115,54.64413 66.700003,54.582543 C69.0623618,55.7851206 68.8135725,55.4463398 70.0554737,56.1483394 C70.9917548,56.4309948 67.5850165,54.9559055 68.5227521,55.2397128 C70.6087151,56.3039735 72.4921616,57.2860593 72.7003311,57.5888769 C75.0989894,58.6253702 72.340973,57.2687123 72.3658486,57.1253415 C73.1521557,57.5053833 73.9307351,57.882623 74.0594415,57.8930671 C74.8442772,58.2856909 73.4983938,57.9213433 76.1511399,59.069953 C76.3436907,59.2546881 75.3008067,58.7453892 74.425937,58.3288634 C74.8712786,58.618999 75.5654507,59.0099763 76.513973,59.5037968 C76.3921022,59.5276833 74.6582887,58.6441966 74.7589125,58.7931014 C74.7018438,58.8654668 80.757531,61.5970854 77.5900303,60.0625971 C78.8228129,60.6270119 80.6189733,61.5143685 81.9615451,62.2453761 C84.1246898,63.1702426 80.9112762,61.5766371 79.2850776,60.8314746 C80.9511913,61.5324022 82.854333,62.5016437 84.9516766,63.3739218 C85.0559629,63.5247791 84.7408965,63.4392674 84.238803,63.2497169 C86.6246093,64.4907749 87.9525033,64.9916219 90.8566665,66.4649759 C91.2556115,66.4766014 89.1105745,65.6869582 89.8770513,65.8218556 C92.0244801,66.7897386 90.7775917,66.5924418 92.5211552,67.2627444 C93.4391864,67.7305197 92.7938231,67.4933923 91.9043732,67.0534678 C91.3933655,66.9687325 93.7646553,68.0527609 94.5466196,68.4943077 C95.4714114,68.89396 95.9036909,69.028218 95.2249218,68.6446994 C94.5714596,68.3390575 94.7007678,68.4727564 94.5753733,68.4635132 C93.8565298,68.0904459 93.6122164,67.9088013 93.5961086,67.8211444 C95.860089,68.9268447 93.2408177,67.5411768 94.8300757,68.2385946 C95.6272932,68.8505536 96.5615201,69.0481497 97.5061926,69.6517444 C98.7912458,70.2082564 98.2620983,69.6872523 97.2066846,69.1609193 C97.9849828,69.5218187 99.2124743,70.1024269 99.5487221,70.1094307 C100.801449,70.7441569 99.1135224,70.1046452 98.2834954,69.7193683 C98.6893924,69.9976997 100.623619,70.9588514 101.572732,71.3398421 C102.850693,71.9893388 100.036046,70.7158227 98.7409132,70.0688431 C98.1259306,70.1112887 103.653721,72.4485159 102.64914,71.8993941 C104.157613,72.5219277 104.014563,72.6636695 104.188485,72.8104224 C105.723583,73.5825094 105.669817,73.4593386 106.986083,74.1083598 C106.885459,73.959455 107.197967,74.0434145 107.702269,74.2337656 C109.244909,75.1597288 112.681646,76.612594 115.363423,78.0359154 C115.977962,78.2325119 120.571836,80.2823204 122.0133,81.2234354 C123.54473,81.8755276 123.886368,82.1124473 124.323675,82.2004375 C125.428999,82.8416734 127.442773,83.6586677 128.171187,84.0876674 C127.555687,83.9381881 127.124852,83.6083449 125.366965,82.7873282 C125.345606,82.8064391 125.32691,82.823393 125.302939,82.8428062 C128.07822,84.2856666 131.418897,85.756788 136.356396,88.1835116 C137.456332,88.6341791 136.97252,88.1926931 139.313709,89.3420023 C137.646697,88.9224219 140.619595,90.2264631 143.461886,91.7186029 C145.142162,92.4971137 143.000106,91.4050197 143.587379,91.6060947 C144.957815,92.3771838 146.447135,92.9802814 145.931975,92.5561584 C147.765712,93.5870465 152.781709,95.9067052 152.29624,95.9967363 C154.087177,96.8453504 154.582478,97.1698393 156.696509,98.1487207 C156.728522,98.1209817 156.757976,98.0916905 156.793301,98.0651524 C155.801288,97.5842916 155.581408,97.5376658 154.546602,97.0319206 L154.548,97.032 L154.677888,97.0847355 C155.880117,97.5652795 153.825401,96.6435403 154.081462,96.6476216 L154.114976,96.651202 C156.532353,97.7750498 157.703001,98.3675235 158.708427,98.6371527 C160.731567,99.6355401 162.543781,100.573061 164.213857,101.317895 C163.501785,101.112789 163.872841,101.269191 164.612365,101.725952 C166.076508,102.391119 163.685302,101.091269 165.357953,101.823921 C167.087068,102.650119 167.676189,103.022367 169.238635,103.681958 C169.944214,104.063955 170.236682,104.27805 171.356126,104.8276 C171.921218,105.103073 172.613591,105.242328 173.048212,105.596028 C173.492551,105.803359 174.83555,106.309059 173.699618,105.777263 L173.727,105.79 L173.894871,105.86715 C175.986602,106.831147 178.337552,107.948461 178.099333,107.960305 L178.069328,107.958138 C181.559836,109.652217 182.479346,109.896939 185.336039,111.35308 C185.417741,111.579439 186.263029,111.924657 186.254134,112.055086 C186.924063,112.278012 187.880851,112.66366 189.704242,113.534659 C188.605252,113.089955 189.562921,113.57585 189.544124,113.675208 C191.133178,114.498087 188.237078,113.081368 189.054342,113.352721 C187.404961,112.599152 189.281855,113.602595 188.894926,113.494774 C187.697925,112.940211 187.88472,112.94736 187.882947,112.878641 C186.960116,112.435981 186.035427,111.993272 185.112946,111.551363 C185.165466,111.626616 186.097847,112.060248 186.742513,112.374567 C186.742011,112.497421 185.005851,111.644311 184.923374,111.721204 C185.139824,111.862767 185.352559,112.004232 185.967769,112.308495 C187.404787,112.986311 185.262328,111.89532 186.092562,112.194483 C189.549848,113.91961 189.352147,113.759238 190.590376,114.262548 C190.35875,114.214994 190.471639,114.309274 190.612883,114.412679 L190.698503,114.474755 C190.880572,114.609473 190.955556,114.666015 190.400804,114.432389 C189.359636,113.914969 189.07565,113.703325 187.693375,113.048482 C187.151956,112.790336 187.225346,112.876904 187.076593,112.839205 C188.04206,113.351661 188.696452,113.677001 189.398367,114.017699 C189.748974,114.187296 190.112075,114.362048 190.530515,114.564985 C190.755077,114.682634 190.994639,114.808844 191.255474,114.945266 C191.385463,115.015508 191.522075,115.088151 191.664154,115.16465 C191.800399,115.250275 191.943618,115.339054 192.093759,115.432841 C192.886694,115.89398 193.091351,116.031891 193.110992,115.981554 C193.125954,115.938889 192.929951,115.744783 192.84766,115.670601 C194.006974,116.335161 194.735217,117.230014 194.070078,116.417374 L194.096101,116.449727 C193.574789,116.028548 193.22438,115.773319 192.870315,115.500439 C192.62537,115.331623 192.373446,115.159647 192.049259,114.950826 C191.724518,114.748667 191.301241,114.53195 190.760959,114.255277 C191.260176,114.469611 191.496763,114.536166 191.508034,114.464123 C192.063955,114.848822 192.379447,115.076329 192.85228,115.344115 C193.310392,115.63339 193.92021,115.992102 194.892299,116.853046 C194.533108,116.469256 194.132898,116.035002 194.029737,115.863371 C193.722626,115.655757 193.422445,115.453155 193.131001,115.25747 C192.831717,115.076412 192.539714,114.901118 192.260567,114.73174 C191.984184,114.556501 191.69915,114.42555 191.438378,114.277822 C191.185087,114.14217 190.942792,114.012384 190.715915,113.890067 C189.876946,113.451275 189.252465,113.084743 188.925522,112.854326 C189.740079,113.259293 189.947795,113.321606 190.054593,113.328225 L190.09566,113.328488 C190.261721,113.430596 190.524554,113.570959 190.83188,113.729974 C190.976455,113.801814 191.163711,113.904128 191.357948,114.0096 L191.357948,114.0096 L191.935836,114.325515 C192.694044,114.766188 193.377661,115.227831 193.527025,115.409997 C194.161527,115.8588 194.012028,115.627284 194.740657,116.224467 C194.637145,116.052085 193.36891,115.099216 192.442927,114.57828 C192.934114,114.773473 194.113571,115.491286 194.981663,116.292627 C195.86714,117.070326 196.47729,117.837923 196.238212,117.69932 C196.437047,117.88135 196.690509,118.11941 196.970322,118.413844 C197.23411,118.723053 197.553536,119.064945 197.854812,119.472015 C198.478563,120.272634 199.093363,121.277817 199.626785,122.334583 C199.561851,122.315374 199.606046,122.494303 199.722876,122.805072 C199.781844,122.960657 199.85848,123.150116 199.948168,123.365533 C200.028111,123.583652 200.117688,123.830232 200.214242,124.093698 C200.600707,125.152024 200.991291,126.548842 201.166124,127.729404 C201.100168,127.598117 201.120181,127.858755 201.167432,128.401377 C201.071098,128.075584 201.073935,127.822618 201.031058,127.432608 C201.01188,127.236552 200.988795,127.006626 200.946944,126.714968 C200.894243,126.425611 200.811175,126.077175 200.693577,125.645058 C200.782289,126.439256 200.895625,127.189973 200.60354,126.27076 C200.631561,126.116803 200.351457,124.597217 199.509545,122.731359 C198.69345,120.859896 197.206587,118.723045 195.607228,117.244305 C195.681827,117.358761 196.319981,118.027314 196.963868,118.839612 C197.124175,119.043225 197.288798,119.25215 197.452368,119.45882 C197.603832,119.672952 197.754593,119.88558 197.898225,120.086884 C198.196894,120.480526 198.416714,120.860516 198.603125,121.102315 C199.072931,121.928791 198.780816,121.621778 198.77948,121.724888 C198.447303,121.020151 197.879153,120.212886 198.429695,121.11985 L198.428,121.118 L198.268715,120.907163 C198.218403,120.837906 198.171181,120.770026 198.12627,120.702731 L197.997697,120.501811 C197.863153,120.308176 197.740513,120.114494 197.60728,119.900117 C197.477062,119.684338 197.330225,119.450668 197.130759,119.19664 C196.931343,118.940759 196.712858,118.634269 196.390109,118.318629 C195.994814,117.908626 195.881787,117.812045 195.367277,117.341283 C196.766219,118.833076 195.738505,117.754307 195.025927,117.182401 C195.16912,117.316098 195.316431,117.458719 195.466168,117.595605 C196.027507,118.148267 196.538328,118.71259 196.631272,118.778143 C197.281397,119.635303 196.929779,119.225511 198.158627,121.032605 C198.074257,121.09757 197.473136,120.072062 197.985659,121.049206 C198.874208,122.427505 199.460736,123.889903 199.649259,124.125016 C199.59019,124.149814 199.668073,124.379784 199.85052,125.066118 C200.048386,125.746176 200.368883,126.887899 200.564389,128.754998 C200.485488,128.495305 200.39023,127.696939 200.207916,126.861386 C200.119721,126.444059 199.996742,126.020989 199.899612,125.643516 C199.777021,125.272425 199.663106,124.949448 199.57627,124.733719 C199.672521,125.050292 199.755768,125.327174 199.830621,125.572284 C199.899848,125.819101 199.94682,126.037863 199.997085,126.232212 C200.098719,126.621311 200.157786,126.925025 200.203517,127.213912 C200.304425,127.786365 200.367199,128.300648 200.36618,129.335161 C200.47824,131.16888 200.583696,129.425897 200.64657,129.450568 C200.7124,131.19695 200.660662,131.711557 200.70722,132.063199 C200.727888,132.239321 200.730085,132.371898 200.723682,132.598163 C200.705084,132.821878 200.704136,133.144428 200.583043,133.679479 C200.642053,133.538493 200.718054,133.256897 200.777859,132.87762 C200.808866,132.688382 200.843516,132.475483 200.880899,132.244838 C200.903071,132.01305 200.92647,131.764219 200.950534,131.505012 C201.035803,130.462326 201.017835,129.231691 200.899699,128.217053 C200.980111,128.554738 201.047348,128.950726 201.077648,129.377664 C201.125418,129.804691 201.136305,130.260813 201.138254,130.717443 C201.149531,131.632752 201.069845,132.543808 201.061048,133.24886 C201.025303,132.922374 200.859731,133.70236 200.551447,134.717269 C200.261527,135.740085 199.718445,136.95965 199.342908,137.631652 C199.814815,136.48371 199.946843,136.324231 200.304337,135.054862 L200.245,135.26 L200.212038,135.366327 C200.109589,135.688564 200.027059,135.872108 199.981237,135.972532 L199.963895,136.010644 C199.908738,136.120551 199.905389,136.068124 199.911413,135.986618 C199.923864,135.822504 199.970339,135.546441 199.702112,136.196771 C199.35239,137.309699 199.402149,137.548208 198.74132,138.908696 C199.13813,138.246905 199.389704,137.830364 199.382036,137.983097 C199.359421,138.125414 199.119989,138.874872 198.155439,140.313847 C198.0353,140.276531 196.747354,141.871798 197.910098,139.905742 C197.630663,140.321549 197.418966,140.642629 197.218744,140.899793 C197.022132,141.160763 196.873356,141.386617 196.70497,141.595992 C196.36494,142.011688 196.034882,142.442865 195.300582,143.128428 C195.590658,142.796422 195.867767,142.475953 195.276238,143.042782 C195.397944,142.867069 195.580383,142.660292 195.82075,142.416435 C196.057105,142.169875 196.331237,141.86269 196.670376,141.517871 C196.024074,142.167891 195.973794,142.026623 196.561775,141.283008 C195.799082,142.196855 195.441388,142.606146 194.928606,143.149066 C194.656399,143.401363 194.360382,143.706858 193.906766,144.06388 C193.675471,144.236704 193.412672,144.432456 193.109168,144.660914 C192.823431,144.85272 192.497901,145.071318 192.123833,145.32353 C191.94937,145.576919 193.120135,144.969672 191.652702,145.839708 C191.107179,146.22586 191.328508,146.155596 190.660399,146.617213 C190.892538,146.532756 192.257334,145.558678 191.704004,146.089393 C192.051051,145.846121 192.447827,145.579659 192.862336,145.304013 C193.077283,145.157113 193.265982,145.044414 193.510085,144.865616 C193.744937,144.698453 193.979438,144.530539 194.210172,144.364381 C194.662369,144.018086 195.090385,143.659276 195.455931,143.314039 C195.809246,142.954375 196.1384,142.647155 196.347855,142.352743 C196.370202,142.469518 196.899173,142.234751 196.507701,142.760451 C196.54788,142.74629 196.699429,142.593265 196.901107,142.376601 C197.104643,142.159985 197.358309,141.87973 197.576543,141.590375 C197.961166,141.122773 198.276294,140.667446 198.339392,140.631617 C198.379253,140.549889 198.488517,140.367168 198.64134,140.11655 C198.768547,139.917226 198.895628,139.65665 199.053304,139.379062 C199.129381,139.239268 199.210085,139.093656 199.293154,138.943281 C199.368548,138.788249 199.4448,138.629157 199.522559,138.469362 C200.161698,137.192194 200.643648,135.715632 200.793826,135.492785 C200.520561,136.32116 200.333161,136.847782 200.186582,137.206213 C200.046275,137.566294 199.982116,137.770991 199.929643,137.943702 C199.868339,138.113211 199.825344,138.253134 199.729225,138.483716 C199.633859,138.713947 199.494094,139.041747 199.184419,139.554012 C199.271783,139.462029 199.574065,138.961448 199.589837,138.995272 C199.805226,138.569982 199.958991,138.246634 200.070898,137.996794 C200.171415,137.7422 200.231177,137.561514 200.270352,137.425202 C200.349052,137.153329 200.342441,137.058498 200.371819,136.887406 C200.793052,135.796036 200.761026,136.284065 201.020933,135.704415 C200.543274,137.121326 200.633595,136.91175 200.701544,136.809604 C200.751882,136.699199 200.84663,136.727308 200.017337,138.483884 C200.01983,138.57972 200.317534,138.004406 200.60561,137.256973 C200.902517,136.512741 201.172624,135.598907 201.309349,135.089509 C201.369484,135.013884 201.262058,135.538902 201.090448,136.085615 C200.920642,136.634231 200.71807,137.210937 200.719492,137.278905 C200.441871,137.893352 200.23892,138.246957 200.043448,138.520207 C199.633139,139.422552 199.519795,139.657506 199.39673,139.999481 C199.330957,140.169243 199.252359,140.358712 199.07851,140.642926 C198.905415,140.926788 198.676094,141.332037 198.238065,141.873957 C198.223835,141.85131 198.686093,141.202009 198.878355,140.845154 C198.982889,140.671958 199.030845,140.58005 198.946915,140.695139 C198.853909,140.802564 198.667236,141.145832 198.181582,141.754798 C198.206619,141.684558 198.303549,141.530465 198.440796,141.331034 C198.568914,141.125795 198.73048,140.868355 198.897934,140.599934 C199.244127,140.071556 199.542337,139.452083 199.693229,139.13831 C199.338644,139.674262 198.659171,141.049849 197.16139,142.677079 C196.88488,143.081456 197.28291,142.652441 197.674526,142.213606 C198.042871,141.75634 198.408464,141.291206 198.162656,141.71421 C197.174178,142.974006 196.636513,143.502907 196.768092,143.503776 C196.561713,143.623804 196.116529,144.063826 195.444795,144.574718 C195.280471,144.706248 195.104741,144.846757 194.920669,144.992986 C194.728677,145.130098 194.527591,145.27328 194.320425,145.421127 C193.879704,145.742854 193.517306,145.976813 193.123841,146.244476 C191.555363,147.308957 189.844378,148.522248 188.901925,149.25912 C188.211155,149.654438 186.038686,151.213778 185.34902,151.609496 C186.181412,150.886427 188.900521,149.216766 189.378876,148.786898 C188.69641,149.125269 186.632752,150.58354 185.32939,151.528056 C185.365757,151.307036 185.908005,150.97091 186.785498,150.191122 C185.924923,150.767195 185.840695,150.879676 185.795052,150.968676 C183.448241,152.3961 188.801786,148.633234 188.316798,149.231824 C189.934586,148.158991 190.224752,147.876357 190.823838,147.410323 C190.697849,147.435214 189.306768,148.392267 189.311011,148.452514 C187.829319,149.406065 190.173015,147.69459 189.76176,147.855249 C191.302113,146.759959 191.261169,146.906247 192.800417,145.810557 C190.318841,147.33651 189.177913,148.216263 186.211816,150.206073 L186.214,150.204 L186.356547,150.090267 C186.661587,149.849518 187.057162,149.555614 187.490669,149.238488 L187.71034,149.078129 C187.604924,149.111729 187.193779,149.386721 187.187206,149.343117 C185.635903,150.483776 185.63389,150.528639 185.151245,150.650296 C186.048324,150.150539 186.471487,149.818699 185.647423,150.260616 C184.214233,151.208022 184.351824,151.219814 183.132653,152.039969 C182.932084,152.375076 184.368288,151.426265 185.212536,150.941077 C184.374293,151.687006 184.360751,151.390431 182.678137,152.63899 C182.528804,152.950206 185.431009,150.866654 185.759964,150.802938 C184.81833,151.445176 184.066795,151.938374 183.723652,152.109365 C182.508599,152.928515 184.042692,152.107007 182.235872,153.278054 C182.634547,153.141562 184.972604,151.484876 184.809673,151.790536 C182.474139,153.436896 179.100098,155.588565 178.743855,155.920313 C177.888406,156.328366 178.013326,156.314954 177.681777,156.365239 C177.315299,156.65143 175.232036,158.171917 175.656157,157.714265 C174.088871,158.789172 174.241375,158.838848 172.139444,160.230779 C172.924085,159.842018 174.319348,158.750329 175.184324,158.228939 C175.435286,158.18878 172.426673,160.091351 172.677635,160.051192 C172.100883,160.35857 171.390313,160.770441 171.112806,160.842194 C170.203378,161.463009 170.060854,161.625552 169.102294,162.274768 C168.637168,162.683826 170.641605,161.37396 169.138487,162.440906 C167.140887,163.82445 169.2866,162.264776 168.100351,163.011929 C167.511671,163.425527 167.690998,163.381254 167.62149,163.485957 C165.599182,164.836184 165.321435,165.021519 163.061523,166.531042 C162.889335,166.730294 163.47106,166.339157 164.088968,165.91742 C163.907181,166.206251 161.308799,167.76105 161.575302,167.697173 C160.511783,168.416379 162.283409,167.083303 161.035955,167.878213 C159.895202,168.738668 158.104146,170.15401 156.518404,171.132289 C156.414824,171.100977 158.302177,169.882311 159.033173,169.352936 C157.480741,170.310192 154.713827,172.316015 153.984408,172.829099 C154.163894,172.818609 156.382464,171.206659 156.036932,171.606619 C152.258844,174.058338 151.004015,174.522684 147.415436,177.306054 C146.973275,177.573547 147.089707,177.400294 146.377651,177.877829 C145.448511,178.525222 146.098843,178.232033 145.403418,178.73933 C144.342929,179.443397 143.942136,179.62846 142.359291,180.740819 L142.563,180.597 L142.724455,180.483308 C145.195304,178.729838 141.803784,180.869253 143.6859,179.543259 L143.819309,179.449645 C144.235475,179.010343 142.490953,180.265809 142.269536,180.326049 C141.525433,180.85879 142.483101,180.241103 142.299506,180.449335 C140.229516,181.750421 137.136105,183.903917 136.222542,184.53947 C136.825529,183.92246 138.359599,182.996644 139.729668,181.980758 C139.094655,182.350076 137.979847,183.095028 136.683631,183.984053 C135.97323,184.626444 135.743231,184.766637 133.674243,186.150527 C135.124257,185.2392 135.834358,184.922716 133.220078,186.750301 C133.310813,186.775706 134.934904,185.59836 135.256039,185.443122 C134.780141,185.956946 133.520468,186.644999 131.730843,187.917837 L131.734,187.914 L131.780836,187.876425 C132.045597,187.656898 132.267247,187.468399 131.808729,187.771237 L131.71463,187.83389 C132.157241,187.445397 133.557311,186.485982 133.69929,186.277025 C132.929351,186.671741 131.968381,187.484964 131.163787,187.974537 C129.6809,188.878317 132.653606,186.94399 132.669234,186.890949 C132.728786,186.717682 130.005714,188.711297 128.14737,190.100366 C128.377791,189.984683 128.605951,189.870055 129.174009,189.48895 C128.441984,190.120379 127.556182,190.47121 126.62606,191.100759 C127.310793,190.511515 128.35022,189.829166 129.643984,188.974228 C129.331099,189.074374 127.717922,190.194472 126.590971,190.935021 C126.463061,191.093495 124.776103,192.364212 123.098955,193.57728 C123.359773,193.359576 123.611497,193.147942 123.57701,193.105458 C122.560625,193.788044 122.002119,194.199467 122.081552,194.230143 C121.388698,194.646564 121.045729,194.798257 120.564555,195.275193 C119.543894,195.925 121.328516,194.474225 118.504302,196.455524 C118.735757,196.35583 119.167264,196.096965 120.034445,195.497681 L120.033,195.498 L119.788473,195.675393 C118.505533,196.606016 117.656545,197.278811 115.867173,198.511381 L115.52031,198.749248 C116.175543,197.980679 110.828571,201.787148 108.424437,203.492948 C108.879817,203.007908 106.239241,204.950244 105.877242,205.104405 C108.915243,202.898966 112.03246,200.942092 114.439707,199.113135 C114.349521,199.212839 113.943581,199.50096 113.952064,199.542758 L113.952064,199.542758 L117.993418,196.760553 C116.453181,197.720358 116.593694,197.642025 114.433536,199.068428 C114.577164,198.906285 115.687398,198.165296 116.440631,197.638363 C116.359112,197.589443 114.297455,199.095281 113.404988,199.681649 C112.192598,200.498642 113.724781,199.67894 111.91535,200.850289 C111.758329,200.881415 112.378356,200.450455 112.394912,200.377764 C110.474986,201.630836 111.452356,201.157694 109.887872,202.199266 C111.092807,201.238422 109.309754,202.515516 108.877797,202.895381 C108.302746,203.247718 108.979333,202.709857 107.33917,203.811426 C106.634563,204.314769 107.313241,203.913194 107.861901,203.547541 C107.731907,203.727118 104.86924,205.543332 106.320962,204.466494 L106.313,204.471 L105.871743,204.784322 C101.884636,207.595866 99.3891454,209.107486 97.0204004,210.985111 L96.7576587,211.195326 C96.6744585,211.166408 97.3550957,210.682477 97.2249705,210.682761 C96.7175299,211.168285 93.8211696,213.071586 92.6557669,213.686399 C93.263865,213.322311 94.4506533,212.50353 95.6955806,211.640252 C96.046159,211.219638 93.0090707,213.45851 93.6334169,212.822389 C94.6432357,212.253589 96.6332124,210.863534 96.6424545,210.655162 C98.3363086,209.574311 98.2420388,209.647552 100.7074,207.998303 C100.233592,208.241205 98.9244622,209.139912 98.1590485,209.611214 C98.5647033,209.228058 100.358116,208.018425 101.162669,207.39893 C100.426868,207.835378 100.388068,207.748237 102.144632,206.579578 C102.211335,206.429514 100.35227,207.791466 99.6102329,208.277491 C98.3143509,209.181001 100.319541,207.870784 99.6460753,208.442878 C98.2465501,209.448707 97.1748345,210.260497 95.6357958,211.348769 L95.636,211.347 L95.7273264,211.250506 C96.2480266,210.713305 97.2892053,209.965416 98.8451505,208.978009 L99.1429212,208.790057 C98.5392333,209.037703 97.1869067,209.873281 94.5548415,211.711904 L94.557,211.709 L94.7060326,211.615221 C97.3676496,209.919306 91.1326621,214.249639 92.4593564,213.164265 L92.5377568,213.100874 C92.0315888,213.449458 91.5280842,213.795886 91.0234232,214.143767 C89.9754306,214.892336 91.7984259,213.75401 90.0241437,214.878772 C89.3191855,215.381364 89.9963047,214.982346 90.543861,214.616292 C90.7846244,214.581804 88.6691651,215.952591 88.5518227,216.131759 C88.1961704,216.350677 87.7465218,216.501786 88.5001705,215.881322 C86.3263999,217.355251 87.8765739,216.438397 87.0078694,217.052118 C85.9991583,217.700013 85.6222477,217.855637 83.4440256,219.316086 C84.0039955,219.102552 86.7550544,217.170923 86.5386478,217.566489 C85.6636961,217.993703 83.1956378,219.672577 82.9320379,219.620716 C80.4686279,221.39808 80.9918201,220.881419 78.8913853,222.404423 C78.2843876,223.058077 80.741841,221.307282 80.9709181,221.30478 C80.0406766,221.99112 79.2585927,222.342086 78.95117,222.695907 C78.608231,222.741438 77.5251457,223.245574 74.8464723,225.141619 C74.9136004,225.09476 75.4196542,224.921009 74.8596187,225.228826 C73.6346583,225.898863 71.0045968,227.863748 68.7849677,229.316053 C69.6181129,228.592633 71.1233918,227.646384 72.8170847,226.492402 C73.3622569,226.105498 73.143644,226.171751 73.8086871,225.713393 C71.7323201,227.055886 68.7300262,229.168723 67.2477956,230.23325 C66.0935732,230.860235 73.9691515,225.494901 75.3145375,224.628702 C75.1993131,224.759298 74.3156778,225.348869 74.3236886,225.407359 C75.6084467,224.568516 77.479992,223.304147 78.3505314,222.586167 C78.1829445,222.635946 77.0845576,223.41808 76.3276269,223.931181 L76.328,223.93 L76.3490228,223.9106 C76.8154413,223.497291 82.9512507,219.344028 85.7417115,217.400992 L85.9082995,217.284842 C85.0156882,217.784346 82.9866211,219.242043 81.8267382,219.858857 C80.651207,220.831612 78.737443,221.972001 76.7949387,223.418616 C77.149723,223.007021 75.4342657,224.14187 74.7474808,224.685402 C74.9399379,224.74207 76.4938603,223.429985 76.2917846,223.765795 C73.7755043,225.467155 70.7801021,227.323302 67.1803337,229.897762 C67.0225588,229.92924 67.6388194,229.500036 67.658389,229.425941 C67.4896457,229.477175 66.384828,230.263222 65.6305607,230.774166 C65.4576191,230.97377 66.0378369,230.583335 66.6571995,230.162751 L66.647,230.169 L66.3696398,230.373101 C63.8694089,232.193177 61.1449323,233.950042 57.0230164,236.710953 L56.5411423,237.034036 C56.7938487,236.840246 57.0721729,236.63451 57.3617992,236.423504 L57.3617992,236.423504 L54.9084785,238.120212 C55.7878385,237.537211 56.6573865,236.97251 57.0565469,236.726899 C55.6462108,237.74692 54.3990193,238.532557 52.8612907,239.535115 L52.8612907,239.535115 L42.9483759,246.387626 C38.9521779,249.150604 34.3551545,249.747751 30.2170997,248.695123 C30.5080194,248.779998 30.8003055,248.856001 31.0870886,248.916268 C31.4576493,248.985053 31.8129831,249.066429 32.1446595,249.116743 C32.4763883,249.165202 32.7792042,249.210672 33.0395091,249.247598 C33.563307,249.300747 33.9156082,249.357915 33.9776251,249.425995 C33.3738189,249.401918 33.5173473,249.361527 33.391233,249.325167 C33.0655001,249.340712 32.7444266,249.322972 32.4247552,249.308239 C32.1048213,249.302779 31.7899855,249.274809 31.4779706,249.239119 C30.1887436,248.974633 29.3742302,248.711147 28.499889,248.35477 C27.6320311,247.992624 26.6674442,247.580416 25.2794598,246.62809 C26.0098941,247.169617 26.7460581,247.705727 27.6348951,248.154173 C28.4432478,248.569688 29.3769574,248.94322 30.5025523,249.144003 C30.312112,249.121167 30.2886327,249.149502 30.2039799,249.158779 C30.0871378,249.175745 29.8468449,249.154194 28.8834538,248.831106 C29.1939151,248.987396 30.0023651,249.241812 30.6540653,249.346959 C31.3024368,249.464639 31.7798663,249.461628 31.4069028,249.34638 C33.2211423,249.778748 35.1779727,249.625777 37.0473013,249.267453 C36.6639036,249.350151 36.4005718,249.407059 36.2345087,249.442402 C36.0682358,249.485164 35.9987929,249.495584 36.0055573,249.506155 C36.0215919,249.530706 36.3420318,249.492007 36.7861999,249.42947 C37.00888,249.403414 37.2617594,249.361446 37.5189148,249.299182 C37.7778308,249.240673 38.0472784,249.190979 38.2972221,249.121097 C38.7944104,248.971611 39.2448668,248.857643 39.4517558,248.77215 C38.2562256,249.26924 37.5175542,249.426097 36.6868845,249.523365 C36.4788184,249.545352 36.265268,249.577216 36.0346671,249.594155 C35.8030672,249.606984 35.5565553,249.621276 35.2821295,249.636688 C34.7358007,249.657186 34.0821438,249.673742 33.24381,249.634577 C32.1657813,249.618421 30.7589457,249.463681 29.2556677,249.025401 C27.7505679,248.59895 26.1636041,247.873011 24.7426582,246.903111 C23.3135123,245.947102 22.0573061,244.752141 21.1174052,243.533219 C20.1676567,242.32072 19.5182686,241.109083 19.1179473,240.173871 C18.8214962,239.483049 18.8365226,239.674614 18.7465729,239.582042 C18.6381116,239.335676 18.5477688,239.08292 18.4630572,238.828224 L18.2133295,238.062769 C18.0860529,237.54196 17.9299514,237.028187 17.8497235,236.50008 C17.9632931,236.572488 18.2577576,237.491175 17.8574922,235.897082 C17.8647718,235.692371 17.904074,235.656658 17.9774906,235.926228 C18.0665725,236.193985 18.1430706,236.775075 18.385812,237.787427 C18.4021257,237.42111 18.2656519,236.949429 18.1355806,236.251483 C17.9788923,235.561374 17.8603047,234.628389 17.7728791,233.461255 C17.5489258,232.520668 17.8310828,235.122431 17.6702506,234.618185 C17.6194001,233.551125 17.6229065,232.862267 17.5439396,231.593275 C17.4470357,230.458928 17.3770309,231.172389 17.2842057,230.314324 C17.3760151,231.182014 17.4522434,231.982848 17.5166786,232.780031 C17.5455581,233.178349 17.5744375,233.576667 17.603913,233.980197 C17.6297262,234.381775 17.6541729,234.792226 17.6984048,235.239205 C17.5595996,235.112679 17.4329255,232.915169 17.3113654,232.113511 C17.3062506,232.517615 17.3344536,233.058085 17.3801475,233.663605 C17.4050797,233.964936 17.4309939,234.28411 17.4567508,234.608847 C17.4977007,234.948462 17.5384932,235.293641 17.5793382,235.636965 C17.7764499,237.013749 18.1615259,238.303798 18.3023894,238.961938 C18.5848452,239.766351 18.6987672,239.878857 18.7952038,240.044356 C18.8972652,240.208146 19.0260861,240.411618 19.4820423,241.338273 C19.2001659,240.920668 19.1206748,240.773805 19.1265301,240.82964 C19.144038,240.880955 19.2423715,241.137077 19.4363656,241.454741 C19.7933567,242.108182 20.4275046,243.056978 20.7710118,243.530031 C20.0212683,242.646119 19.2489224,241.444234 18.6969831,240.309775 C18.4369853,239.736471 18.1851726,239.202358 18.0151076,238.73536 C17.8210365,238.275895 17.6901745,237.894935 17.5857439,237.657213 C17.2950653,236.394521 17.2117596,235.63359 17.137327,235.005783 C17.0657508,234.382134 17.048119,233.941053 17.0462967,233.217162 C16.9341059,231.939871 16.8561094,232.988316 16.7468201,231.9238 C16.7052219,231.948688 16.7534237,232.596962 16.8199431,233.373042 C16.8535533,233.761833 16.8907397,234.181899 16.9247004,234.571442 C16.9679145,234.988698 17.0083584,235.372473 17.0389322,235.658361 C16.8793856,234.924746 16.7548394,233.611123 16.6275398,232.250284 C16.5027461,230.892852 16.3918297,229.517969 16.3387885,228.804235 L16.338,228.808 L16.3325917,228.876675 C16.27585,229.560768 16.2526158,230.488251 16.5033272,233.331098 L16.529,233.62 L16.4663699,232.982872 C16.1072887,229.190133 15.8871042,224.537017 15.4651448,219.779504 L15.3885175,218.939012 C15.2734177,217.659417 15.3537066,219.814502 15.1682282,217.671865 C15.1832626,218.756541 15.2029772,219.872892 15.4424339,222.53849 C15.4473004,223.890535 14.9789193,216.400337 14.8191497,215.766569 C14.7827771,215.869547 14.8472683,216.375709 14.8687516,216.378503 C15.0199864,218.44377 14.5818025,214.694967 14.8466599,217.566508 L14.843,217.534 L14.7712749,216.861605 C14.4323275,213.497292 14.2658386,209.127453 13.9595994,205.482358 L13.892,204.718 L13.9385257,205.005982 C14.2224767,206.917385 14.2784755,209.870965 14.6084513,212.855307 L14.662,213.323 L14.6402867,212.835973 C14.4877322,209.677781 14.1320347,204.921625 13.7927951,201.396001 C13.8825283,202.422007 13.9539868,203.381331 13.97606,204.027923 C13.919428,204.126557 13.5940864,199.668656 13.7054036,202.149807 C13.620954,201.715996 13.3778301,197.936354 13.3874686,197.2721 C13.4309033,197.675497 13.4841569,198.181747 13.5407848,198.740304 C13.5033106,197.982942 13.5451341,198.066535 13.6409068,198.665074 L13.64,198.662 L13.614028,198.265674 C13.3655287,194.636245 13.1833306,193.712407 13.0625275,191.544363 L13.0498191,191.307132 C12.9406799,190.447523 13.0036402,191.546454 12.8291268,190.041087 C12.7406571,188.661227 12.952192,190.802695 12.9014689,189.468373 C12.3520917,185.142762 12.5005733,184.257275 11.9607066,180.199922 C11.8902899,178.549932 11.9095328,177.515157 11.5877526,174.106472 L11.587,174.111 L11.5938827,174.251685 C11.6817732,176.377587 11.4910171,173.90698 11.321019,171.765361 L11.311,171.652 L11.3242389,171.849131 C11.4305529,173.60094 11.2304705,172.766416 11.4397841,173.919455 L11.4669126,174.067652 C11.5211685,174.896119 11.4069896,174.543068 11.3551783,174.626708 C11.4763868,176.491849 11.5706585,176.457955 11.6911659,178.321593 L11.691,178.32 L11.6973206,178.292897 C11.7166497,178.117283 11.6435405,177.296029 11.594906,176.640738 L11.585,176.5 L11.6416542,176.967279 C11.9618681,179.738823 11.850312,181.196518 11.9890632,183.421167 L12.014623,183.7994 C12.0786514,184.518991 12.1290738,184.339916 12.1846094,184.453111 C12.2819837,185.531419 12.3162996,187.471851 12.4805038,188.132834 C12.5077473,189.12763 12.5478393,190.207027 12.4751691,190.515436 C12.9158031,194.926528 13.4174938,201.659982 13.7393884,205.261695 C13.7015546,206.677575 13.1649337,198.708584 13.1574588,198.499772 C13.0266973,196.932825 12.9240626,197.235991 12.8166801,197.194557 C12.9812426,198.381541 13.1706462,201.25258 13.3498663,203.340485 L13.348,203.334 L13.3191245,203.111826 C13.0055887,200.685019 12.5136961,194.144692 12.3114396,191.861432 L12.2921967,191.647606 C12.2227755,190.290891 12.5525924,193.205347 12.6595747,194.758675 C12.6505571,194.170826 12.6415564,193.569242 12.6325725,192.953924 C12.5153752,191.420001 12.4226273,191.439458 12.3148844,190.464813 C12.2563231,189.381217 12.3800313,190.396001 12.4356719,190.505487 C12.3658104,189.466509 12.3111501,189.335519 12.2566323,189.252047 C12.0616184,185.593913 12.1468129,185.552356 11.6778295,180.106721 L11.677,180.108 L11.6757251,180.209998 C11.6703099,180.448175 11.6603188,180.659085 11.6238874,180.681995 L11.6065914,180.679835 C11.5072523,178.830119 11.2820521,177.105892 11.2831868,175.200173 C11.2070382,176.05193 11.3192585,176.487337 11.0734052,174.533907 L11.074,174.543 L11.0974112,174.928885 C11.2000385,176.556848 11.3799881,178.741678 11.5681697,180.772793 L11.6153466,181.276958 C11.2929909,180.83156 11.1090564,174.732325 10.80432,172.65262 C10.8018269,172.188923 10.8425948,172.022585 10.9153008,172.093916 C10.5148011,167.460047 10.4210906,165.687317 10.1361202,162.882804 C10.1683625,163.976842 10.3313882,165.270692 10.4903192,167.773438 C10.4351865,167.65914 10.3660448,166.647279 10.3021213,165.923979 C10.2750346,167.091436 10.7378688,170.021648 10.3872876,168.931471 C10.7269477,170.657228 10.7430214,173.308031 11.0601212,176.31718 C10.9515092,176.214094 10.8144197,174.240144 10.6838305,172.614552 C10.6447195,172.617233 10.7116925,173.351008 10.7418371,173.822857 C10.4894933,172.085666 10.3879606,169.078485 9.96155252,164.611345 C10.0380743,167.136047 9.67670938,161.53957 9.38776525,158.455066 C9.46625543,158.558473 9.41380449,157.731909 9.49949951,157.896011 C9.62404574,159.209635 9.53573982,159.045835 9.47751279,159.080307 C9.5601476,160.101433 9.64237943,161.123662 9.72380531,162.148097 L9.723,162.144 L9.70217142,161.504636 C9.66725459,160.467192 9.63737988,159.584801 9.602705,158.558916 L9.58124531,157.923778 C9.34569463,155.225246 9.32408475,156.593297 9.17251269,154.80271 C9.4592048,156.245701 9.2427566,152.872085 9.02014599,149.979013 C8.9108403,149.663953 9.01433428,150.82817 9.08780185,151.79226 L9.087,151.79 L9.07293135,151.714792 C8.7955913,150.204379 8.81441815,146.55428 9.09527291,150.394088 L9.11,150.601 L9.11516067,150.555905 C9.1253775,150.328639 9.05699764,149.543982 9.08182307,149.421283 L9.09103359,149.405147 C8.78727278,145.7538 8.6314204,144.955322 8.4113547,141.420509 C8.40701132,140.378432 8.52667887,141.903883 8.52308896,140.861454 C8.35128287,140.626782 8.29659598,139.944929 8.02506426,137.112187 C7.98286285,137.710195 8.3567262,141.222704 8.16037598,140.73868 C7.75058743,136.43308 7.60801904,133.851328 7.19229652,129.676606 C7.35263767,130.17193 7.13409285,128.01543 7.29538053,128.516719 C7.24704575,128.017664 7.20417853,127.890326 7.15603111,127.279544 C6.96364297,126.471565 7.28428885,129.250292 7.09354823,128.449781 C7.06270213,127.240707 6.8676752,123.675002 6.66670915,124.129255 C6.53538337,122.49028 6.68721885,122.839498 6.54225561,121.104394 C6.64478723,120.844285 6.80072545,124.149119 6.90003685,123.608667 C6.69971353,120.676835 6.46536908,119.735604 6.41675059,118.077279 C6.30271731,116.746857 6.53691191,117.851042 6.56933151,117.533034 C6.57402035,119.561404 6.67937826,119.043755 6.82831197,118.812337 C6.82026644,120.213412 6.84152414,119.173122 7.02610658,121.268593 C7.04847818,121.161163 7.01605434,120.664755 7.0565505,120.678814 C6.60840226,115.968335 6.44583668,112.950266 6.03504139,111.386705 C5.96022513,108.617797 6.01306708,111.37499 5.74890122,108.308215 C5.78904689,108.321522 5.82954305,108.335581 5.8693907,108.346283 C5.58504812,105.480167 5.49954951,104.665354 5.14735822,100.347536 C5.30565034,100.140122 5.10378746,99.0757653 5.02180072,97.3222758 C4.82110187,96.413854 4.91202484,97.4311149 4.78445648,94.8579248 C4.70797608,94.0681889 4.7094825,94.66228 4.74362721,95.2777394 L4.75371454,95.4450982 C4.60299208,94.5572957 4.62280459,93.3447308 4.41727151,91.7531707 L4.418,91.758 L4.43853854,91.8410544 C4.49595241,92.1185779 4.55854817,92.7132738 4.61594882,92.9492223 L4.63721028,93.0195666 C4.35316403,90.4845704 4.21790668,86.89557 3.87503213,85.007513 C3.89516689,83.5733492 3.50965393,78.67261 3.24374619,77.6381174 C3.12399054,76.1026417 3.16585284,75.7399671 3.00570096,75.1722632 C3.00307232,73.7148564 2.68656997,70.0145455 2.41401714,67.809108 C2.34295122,67.9557161 2.60390546,69.4674434 2.57101757,70.2486986 C2.49637189,70.6531975 2.36661392,67.3690986 2.29242369,67.7706399 C2.18420423,65.9982703 2.29766571,67.0992743 2.40491143,67.2112334 C2.371528,66.8012896 2.33849507,66.3920974 2.30651363,65.9851602 C2.13161585,64.1386493 2.2669737,66.5416632 2.14517749,65.9322817 C1.99019952,63.6445658 1.88487781,62.0062763 1.66989298,60.9983673 C1.59047058,59.732333 1.62803906,59.7184749 1.74113108,60.425253 C1.66550427,59.3798126 1.54470896,58.813888 1.59434032,58.5839372 C1.46857211,57.3660516 1.35421322,56.9142556 1.24415786,56.6782411 C1.12739922,55.155094 1.36686453,56.5459857 1.4051435,56.7303679 C1.32986719,55.6856791 1.20826593,55.1219606 1.25749432,54.8931127 C1.16634838,53.9756991 1.22589373,55.1164858 1.13635633,54.8516871 C1.11699649,54.5505036 1.09188436,54.150429 1.06542274,53.7454932 C1.03375807,53.3667756 1.02199277,52.8497529 1.00983209,52.491223 C0.99534166,52.1493357 1.0098561,51.899157 1.02392268,51.8093257 C1.0183803,51.703016 1.0135033,51.5863301 1.01085109,51.4567109 C1.00761591,51.2294503 0.991517381,50.9706698 1.00585562,50.7004416 C1.02280477,50.429911 1.04117275,50.1486529 1.05827934,49.8725585 C1.09766183,49.3216194 1.20492965,48.8021651 1.26715437,48.4556176 C1.34865441,48.1110627 1.42215503,47.9441027 1.43472606,48.0910585 L1.434,48.089 L1.47994906,47.8845612 C1.63977616,47.1642012 1.73484248,46.8388703 1.80261709,46.5872978 L1.82045257,46.5202744 C1.85943421,46.3776465 1.89492965,46.2531157 1.9503114,46.0827086 C2.01301793,45.9162065 2.10153355,45.7047267 2.23831987,45.3902111 C2.33033475,45.0682054 2.44336056,44.7656846 2.54855556,44.5034185 C2.64788025,44.2383992 2.73269787,44.0130875 2.79107664,43.8550091 C2.92143223,43.5444073 2.90509766,43.477903 2.63300371,43.8838809 L2.636,43.878 L2.73186972,43.693433 C3.04703775,43.0847457 3.2221939,42.7314586 3.37257721,42.4537998 L3.41706426,42.3725912 C3.5904032,42.0538419 3.69761307,41.7860608 4.02651331,41.3169906 C4.1576112,41.1378137 4.29605073,40.9488079 4.43720612,40.7557903 C4.58889321,40.571588 4.7448031,40.3826712 4.89955654,40.1952088 C5.20144065,39.8137727 5.54448818,39.475367 5.83388199,39.1674709 C6.43729044,38.5749708 6.91158214,38.1836007 6.92068004,38.2562247 C7.5542479,37.7146315 7.35906384,37.7937513 7.43426636,37.6717515 C7.81411205,37.333573 8.12606314,37.1350333 8.3597228,36.9574453 C8.59513493,36.7836154 8.78302795,36.6731226 8.9629833,36.5672461 C9.32073855,36.3528381 9.64337878,36.1575498 10.3964765,35.740489 C10.5062899,35.6828766 10.5915894,35.6376104 10.6655867,35.5976144 C10.4216409,35.7708482 10.3857237,35.8708686 10.6746547,35.7764013 C11.095902,35.6961852 12.1053366,35.1541021 14.2861608,34.600196 C14.9427094,34.4338203 15.0110146,34.3877032 15.0202005,34.3525413 L15.0236176,34.3286053 C15.0369682,34.2903521 15.1469559,34.2134419 16.3691539,34.0351745 C16.1928947,34.1155354 16.8887459,34.0793039 17.6195041,34.0707186 C17.9847342,34.0651229 18.3603554,34.0601721 18.641896,34.0560833 C18.9244357,34.0561039 19.1133671,34.0402948 19.105585,34 Z M26.2198687,248.07233 C26.4096007,248.124994 26.6921252,248.252537 27.0231094,248.403292 C27.3623858,248.536464 27.7384603,248.724809 28.1189155,248.875428 C28.8732904,249.198009 29.6165358,249.451645 29.8263414,249.559026 C29.5301834,249.508285 29.1527807,249.395594 28.5917955,249.155088 C28.3132882,249.030252 27.9740078,248.910808 27.5890439,248.721108 C27.3935969,248.63267 27.1815776,248.538214 26.9523341,248.434385 C26.7270103,248.323242 26.4833574,248.202323 26.2198687,248.07233 Z M22.3224042,245.470361 C23.2062134,246.281778 24.3543868,247.15049 25.4987013,247.820595 C26.6400019,248.492101 27.7493075,249.000966 28.4597476,249.284504 C27.9078731,249.145909 26.4761986,248.565553 25.1723151,247.746397 C23.8545138,246.946526 22.7193545,245.887831 22.3224042,245.470361 Z M21.9398768,244.973068 C21.2878963,244.184666 21.8874568,244.754957 22.1437581,244.902935 L22.1437581,244.902935 L22.6020198,245.36326 L23.0866569,245.797589 C23.4043386,246.094539 23.754326,246.352669 24.0947174,246.621668 C24.0965919,246.566807 23.6508956,246.245219 23.2164708,245.851588 C22.9991082,245.653469 22.7679333,245.4572 22.5898911,245.276479 C22.4145115,245.093604 22.2757858,244.944008 22.2198585,244.867535 C21.9358798,244.562228 22.0215397,244.639511 22.3021105,244.919866 C22.5750451,245.207434 23.069719,245.669122 23.6087419,246.127566 C23.8858155,246.345493 24.1589654,246.584461 24.4332322,246.782647 C24.7067456,246.981182 24.961278,247.166586 25.1713213,247.31961 C25.6049742,247.605622 25.8504184,247.783357 25.6849964,247.725791 C23.6726488,246.564528 22.3610295,245.240188 21.9398768,244.973068 Z M51.6476896,240.669787 L51.6504578,240.680691 C49.9924527,241.696279 47.3971892,243.634677 46.0922684,244.455821 C46.7482494,243.943868 51.74284,240.444636 51.6504578,240.680691 Z M57.3912801,237.782351 C54.823308,239.484775 52.0755249,241.383396 48.7857397,243.557021 C49.6819533,242.842725 52.733622,240.848497 53.844296,240.125947 C54.4860623,239.669503 53.979045,239.96028 53.46645,240.293751 L53.3208301,240.389582 C54.858727,239.277963 55.6758508,238.857594 57.3912801,237.782351 Z M64.9718827,232.617326 C64.0758681,233.337935 61.0220873,235.341381 59.9415663,236.171609 C60.7396339,235.482837 63.3902662,233.641303 64.9718827,232.617326 Z M15.406,218.049 L15.4157637,218.134652 C15.7671564,221.387444 16.0587026,226.854505 16.4690322,229.443535 L16.468,229.435 L16.4572674,229.272273 C16.4072729,228.447926 16.5537946,228.995984 16.5367213,228.399222 L16.532,228.288 L16.5507693,228.538473 C16.671891,230.163038 16.7776382,230.761759 16.8818528,231.295312 L16.898297,231.379155 C16.7707945,229.079542 16.6943592,230.164778 16.5723617,228.288109 C16.7071077,229.267548 16.8203902,228.837712 16.9706391,230.806441 C16.9302686,230.853634 16.8366673,229.891611 16.8904003,230.777972 C16.9980133,230.876948 17.16974,233.098289 17.1768905,233.857214 C17.3994026,234.336359 17.1146117,230.894869 17.0304424,230.755678 C17.0816593,230.338312 16.7297261,228.100344 16.8541348,228.38091 C16.9325424,228.224473 17.0415061,230.167615 17.1228695,230.261445 L17.122,230.26 L17.0977988,230.015798 C16.905363,228.084328 17.1150719,228.972383 16.9756708,227.41943 L16.9572188,227.221022 C16.8693159,227.05612 16.9235718,227.884587 16.8451341,227.779326 C16.6471618,225.999395 16.7053806,224.70395 16.5499407,224.101106 L16.549,224.102 L16.5534388,224.156178 C16.5819425,224.65874 16.5631569,225.783431 16.4860067,224.79746 L16.4768452,224.674171 C16.4658068,223.605934 16.3740289,222.303567 16.1817042,220.994097 C16.2454726,222.49803 16.5415881,226.038559 16.8045854,227.767121 C16.7593474,227.894365 16.8175824,228.753004 16.7829492,228.952169 L16.782,228.95 L16.7718828,228.668004 C16.7064718,227.294889 16.4550139,225.300173 16.2990725,224.219389 L16.267221,224.002341 C16.6683147,228.234214 16.0913648,224.081599 16.4823686,227.658407 C16.3187173,226.833368 16.3964289,228.961287 16.2805363,227.591469 C16.2444077,225.123883 15.6562078,220.238961 15.3715149,217.739954 L15.406,218.049 Z M69.9885043,227.695176 L68.3568938,228.822954 C68.5505353,228.732658 68.3304044,228.931389 68.17304,229.119154 C69.1515392,228.422207 69.4879817,228.107013 69.9885043,227.695176 L69.9885043,227.695176 Z M71.1902102,226.992974 C71.3239791,226.96903 75.3648792,224.22913 74.7150553,224.517507 C74.411055,224.619001 73.9395542,225.108813 73.1940961,225.518651 L73.1940961,225.518651 L73.0705167,225.639817 C72.6364456,226.035893 71.9835863,226.365963 71.1902102,226.992974 Z M15.3014474,221.761972 C15.3175668,221.770945 15.3542452,222.061349 15.3964112,222.477311 C15.4396819,222.893674 15.4891937,223.435245 15.5301757,223.948756 C15.6110348,224.975377 15.6605386,225.883897 15.560977,225.431494 C15.3801236,223.547292 15.4206036,223.210015 15.3014474,221.761972 Z M81.6179683,221.123268 C80.200466,222.211825 78.4262702,223.300679 80.1388054,222.331101 C77.8396978,223.817863 78.3749673,223.381278 77.0988247,224.373881 C77.0933635,224.328838 77.0821752,224.289204 77.0740008,224.248167 C78.7632901,223.08168 79.8324543,222.272291 81.6179683,221.123268 Z M15.9943124,219.142431 C15.8364004,218.876573 15.7214774,218.352749 15.7204885,219.648959 C15.8256405,219.585285 15.9908737,223.415614 16.0971297,223.35234 C15.8673273,220.306143 16.4279563,225.403408 16.2402544,222.209469 C16.0183988,221.891072 16.1012232,220.30414 15.9943124,219.142431 Z M84.2249059,219.806999 C85.4684362,219.04095 80.9055974,222.121553 79.6928801,222.971183 C79.7325418,222.853905 81.3571608,221.794367 81.1816736,221.805539 C82.0864861,221.225419 82.4891899,221.039007 84.2249059,219.806999 Z M88.6810486,216.265598 C88.3241715,216.519304 88.2302313,216.565544 88.1877886,216.572048 L88.1668112,216.572524 C87.4882384,217.053808 87.772284,216.962856 87.6971118,217.086587 C84.3664484,219.245369 84.2749273,219.287027 81.1651198,221.720084 C80.0190327,222.459107 81.7838233,221.075399 83.147281,220.167545 C82.9165164,220.282211 82.6891171,220.396227 82.1204146,220.776988 C84.4127349,219.144226 87.6301707,216.719668 88.6810486,216.265598 Z M86.228675,218.334635 C85.5174126,218.963811 84.2474926,219.634158 82.6957286,220.763209 C82.0704855,221.10347 85.3284219,218.951982 83.163519,220.25095 C84.5710333,219.30979 84.8211607,219.275794 86.228675,218.334635 Z M90.3678896,216.058977 C90.3475175,216.164536 88.0131025,217.650336 89.3424794,216.669573 L89.335,216.674 L89.1038315,216.833654 C87.902785,217.660278 86.6008246,218.567412 85.9264865,218.982315 L85.800203,219.058563 C87.1585834,217.996592 89.7863558,216.351453 90.3678896,216.058977 Z M88.4477649,215.631236 C86.6984559,216.819388 85.7494263,217.433962 84.4197657,218.453882 C86.1660609,217.267135 87.114337,216.652912 88.4477649,215.631236 Z M15.5410984,218.394768 C15.7558028,217.58638 14.4986566,205.257202 14.8107136,209.797796 C14.6699043,208.809288 15.2441761,213.385003 15.1562099,214.089453 C15.2848628,215.533847 15.4046743,216.410442 15.5410984,218.394768 Z M90.9097259,213.602901 C88.5184333,215.235912 87.0003979,216.186279 84.3319207,218.037306 C84.3429979,218.092536 84.3529711,218.147365 84.3643462,218.205201 C86.481871,216.787697 86.7340636,216.480677 88.3879801,215.339752 C88.3937999,215.383707 88.8076079,215.106558 88.907347,215.07652 C88.4009185,215.473725 87.9062475,215.862703 87.4211261,216.242651 L87.424,216.24 L87.6649087,216.071826 C89.4440152,214.821031 89.2103525,214.890367 90.7433612,213.94099 L90.9536484,213.811188 C91.22536,213.471274 89.9800823,214.3338 90.9097259,213.602901 Z M92.261623,214.039768 C91.8002191,214.606314 89.6611249,216.050347 87.2445292,217.684177 C87.2741563,217.596241 87.3067972,217.506899 86.712106,217.909573 C87.8341053,216.949885 89.9582595,215.652825 92.261623,214.039768 Z M87.7244419,217.212404 C87.1021255,217.789929 91.9336317,214.463576 91.2562632,214.779438 C89.4412618,215.989988 88.8349257,216.55457 87.7244419,217.212404 Z M91.7018376,214.141336 C92.1350944,213.898617 92.3904656,213.795381 92.249374,214.003766 C91.3615318,214.602528 91.0830022,214.722942 91.203547,214.531437 C90.796946,214.819405 90.7109327,214.917982 90.2048697,215.265944 C88.9328864,216.120265 91.0250297,214.598922 91.7018376,214.141336 Z M15.2548744,209.94573 C15.210684,209.996534 15.1736629,210.096154 15.2723848,211.139976 C15.2204686,211.227325 15.1055363,210.874625 15.1608961,211.703492 C15.2763604,211.459314 15.4516397,215.039718 15.5768245,215.42424 C15.4602115,212.923723 15.3744467,212.039488 15.2548744,209.94573 Z M93.9912016,211.766096 C91.8515827,213.228676 89.9940572,214.52311 89.4744037,215.01982 C91.0760589,213.715674 93.2803528,212.568835 93.9912016,211.766096 Z M96.0032201,210.33282 C96.3084667,209.911383 91.9672194,212.925853 91.4490728,213.42186 C93.4136584,212.022598 93.8464606,211.731101 96.0032201,210.33282 Z M99.4201587,209.644766 C98.4245116,210.322959 97.7157147,210.767059 96.4046505,211.812509 C97.2928339,211.079072 97.6252172,210.744185 95.8504467,211.908342 C97.6460035,210.596339 98.2116475,210.367989 99.4201587,209.644766 Z M99.0550762,208.373481 C97.4586333,209.480285 97.4496572,209.390218 95.0016277,211.070733 C95.0996686,211.07443 94.851382,211.348516 95.543638,210.887535 C95.5866138,210.721998 99.0124509,208.53977 99.0550762,208.373481 Z M106.49395,204.827868 C105.379507,205.728782 103.996723,206.432413 102.935426,207.131079 C102.341199,207.547505 102.523577,207.502015 102.454136,207.606609 C101.004529,208.563688 100.412752,208.849949 98.8882424,209.866578 C99.1134097,209.657517 102.312939,207.492935 99.8829146,209.08818 C99.9939487,208.958749 100.87777,208.371007 100.872313,208.312236 C101.763571,207.710969 102.038333,207.592307 101.916683,207.783412 C103.249452,206.882513 103.561784,206.587151 103.393535,206.578484 C104.426539,205.935073 103.151656,207.085399 106.49395,204.827868 Z M109.289143,202.08772 C107.705493,203.202285 107.298162,203.355623 106.260476,204.173507 C106.272545,204.075457 105.856178,204.351053 105.243074,204.82637 C105.634971,204.403875 105.651235,204.44662 104.703727,205.00741 L104.706,205.005 L104.796983,204.94125 C105.15041,204.691647 105.615162,204.373955 105.693815,204.287206 L105.70532,204.269497 C103.598192,205.805689 102.747803,206.507867 100.67161,207.831062 C100.540705,208.016554 101.372561,207.443808 101.706329,207.262547 C101.401388,207.476119 101.113881,207.677902 101.211658,207.651524 C101.608329,207.388772 102.207313,206.965794 102.232127,206.995402 C104.862366,205.089914 107.064319,203.723633 108.793719,202.477048 C108.912102,202.431911 108.823249,202.550211 109.31419,202.214217 L109.31419,202.214217 Z M118.646555,196.709382 C120.10144,195.736121 120.743782,195.491309 118.68843,196.918672 C118.67474,196.848174 118.660597,196.780632 118.646555,196.709382 Z M123.551963,192.978961 C123.772934,192.750555 127.349174,190.28498 125.540039,191.419588 C125.383007,191.582491 123.365034,193.081684 123.022204,193.2022 C123.012755,193.128825 124.415229,192.215874 124.518467,192.07531 L124.517,192.076 L124.063018,192.409337 C121.990626,193.921869 120.634233,194.8117 118.878839,196.12597 L118.496169,196.414477 C121.914616,193.954767 123.306417,193.392691 125.569048,191.589991 C124.623242,192.195742 123.908778,192.876631 123.551963,192.978961 Z M12.6580576,189.277981 C12.7813544,189.461292 12.9534591,192.737735 13.0684229,192.396923 C13.2849516,194.906913 13.0040714,192.274955 12.9571615,192.955631 L12.957,192.952 L12.807346,191.116242 L12.807346,191.116242 Z M129.547253,188.516957 C128.374741,189.238488 124.310086,192.108424 125.014242,191.686733 C126.822719,190.35203 128.393113,189.403785 129.547253,188.516957 Z M129.602322,188.764886 C128.985219,189.184416 128.402741,189.575905 128.573019,189.378458 C127.128639,190.445467 126.259173,190.90215 126.075567,191.242159 C127.116778,190.496752 129.402467,189.009067 129.602322,188.764886 Z M130.517173,187.610797 C128.501167,189.030124 126.719786,190.178982 128.246614,189.043453 L128.46,188.885 L128.285732,189.008949 C127.187664,189.7818 127.368121,189.552787 126.568486,190.092842 L126.433754,190.184763 C126.48636,190.230693 126.348708,190.39188 125.963429,190.698734 C128.531273,188.869926 126.520173,190.454677 127.503562,189.781987 C128.323269,189.086795 129.94979,188.178263 130.517173,187.610797 Z M131.583967,187.209426 C130.702437,187.842854 128.60853,189.200846 128.56529,189.336309 C129.246403,188.914382 130.103896,188.355303 130.60898,188.071279 C130.32801,188.265438 130.042169,188.500301 130.620477,188.111672 C131.192403,187.646407 131.180556,187.605263 130.585038,187.945182 C130.972842,187.667348 131.579238,187.2583 131.583967,187.209426 Z M133.087521,185.999994 L133.064368,185.99934 C132.19563,186.640529 130.357674,187.860868 130.565408,187.863743 C132.015015,186.874824 133.324705,185.969451 133.064368,185.99934 Z M138.674,182.469 L138.367692,182.683712 C134.805675,185.17188 133.403303,186.033255 132.58782,186.470459 C133.191279,186.204618 131.812497,187.121163 131.611677,187.333767 C133.205936,186.369818 137.680844,183.256418 138.678333,182.466428 L138.674,182.469 Z M133.730949,183.634161 C133.484094,183.805091 133.254324,183.963479 133.037519,184.11033 L133.037519,184.11033 L129.929,186.259 L130.164959,186.105331 C131.420056,185.285856 132.900764,184.326059 133.601499,183.745139 Z M140.156824,181.258148 C138.321093,182.465553 134.644739,184.816759 134.099893,185.42862 C136.713665,183.605847 136.286279,183.942402 136.650505,183.814654 C138.397465,182.617531 139.012635,182.095498 140.156824,181.258148 Z M138.869527,182.993982 C138.059696,183.718424 137.635246,184.074176 138.938136,183.327182 C136.375129,185.052003 138.052135,183.641414 136.354168,184.771675 C137.091895,184.153979 137.573784,183.860271 138.869527,182.993982 Z M146.780514,177.02837 C143.69506,179.202863 146.086412,177.357525 143.715251,178.949122 C145.298008,177.826738 145.781469,177.53175 146.230021,177.169769 C145.619857,177.580574 145.910025,177.337287 146.213808,177.085822 C145.327841,177.652688 143.505853,178.952513 143.66395,178.699436 C142.662357,179.437349 141.64107,180.188106 140.662642,180.908812 C141.937132,180.091228 142.237952,179.799966 142.689717,179.560938 C141.182481,180.628889 143.189932,179.317618 142.724805,179.726676 C141.847322,180.33534 141.152402,180.798478 140.698081,181.075302 C141.782443,180.512921 139.958379,181.662726 140.244319,181.673972 C142.73524,179.89659 142.744167,180.067207 144.805039,178.628536 C145.119206,178.220326 142.278068,180.287297 141.740933,180.547834 C142.307892,179.91651 145.777842,177.909538 146.293573,177.459496 C145.391101,178.057851 146.502805,177.264932 146.780514,177.02837 Z M141.354269,178.67013 C142.514663,177.759338 140.389604,179.180356 138.802553,180.283695 C138.116754,180.923765 140.275864,179.573802 140.855831,179.060864 C139.953675,179.687438 139.668952,179.830272 139.824528,179.62687 L139.824528,179.62687 L140.830784,178.934367 C140.952181,178.887824 140.864081,179.005772 141.354269,178.67013 Z M152.307738,173.079283 C150.691055,174.152516 150.397121,174.436907 149.800698,174.900784 C150.157115,174.549739 147.903387,176.011539 147.761321,176.210472 C149.696617,174.992327 144.450172,178.412426 146.25738,177.293358 C146.649478,177.034568 147.253736,176.609131 147.275886,176.640896 C147.394269,176.595759 147.308482,176.710798 147.79641,176.37621 C147.574672,176.329535 149.436044,175.214493 150.312686,174.596155 C150.073079,174.629189 152.186979,173.260959 152.307738,173.079283 Z M150.271024,174.386813 C148.85278,175.305288 147.464937,176.200435 146.69302,176.612546 C146.201213,177.163071 149.384853,175.07914 150.271024,174.386813 Z M147.850322,176.625593 C147.519476,177.08459 155.00976,171.71133 149.877397,175.277719 C148.8318,175.915362 148.89627,175.988702 147.850322,176.625593 Z M158.433691,169.241742 C158.481465,169.011742 156.161021,170.716035 157.371613,169.686668 C155.492631,171.161312 152.954563,172.73923 151.322359,173.901143 C151.914387,173.500626 151.885162,173.587459 151.852469,173.678656 C152.715952,173.065539 153.163424,172.846814 153.366049,172.636113 C152.856114,172.986455 152.720452,172.998471 153.349836,172.552166 C154.438874,171.942766 156.754998,170.404286 158.433691,169.241742 Z M164.516475,165.195561 C160.205434,168.141041 155.262375,171.42882 152.411796,173.579806 C158.245914,169.58461 163.019282,166.302753 164.516475,165.195561 Z M157.741,169.097 L157.468719,169.279476 C155.431689,170.640886 152.209837,172.794033 152.292279,172.994984 C155.87531,170.355123 152.945996,172.766102 157.867388,169.298091 L157.736,169.39 L157.637636,169.458727 C155.435626,170.986408 153.837246,171.755392 157.614774,169.184 L157.741,169.097 Z M164.970237,164.596891 C164.738598,164.519145 163.220281,165.453172 161.358301,166.655431 L161.366,166.65 L161.43009,166.607703 C162.493315,165.898584 164.986703,164.142655 163.474322,165.107479 L163.362239,165.179254 C162.23081,166.09118 160.67592,166.96448 159.330823,168.004408 C160.28869,167.511079 159.463775,168.114446 158.885544,168.644877 C161.417191,166.939096 162.036203,166.51776 162.898486,165.736829 C162.6805,166.069992 163.638485,165.480524 164.970237,164.596891 Z M167.066333,163.581947 C166.391443,164.046726 165.718812,164.510452 165.046585,164.973074 C165.051651,165.01738 165.063551,165.05667 165.071281,165.098819 C165.827177,164.56973 166.938866,163.829892 167.08365,163.666295 C166.689292,163.926139 166.086891,164.351625 166.060973,164.321617 C166.453298,164.041675 167.059694,163.632627 167.066333,163.581947 Z M167.839,161.763 L167.735087,161.837417 C166.535722,162.689164 163.90392,164.39298 164.326079,164.27776 C165.974419,163.057993 166.856203,162.586416 167.843194,161.760143 L167.839,161.763 Z M173.592486,158.897104 C172.156283,159.845915 172.183486,159.646554 170.521053,160.773149 L170.524,160.771 L170.606659,160.712671 C171.209954,160.283519 170.612062,160.636808 170.072397,160.990023 L170.00244,161.036029 C170.01576,161.103939 170.029625,161.178916 170.043348,161.245723 C170.988804,160.639221 171.703619,159.959083 172.063096,159.854596 C170.529021,161.030231 169.540408,161.664178 167.024671,163.372605 C167.226781,163.377188 171.561266,160.391494 172.087039,159.980693 C170.404327,161.022491 173.600448,159.036143 173.592486,158.897104 Z M171.957882,159.355527 C170.422453,160.447606 170.457317,160.305983 168.921485,161.399165 C168.887148,161.561589 171.908862,159.537609 171.957882,159.355527 Z M7.2156002,137.367908 C7.66366182,141.921541 8.74757489,155.44363 9.12088101,161.260071 C8.57556664,155.40926 7.90530521,145.782398 7.2156002,137.367908 Z M176.552185,156.476532 C174.855706,157.650114 173.898781,158.399227 173.011127,158.868051 C173.604328,158.452345 174.445208,157.889117 174.516224,157.783711 C173.565374,158.449463 173.392058,158.50466 172.488746,159.132688 C173.218839,158.766618 171.156253,160.292105 172.542659,159.382071 C173.249647,158.820883 175.998856,157.046594 176.552185,156.476532 Z M181.199243,153.848374 C179.931552,154.688409 182.114411,153.090366 181.659982,153.292204 C180.967954,153.77138 180.549292,154.036151 180.137515,154.294051 C180.004,154.479846 180.835855,153.9071 181.17304,153.723331 C179.961108,154.576713 180.061226,154.401917 178.643565,155.418033 C178.753523,155.447286 180.156986,154.709568 181.199243,153.848374 Z M181.632622,153.168616 C182.567593,152.433402 181.320808,153.296631 181.591363,152.958171 C181.085949,153.306404 180.581691,153.653183 180.075873,154.002519 C179.754661,154.383817 181.144744,153.422654 181.632622,153.168616 Z M193.880102,145.295195 C193.275616,145.702437 192.465733,146.247551 191.820297,146.683039 C191.190474,147.118567 190.736471,147.462958 190.840454,147.493167 C191.484102,147.042042 192.083383,146.62167 192.602272,146.257088 C192.858133,146.070063 193.093843,145.898839 193.306038,145.744071 C193.516428,145.5874 193.694209,145.453255 193.880102,145.295195 Z M8.26037127,142.485929 C8.16687546,140.372584 8.77979467,145.534007 8.50066773,144.956496 C8.41798487,143.982883 8.32959095,142.620273 8.26037127,142.485929 Z M7.64097334,136.321209 C7.74902611,136.422849 7.88761425,138.397172 8.02012782,140.022932 C7.9124264,139.922044 7.77358845,137.943262 7.64097334,136.321209 Z M201.503893,132.488625 C201.613795,131.599291 201.706969,131.062722 201.671532,132.180044 C201.573856,133.16618 201.504041,133.515272 201.421391,133.789809 C201.336883,134.064295 201.289811,134.275613 201.115378,134.968026 C201.131806,134.612655 201.375005,133.378555 201.503893,132.488625 Z M200.838545,124.368989 C201.221602,125.402362 201.474857,126.680046 201.567959,127.748556 C201.644937,128.821821 201.577283,129.675946 201.51137,129.909754 C201.508503,127.203375 200.65558,124.191473 201.245201,125.762906 C201.141427,125.287755 200.973913,124.831273 200.838545,124.368989 Z M6.86929491,124.195841 C7.00957969,125.570756 7.15939001,127.528709 7.2856263,127.915486 C7.20293902,126.896215 7.12181115,125.874386 7.03928131,124.849551 C6.98615237,124.861515 6.92782017,124.531835 6.86929491,124.195841 Z M198.693279,121.728475 C199.089006,122.204163 199.675588,123.35699 200.019917,124.405633 C200.191178,124.929003 200.325485,125.416488 200.408303,125.760465 C200.453294,125.964645 200.482834,126.108297 200.501092,126.188567 C200.269409,125.331849 200.374678,125.847483 200.5006,126.491686 C200.621546,127.154676 200.701416,127.959393 200.578738,127.54977 C200.229266,125.887672 199.886813,123.92857 198.693279,121.728475 Z M195.527998,116.583231 C196.515677,117.377443 197.22305,118.180341 197.972967,119.140974 C198.697415,120.12169 199.455259,121.281782 200.27426,123.006395 C200.171232,122.897843 200.273817,123.144777 200.455123,123.66805 C200.382043,123.511709 200.238794,123.201333 200.06287,122.821054 L200.06287,122.821054 L199.775819,122.206966 C199.664031,121.997254 199.548378,121.779275 199.433729,121.565405 C198.972571,120.708369 198.444136,119.944854 198.309762,119.853628 C198.141645,119.568546 197.987882,119.316136 197.818797,119.080004 C197.642879,118.84888 197.463041,118.62507 197.262166,118.381764 C196.849713,117.90562 196.344066,117.355699 195.527998,116.583231 Z M186.957787,111.563417 C187.883943,112.010151 188.511349,112.337805 189.143377,112.659648 C189.461904,112.817113 189.778924,112.975279 190.134862,113.151944 C190.505014,113.325658 190.913331,113.518221 191.398029,113.74663 C192.248003,114.20684 191.908857,114.037602 191.407295,113.795322 L191.267251,113.727853 C190.728065,113.479036 190.182493,113.259728 190.682185,113.565349 C189.902162,113.187899 189.118824,112.809246 188.990805,112.798336 C188.322439,112.390908 187.334434,111.853069 186.957787,111.563417 Z M186.547803,111.9301 C186.031591,111.779491 184.929113,110.939852 186.185863,111.49726 C186.728804,111.785508 186.684641,111.836249 187.784152,112.34967 C187.321678,112.206091 186.77182,111.871647 186.120405,111.551502 C185.989064,111.566844 186.732827,111.93737 186.547803,111.9301 Z M176.13507,106.732198 L176.168115,106.735633 C178.535907,107.874304 180.18864,108.72152 182.205858,109.718548 C181.757875,109.656991 178.41522,107.867304 176.599178,107.116187 C178.122853,107.732443 175.729326,106.664308 176.168115,106.735633 Z M175.506458,107.206856 C175.548962,107.425871 178.179683,108.603967 180.427066,109.652437 C180.502389,109.473646 175.838232,107.463931 175.506458,107.206856 Z M173.967463,106.296579 C173.905578,106.407794 176.412831,107.561107 177.750196,108.239638 C178.192685,108.236449 178.151311,108.200837 178.593382,108.251833 C176.922954,107.4669 177.394744,107.88654 174.616661,106.477013 C173.945631,106.332381 177.985974,108.013478 177.257804,107.917453 C175.546617,107.127734 175.273267,106.921196 173.967463,106.296579 Z M171.795551,104.552576 C171.810328,104.54298 172.078693,104.657893 172.459293,104.830408 C172.840646,105.002571 173.333831,105.233438 173.797436,105.457932 C174.724345,105.904316 175.53419,106.320053 175.094367,106.177833 C173.400223,105.416681 173.199366,105.281346 171.795551,104.552576 Z M168.300864,103.754132 C168.30364,103.905655 171.297147,105.269632 172.635599,105.962297 C172.653505,105.894468 172.858332,105.934386 173.321577,106.117345 C171.209949,105.184927 171.286543,105.19771 168.300864,103.754132 Z M169.470052,104.227411 C170.818874,104.855761 170.619569,104.857191 172.212403,105.585884 C172.106242,105.448711 173.020645,105.887066 173.414707,106.031824 C171.700505,105.204163 170.326536,104.571068 169.470052,104.227411 Z M5.22824559,100.379364 C5.26218629,101.807528 5.54791165,103.915316 5.70438853,105.309218 C5.55185855,103.276582 5.43658766,100.991397 5.22824559,100.379364 Z M3.69806012,87.8924672 C3.90334961,90.0251839 3.83426415,90.4562942 3.99826891,91.5705184 C4.10228195,90.8962216 3.87744108,89.490935 3.82039425,87.9343887 C3.91568882,88.0401327 4.04919984,90.5393269 4.15897107,91.6238746 C3.97657634,90.3663022 4.10269656,91.8724157 4.04871294,92.1866919 C4.31064297,95.5512916 4.68345883,98.7782928 4.89628354,102.604972 C4.82317864,102.191506 4.74065621,101.184875 4.67577059,101.340424 C4.6505891,100.72531 4.71648007,100.736753 4.60599189,99.5290035 C4.42391583,97.7030201 4.66248219,100.929331 4.49548395,100.087362 C4.4030345,99.3617022 4.30708165,98.4244595 4.20499326,97.0050802 C4.29230847,97.4293224 4.38706307,98.3424154 4.48516469,99.486381 C4.50329247,98.9874672 4.44628643,97.9726274 4.31615313,96.4500791 C4.21863643,95.3662366 4.13340497,95.0288724 4.05521483,95.1677331 C3.91825327,92.6179846 3.66135177,89.2327442 3.69806012,87.8924672 Z M5.24526925,96.2041655 C5.0142472,94.028776 5.13077591,96.5979632 5.19173464,97.977841 C5.41457874,99.5357068 5.20653337,96.7191151 5.24526925,96.2041655 Z M146.138353,93.1325044 C146.104664,93.2982862 148.398733,94.4311346 149.889423,95.1040542 C149.933947,95.067736 149.974809,95.0294653 150.014567,94.9907943 C147.006563,93.5347491 148.813034,94.5701156 146.138353,93.1325044 Z M4.28624302,85.74182 C4.53438493,87.916547 4.40703351,87.6611455 4.41260647,88.7648747 C4.5376661,89.8238674 4.92775615,94.7993388 4.87889022,93.0972054 C4.85097436,93.0589785 4.82349519,92.9921805 4.78914268,92.4719643 C4.72883079,91.4239578 4.98379268,92.5825144 4.89177123,91.3150346 C4.72019673,89.7058092 4.5725077,87.0422581 4.28624302,85.74182 Z M136.069278,88.4372722 C135.194355,88.022601 134.151471,87.5133021 134.342568,87.6968853 C136.409743,88.6893802 137.11556,88.9184493 138.347237,89.4431163 C138.666745,89.7132322 137.184673,88.9722386 137.110361,89.0233623 C139.202012,89.9522843 141.363333,91.2174946 141.673305,91.0363493 C139.922214,90.159089 140.440316,90.5580479 139.36293,90.0593472 C139.610758,90.0773845 139.396199,89.9084023 138.968084,89.6532424 C136.620761,88.4711058 137.123374,88.8919286 136.069278,88.4372722 Z M131.772168,85.4886104 C129.181965,84.2411018 132.423655,85.7382616 131.900926,85.3774712 C133.969875,86.3733127 133.443334,86.1652832 135.226262,86.9711527 C135.395266,87.142352 134.761668,86.8642479 134.543858,86.81824 C134.524995,86.7464879 131.635681,85.2437201 131.772168,85.4886104 Z M129.744458,84.256804 C130.230238,84.3913715 132.868327,85.7373953 134.213052,86.3554526 C132.852484,85.8133959 131.695543,85.2104748 129.744458,84.256804 Z M3.04004726,79.3230444 C3.182502,80.4500383 3.24303983,81.580365 3.48031638,84.2426729 C3.3361049,83.1119208 3.06375449,80.5080219 3.04004726,79.3230444 Z M3.95025544,82.0469349 C3.87074247,82.8993459 3.72334152,79.3059424 3.6413226,80.1549466 C3.70709045,80.9707246 3.7735068,81.7898606 3.83952018,82.6100996 C3.89098095,82.525708 4.0056153,82.875802 3.95025544,82.0469349 Z M110.479238,75.580942 C109.912519,75.1966908 108.66372,74.4168813 111.777028,75.9435637 C111.88161,76.0632889 111.198654,75.740429 111.128133,75.7622528 C111.140207,75.8646155 112.563961,76.3946661 113.899471,77.0911308 C115.085962,77.6336372 111.983286,75.9903698 115.13803,77.511503 C115.511386,77.5547009 113.3085,76.5195899 114.742634,77.105207 C116.951994,78.324897 117.812188,78.4911892 119.271915,79.1472578 C118.903359,79.0103199 117.866689,78.6332955 119.728402,79.4958539 C118.874136,79.1538545 117.500136,78.518303 115.788031,77.693215 C116.110194,77.9487315 120.240452,79.961355 121.300514,80.3805725 C122.560822,81.1339814 117.58093,78.746092 116.800321,78.308519 C115.894408,77.8560288 116.731325,78.4376125 117.227719,78.6871178 C115.687125,78.0503649 112.485385,76.4797168 110.479238,75.580942 Z M3.19772655,74.639823 C3.39822965,77.3025385 3.41847594,77.454151 3.50283162,78.9137112 C3.62500591,78.6426124 3.35956559,75.6734294 3.19772655,74.639823 Z M2.82627951,68.5456699 C3.00680017,70.3511255 3.01351585,70.4422469 3.12152539,72.222035 C3.19072461,72.2465016 3.25626144,72.2690158 3.32325273,72.2926818 C3.15079725,70.5832087 2.98576055,69.3735685 2.82627951,68.5456699 Z M85.6790775,63.4718574 C85.5564691,63.1683514 89.6708634,65.3256157 87.8699423,64.5656347 C87.3288519,64.3048932 87.474899,64.322973 87.3774375,64.2420291 C86.9146287,64.0427863 86.4430322,63.8384805 85.6790775,63.4718574 Z M69.8506473,55.5332952 C69.7099191,55.3617535 72.3599452,56.7607892 71.6104485,56.2465187 C73.0244135,56.9302804 74.4582653,57.6212628 74.2890475,57.6615454 C72.5113376,56.7059215 71.4955293,56.4363227 69.8506473,55.5332952 Z M9.92234606,36.2049901 C9.93231545,36.1811247 9.72362143,36.2647141 9.18831181,36.5921147 C8.17968526,37.5392 7.67453863,37.6283414 7.48134331,37.886804 C7.86313643,37.5980467 7.42499817,38.064981 6.99982632,38.5203785 C6.85066203,38.6942537 6.70119973,38.8655226 6.58898914,38.9947138 C7.20899076,38.38075 7.49215259,38.2011254 7.70324381,38.0459572 C7.92493606,37.8840155 8.1059429,37.780394 8.66318742,37.3741343 C8.7786199,37.1967719 9.6062548,36.6680874 9.8076015,36.4762847 C9.37894893,36.6999606 9.01453617,36.9394349 8.7314812,37.1546976 C8.45012622,37.3755732 8.23439237,37.5502927 8.06778765,37.6179159 C8.06552534,37.5796226 8.84142759,36.9478657 9.4123414,36.5709199 C9.68945673,36.3684928 9.91237666,36.2288555 9.92234606,36.2049901 Z" id="Combined-Shape" fill="#FFDCBF"></path>
        <g id="Group-100" transform="translate(66.000000, 1.000000)" fill="#FF5E16">
            <path d="M50.2714444,29.0763333 C51.5003333,29.0763333 52.497,30.0718889 52.497,31.3018889 C52.497,32.5241111 51.5003333,33.5207778 50.2714444,33.5207778 C49.0447778,33.5207778 48.0492222,32.5263333 48.0492222,31.2985556 C48.0492222,30.0718889 49.0447778,29.0763333 50.2714444,29.0763333" id="Fill-1"></path>
            <path d="M35.2584444,38.02 C36.1995556,37.23 37.6028889,37.3522222 38.3928889,38.2944444 C39.1784444,39.23 39.0562222,40.6344444 38.1151111,41.4244444 C37.1751111,42.2133333 35.7728889,42.0911111 34.984,41.15 C34.1951111,40.2111111 34.3173333,38.8088889 35.2584444,38.02" id="Fill-3"></path>
            <path d="M29.506,54.5212222 C29.7193333,53.3112222 30.8726667,52.5023333 32.0848889,52.7156667 C33.2882222,52.9278889 34.096,54.0823333 33.8826667,55.2934444 C33.6704444,56.5023333 32.5171111,57.309 31.3093333,57.0956667 C30.1004444,56.8823333 29.2926667,55.7301111 29.506,54.5212222" id="Fill-5"></path>
            <path d="M35.7065556,70.8591111 C35.0921111,69.7957778 35.4554444,68.4346667 36.521,67.8191111 C37.5798889,67.208 38.941,67.5724444 39.5554444,68.6368889 C40.1698889,69.7002222 39.8043333,71.0591111 38.7421111,71.6724444 C37.6787778,72.2857778 36.321,71.9224444 35.7065556,70.8591111" id="Fill-7"></path>
            <path d="M50.9583333,79.39 C49.8038889,78.9688889 49.2083333,77.6933333 49.6283333,76.5377778 C50.0472222,75.3877778 51.3238889,74.7922222 52.4783333,75.2133333 C53.6316667,75.6333333 54.2261111,76.9088889 53.8061111,78.0622222 C53.3872222,79.2155556 52.1116667,79.81 50.9583333,79.39" id="Fill-9"></path>
            <path d="M68.1252222,76.1206667 C66.9707778,76.5406667 65.6941111,75.9462222 65.273,74.7906667 C64.8552222,73.6417778 65.4507778,72.364 66.6052222,71.944 C67.7585556,71.524 69.033,72.1184444 69.453,73.2728889 C69.873,74.4262222 69.2785556,75.7006667 68.1252222,76.1206667" id="Fill-11"></path>
            <path d="M79.1744444,62.5816667 C78.5588889,63.6461111 77.2,64.0116667 76.1344444,63.3961111 C75.0755556,62.785 74.71,61.4238889 75.3244444,60.3594444 C75.9388889,59.2961111 77.2988889,58.9316667 78.3611111,59.5461111 C79.4244444,60.1594444 79.7877778,61.5183333 79.1744444,62.5816667" id="Fill-13"></path>
            <path d="M78.9357778,45.1077778 C79.148,46.3177778 78.3413333,47.4722222 77.1302222,47.6866667 C75.9268889,47.8988889 74.7724444,47.09 74.5591111,45.88 C74.3457778,44.6711111 75.1524444,43.5188889 76.3613333,43.3055556 C77.5702222,43.0922222 78.7224444,43.9 78.9357778,45.1077778" id="Fill-15"></path>
            <path d="M97.2158889,40.9112222 C97.4292222,42.1212222 96.6225556,43.2756667 95.4114444,43.489 C94.207,43.7012222 93.0525556,42.8934444 92.8403333,41.6823333 C92.6258889,40.4745556 93.4336667,39.3212222 94.6425556,39.1078889 C95.8503333,38.8956667 97.0036667,39.7023333 97.2158889,40.9112222" id="Fill-17"></path>
            <path d="M77.2148889,18.6901111 C77.4282222,19.9001111 76.6215556,21.0545556 75.4093333,21.2678889 C74.206,21.4801111 73.0515556,20.6723333 72.8382222,19.4612222 C72.6248889,18.2534444 73.4326667,17.1001111 74.6415556,16.8867778 C75.8493333,16.6745556 77.0026667,17.4812222 77.2148889,18.6901111" id="Fill-19"></path>
            <path d="M67.5208889,31.8757778 C68.4631111,32.6657778 68.5864444,34.0691111 67.7953333,35.0113333 C67.0097778,35.948 65.6053333,36.0702222 64.6642222,35.2802222 C63.7242222,34.4913333 63.602,33.0902222 64.3908889,32.1502222 C65.1797778,31.2091111 66.5808889,31.0868889 67.5208889,31.8757778" id="Fill-21"></path>
            <path d="M62.2222222,14 C63.45,14 64.4477778,14.9955556 64.4477778,16.2255556 C64.4477778,17.4477778 63.45,18.4444444 62.2222222,18.4444444 C60.9955556,18.4444444 60,17.4488889 60,16.2222222 C60,14.9955556 60.9955556,14 62.2222222,14" id="Fill-23"></path>
            <path d="M34.8146667,21.8232222 C35.7568889,21.0332222 37.1591111,21.1543333 37.9502222,22.0976667 C38.7357778,23.0332222 38.6135556,24.4376667 37.6713333,25.2276667 C36.7324444,26.0165556 35.3302222,25.8943333 34.5413333,24.9532222 C33.7524444,24.0132222 33.8746667,22.6121111 34.8146667,21.8232222" id="Fill-25"></path>
            <path d="M51.0668889,44.0427778 C52.0091111,43.2527778 53.4113333,43.3738889 54.2024444,44.3172222 C54.988,45.2527778 54.8657778,46.6572222 53.9235556,47.4472222 C52.9846667,48.2361111 51.5824444,48.1138889 50.7935556,47.1727778 C50.0046667,46.2327778 50.1268889,44.8316667 51.0668889,44.0427778" id="Fill-27"></path>
            <path d="M44.0714444,59.0904444 C43.457,58.026 43.8203333,56.6648889 44.8858889,56.0504444 C45.9447778,55.4393333 47.3058889,55.8037778 47.9203333,56.8682222 C48.5347778,57.9315556 48.1692222,59.2904444 47.107,59.9037778 C46.0436667,60.5171111 44.6858889,60.1537778 44.0714444,59.0904444" id="Fill-29"></path>
            <path d="M57.7975556,66.9957778 C56.6431111,67.4157778 55.3664444,66.8213333 54.9464444,65.6657778 C54.5275556,64.5168889 55.1231111,63.2391111 56.2775556,62.8191111 C57.4308889,62.3991111 58.7064444,62.9935556 59.1253333,64.148 C59.5453333,65.3002222 58.9508889,66.5757778 57.7975556,66.9957778" id="Fill-31"></path>
            <path d="M65.967,52.0223333 C66.1792222,53.2323333 65.3725556,54.3867778 64.1614444,54.6001111 C62.9581111,54.8123333 61.8036667,54.0045556 61.5903333,52.7934444 C61.377,51.5856667 62.1836667,50.4323333 63.3925556,50.219 C64.6014444,50.0067778 65.7536667,50.8134444 65.967,52.0223333" id="Fill-33"></path>
            <path d="M18.3508889,41.61 C18.5642222,40.4 19.7175556,39.5911111 20.9286667,39.8044444 C22.1331111,40.0166667 22.9408889,41.1711111 22.7275556,42.3811111 C22.5153333,43.59 21.362,44.3966667 20.1531111,44.1844444 C18.9453333,43.9711111 18.1375556,42.8177778 18.3508889,41.61" id="Fill-35"></path>
            <path d="M19.3844444,68.243 C18.77,67.1785556 19.1333333,65.8174444 20.1988889,65.203 C21.2577778,64.5907778 22.6188889,64.9563333 23.2333333,66.0207778 C23.8466667,67.0841111 23.4822222,68.443 22.42,69.0552222 C21.3566667,69.6696667 19.9977778,69.3052222 19.3844444,68.243" id="Fill-37"></path>
            <path d="M36.8556667,88.089 C35.7001111,87.669 35.1045556,86.3923333 35.5256667,85.2367778 C35.9434444,84.0878889 37.2201111,83.4923333 38.3756667,83.9123333 C39.5278889,84.3323333 40.1223333,85.6078889 39.7034444,86.7612222 C39.2845556,87.9145556 38.009,88.509 36.8556667,88.089" id="Fill-39"></path>
            <path d="M63.1382222,91.8378889 C61.9837778,92.2578889 60.7071111,91.6634444 60.286,90.5078889 C59.8682222,89.3601111 60.4637778,88.0812222 61.6182222,87.6612222 C62.7715556,87.2412222 64.046,87.8356667 64.466,88.9901111 C64.886,90.1434444 64.2915556,91.4178889 63.1382222,91.8378889" id="Fill-41"></path>
            <path d="M85.4982222,78.0564444 C84.8837778,79.1208889 83.5237778,79.4864444 82.4582222,78.8708889 C81.4004444,78.2608889 81.0348889,76.8986667 81.6493333,75.8342222 C82.2626667,74.772 83.6226667,74.4075556 84.6848889,75.022 C85.7482222,75.6342222 86.1126667,76.9942222 85.4982222,78.0564444" id="Fill-43"></path>
            <path d="M93.8934444,53.0048889 C94.1056667,54.2148889 93.299,55.3693333 92.0878889,55.5826667 C90.8834444,55.796 89.729,54.9871111 89.5167778,53.7771111 C89.3023333,52.5682222 90.1101111,51.416 91.319,51.2026667 C92.5278889,50.9893333 93.6801111,51.7971111 93.8934444,53.0048889" id="Fill-45"></path>
            <path d="M95.4613333,68.689 C95.6735556,69.899 94.8668889,71.0534444 93.6557778,71.2667778 C92.4513333,71.4801111 91.2968889,70.6712222 91.0846667,69.4601111 C90.8702222,68.2523333 91.678,67.099 92.8868889,66.8856667 C94.0957778,66.6734444 95.248,67.4801111 95.4613333,68.689" id="Fill-47"></path>
            <path d="M84.7951111,28.2408889 C85.7373333,29.0308889 85.8606667,30.4342222 85.0695556,31.3764444 C84.284,32.3131111 82.8795556,32.4353333 81.9395556,31.6453333 C80.9984444,30.8564444 80.8762222,29.4553333 81.6651111,28.5153333 C82.454,27.5742222 83.8551111,27.452 84.7951111,28.2408889" id="Fill-49"></path>
            <path d="M35.7825556,2.36033333 C36.937,1.94033333 38.2136667,2.53477778 38.6336667,3.69033333 C39.0525556,4.83811111 38.457,6.11588889 37.3025556,6.53588889 C36.1492222,6.95588889 34.8736667,6.36144444 34.4547778,5.20811111 C34.0347778,4.05477778 34.6292222,2.77922222 35.7825556,2.36033333" id="Fill-51"></path>
            <path d="M19.1098889,11.9224444 C20.051,11.1324444 21.4543333,11.2546667 22.2454444,12.1968889 C23.031,13.1324444 22.9076667,14.5368889 21.9665556,15.3268889 C21.0265556,16.1157778 19.6243333,15.9935556 18.8354444,15.0524444 C18.0465556,14.1124444 18.1698889,12.7113333 19.1098889,11.9224444" id="Fill-53"></path>
            <path d="M21.3332222,26.2942222 C22.2743333,25.5042222 23.6776667,25.6264444 24.4687778,26.5686667 C25.2543333,27.5042222 25.131,28.9086667 24.1898889,29.6986667 C23.2498889,30.4875556 21.8476667,30.3653333 21.0587778,29.4242222 C20.2698889,28.4842222 20.3932222,27.0831111 21.3332222,26.2942222" id="Fill-55"></path>
            <path d="M11.4971111,53.9135556 C12.4382222,53.1235556 13.8415556,53.2457778 14.6326667,54.188 C15.4182222,55.1235556 15.2948889,56.528 14.3537778,57.318 C13.4137778,58.1068889 12.0115556,57.9846667 11.2226667,57.0446667 C10.4337778,56.1046667 10.5571111,54.7024444 11.4971111,53.9135556" id="Fill-57"></path>
            <path d="M21.3332222,80.5856667 C22.2743333,79.7956667 23.6776667,79.9178889 24.4687778,80.8601111 C25.2543333,81.7967778 25.131,83.2012222 24.1898889,83.9901111 C23.2498889,84.779 21.8476667,84.6567778 21.0587778,83.7167778 C20.2698889,82.7767778 20.3932222,81.3745556 21.3332222,80.5856667" id="Fill-59"></path>
            <path d="M48.1751111,94.5701111 C49.1162222,93.7801111 50.5195556,93.9012222 51.3095556,94.8445556 C52.0951111,95.7801111 51.9728889,97.1845556 51.0306667,97.9734444 C50.0917778,98.7623333 48.6895556,98.6401111 47.9006667,97.7001111 C47.1117778,96.7612222 47.234,95.359 48.1751111,94.5701111" id="Fill-61"></path>
            <path d="M75.8205556,87.2925556 C76.7616667,86.5025556 78.165,86.6247778 78.955,87.567 C79.7405556,88.5036667 79.6183333,89.9081111 78.6772222,90.697 C77.7372222,91.4858889 76.335,91.3636667 75.5461111,90.4236667 C74.7572222,89.4836667 74.8794444,88.0814444 75.8205556,87.2925556" id="Fill-63"></path>
            <path d="M45.9517778,12.1264444 C46.8928889,11.3364444 48.2962222,11.4575556 49.0862222,12.4008889 C49.8717778,13.3364444 49.7495556,14.7408889 48.8084444,15.5308889 C47.8684444,16.3197778 46.4662222,16.1975556 45.6773333,15.2564444 C44.8884444,14.3164444 45.0106667,12.9153333 45.9517778,12.1264444" id="Fill-65"></path>
            <path d="M6.71411111,26.61 C7.32855556,25.5455556 8.68855556,25.18 9.75411111,25.7955556 C10.8118889,26.4066667 11.1774444,27.7677778 10.563,28.8322222 C9.94966667,29.8955556 8.58966667,30.26 7.52744444,29.6455556 C6.46411111,29.0322222 6.10077778,27.6733333 6.71411111,26.61" id="Fill-67"></path>
            <path d="M0.0892222222,44.652 C0.302555556,43.442 1.45588889,42.6331111 2.667,42.8464444 C3.87033333,43.0586667 4.67922222,44.2131111 4.46588889,45.4242222 C4.25255556,46.632 3.10033333,47.4397778 1.89144444,47.2264444 C0.682555556,47.0131111 -0.124111111,45.8608889 0.0892222222,44.652" id="Fill-69"></path>
            <path d="M0.0344444444,63.8718889 C-0.178888889,62.6618889 0.627777778,61.5074444 1.84,61.293 C3.04333333,61.0807778 4.19777778,61.8896667 4.41111111,63.0996667 C4.62444444,64.3085556 3.81666667,65.4607778 2.60888889,65.6741111 C1.4,65.8874444 0.246666667,65.0796667 0.0344444444,63.8718889" id="Fill-71"></path>
            <path d="M6.55622222,81.9506667 C5.94177778,80.8862222 6.30511111,79.5251111 7.37066667,78.9106667 C8.42955556,78.2995556 9.79066667,78.664 10.4051111,79.7284444 C11.0195556,80.7917778 10.654,82.1506667 9.59177778,82.764 C8.52844444,83.3773333 7.16955556,83.014 6.55622222,81.9506667" id="Fill-73"></path>
            <path d="M18.8684444,96.7087778 C17.9273333,95.9187778 17.804,94.5154444 18.594,93.5743333 C19.3795556,92.6376667 20.784,92.5154444 21.7251111,93.3054444 C22.6651111,94.0932222 22.7873333,95.4943333 21.9984444,96.4354444 C21.2095556,97.3754444 19.8084444,97.4976667 18.8684444,96.7087778" id="Fill-75"></path>
            <path d="M35.4852222,106.365889 C34.3307778,105.945889 33.7352222,104.670333 34.1552222,103.514778 C34.5741111,102.364778 35.8507778,101.769222 37.0052222,102.189222 C38.1585556,102.609222 38.753,103.885889 38.333,105.038111 C37.9141111,106.191444 36.6385556,106.785889 35.4852222,106.365889" id="Fill-77"></path>
            <path d="M54.4034444,109.757778 C53.1756667,109.757778 52.1778889,108.762222 52.1778889,107.532222 C52.1778889,106.31 53.1756667,105.313333 54.4034444,105.313333 C55.6301111,105.313333 56.6256667,106.308889 56.6256667,107.535556 C56.6256667,108.762222 55.6301111,109.757778 54.4034444,109.757778" id="Fill-79"></path>
            <path d="M54.4034444,4.55544444 C53.1756667,4.55544444 52.1778889,3.55988889 52.1778889,2.32988889 C52.1778889,1.10766667 53.1756667,0.111 54.4034444,0.111 C55.6301111,0.111 56.6256667,1.10655556 56.6256667,2.33322222 C56.6256667,3.55988889 55.6301111,4.55544444 54.4034444,4.55544444" id="Fill-81"></path>
            <path d="M73.3411111,106.474333 C72.1855556,106.894333 70.9088889,106.299889 70.4888889,105.144333 C70.0711111,103.996556 70.6666667,102.717667 71.8211111,102.297667 C72.9744444,101.877667 74.2488889,102.472111 74.6688889,103.626556 C75.0888889,104.779889 74.4944444,106.054333 73.3411111,106.474333" id="Fill-84"></path>
            <path d="M90.0132222,96.9116667 C89.071,97.7016667 87.6687778,97.5805556 86.8776667,96.6372222 C86.0921111,95.7016667 86.2143333,94.2972222 87.1565556,93.5083333 C88.0954444,92.7194444 89.4976667,92.8416667 90.2865556,93.7816667 C91.0754444,94.7205556 90.9532222,96.1227778 90.0132222,96.9116667" id="Fill-86"></path>
            <path d="M102.409111,82.2241111 C101.794667,83.2885556 100.434667,83.6541111 99.3691111,83.0385556 C98.3113333,82.4285556 97.9446667,81.0663333 98.5602222,80.0018889 C99.1735556,78.9385556 100.533556,78.5752222 101.595778,79.1885556 C102.659111,79.8018889 103.022444,81.1607778 102.409111,82.2241111" id="Fill-88"></path>
            <path d="M109.033444,64.1821111 C108.821222,65.3921111 107.667889,66.201 106.455667,65.9876667 C105.252333,65.7754444 104.443444,64.621 104.657889,63.411 C104.870111,62.2021111 106.022333,61.3954444 107.231222,61.6076667 C108.440111,61.821 109.246778,62.9743333 109.033444,64.1821111" id="Fill-90"></path>
            <path d="M109.088778,44.9628889 C109.302111,46.1728889 108.495444,47.3273333 107.283222,47.5406667 C106.079889,47.7528889 104.925444,46.9451111 104.712111,45.734 C104.498778,44.5262222 105.306556,43.3728889 106.514333,43.1595556 C107.723222,42.9473333 108.876556,43.754 109.088778,44.9628889" id="Fill-92"></path>
            <path d="M102.566444,26.8834444 C103.182,27.9478889 102.817556,29.309 101.753111,29.9234444 C100.693111,30.5345556 99.332,30.1701111 98.7175556,29.1056667 C98.1031111,28.0423333 98.4686667,26.6834444 99.532,26.0701111 C100.594222,25.4567778 101.953111,25.8201111 102.566444,26.8834444" id="Fill-94"></path>
            <path d="M90.2541111,12.1254444 C91.1963333,12.9154444 91.3196667,14.3187778 90.5285556,15.261 C89.743,16.1976667 88.3385556,16.3198889 87.3985556,15.5298889 C86.4574444,14.741 86.3352222,13.3387778 87.1241111,12.3998889 C87.913,11.4587778 89.3141111,11.3365556 90.2541111,12.1254444" id="Fill-96"></path>
            <path d="M73.6373333,2.46777778 C74.7917778,2.88777778 75.3884444,4.16444444 74.9673333,5.32 C74.5495556,6.46888889 73.2717778,7.06444444 72.1173333,6.64444444 C70.964,6.22444444 70.3695556,4.94888889 70.7895556,3.79666667 C71.2084444,2.64333333 72.484,2.04888889 73.6373333,2.46777778" id="Fill-98"></path>
        </g>
    </g>
</svg>