<?xml version="1.0" encoding="UTF-8"?>
<svg width="393px" height="48px" viewBox="0 0 393 48" version="1.1" xmlns="http://www.w3.org/2000/svg" xmlns:xlink="http://www.w3.org/1999/xlink">
    <!-- Generator: Sketch 60 (88103) - https://sketch.com -->
    <title>Artboard</title>
    <desc>Created with Sketch.</desc>
    <defs>
        <circle id="path-1" cx="24" cy="24" r="24"></circle>
        <filter x="-17.7%" y="-13.5%" width="135.4%" height="135.4%" filterUnits="objectBoundingBox" id="filter-2">
            <feOffset dx="0" dy="2" in="SourceAlpha" result="shadowOffsetOuter1"></feOffset>
            <feGaussianBlur stdDeviation="2.5" in="shadowOffsetOuter1" result="shadowBlurOuter1"></feGaussianBlur>
            <feColorMatrix values="0 0 0 0 0.874509804   0 0 0 0 0.349019608   0 0 0 0 0.349019608  0 0 0 0.12 0" type="matrix" in="shadowBlurOuter1"></feColorMatrix>
        </filter>
        <path d="M24.0887,21.816 C25.5558961,21.816 26.9951957,22.1024223 28.3670278,22.6669732 C30.8505912,23.6945791 32.8494739,25.5426242 34.0575586,27.9246856 C34.2018363,28.2091678 34.2017423,28.545412 34.0573053,28.8298134 C32.8484225,31.2101455 30.848778,33.0572621 28.3636932,34.0841651 C26.995449,34.6498669 25.5517265,34.937 24.0767,34.937 C22.6065262,34.937 21.1670169,34.6508125 19.7983722,34.0860268 C17.315118,33.0585488 15.316144,31.2107049 14.1079258,28.8294806 C13.9636536,28.545141 13.9636232,28.2090467 14.1078438,27.9246809 C15.3152972,25.5438954 17.3156622,23.6961079 19.8016098,22.668875 C21.1702181,22.1030081 22.6130005,21.816 24.0887,21.816 Z M24.0887,23.816 C22.87544,23.816 21.6922921,24.0513598 20.5655962,24.5172052 C18.6814358,25.2957702 17.1424923,26.6417375 16.137062,28.3769375 C17.1430999,30.1130551 18.6810648,31.4592872 20.5621575,32.2376136 C21.6883262,32.7023387 22.8686613,32.937 24.0767,32.937 C25.2893468,32.937 26.4734661,32.7014921 27.5996098,32.235875 C29.4831698,31.4575581 31.021714,30.111954 32.0282383,28.3766725 C31.0223177,26.6400572 29.4845633,25.2938071 27.6041364,24.5157547 C26.4747527,24.0509804 25.2939537,23.816 24.0887,23.816 Z M24.0828,25.5223 C25.6588229,25.5223 26.9368,26.8007532 26.9368,28.3763 C26.9368,29.9533228 25.6593469,31.2303 24.0828,31.2303 C22.5062531,31.2303 21.2288,29.9533228 21.2288,28.3763 C21.2288,26.8007532 22.5067771,25.5223 24.0828,25.5223 Z M24.0828,27.5223 C23.6115134,27.5223 23.2288,27.905156 23.2288,28.3763 C23.2288,28.8485864 23.6106558,29.2303 24.0828,29.2303 C24.5549442,29.2303 24.9368,28.8485864 24.9368,28.3763 C24.9368,27.905156 24.5540866,27.5223 24.0828,27.5223 Z M30.4898123,16.0118248 C30.7348474,15.516874 31.3347244,15.3142773 31.8296752,15.5593123 C32.324626,15.8043474 32.5272227,16.4042244 32.2821877,16.8991752 L32.2821877,16.8991752 L30.3241877,20.8541752 C30.0791526,21.349126 29.4792756,21.5517227 28.9843248,21.3066877 C28.489374,21.0616526 28.2867773,20.4617756 28.5318123,19.9668248 L28.5318123,19.9668248 Z M16.3178248,15.5593123 C16.8127756,15.3142773 17.4126526,15.516874 17.6576877,16.0118248 L17.6576877,16.0118248 L19.6156877,19.9668248 C19.8607227,20.4617756 19.658126,21.0616526 19.1631752,21.3066877 C18.6682244,21.5517227 18.0683474,21.349126 17.8233123,20.8541752 L17.8233123,20.8541752 L15.8653123,16.8991752 C15.6202773,16.4042244 15.822874,15.8043474 16.3178248,15.5593123 Z M24.0735,13.9999 C24.6257847,13.9999 25.0735,14.4476153 25.0735,14.9999 L25.0735,14.9999 L25.0735,19.4129 C25.0735,19.9651847 24.6257847,20.4129 24.0735,20.4129 C23.5212153,20.4129 23.0735,19.9651847 23.0735,19.4129 L23.0735,19.4129 L23.0735,14.9999 C23.0735,14.4476153 23.5212153,13.9999 24.0735,13.9999 Z" id="path-3"></path>
        <circle id="path-5" cx="24" cy="24" r="24"></circle>
        <filter x="-17.7%" y="-13.5%" width="135.4%" height="135.4%" filterUnits="objectBoundingBox" id="filter-6">
            <feOffset dx="0" dy="2" in="SourceAlpha" result="shadowOffsetOuter1"></feOffset>
            <feGaussianBlur stdDeviation="2.5" in="shadowOffsetOuter1" result="shadowBlurOuter1"></feGaussianBlur>
            <feColorMatrix values="0 0 0 0 0.874509804   0 0 0 0 0.349019608   0 0 0 0 0.349019608  0 0 0 0.12 0" type="matrix" in="shadowBlurOuter1"></feColorMatrix>
        </filter>
        <path d="M27.6596,15.0002 C28.2118847,15.0002 28.6596,15.4479153 28.6596,16.0002 L28.6596,16.0002 L28.658608,18.2122 L32.8,18.2125 C33.3128358,18.2125 33.7355072,18.5985402 33.7932723,19.0958789 L33.8,19.2125 L33.8,31.5045 C33.8,32.0567847 33.3522847,32.5045 32.8,32.5045 L32.8,32.5045 L15.015,32.5045 C14.4627153,32.5045 14.015,32.0567847 14.015,31.5045 L14.015,31.5045 L14.0142689,24.6189754 C13.9937447,24.5008978 13.9942523,24.3771111 14.0190711,24.2525264 L14.014608,24.2812 L14.015,19.2125 C14.015,18.6996642 14.4010402,18.2769928 14.8983789,18.2192277 L15.015,18.2125 L19.153608,18.2122 L19.1546,16.0002 C19.1546,15.4873642 19.5406402,15.0646928 20.0379789,15.0069277 L20.1546,15.0002 Z M31.799608,25.6332 L24.0887234,27.198915 C23.958641,27.2253192 23.8246036,27.2255618 23.6944264,27.1996289 L23.6944264,27.1996289 L16.014608,25.6692 L16.015,30.5045 L31.8,30.5045 L31.799608,25.6332 Z M31.8,20.2125 L16.015,20.2125 L16.014608,23.6292 L23.8879533,25.1988823 L31.799608,23.5922 L31.8,20.2125 Z M26.6596,17.0002 L21.1546,17.0002 L21.153608,18.2122 L26.658608,18.2122 L26.6596,17.0002 Z" id="path-7"></path>
        <circle id="path-9" cx="24" cy="24" r="24"></circle>
        <filter x="-17.7%" y="-13.5%" width="135.4%" height="135.4%" filterUnits="objectBoundingBox" id="filter-10">
            <feOffset dx="0" dy="2" in="SourceAlpha" result="shadowOffsetOuter1"></feOffset>
            <feGaussianBlur stdDeviation="2.5" in="shadowOffsetOuter1" result="shadowBlurOuter1"></feGaussianBlur>
            <feColorMatrix values="0 0 0 0 0.874509804   0 0 0 0 0.349019608   0 0 0 0 0.349019608  0 0 0 0.12 0" type="matrix" in="shadowBlurOuter1"></feColorMatrix>
        </filter>
        <path d="M16,34.3654 C15.4477153,34.3654 15,33.9176847 15,33.3654 L15,33.3654 L15,15.9994 C15,15.4471153 15.4477153,14.9994 16,14.9994 L16,14.9994 L31.366,14.9994 C31.9182847,14.9994 32.366,15.4471153 32.366,15.9994 L32.366,15.9994 L32.366,33.3654 C32.366,33.9176847 31.9182847,34.3654 31.366,34.3654 L31.366,34.3654 Z M17.969,16.9994 L17,16.9994 L17,32.3654 L17.969,32.3654 L17.969,16.9994 Z M30.366,16.9994 L19.969,16.9994 L19.969,32.3654 L30.366,32.3654 L30.366,16.9994 Z M28.2703,23.059 C28.8225847,23.059 29.2703,23.5067153 29.2703,24.059 C29.2703,24.6112847 28.8225847,25.059 28.2703,25.059 L28.2703,25.059 L22.3553,25.059 C21.8030153,25.059 21.3553,24.6112847 21.3553,24.059 C21.3553,23.5067153 21.8030153,23.059 22.3553,23.059 L22.3553,23.059 Z M28.2703,19.8226 C28.8225847,19.8226 29.2703,20.2703153 29.2703,20.8226 C29.2703,21.3748847 28.8225847,21.8226 28.2703,21.8226 L28.2703,21.8226 L22.3553,21.8226 C21.8030153,21.8226 21.3553,21.3748847 21.3553,20.8226 C21.3553,20.2703153 21.8030153,19.8226 22.3553,19.8226 L22.3553,19.8226 Z" id="path-11"></path>
        <circle id="path-13" cx="24" cy="24" r="24"></circle>
        <filter x="-17.7%" y="-13.5%" width="135.4%" height="135.4%" filterUnits="objectBoundingBox" id="filter-14">
            <feOffset dx="0" dy="2" in="SourceAlpha" result="shadowOffsetOuter1"></feOffset>
            <feGaussianBlur stdDeviation="2.5" in="shadowOffsetOuter1" result="shadowBlurOuter1"></feGaussianBlur>
            <feColorMatrix values="0 0 0 0 0.874509804   0 0 0 0 0.349019608   0 0 0 0 0.349019608  0 0 0 0.12 0" type="matrix" in="shadowBlurOuter1"></feColorMatrix>
        </filter>
        <path d="M24.0887,21.816 C25.5558961,21.816 26.9951957,22.1024223 28.3670278,22.6669732 C30.8505912,23.6945791 32.8494739,25.5426242 34.0575586,27.9246856 C34.2018363,28.2091678 34.2017423,28.545412 34.0573053,28.8298134 C32.8484225,31.2101455 30.848778,33.0572621 28.3636932,34.0841651 C26.995449,34.6498669 25.5517265,34.937 24.0767,34.937 C22.6065262,34.937 21.1670169,34.6508125 19.7983722,34.0860268 C17.315118,33.0585488 15.316144,31.2107049 14.1079258,28.8294806 C13.9636536,28.545141 13.9636232,28.2090467 14.1078438,27.9246809 C15.3152972,25.5438954 17.3156622,23.6961079 19.8016098,22.668875 C21.1702181,22.1030081 22.6130005,21.816 24.0887,21.816 Z M24.0887,23.816 C22.87544,23.816 21.6922921,24.0513598 20.5655962,24.5172052 C18.6814358,25.2957702 17.1424923,26.6417375 16.137062,28.3769375 C17.1430999,30.1130551 18.6810648,31.4592872 20.5621575,32.2376136 C21.6883262,32.7023387 22.8686613,32.937 24.0767,32.937 C25.2893468,32.937 26.4734661,32.7014921 27.5996098,32.235875 C29.4831698,31.4575581 31.021714,30.111954 32.0282383,28.3766725 C31.0223177,26.6400572 29.4845633,25.2938071 27.6041364,24.5157547 C26.4747527,24.0509804 25.2939537,23.816 24.0887,23.816 Z M24.0828,25.5223 C25.6588229,25.5223 26.9368,26.8007532 26.9368,28.3763 C26.9368,29.9533228 25.6593469,31.2303 24.0828,31.2303 C22.5062531,31.2303 21.2288,29.9533228 21.2288,28.3763 C21.2288,26.8007532 22.5067771,25.5223 24.0828,25.5223 Z M24.0828,27.5223 C23.6115134,27.5223 23.2288,27.905156 23.2288,28.3763 C23.2288,28.8485864 23.6106558,29.2303 24.0828,29.2303 C24.5549442,29.2303 24.9368,28.8485864 24.9368,28.3763 C24.9368,27.905156 24.5540866,27.5223 24.0828,27.5223 Z M30.4898123,16.0118248 C30.7348474,15.516874 31.3347244,15.3142773 31.8296752,15.5593123 C32.324626,15.8043474 32.5272227,16.4042244 32.2821877,16.8991752 L32.2821877,16.8991752 L30.3241877,20.8541752 C30.0791526,21.349126 29.4792756,21.5517227 28.9843248,21.3066877 C28.489374,21.0616526 28.2867773,20.4617756 28.5318123,19.9668248 L28.5318123,19.9668248 Z M16.3178248,15.5593123 C16.8127756,15.3142773 17.4126526,15.516874 17.6576877,16.0118248 L17.6576877,16.0118248 L19.6156877,19.9668248 C19.8607227,20.4617756 19.658126,21.0616526 19.1631752,21.3066877 C18.6682244,21.5517227 18.0683474,21.349126 17.8233123,20.8541752 L17.8233123,20.8541752 L15.8653123,16.8991752 C15.6202773,16.4042244 15.822874,15.8043474 16.3178248,15.5593123 Z M24.0735,13.9999 C24.6257847,13.9999 25.0735,14.4476153 25.0735,14.9999 L25.0735,14.9999 L25.0735,19.4129 C25.0735,19.9651847 24.6257847,20.4129 24.0735,20.4129 C23.5212153,20.4129 23.0735,19.9651847 23.0735,19.4129 L23.0735,19.4129 L23.0735,14.9999 C23.0735,14.4476153 23.5212153,13.9999 24.0735,13.9999 Z" id="path-15"></path>
        <circle id="path-17" cx="24" cy="24" r="24"></circle>
        <filter x="-17.7%" y="-13.5%" width="135.4%" height="135.4%" filterUnits="objectBoundingBox" id="filter-18">
            <feOffset dx="0" dy="2" in="SourceAlpha" result="shadowOffsetOuter1"></feOffset>
            <feGaussianBlur stdDeviation="2.5" in="shadowOffsetOuter1" result="shadowBlurOuter1"></feGaussianBlur>
            <feColorMatrix values="0 0 0 0 0.874509804   0 0 0 0 0.349019608   0 0 0 0 0.349019608  0 0 0 0.12 0" type="matrix" in="shadowBlurOuter1"></feColorMatrix>
        </filter>
        <path d="M27.6596,15.0002 C28.2118847,15.0002 28.6596,15.4479153 28.6596,16.0002 L28.6596,16.0002 L28.658608,18.2122 L32.8,18.2125 C33.3128358,18.2125 33.7355072,18.5985402 33.7932723,19.0958789 L33.8,19.2125 L33.8,31.5045 C33.8,32.0567847 33.3522847,32.5045 32.8,32.5045 L32.8,32.5045 L15.015,32.5045 C14.4627153,32.5045 14.015,32.0567847 14.015,31.5045 L14.015,31.5045 L14.0142689,24.6189754 C13.9937447,24.5008978 13.9942523,24.3771111 14.0190711,24.2525264 L14.014608,24.2812 L14.015,19.2125 C14.015,18.6996642 14.4010402,18.2769928 14.8983789,18.2192277 L15.015,18.2125 L19.153608,18.2122 L19.1546,16.0002 C19.1546,15.4873642 19.5406402,15.0646928 20.0379789,15.0069277 L20.1546,15.0002 Z M31.799608,25.6332 L24.0887234,27.198915 C23.958641,27.2253192 23.8246036,27.2255618 23.6944264,27.1996289 L23.6944264,27.1996289 L16.014608,25.6692 L16.015,30.5045 L31.8,30.5045 L31.799608,25.6332 Z M31.8,20.2125 L16.015,20.2125 L16.014608,23.6292 L23.8879533,25.1988823 L31.799608,23.5922 L31.8,20.2125 Z M26.6596,17.0002 L21.1546,17.0002 L21.153608,18.2122 L26.658608,18.2122 L26.6596,17.0002 Z" id="path-19"></path>
        <circle id="path-21" cx="24" cy="24" r="24"></circle>
        <filter x="-17.7%" y="-13.5%" width="135.4%" height="135.4%" filterUnits="objectBoundingBox" id="filter-22">
            <feOffset dx="0" dy="2" in="SourceAlpha" result="shadowOffsetOuter1"></feOffset>
            <feGaussianBlur stdDeviation="2.5" in="shadowOffsetOuter1" result="shadowBlurOuter1"></feGaussianBlur>
            <feColorMatrix values="0 0 0 0 0.874509804   0 0 0 0 0.349019608   0 0 0 0 0.349019608  0 0 0 0.12 0" type="matrix" in="shadowBlurOuter1"></feColorMatrix>
        </filter>
        <path d="M16,34.3654 C15.4477153,34.3654 15,33.9176847 15,33.3654 L15,33.3654 L15,15.9994 C15,15.4471153 15.4477153,14.9994 16,14.9994 L16,14.9994 L31.366,14.9994 C31.9182847,14.9994 32.366,15.4471153 32.366,15.9994 L32.366,15.9994 L32.366,33.3654 C32.366,33.9176847 31.9182847,34.3654 31.366,34.3654 L31.366,34.3654 Z M17.969,16.9994 L17,16.9994 L17,32.3654 L17.969,32.3654 L17.969,16.9994 Z M30.366,16.9994 L19.969,16.9994 L19.969,32.3654 L30.366,32.3654 L30.366,16.9994 Z M28.2703,23.059 C28.8225847,23.059 29.2703,23.5067153 29.2703,24.059 C29.2703,24.6112847 28.8225847,25.059 28.2703,25.059 L28.2703,25.059 L22.3553,25.059 C21.8030153,25.059 21.3553,24.6112847 21.3553,24.059 C21.3553,23.5067153 21.8030153,23.059 22.3553,23.059 L22.3553,23.059 Z M28.2703,19.8226 C28.8225847,19.8226 29.2703,20.2703153 29.2703,20.8226 C29.2703,21.3748847 28.8225847,21.8226 28.2703,21.8226 L28.2703,21.8226 L22.3553,21.8226 C21.8030153,21.8226 21.3553,21.3748847 21.3553,20.8226 C21.3553,20.2703153 21.8030153,19.8226 22.3553,19.8226 L22.3553,19.8226 Z" id="path-23"></path>
    </defs>
    <g id="Artboard" stroke="none" stroke-width="1" fill="none" fill-rule="evenodd">
        <g id="Stories-&amp;-insights" transform="translate(69.000000, 0.000000)">
            <g id="Oval">
                <use fill="black" fill-opacity="1" filter="url(#filter-2)" xlink:href="#path-1"></use>
                <use fill="#FF5E16" fill-rule="evenodd" xlink:href="#path-1"></use>
            </g>
            <mask id="mask-4" fill="white">
                <use xlink:href="#path-3"></use>
            </mask>
            <use id="Mask" fill="#FFFFFF" fill-rule="nonzero" xlink:href="#path-3"></use>
        </g>
        <g id="Hiring-with-Workable" transform="translate(207.000000, 0.000000)">
            <g id="Oval">
                <use fill="black" fill-opacity="1" filter="url(#filter-6)" xlink:href="#path-5"></use>
                <use fill="#FF5E16" fill-rule="evenodd" xlink:href="#path-5"></use>
            </g>
            <mask id="mask-8" fill="white">
                <use xlink:href="#path-7"></use>
            </mask>
            <use id="Mask" fill="#FFFFFF" fill-rule="nonzero" xlink:href="#path-7"></use>
        </g>
        <g id="Weboinars-&amp;-events" transform="translate(345.000000, 0.000000)">
            <g id="Oval">
                <use fill="black" fill-opacity="1" filter="url(#filter-10)" xlink:href="#path-9"></use>
                <use fill="#FF5E16" fill-rule="evenodd" xlink:href="#path-9"></use>
            </g>
            <mask id="mask-12" fill="white">
                <use xlink:href="#path-11"></use>
            </mask>
            <use id="Mask" fill="#FFFFFF" fill-rule="nonzero" xlink:href="#path-11"></use>
        </g>
        <g id="Stories-&amp;-insights">
            <g id="Oval">
                <use fill="black" fill-opacity="1" filter="url(#filter-14)" xlink:href="#path-13"></use>
                <use fill="#FFFFFF" fill-rule="evenodd" xlink:href="#path-13"></use>
            </g>
            <mask id="mask-16" fill="white">
                <use xlink:href="#path-15"></use>
            </mask>
            <use id="Mask" fill="#FF5E16" fill-rule="nonzero" xlink:href="#path-15"></use>
        </g>
        <g id="Hiring-with-Workable" transform="translate(138.000000, 0.000000)">
            <g id="Oval">
                <use fill="black" fill-opacity="1" filter="url(#filter-18)" xlink:href="#path-17"></use>
                <use fill="#FFFFFF" fill-rule="evenodd" xlink:href="#path-17"></use>
            </g>
            <mask id="mask-20" fill="white">
                <use xlink:href="#path-19"></use>
            </mask>
            <use id="Mask" fill="#FF5E16" fill-rule="nonzero" xlink:href="#path-19"></use>
        </g>
        <g id="Webinars-&amp;-events" transform="translate(276.000000, 0.000000)">
            <g id="Oval">
                <use fill="black" fill-opacity="1" filter="url(#filter-22)" xlink:href="#path-21"></use>
                <use fill="#FFFFFF" fill-rule="evenodd" xlink:href="#path-21"></use>
            </g>
            <mask id="mask-24" fill="white">
                <use xlink:href="#path-23"></use>
            </mask>
            <use id="Mask" fill="#FF5E16" fill-rule="nonzero" xlink:href="#path-23"></use>
        </g>
    </g>
</svg>