<?xml version="1.0" encoding="UTF-8"?>
<svg width="516px" height="61px" viewBox="0 0 516 61" version="1.1" xmlns="http://www.w3.org/2000/svg" xmlns:xlink="http://www.w3.org/1999/xlink">
    <!-- Generator: Sketch 60.1 (88133) - https://sketch.com -->
    <title>Artboard@2x</title>
    <desc>Created with Sketch.</desc>
    <defs>
        <filter x="-38.5%" y="-34.4%" width="177.1%" height="177.1%" filterUnits="objectBoundingBox" id="filter-1">
            <feOffset dx="0" dy="2" in="SourceAlpha" result="shadowOffsetOuter1"></feOffset>
            <feGaussianBlur stdDeviation="2.5" in="shadowOffsetOuter1" result="shadowBlurOuter1"></feGaussianBlur>
            <feColorMatrix values="0 0 0 0 0.302   0 0 0 0 0.322   0 0 0 0 0.694  0 0 0 0.12 0" type="matrix" in="shadowBlurOuter1" result="shadowMatrixOuter1"></feColorMatrix>
            <feMerge>
                <feMergeNode in="shadowMatrixOuter1"></feMergeNode>
                <feMergeNode in="SourceGraphic"></feMergeNode>
            </feMerge>
        </filter>
        <circle id="path-2" cx="24" cy="24" r="24"></circle>
        <filter x="-17.7%" y="-13.5%" width="135.4%" height="135.4%" filterUnits="objectBoundingBox" id="filter-3">
            <feOffset dx="0" dy="2" in="SourceAlpha" result="shadowOffsetOuter1"></feOffset>
            <feGaussianBlur stdDeviation="2.5" in="shadowOffsetOuter1" result="shadowBlurOuter1"></feGaussianBlur>
            <feColorMatrix values="0 0 0 0 0.874509804   0 0 0 0 0.349019608   0 0 0 0 0.349019608  0 0 0 0.12 0" type="matrix" in="shadowBlurOuter1"></feColorMatrix>
        </filter>
        <path d="M32.365,14.0004 C32.9172847,14.0004 33.365,14.4481153 33.365,15.0004 L33.365,15.0004 L33.365,32.3654 C33.365,32.9176847 32.9172847,33.3654 32.365,33.3654 L32.365,33.3654 L15,33.3654 C14.4477153,33.3654 14,32.9176847 14,32.3654 L14,32.3654 L14,15.0004 C14,14.4481153 14.4477153,14.0004 15,14.0004 L15,14.0004 Z M21.117,16.0004 L16,16.0004 L16,31.3654 L21.117,31.3654 L21.117,16.0004 Z M31.365,23.4304 L23.117,23.4304 L23.117,31.3654 L31.365,31.3654 L31.365,23.4304 Z M31.365,16.0004 L23.117,16.0004 L23.117,21.4304 L31.365,21.4304 L31.365,16.0004 Z" id="path-4"></path>
        <filter x="-38.5%" y="-34.4%" width="177.1%" height="177.1%" filterUnits="objectBoundingBox" id="filter-6">
            <feOffset dx="0" dy="2" in="SourceAlpha" result="shadowOffsetOuter1"></feOffset>
            <feGaussianBlur stdDeviation="2.5" in="shadowOffsetOuter1" result="shadowBlurOuter1"></feGaussianBlur>
            <feColorMatrix values="0 0 0 0 0.302   0 0 0 0 0.322   0 0 0 0 0.694  0 0 0 0.12 0" type="matrix" in="shadowBlurOuter1" result="shadowMatrixOuter1"></feColorMatrix>
            <feMerge>
                <feMergeNode in="shadowMatrixOuter1"></feMergeNode>
                <feMergeNode in="SourceGraphic"></feMergeNode>
            </feMerge>
        </filter>
        <circle id="path-7" cx="24" cy="24" r="24"></circle>
        <filter x="-17.7%" y="-13.5%" width="135.4%" height="135.4%" filterUnits="objectBoundingBox" id="filter-8">
            <feOffset dx="0" dy="2" in="SourceAlpha" result="shadowOffsetOuter1"></feOffset>
            <feGaussianBlur stdDeviation="2.5" in="shadowOffsetOuter1" result="shadowBlurOuter1"></feGaussianBlur>
            <feColorMatrix values="0 0 0 0 0.302   0 0 0 0 0.322   0 0 0 0 0.694  0 0 0 0.12 0" type="matrix" in="shadowBlurOuter1"></feColorMatrix>
        </filter>
        <path d="M32.365,14.0004 C32.9172847,14.0004 33.365,14.4481153 33.365,15.0004 L33.365,15.0004 L33.365,32.3654 C33.365,32.9176847 32.9172847,33.3654 32.365,33.3654 L32.365,33.3654 L15,33.3654 C14.4477153,33.3654 14,32.9176847 14,32.3654 L14,32.3654 L14,15.0004 C14,14.4481153 14.4477153,14.0004 15,14.0004 L15,14.0004 Z M21.117,16.0004 L16,16.0004 L16,31.3654 L21.117,31.3654 L21.117,16.0004 Z M31.365,23.4304 L23.117,23.4304 L23.117,31.3654 L31.365,31.3654 L31.365,23.4304 Z M31.365,16.0004 L23.117,16.0004 L23.117,21.4304 L31.365,21.4304 L31.365,16.0004 Z" id="path-9"></path>
        <circle id="path-11" cx="24" cy="24" r="24"></circle>
        <filter x="-17.7%" y="-13.5%" width="135.4%" height="135.4%" filterUnits="objectBoundingBox" id="filter-12">
            <feOffset dx="0" dy="2" in="SourceAlpha" result="shadowOffsetOuter1"></feOffset>
            <feGaussianBlur stdDeviation="2.5" in="shadowOffsetOuter1" result="shadowBlurOuter1"></feGaussianBlur>
            <feColorMatrix values="0 0 0 0 0.302   0 0 0 0 0.322   0 0 0 0 0.694  0 0 0 0.12 0" type="matrix" in="shadowBlurOuter1"></feColorMatrix>
        </filter>
        <path d="M31.365,14.0004 C31.9172847,14.0004 32.365,14.4481153 32.365,15.0004 L32.365,15.0004 L32.365,32.3654 C32.365,32.9176847 31.9172847,33.3654 31.365,33.3654 L31.365,33.3654 L16,33.3654 C15.4477153,33.3654 15,32.9176847 15,32.3654 L15,32.3654 L15,15.0004 C15,14.4481153 15.4477153,14.0004 16,14.0004 L16,14.0004 Z M30.365,16.0004 L17,16.0004 L17,31.3654 L30.365,31.3654 L30.365,16.0004 Z M26.7794,26.7246 C27.3316847,26.7246 27.7794,27.1723153 27.7794,27.7246 C27.7794,28.2768847 27.3316847,28.7246 26.7794,28.7246 L26.7794,28.7246 L20.5864,28.7246 C20.0341153,28.7246 19.5864,28.2768847 19.5864,27.7246 C19.5864,27.1723153 20.0341153,26.7246 20.5864,26.7246 L20.5864,26.7246 Z M26.7794,22.8642 C27.3316847,22.8642 27.7794,23.3119153 27.7794,23.8642 C27.7794,24.4164847 27.3316847,24.8642 26.7794,24.8642 L26.7794,24.8642 L20.5864,24.8642 C20.0341153,24.8642 19.5864,24.4164847 19.5864,23.8642 C19.5864,23.3119153 20.0341153,22.8642 20.5864,22.8642 L20.5864,22.8642 Z M26.7794,19.0044 C27.3316847,19.0044 27.7794,19.4521153 27.7794,20.0044 C27.7794,20.5566847 27.3316847,21.0044 26.7794,21.0044 L26.7794,21.0044 L20.5864,21.0044 C20.0341153,21.0044 19.5864,20.5566847 19.5864,20.0044 C19.5864,19.4521153 20.0341153,19.0044 20.5864,19.0044 L20.5864,19.0044 Z" id="path-13"></path>
        <circle id="path-15" cx="24" cy="24" r="24"></circle>
        <filter x="-17.7%" y="-13.5%" width="135.4%" height="135.4%" filterUnits="objectBoundingBox" id="filter-16">
            <feOffset dx="0" dy="2" in="SourceAlpha" result="shadowOffsetOuter1"></feOffset>
            <feGaussianBlur stdDeviation="2.5" in="shadowOffsetOuter1" result="shadowBlurOuter1"></feGaussianBlur>
            <feColorMatrix values="0 0 0 0 0.302   0 0 0 0 0.322   0 0 0 0 0.694  0 0 0 0.12 0" type="matrix" in="shadowBlurOuter1"></feColorMatrix>
        </filter>
        <path d="M31.365,14.0004 C31.9172847,14.0004 32.365,14.4481153 32.365,15.0004 L32.365,15.0004 L32.365,32.3654 C32.365,32.9176847 31.9172847,33.3654 31.365,33.3654 L31.365,33.3654 L16,33.3654 C15.4477153,33.3654 15,32.9176847 15,32.3654 L15,32.3654 L15,15.0004 C15,14.4481153 15.4477153,14.0004 16,14.0004 L16,14.0004 Z M30.365,16.0004 L17,16.0004 L17,31.3654 L30.365,31.3654 L30.365,16.0004 Z M26.7794,26.7246 C27.3316847,26.7246 27.7794,27.1723153 27.7794,27.7246 C27.7794,28.2768847 27.3316847,28.7246 26.7794,28.7246 L26.7794,28.7246 L20.5864,28.7246 C20.0341153,28.7246 19.5864,28.2768847 19.5864,27.7246 C19.5864,27.1723153 20.0341153,26.7246 20.5864,26.7246 L20.5864,26.7246 Z M26.7794,22.8642 C27.3316847,22.8642 27.7794,23.3119153 27.7794,23.8642 C27.7794,24.4164847 27.3316847,24.8642 26.7794,24.8642 L26.7794,24.8642 L20.5864,24.8642 C20.0341153,24.8642 19.5864,24.4164847 19.5864,23.8642 C19.5864,23.3119153 20.0341153,22.8642 20.5864,22.8642 L20.5864,22.8642 Z M26.7794,19.0044 C27.3316847,19.0044 27.7794,19.4521153 27.7794,20.0044 C27.7794,20.5566847 27.3316847,21.0044 26.7794,21.0044 L26.7794,21.0044 L20.5864,21.0044 C20.0341153,21.0044 19.5864,20.5566847 19.5864,20.0044 C19.5864,19.4521153 20.0341153,19.0044 20.5864,19.0044 L20.5864,19.0044 Z" id="path-17"></path>
        <circle id="path-19" cx="24" cy="24" r="24"></circle>
        <filter x="-17.7%" y="-13.5%" width="135.4%" height="135.4%" filterUnits="objectBoundingBox" id="filter-20">
            <feOffset dx="0" dy="2" in="SourceAlpha" result="shadowOffsetOuter1"></feOffset>
            <feGaussianBlur stdDeviation="2.5" in="shadowOffsetOuter1" result="shadowBlurOuter1"></feGaussianBlur>
            <feColorMatrix values="0 0 0 0 0.302   0 0 0 0 0.322   0 0 0 0 0.694  0 0 0 0.12 0" type="matrix" in="shadowBlurOuter1"></feColorMatrix>
        </filter>
        <path d="M24.0827,13.7499 C24.7730559,13.7499 25.3327,14.3095441 25.3327,14.9999 L25.3327,14.9999 L25.3322,21.0649 L29.6211165,16.7761165 C30.0767282,16.3205048 30.7965486,16.2901307 31.2873881,16.6849942 L31.3888835,16.7761165 C31.8770388,17.2642719 31.8770388,18.0557281 31.3888835,18.5438835 L31.3888835,18.5438835 L27.0992,22.8319 L33.1652,22.8324 C33.8124087,22.8324 34.3447339,23.3242747 34.4087464,23.9545948 L34.4152,24.0824 C34.4152,24.7727559 33.8555559,25.3324 33.1652,25.3324 L33.1652,25.3324 L27.0992,25.3319 L31.3888835,29.6209165 C31.8444952,30.0765282 31.8748693,30.7963486 31.4800058,31.2871881 L31.3888835,31.3886835 C30.9007281,31.8768388 30.1092719,31.8768388 29.6211165,31.3886835 L29.6211165,31.3886835 L25.3322,27.0999 L25.3327,33.1649 C25.3327,33.8121087 24.8408253,34.3444339 24.2105052,34.4084464 L24.0827,34.4149 C23.3923441,34.4149 22.8327,33.8552559 22.8327,33.1649 L22.8327,33.1649 L22.8322,27.0999 L18.5438835,31.3888835 C18.0882718,31.8444952 17.3684514,31.8748693 16.8776119,31.4800058 L16.7761165,31.3888835 C16.2879612,30.9007281 16.2879612,30.1092719 16.7761165,29.6211165 L16.7761165,29.6211165 L21.0642,25.3319 L15.0002,25.3324 C14.3529913,25.3324 13.8206661,24.8405253 13.7566536,24.2102052 L13.7502,24.0824 C13.7502,23.3920441 14.3098441,22.8324 15.0002,22.8324 L15.0002,22.8324 L21.0642,22.8319 L16.7761165,18.5436835 C16.3205048,18.0880718 16.2901307,17.3682514 16.6849942,16.8774119 L16.7761165,16.7759165 C17.2642719,16.2877612 18.0557281,16.2877612 18.5438835,16.7759165 L18.5438835,16.7759165 L22.8322,21.0649 L22.8327,14.9999 C22.8327,14.3526913 23.3245747,13.8203661 23.9548948,13.7563536 Z" id="path-21"></path>
        <circle id="path-23" cx="24" cy="24" r="24"></circle>
        <filter x="-17.7%" y="-13.5%" width="135.4%" height="135.4%" filterUnits="objectBoundingBox" id="filter-24">
            <feOffset dx="0" dy="2" in="SourceAlpha" result="shadowOffsetOuter1"></feOffset>
            <feGaussianBlur stdDeviation="2.5" in="shadowOffsetOuter1" result="shadowBlurOuter1"></feGaussianBlur>
            <feColorMatrix values="0 0 0 0 0.302   0 0 0 0 0.322   0 0 0 0 0.694  0 0 0 0.12 0" type="matrix" in="shadowBlurOuter1"></feColorMatrix>
        </filter>
        <path d="M24.0827,13.7499 C24.7730559,13.7499 25.3327,14.3095441 25.3327,14.9999 L25.3327,14.9999 L25.3322,21.0649 L29.6211165,16.7761165 C30.0767282,16.3205048 30.7965486,16.2901307 31.2873881,16.6849942 L31.3888835,16.7761165 C31.8770388,17.2642719 31.8770388,18.0557281 31.3888835,18.5438835 L31.3888835,18.5438835 L27.0992,22.8319 L33.1652,22.8324 C33.8124087,22.8324 34.3447339,23.3242747 34.4087464,23.9545948 L34.4152,24.0824 C34.4152,24.7727559 33.8555559,25.3324 33.1652,25.3324 L33.1652,25.3324 L27.0992,25.3319 L31.3888835,29.6209165 C31.8444952,30.0765282 31.8748693,30.7963486 31.4800058,31.2871881 L31.3888835,31.3886835 C30.9007281,31.8768388 30.1092719,31.8768388 29.6211165,31.3886835 L29.6211165,31.3886835 L25.3322,27.0999 L25.3327,33.1649 C25.3327,33.8121087 24.8408253,34.3444339 24.2105052,34.4084464 L24.0827,34.4149 C23.3923441,34.4149 22.8327,33.8552559 22.8327,33.1649 L22.8327,33.1649 L22.8322,27.0999 L18.5438835,31.3888835 C18.0882718,31.8444952 17.3684514,31.8748693 16.8776119,31.4800058 L16.7761165,31.3888835 C16.2879612,30.9007281 16.2879612,30.1092719 16.7761165,29.6211165 L16.7761165,29.6211165 L21.0642,25.3319 L15.0002,25.3324 C14.3529913,25.3324 13.8206661,24.8405253 13.7566536,24.2102052 L13.7502,24.0824 C13.7502,23.3920441 14.3098441,22.8324 15.0002,22.8324 L15.0002,22.8324 L21.0642,22.8319 L16.7761165,18.5436835 C16.3205048,18.0880718 16.2901307,17.3682514 16.6849942,16.8774119 L16.7761165,16.7759165 C17.2642719,16.2877612 18.0557281,16.2877612 18.5438835,16.7759165 L18.5438835,16.7759165 L22.8322,21.0649 L22.8327,14.9999 C22.8327,14.3526913 23.3245747,13.8203661 23.9548948,13.7563536 Z" id="path-25"></path>
        <circle id="path-27" cx="24" cy="24" r="24"></circle>
        <filter x="-17.7%" y="-13.5%" width="135.4%" height="135.4%" filterUnits="objectBoundingBox" id="filter-28">
            <feOffset dx="0" dy="2" in="SourceAlpha" result="shadowOffsetOuter1"></feOffset>
            <feGaussianBlur stdDeviation="2.5" in="shadowOffsetOuter1" result="shadowBlurOuter1"></feGaussianBlur>
            <feColorMatrix values="0 0 0 0 0.302   0 0 0 0 0.322   0 0 0 0 0.694  0 0 0 0.12 0" type="matrix" in="shadowBlurOuter1"></feColorMatrix>
        </filter>
        <path d="M29.3208068,15.2927932 L32.8778068,18.8497932 C33.2683311,19.2403175 33.2683311,19.8734825 32.8778068,20.2640068 L28.6032,24.5379 L32.9494128,28.8408174 C33.3130192,29.2007556 33.3423625,29.7703018 33.0364657,30.1640541 L32.9530068,30.2586068 L29.3960068,33.8156068 C29.0068537,34.2047599 28.3763965,34.206326 27.9853149,33.819111 L27.9853149,33.819111 L23.6322,29.5089 L19.8518068,33.2900068 C19.6921741,33.4496394 19.4832235,33.5505606 19.258947,33.5763524 L15.258947,34.0363524 C14.6210783,34.1097073 14.0803441,33.5714869 14.1507261,32.9332833 L14.5937261,28.9162833 C14.6186477,28.6903006 14.7198306,28.4795558 14.8805932,28.3187932 L18.6352,24.5629 L14.2966093,20.2668055 C13.9330344,19.9068196 13.9037613,19.3372551 14.2097188,18.9435369 L14.2931926,18.8489938 L17.8501926,15.2929938 C18.2393271,14.9039688 18.8696397,14.9024079 19.2606961,15.2895009 L19.2606961,15.2895009 L23.6072,19.5909 L27.9065932,15.2927932 C28.2971175,14.9022689 28.9302825,14.9022689 29.3208068,15.2927932 Z M25.3982,20.6289 L20.884402,25.1449848 C20.8524441,25.1904958 20.8162462,25.2339468 20.7758055,25.2747907 C20.7337806,25.3172345 20.6888951,25.3551249 20.6417628,25.3884587 L16.543172,29.4846416 L16.2761198,31.9061959 L18.6841093,31.6292772 L27.5402,22.7719 L25.3982,20.6289 Z M27.1882,25.9529 L25.0472,28.0939 L26.1742,29.2109 L26.9137932,28.4723932 C27.2742772,28.1119093 27.8415082,28.0841797 28.2337994,28.3892046 L28.3280068,28.4723932 C28.7185311,28.8629175 28.7185311,29.4960825 28.3280068,29.8866068 L28.3280068,29.8866068 L27.5952,30.6179 L28.6853958,31.6977907 L30.8280924,29.555094 L27.1882,25.9529 Z M18.560693,17.4107228 L16.4180301,19.5527832 L17.5342,20.6579 L18.284246,19.9085406 C18.6449097,19.5482365 19.2121545,19.5207899 19.6042935,19.8260104 L19.6984594,19.909246 C20.0887888,20.299965 20.088473,20.9331299 19.697754,21.3234594 L19.697754,21.3234594 L18.9542,22.0649 L20.0492,23.1489 L22.1922,21.0059 L18.560693,17.4107228 Z M28.6137,17.4141136 L26.8122,19.2139 L28.9552,21.3579 L30.7564864,19.5569 L28.6137,17.4141136 Z" id="path-29"></path>
        <circle id="path-31" cx="24" cy="24" r="24"></circle>
        <filter x="-17.7%" y="-13.5%" width="135.4%" height="135.4%" filterUnits="objectBoundingBox" id="filter-32">
            <feOffset dx="0" dy="2" in="SourceAlpha" result="shadowOffsetOuter1"></feOffset>
            <feGaussianBlur stdDeviation="2.5" in="shadowOffsetOuter1" result="shadowBlurOuter1"></feGaussianBlur>
            <feColorMatrix values="0 0 0 0 0.302   0 0 0 0 0.322   0 0 0 0 0.694  0 0 0 0.12 0" type="matrix" in="shadowBlurOuter1"></feColorMatrix>
        </filter>
        <path d="M29.3208068,15.2927932 L32.8778068,18.8497932 C33.2683311,19.2403175 33.2683311,19.8734825 32.8778068,20.2640068 L28.6032,24.5379 L32.9494128,28.8408174 C33.3130192,29.2007556 33.3423625,29.7703018 33.0364657,30.1640541 L32.9530068,30.2586068 L29.3960068,33.8156068 C29.0068537,34.2047599 28.3763965,34.206326 27.9853149,33.819111 L27.9853149,33.819111 L23.6322,29.5089 L19.8518068,33.2900068 C19.6921741,33.4496394 19.4832235,33.5505606 19.258947,33.5763524 L15.258947,34.0363524 C14.6210783,34.1097073 14.0803441,33.5714869 14.1507261,32.9332833 L14.5937261,28.9162833 C14.6186477,28.6903006 14.7198306,28.4795558 14.8805932,28.3187932 L18.6352,24.5629 L14.2966093,20.2668055 C13.9330344,19.9068196 13.9037613,19.3372551 14.2097188,18.9435369 L14.2931926,18.8489938 L17.8501926,15.2929938 C18.2393271,14.9039688 18.8696397,14.9024079 19.2606961,15.2895009 L19.2606961,15.2895009 L23.6072,19.5909 L27.9065932,15.2927932 C28.2971175,14.9022689 28.9302825,14.9022689 29.3208068,15.2927932 Z M25.3982,20.6289 L20.884402,25.1449848 C20.8524441,25.1904958 20.8162462,25.2339468 20.7758055,25.2747907 C20.7337806,25.3172345 20.6888951,25.3551249 20.6417628,25.3884587 L16.543172,29.4846416 L16.2761198,31.9061959 L18.6841093,31.6292772 L27.5402,22.7719 L25.3982,20.6289 Z M27.1882,25.9529 L25.0472,28.0939 L26.1742,29.2109 L26.9137932,28.4723932 C27.2742772,28.1119093 27.8415082,28.0841797 28.2337994,28.3892046 L28.3280068,28.4723932 C28.7185311,28.8629175 28.7185311,29.4960825 28.3280068,29.8866068 L28.3280068,29.8866068 L27.5952,30.6179 L28.6853958,31.6977907 L30.8280924,29.555094 L27.1882,25.9529 Z M18.560693,17.4107228 L16.4180301,19.5527832 L17.5342,20.6579 L18.284246,19.9085406 C18.6449097,19.5482365 19.2121545,19.5207899 19.6042935,19.8260104 L19.6984594,19.909246 C20.0887888,20.299965 20.088473,20.9331299 19.697754,21.3234594 L19.697754,21.3234594 L18.9542,22.0649 L20.0492,23.1489 L22.1922,21.0059 L18.560693,17.4107228 Z M28.6137,17.4141136 L26.8122,19.2139 L28.9552,21.3579 L30.7564864,19.5569 L28.6137,17.4141136 Z" id="path-33"></path>
    </defs>
    <g id="Artboard" stroke="none" stroke-width="1" fill="none" fill-rule="evenodd">
        <g id="HR-templates" filter="url(#filter-1)" transform="translate(4.000000, 7.000000)">
            <g id="Oval">
                <use fill="black" fill-opacity="1" filter="url(#filter-3)" xlink:href="#path-2"></use>
                <use fill="#FFFFFF" fill-rule="evenodd" xlink:href="#path-2"></use>
            </g>
            <mask id="mask-5" fill="white">
                <use xlink:href="#path-4"></use>
            </mask>
            <use id="Mask" fill="#4D52B1" fill-rule="nonzero" xlink:href="#path-4"></use>
        </g>
        <g id="HR-templates" filter="url(#filter-6)" transform="translate(69.142857, 7.000000)">
            <g id="Oval">
                <use fill="black" fill-opacity="1" filter="url(#filter-8)" xlink:href="#path-7"></use>
                <use fill="#4D52B1" fill-rule="evenodd" xlink:href="#path-7"></use>
            </g>
            <mask id="mask-10" fill="white">
                <use xlink:href="#path-9"></use>
            </mask>
            <use id="Mask" fill="#FFFFFF" fill-rule="nonzero" xlink:href="#path-9"></use>
        </g>
        <g id="Tutorials" transform="translate(134.285714, 7.000000)">
            <g id="Oval">
                <use fill="black" fill-opacity="1" filter="url(#filter-12)" xlink:href="#path-11"></use>
                <use fill="#FFFFFF" fill-rule="evenodd" xlink:href="#path-11"></use>
            </g>
            <mask id="mask-14" fill="white">
                <use xlink:href="#path-13"></use>
            </mask>
            <use id="Mask" fill="#4D52B1" fill-rule="nonzero" xlink:href="#path-13"></use>
        </g>
        <g id="Tutorials" transform="translate(199.428571, 7.000000)">
            <g id="Oval">
                <use fill="black" fill-opacity="1" filter="url(#filter-16)" xlink:href="#path-15"></use>
                <use fill="#4D52B1" fill-rule="evenodd" xlink:href="#path-15"></use>
            </g>
            <mask id="mask-18" fill="white">
                <use xlink:href="#path-17"></use>
            </mask>
            <use id="Mask" fill="#FFFFFF" fill-rule="nonzero" xlink:href="#path-17"></use>
        </g>
        <g id="HR-terms" transform="translate(264.571429, 7.000000)">
            <g id="Oval">
                <use fill="black" fill-opacity="1" filter="url(#filter-20)" xlink:href="#path-19"></use>
                <use fill="#FFFFFF" fill-rule="evenodd" xlink:href="#path-19"></use>
            </g>
            <mask id="mask-22" fill="white">
                <use xlink:href="#path-21"></use>
            </mask>
            <use id="Mask" fill="#4D52B1" fill-rule="nonzero" xlink:href="#path-21"></use>
        </g>
        <g id="HR-terms" transform="translate(329.714286, 7.000000)">
            <g id="Oval">
                <use fill="black" fill-opacity="1" filter="url(#filter-24)" xlink:href="#path-23"></use>
                <use fill="#4D52B1" fill-rule="evenodd" xlink:href="#path-23"></use>
            </g>
            <mask id="mask-26" fill="white">
                <use xlink:href="#path-25"></use>
            </mask>
            <use id="Mask" fill="#FFFFFF" fill-rule="nonzero" xlink:href="#path-25"></use>
        </g>
        <g id="HR-tools-&amp;-calculators" transform="translate(394.857143, 7.000000)">
            <g id="Oval-Copy">
                <use fill="black" fill-opacity="1" filter="url(#filter-28)" xlink:href="#path-27"></use>
                <use fill="#FFFFFF" fill-rule="evenodd" xlink:href="#path-27"></use>
            </g>
            <mask id="mask-30" fill="white">
                <use xlink:href="#path-29"></use>
            </mask>
            <use id="Mask" fill="#4D52B1" fill-rule="nonzero" xlink:href="#path-29"></use>
        </g>
        <g id="HR-tools-&amp;-calculators" transform="translate(460.000000, 7.000000)">
            <g id="Oval-Copy">
                <use fill="black" fill-opacity="1" filter="url(#filter-32)" xlink:href="#path-31"></use>
                <use fill="#4D52B1" fill-rule="evenodd" xlink:href="#path-31"></use>
            </g>
            <mask id="mask-34" fill="white">
                <use xlink:href="#path-33"></use>
            </mask>
            <use id="Mask" fill="#FFFFFF" fill-rule="nonzero" xlink:href="#path-33"></use>
        </g>
    </g>
</svg>