<svg xmlns="http://www.w3.org/2000/svg" xmlns:xlink="http://www.w3.org/1999/xlink" width="1500" height="667" viewBox="0 0 1500 667">
    <defs>
        <path id="a" d="M.23.395h1550.407V667H.229z"/>
    </defs>
    <g fill="none" fill-rule="evenodd">
        <path fill="#fff5ee" d="M814 663c10.97 1.681 23.226 4.287 21.901 2.262l-3.37-1.971c-7.663.352-13.54.133-18.531-.291M332 662.728c9.62.824 17.273 1.17 24 1.272-11.59-1.21-20.939-3.027-24-1.272M356 664.36c8.627.645 18.504 1.041 28-.006-1.708-.15-3.385-.227-5.124-.354-7.088.253-14.22.456-22.876.36M83 5.604c3.117-.108 8.204-.11 13-.133-2.336-.12-6.257-.108-13 .133M122 664.442c-6.227.113-.987.192 0 0M112 663.242c2.642.213 5.685.391 9 .516-1.454-.135-4.19-.303-9-.516M113 664.506l-6.672-.168c-.962.289-.11.47 6.672.168"/>
        <path fill="#fff5ee" d="M121.674 664.636c2.173-.02 5.242-.046 10.326-.093-4.239.028-8.193-.054-12-.18 1.456.117 2.067.215 1.674.273"/>
        <g transform="translate(-21)">
            <mask id="b" fill="#fff">
                <use xlink:href="#a"/>
            </mask>
            <path fill="#fff5ee" d="M1507.606 659.068l1.33.012-1.727.062c.14-.025.265-.049.397-.074m-1274.591 1.856a18.206 18.206 0 0 0 1.902-.723l28.618-1.779c-24.613-.373-14.07-1.635-8.705-2.79 3.384.177 6.76.295 10.32.274l-9.222-.532c1.53-.398 2.047-.774-.178-1.085 1.639-.082 3.355-.15 5.093-.202 13.583.315 27.912 2.236 12.727 2.551l-2.8-.36c-1.37.783-.166 1.297 2.578 1.645-15 1.337-20.684 3.534-40.333 3.001m-11.496 2.101c.224-.03.379-.054.559-.094 11.645.752 7.514.455-.559.094M43.26 8.326l-1.33-.012 1.726-.062c-.14.024-.264.05-.396.074M1317.85 6.47c-.686.223-1.326.462-1.9.723l-28.62 1.78c24.613.372 14.07 1.634 8.706 2.79-3.385-.178-6.759-.296-10.32-.275l9.223.532c-1.531.398-2.048.774.177 1.085-1.64.082-3.355.15-5.092.202-13.585-.316-27.913-2.237-12.728-2.55l2.8.36c1.368-.784.166-1.299-2.578-1.646 15-1.337 20.684-3.534 40.333-3m11.496-2.102a6.625 6.625 0 0 0-.558.094c-11.646-.752-7.515-.456.558-.094m220.532 478.28c2.463-33.34-2.542-4.32-3.133-29.165 1.37-4.583 3.487 5.904 3.742-10.818.867-6.503-2.333-32.41-2.527-54.317.698 12.915 2.016 6.551 1.682-14.857-.54 6.55-.909 14.726-1.634 8.264.088-3.715.291-7.235.657-10.41-1.057 5.028-2.112 10.02-2.906-1.52-.119-5.555.23-12.336.663-19.52l1.348 15-1.258-16.479c.936-15.314 2.125-32.182-.09-42.798.289-2.25.566-3.098.829-3.19-.823-12.94-1.38-41.344-3.01-50.903.156-1.097.301-2.032.43-2.757.113-.338.22-.698.32-1.08.06-.139.118-.278.179-.417a.56.56 0 0 0-.034-.158c4.334-18.436-3.972-80.816 1.802-80.534l-.332-41.592.549.942c.392 2.614.873 4.02 1.283-5.182.296 6.04.387 11.472.46 16.6.211-5.536.475-10.87.797-15.895l-.109.705.006.144c-.012 0-.016-.03-.027-.03-.218 1.324-.35 1.761-.224.267-.022-.102-.03-.475-.035-.64-.243-.208-.455-.777-.659-1.388.36-8.9.453-1.4.659 1.387.085.102.166.344.259.374a.86.86 0 0 0 .021-.114l-.956-30.783c-.24 6.515-.192 14.672.008 29.136-.518-1.504-.947-3.935-1.344-6.36-.141-17.782-1.376-25.618-2.613-33.407.422-6.146.999-1.66 1.322-1.15.21-6.568.379-12.135.497-17.012.761-2.302 1.48-4.947 2.097-7.744-.604-.41-1.169-.475-1.922-10.634-.007-.525-.013-1.047-.023-1.563a272.995 272.995 0 0 0-.583-13.457l-.557-10.122-.748-11.178-12.611.846c-.08-.044-.173-.088-.255-.132l.498.007c.806-.352.179-.458-1.341-.445a55.46 55.46 0 0 0-2.941-1.412 51.99 51.99 0 0 1-3.027.156l-1.791.035-1.582.011c-2.24-.002-4.993-.065-8.167-.166l-22.654-.844c2.353-.205 4.743-.404 7.166-.585 4.726-.354 9.573-.646 14.486-.8 2.456-.077 4.927-.12 7.407-.12l3.727.035 5.84.106c-1.7-.302-3.15-.525-4.385-.689l-.887-.112c-.266-.034-.605-.064-.718-.09-.32-.056-.611-.099-.88-.13-1.077-.133-1.81-.11-2.704-.103-1.785.018-4.207-.016-11.287-1.433 11.783 3.384-46.003.137-33.233 3.146-13.543-2.703-24.049-1.112-42.172-3.788.589.808 6.728 1.547-10 1.15-.756.235-2.539.535-3.672.711l-1.129-.06.923.095c-.726.122-.79.147.344.033 3.984.354 7.214.78 8.524 1.231-1.779.398-4.401.707-7.505.958-21.116.177-44.358-1.17-63.917-1.67.565-.323 3.32-.626 9.82-.919l-21.047-.08c-12.392-1.008-29.44-1.408-39.95-.652-9.928-.389-25.077 1.988-16.429.582l-33.01 1.113-.306-.449c-32.57-.226-67.05 2.975-104.286-.268-10.966.453-22.297 1.008-40.641.498l-3.577-1.554c-14.076.542-42.278-1.555-48.328.064-15.188-4.18-68.328-.912-93.087-1.654l-.936 2.03c-17.042-.116-33.385.46-54.54 1.275l.596.822-14.517-.12 7.611 1.465c-18.075.433-43.028-1.626-68.134-1.466 1.962-.686 9.28-.506 14.458-.092-34.467-4.05-72.72 2.947-103.98-.004-7.79.652-13.432.43-18.894-.02a21.036 21.036 0 0 0 1.932-.095c-.799-.022-1.984-.025-3.199-.022-3.439-.308-6.982-.667-10.82-.955 3.264.436 6.385.795 9.103.961-6.007.037-15.12.26-24.05.71l-3.805-1.927-2.065.055c-8.764-.71-7.047.912-2.37 2.361-4.496.317-8.618.697-11.812 1.162-7.12-3.109-23.432 1.048-33.15-2.269-4.584 1.232-28.219 1.295-41.333 2.757.04-.49-.664-1.014-5.388-1.494-10.672.57-21.957.717-33.684.658l-.43-.249-1.572.237c-9.701-.067-19.7-.267-29.935-.5a87.986 87.986 0 0 1 4.197-.689c-2.605.24-4.934.443-7.07.623-21.17-.49-43.268-1.054-65.651-.728-.752.704 7.32 1.78-3.018 2.826l-25.45-3.517c-9.52.345-8.764 4.061-26.16 1.62 1.062.255 2.347.566 2.952.856-35.431-.277-83.74.174-119.563-1.639 2.093.911 2.383 1.385 1.488 1.587l-4.336.033c-8.081-.459-23.63-2.419-25.037-.096-3.22-1.1-10.924-1.725-1.971-2.683-28.21 1.083-42.385-1.749-61.862 1.3-3.23-1.109 6.037-1.619 3.165-2.273-2.263.238-8.962.96-11.9.3-2.872-.656 4.132-.925 8.598-1.406-21.567.14-28.625 2.078-31.69 4.382-16.375-.473-32.71-1.194-48.967-2.286 12.99 1.364 4.333 1.498-5.586 1.55 3.048.153 3.182.55 2.609 1.026-9.024-.123-19.037-.186-26.896-.012l-14.74-.972c-6.832 2.471-38.421.486-45.995 2.27L28.94 8.26l-17.552.102 8.43.418c-3.691 1.095-7.207 1.5-11.626 1.581.075 4.06-.117 8.31-.298 13.528l-.229 7.865c-.05 2.46-.062 5.1-.002 7.951l-.32-.505c-2.25 40.552 1.08 17.507-1.49 57.516l1.94-2.177c4.176 3.73-2.462 35.446-.865 58.665l1.109-8.382c.6 5.321-.305 12.417-1.594 19.803l-2.014-6.829c.085 4.907.232 10.153.4 15.504-1.41 7.34-2.774 14.394-2.991 19.705-.363 2.775-.583-4.384-.851-8.259-2.463 33.341 2.542 4.32 3.133 29.165-1.372 4.583-3.487-5.904-3.742 10.818-.867 6.503 2.332 32.41 2.526 54.317-.697-12.914-2.013-6.55-1.68 14.856.539-6.549.907-14.725 1.634-8.263-.09 3.716-.292 7.235-.66 10.411 1.058-5.029 2.113-10.02 2.908 1.52.119 5.554-.231 12.335-.664 19.52l-1.347-15 1.257 16.478c-.935 15.314-2.124 32.182.09 42.798-.288 2.25-.565 3.098-.828 3.192.823 12.94 1.38 41.342 3.01 50.901a82.646 82.646 0 0 1-.43 2.756c-.113.338-.22.7-.32 1.082l-.179.416a.56.56 0 0 0 .034.158c-4.334 18.435 3.972 80.816-1.803 80.534l.333 41.592-.549-.943c-.392-2.613-.874-4.018-1.283 5.182-.297-6.039-.388-11.47-.46-16.598a617.355 617.355 0 0 1-.797 15.894c.043-.28.074-.475.108-.704l-.006-.145c.012 0 .016.03.028.03.218-1.324.35-1.76.223-.268.022.103.03.476.036.642.243.208.455.776.66 1.387-.361 8.9-.454 1.401-.66-1.387-.084-.102-.165-.344-.259-.374a.835.835 0 0 0-.022.115l.957 30.782c.241-6.515.192-14.672-.008-29.136.518 1.505.947 3.935 1.344 6.36.141 17.782 1.375 25.618 2.612 33.407-.42 6.145-.997 1.66-1.322 1.15-.21 6.57-.379 12.135-.496 17.012-.76 2.302-1.48 4.947-2.096 7.744.604.41 1.168.475 1.92 10.634a273.05 273.05 0 0 0 .607 15.02l.557 10.122L6.1 659.1l12.612-.846c.08.044.173.088.255.132l-.498-.007c-.807.352-.18.458 1.341.445.914.471 1.876.941 2.94 1.412.809-.072 1.823-.123 3.028-.155l1.79-.036 1.582-.01c2.24.001 4.994.064 8.166.165l22.654.845c-2.352.204-4.742.402-7.166.584-4.726.354-9.573.646-14.485.8-2.455.077-4.927.12-7.408.12l-3.726-.035-5.84-.106c1.7.303 3.15.525 4.384.69l.887.111c.267.033.606.064.72.091.32.055.61.098.879.131 1.077.131 1.81.11 2.703.101 1.786-.018 4.207.015 11.288 1.432-11.783-3.383 46.003-.136 33.233-3.146 13.543 2.704 24.049 1.114 42.172 3.79-.588-.81-6.729-1.548 10-1.149.756-.237 2.538-.537 3.671-.713l1.13.06-.924-.095c.726-.122.79-.147-.343-.034-3.985-.353-7.213-.779-8.524-1.23 1.78-.398 4.402-.707 7.507-.958 21.115-.177 44.356 1.17 63.915 1.67-.565.323-3.321.626-9.82.92l21.048.08c12.391 1.007 29.438 1.407 39.95.651 9.928.39 25.076-1.988 16.428-.582l33.011-1.113.306.45c32.569.226 67.048-2.976 104.285.267 10.966-.453 22.298-1.008 40.642-.498l3.576 1.554c14.075-.543 42.278 1.555 48.327-.064 15.188 4.182 68.329.912 93.087 1.654l.937-2.029c17.042.115 33.385-.46 54.54-1.276l-.597-.822 14.519.121-7.612-1.466c18.076-.433 43.028 1.626 68.133 1.466-1.962.686-9.279.506-14.457.092 34.467 4.051 72.721-2.947 103.981.004 7.788-.652 13.43-.43 18.893.021a20.71 20.71 0 0 0-1.933.094c.8.022 1.984.026 3.2.022 3.439.308 6.98.668 10.82.955-3.263-.436-6.386-.795-9.103-.96 6.007-.038 15.118-.26 24.05-.71l3.804 1.926 2.066-.055c8.763.711 7.046-.912 2.37-2.36 4.495-.318 8.618-.699 11.813-1.163 7.12 3.11 23.432-1.047 33.147 2.27 4.586-1.233 28.22-1.296 41.335-2.758-.04.49.664 1.014 5.388 1.493 10.672-.568 21.957-.716 33.684-.657l.43.25 1.57-.239c9.702.068 19.701.267 29.936.501a86.894 86.894 0 0 1-4.197.688c2.606-.238 4.935-.442 7.068-.622 21.172.49 43.27 1.054 65.653.728.752-.703-7.32-1.779 3.02-2.826l25.45 3.517c9.52-.345 8.764-4.06 26.157-1.619-1.06-.255-2.346-.567-2.95-.857 35.431.277 83.741-.174 119.564 1.638-2.094-.91-2.385-1.384-1.49-1.586 1.446-.01 2.892-.022 4.337-.033 8.082.46 23.63 2.42 25.036.096 3.222 1.101 10.924 1.725 1.972 2.684 28.21-1.084 42.385 1.748 61.862-1.299 3.23 1.107-6.038 1.617-3.165 2.271 2.264-.238 8.962-.959 11.899-.3 2.873.656-4.131.925-8.596 1.406 21.565-.139 28.624-2.078 31.689-4.38 16.376.471 32.71 1.192 48.967 2.284-12.989-1.363-4.333-1.498 5.586-1.549-3.049-.154-3.181-.55-2.609-1.027 9.023.123 19.037.186 26.895.012l14.74.972c6.832-2.47 38.421-.486 45.995-2.269l3.244.007 17.554-.1-8.432-.419c3.692-1.095 7.207-1.499 11.627-1.582-.076-4.058.116-8.308.298-13.528l.229-7.864c.05-2.459.062-5.1.002-7.95l.32.503c2.25-40.55-1.079-17.506 1.49-57.515l-1.94 2.178c-4.176-3.73 2.461-35.447.864-58.666l-1.108 8.382c-.598-5.32.305-12.417 1.594-19.802l2.014 6.828c-.085-4.906-.233-10.154-.4-15.504 1.411-7.339 2.774-14.394 2.99-19.705.365-2.776.584 4.385.852 8.26" mask="url(#b)"/>
        </g>
        <path fill="#fff5ee" d="M50 665.473l-2 .054a38.346 38.346 0 0 0 2-.054M50 664c.293.355 2.471.845.12 1l13.88-.414c-7.52.088-10.204-.302-14-.586M145.77 663.16c-5.187-.394-3.256 1.951-6.192 1.329-5.795 1.942 34.601-2.35 6.192-1.33M30 3.62L16 3l9.036 1zM3 7L-.38 4-9 6.715C-5.757 6.582.534 6.323 3 7M694 4c-10.97-1.68-23.226-4.287-21.901-2.262l3.368 1.971C683.132 3.357 689.01 3.576 694 4M1177 4.272c-9.62-.824-17.273-1.17-24-1.272 11.59 1.21 20.939 3.027 24 1.272M1153 2.64c-8.626-.645-18.504-1.042-28 .005 1.708.152 3.386.228 5.124.355 7.088-.252 14.22-.456 22.876-.36M1426 661.397c-3.117.107-8.203.109-13 .133 2.336.119 6.257.107 13-.133M1387 2.558c6.226-.113.987-.191 0 0"/>
        <path fill="#fff5ee" d="M1397 2.758a213.773 213.773 0 0 0-9-.516c1.454.135 4.189.303 9 .516M1396 2.494c2.633.066 4.7.12 6.672.168.962-.289.11-.47-6.672-.168M1386.326 2.363L1376 2.457c4.24-.028 8.193.054 12 .18-1.456-.117-2.067-.215-1.674-.274M1459 1.527l2-.054c-.868.005-1.508.025-2 .054M1459 3c-.293-.355-2.472-.845-.119-1L1445 2.414c7.518-.088 10.204.303 14 .586M1363.23 3.84c5.187.394 3.256-1.951 6.192-1.329 5.795-1.942-34.601 2.35-6.192 1.33M1479 663.38l14 .62-9.036-1z"/>
    </g>
</svg>
