<svg id="Layer_1" xmlns="http://www.w3.org/2000/svg" viewBox="0 0 642.8 55.4" enable-background="new 0 0 642.8 55.4"><style>.st0,.st1{fill:none;stroke:#008176}.st1{stroke:#17bfd2}.st3,.st5{fill:none;stroke:#008176;stroke-width:.984}.st5{stroke:#17bfd2;stroke-width:1.026}.st7{fill-rule:evenodd;clip-rule:evenodd;fill:#fff}</style><path class="st0" d="M37.5 27.9L48.1 33 24.6 44.3 1.1 33l10.7-5.2"/><path class="st0" d="M44.5 45l-5.1 2.4-.8.4-.3.2-.6.3-13.1 6.3L1.1 43.3l10.7-5.2M46.8 43.9l-.8.4"/><path class="st1" d="M37.3 17.5L48 22.7 24.6 34 1.1 22.7l10.7-5.2"/><path class="st0" d="M24.6 23.7L1.1 12.3 24.6 1l23.5 11.4-23.5 11.3z"/><path class="st0" d="M24.6 7.5l1.2 2.5 2.7.4-2 1.9.5 2.7-2.4-1.3-2.4 1.3.5-2.7-2-1.9 2.7-.4 1.2-2.5zM115.1 11.2h12m-12 4h9m.9 7.3c-1.9.9-4 1.2-6 .9-4.7-.6-8.6-4.4-9.4-9.1-1-6 3-11.7 9-12.8 1.2-.2 2.5-.2 3.7 0 4.8.8 8.6 4.8 9.1 9.7.4 3.2-.7 6.4-2.9 8.7v3.5l-3.5-.9z"/><path class="st1" d="M102.1 43.2l-4.5 3.5v-3.5h-15v-18h28v18h-8.5z"/><path d="M86.1 30.2h21m-21 4h21m-21 4h9" fill="none" stroke="#04766b"/><path class="st0" d="M99.1 38.2h-1m6.5-18.6l2.1-2.1m-2.1-12.9l2.1 2.1m18.9 23h-.7c-1 .1-2 .5-2.8 1.1-4.7 3.7-2.2 14.2 3.3 14.3 5.5-.1 8.1-10.6 3.4-14.3-.8-.6-1.7-1-2.7-1.1h-.5zm5.5 16.4c2.6 1.8 4.2 4.8 4.2 8h-19.6c0-3.4 1.7-6.3 4.3-8.1m-14.9-33.8h-3"/><g><path class="st3" d="M174.7 31.8V2.3h37v29.5M181.2 9.3h24m-24 6h24m-24 6h9m1 0h1"/><path d="M205.7 27.3c0 3.3-2.7 6-6 6s-6-2.7-6-6 2.7-6 6-6c1.5 0 3 .6 4.1 1.6" fill="none" stroke="#17bfd2" stroke-width=".984"/><path class="st3" d="M207.2 22.8l-6 6-3-3m-25.5 4.5l16 9h9l16-9"/><path class="st3" d="M211.8 28.8l2 1.5v23h-41v-23l2-1.5m-2.1 24.5l16-14m25 14l-16-14"/></g><g><path class="st0" d="M265.4 7.1c3.3-4.4 8.6-6.7 14-6.1 7.5.8 13.6 8.1 13.6 15.7v2.2"/><path class="st0" d="M295.2 16.8l-2.1 2.1-2.1-2.1m-1.2 31.8c-3.3 4.4-8.6 6.7-14 6.1-7.5-.8-13.6-8.1-13.6-15.7v-2.1"/><path class="st0" d="M259.9 38.9l2.1-2.1 2.1 2.1"/><path class="st3" d="M259.1 26.9V7.4h37v19.5"/><path class="st5" d="M265.6 14.4h24m-24 6h24m-24 6h9m1 0h1"/><path class="st3" d="M257.1 25.4l16 9h9l16-9"/><path class="st3" d="M296.1 23.8l2 1.5v23h-41v-23l2-1.5m-2 24.6l16-14m25 14l-16-14"/></g><g transform="translate(9 4)"><path class="st0" d="M364.9 41.4l-8.7 9.5h-26.3V.2l3.5-3.5 3.5 3.5 3.5-3.5 3.5 3.5 3.5-3.5 3.5 3.5 3.5-3.5 3.5 3.5 3.5-3.5 3.5 3.5v41.2z"/><path class="st1" d="M341.4 11.2c0 1.9-1.6 3.5-3.5 3.5s-3.5-1.6-3.5-3.5 1.6-3.5 3.5-3.5 3.5 1.6 3.5 3.5z"/><path class="st0" d="M341.4 8.6l-3.5 3.5-1.7-1.7m8.2-.5h16m-16 3h6m1.9-.2h.9"/><path class="st1" d="M341.4 23c0 1.9-1.6 3.5-3.5 3.5s-3.5-1.6-3.5-3.5 1.6-3.5 3.5-3.5 3.5 1.5 3.5 3.5z"/><path class="st0" d="M341.4 20.4l-3.5 3.5-1.7-1.7m8.2-.3h16m-16 3h6m1.9-.5h.9"/><path class="st1" d="M341.4 34.8c0 1.9-1.6 3.5-3.5 3.5s-3.5-1.6-3.5-3.5 1.6-3.5 3.5-3.5 3.5 1.5 3.5 3.5z"/><path class="st0" d="M341.4 32.2l-3.5 3.5-1.7-1.7m8.2-1.1h16m-16 3h6m1.9.3h.9"/><defs><filter id="Adobe_OpacityMaskFilter" filterUnits="userSpaceOnUse" x="369.4" y="1.4" width="7" height="39.2"><feColorMatrix values="1 0 0 0 0 0 1 0 0 0 0 0 1 0 0 0 0 0 1 0"/></filter></defs><mask maskUnits="userSpaceOnUse" x="369.4" y="1.4" width="7" height="39.2" id="b_4_"><g filter="url(#Adobe_OpacityMaskFilter)"><path id="a_4_" class="st7" d="M329.4 51.4h47V-4h-47v55.4z"/></g></mask><path d="M369.9 31.9h6v-23h-6v23zm6 .5v3.9l-3 3.5-3-3.5v-3.9m0 0v-23m6 0v23m-3-23v23m-.4-30.5h.8c1.4 0 2.6 1.2 2.6 2.6v4.4h-6V4.5c0-1.4 1.1-2.6 2.6-2.6z" mask="url(#b_4_)" fill="none" stroke="#008176"/><defs><filter id="Adobe_OpacityMaskFilter_1_" filterUnits="userSpaceOnUse" x="355.4" y="1.4" width="21" height="49"><feColorMatrix values="1 0 0 0 0 0 1 0 0 0 0 0 1 0 0 0 0 0 1 0"/></filter></defs><mask maskUnits="userSpaceOnUse" x="355.4" y="1.4" width="21" height="49" id="b_3_"><g filter="url(#Adobe_OpacityMaskFilter_1_)"><path id="a_3_" class="st7" d="M329.4 51.4h47V-4h-47v55.4z"/></g></mask><path d="M372.5 1.9h.8c1.4 0 2.6 1.2 2.6 2.6v4.4h-6V4.5c0-1.4 1.1-2.6 2.6-2.6zm-16.6 48.5v-9.5h8.5" mask="url(#b_3_)" fill="none" stroke="#008176"/></g><g><path class="st0" d="M473.4 51.3v-47h-55v47h55zm-54.5-39h55m-43.5-7.5v8M435.9 8.3h20m-34 0h1m1 0h1m1 0h1"/><path class="st1" d="M465.5 39.4l-11-4.4 4.4 11 1.4-5.2 5.2-1.4z"/><path class="st0" d="M427.4 28.8v15m-3.5-.5h9m-9-15h6.5v15.5M430.4 22.8c0 1.4-1.1 2.5-2.5 2.5s-2.5-1.1-2.5-2.5 1.1-2.5 2.5-2.5 2.5 1.1 2.5 2.5zm5.5 5.5h20m-20 4h11m1 0h1"/></g><g><path class="st5" d="M531.5 32.3h14m-14 4h9"/><path class="st0" d="M512 31.8V2.3h37v29.5"/><path class="st0" d="M510 30.3l16 9h9l16-9"/><path class="st0" d="M549 28.8l2 1.5v23h-41v-23l2-1.5m-2 24.5l16-14m25 14l-16-14"/><path class="st0" d="M516 17.3h13v-11h-13v11zm13 16.5v1m-13-1V20.3h13v11"/><path class="st5" d="M531.5 8.3h14m-14 4h14m-14 4h14m-14 4h14m-14 4h14m-14 4h14"/></g><g><path class="st0" d="M587.3 37.3v13.5h47v-4.5m-47-13v1"/><path class="st0" d="M595.3 41.3v-34m38.5-.5h8.5v34h-47v-34h8.5m5 0h19"/><path class="st0" d="M638.3 41.3v4.5h-47v-35h3.5"/><path class="st1" d="M609.3 18.8h-.4c-.6.1-1.2.3-1.6.7-2.8 2.2-1.3 8.3 2 8.4s4.7-6.2 2-8.4c-.5-.4-1-.6-1.6-.7h-.4zm-5.7 11.9c.3-1.4 1.2-2.7 2.4-3.6m6.5.1c1.2.8 2.1 2.1 2.3 3.6"/><path class="st0" d="M621.8 19.8h15m-15 4h15m-15 4h6m3 0h-1m-20.5-21c0 1.1-.9 2-2 2h-2c-1.1 0-2-.9-2-2s.9-2 2-2h2c1.1 0 2 .9 2 2zm20.5-2h2c1.1 0 2 .9 2 2s-.9 2-2 2h-2c-1.1 0-2-.9-2-2s.9-2 2-2zm-20.5 10c5 0 9 4 9 9s-4 9-9 9-9-4-9-9 4.1-9 9-9z"/></g></svg>