<svg xmlns="http://www.w3.org/2000/svg" xmlns:xlink="http://www.w3.org/1999/xlink" width="729" height="272" viewBox="0 0 729 272">
    <defs>
        <path id="a" d="M8 0h712a8 8 0 0 1 8 8v256a8 8 0 0 1-8 8H8a8 8 0 0 1-8-8V8a8 8 0 0 1 8-8z"/>
        <filter id="b" width="122.9%" height="161.4%" x="-11.5%" y="-24.4%" filterUnits="objectBoundingBox">
            <feOffset dy="17" in="SourceAlpha" result="shadowOffsetOuter1"/>
            <feGaussianBlur in="shadowOffsetOuter1" result="shadowBlurOuter1" stdDeviation="25"/>
            <feColorMatrix in="shadowBlurOuter1" values="0 0 0 0 0 0 0 0 0 0 0 0 0 0 0 0 0 0 0.144886364 0"/>
        </filter>
    </defs>
    <g fill="none" fill-rule="evenodd">
        <mask id="c" fill="#fff">
            <use xlink:href="#a"/>
        </mask>
        <use fill="#000" filter="url(#b)" xlink:href="#a"/>
        <use fill="#FFF" xlink:href="#a"/>
        <path fill="#FFF5EE" d="M629.898 322.086c-.021-.1 1.042.596 2.198 1.356 1.174.732 2.443 1.526 2.79 1.68 1.12.777-3.102-1.735-4.988-3.036zm-1.043-2.024a58.37 58.37 0 0 1-1.316-1.206c-.44-.42-.868-.832-1.226-1.176-.35-.353-.615-.65-.761-.808.779.65 1.23 1.09 1.795 1.668.283.288.596.608 1.002.996.204.193.428.405.689.633.267.221.564.464.901.73a13.569 13.569 0 0 1-1.084-.837zm-6.274-.115a40.916 40.916 0 0 1-1.159-1.226c-.732-.804-1.358-1.538-1.738-1.956 1.187 1.058 1.636 1.569 2.078 2.1.443.53.864 1.097 2.055 2.197a18.27 18.27 0 0 1-1.236-1.115zm-2.862-3.217c.812.921 1.651 1.773 2.366 2.524.718.747 1.308 1.398 1.71 1.833-.237.011-4.296-4.3-4.076-4.357zm2.21-8.172c.1.18-.317-.293-.77-.81-.49-.56-.942-1.142-1.426-1.727.594.655.851.862.868.743.94 1.142 1.934 2.246 2.905 3.38 1.366 1.827-4.2-4.737-1.577-1.586zm-15.927-14.874c-.017-.666 0-1.321.002-1.952-.002-.314.02-.645.032-.968l.04-.983c.04.283.033.975.035 1.748l.018 1.18.006.576.025.516c-.02-.035-.054-.345-.063-.666-.013-.317-.025-.623-.047-.609-.022.052-.015.433-.005.837.022.394.05.809.042.954.105 1.272.026-.458.102-.084l.059.858c.022.285.058.558.087.838-.163-.731-.133-.2-.078.534.041.746.18 1.633.114 1.712-.26-1.7-.328-3.165-.369-4.491zm11.194 4.233c-.595-.84-1.262-1.813-2.004-2.835a66 66 0 0 1 1.395 1.894l.498.695.546.74 1.14 1.547c.059.132-.818-1.03-.054.02-.406-.511-.92-1.224-1.521-2.061zm-9.239 2.045c-.6-.78-1.126-1.495-1.585-2.123-.461-.626-.854-1.166-1.161-1.596-.615-.86-.896-1.287-.717-1.12a308.55 308.55 0 0 1 2.724 3.716c.624.856.916 1.28.74 1.123zm7.326-4.787c.388.546.68.965.93 1.324l.687.968.734 1.03c.29.4.63.882 1.109 1.504-.286-.361-.684-.89-1.114-1.469-.43-.578-.895-1.205-1.303-1.763-.805-1.12-1.375-1.968-1.043-1.594zm1.274 1.887c-.42-.586-.806-1.13-1.061-1.498-.25-.37-.37-.564-.271-.448.451.663 1.051 1.486 1.664 2.345.31.428.619.867.935 1.295.316.43.626.849.919 1.245-.175-.217-.514-.66-.915-1.193-.402-.532-.849-1.161-1.271-1.746zm-8.675 2.806a213.104 213.104 0 0 1-2.118-2.895c-.478-.675-.82-1.184-1.315-1.891.547.734 4.258 5.79 3.433 4.786zm-1.697-8.125c-.03-.28-.047-.607-.08-1.01-.037-.401-.058-.9-.088-1.535-.04-.681-.014.423-.073.048l-.01-.325a240.675 240.675 0 0 0-.002-.941c.063.188.05-.392.068-1.113 0-.71.038-1.563.077-1.838a27.638 27.638 0 0 0-.045 1.686c-.001.301-.006.586-.012.805-.002.217-.01.372-.03.423l.04.871.065.968c-.035-.337-.039-.279-.027 0 .007.14.012.337.03.56.02.224.04.48.063.748l.034.407c.012.137.03.269.043.401l.077.74.056.546c.011.138.013.224 0 .24l-.062-.468c-.019-.144-.029-.283-.043-.415l-.08-.798zm.051.51c-.03-.7-.052-1.634-.075-2.589-.02 1.13-.2-.032-.28-.576-.084.547.09 3.886-.08 3.179a43.652 43.652 0 0 1-.027-2.502c.012-.542.066-.881.103-1.198.041-.319.084-.629.116-1.145.016-.257.03-.566.04-.954l.014-.642c.009-.241.018-.505.03-.797.008.281.017.565.024.853l.039.873c.02.6.037 1.229.048 1.913l.006.523.023.532.042 1.133c.031.786.042 1.654.112 2.567-.04-.026-.103-.472-.135-1.17zm-.16-13.163c-.003 1.154.066 2.974.134 4.645.048.828.089 1.624.113 2.285.032.658.061 1.173.048 1.464-.293-3.348-.353-6.101-.294-8.394zm.245 14.215l-.165-4.113-.041-1.029-.013-1.045-.025-2.089c.045.03.09.647.13 1.536.015.445.032.959.052 1.496l.083 1.643c.098 2.197.135 4.226-.02 3.601zm-.217-14.141c-.079 1.85.254 6.514.267 8.32-.105-.67-.244-2.961-.33-4.976-.067-2.023-.026-3.798.063-3.344zm.966 3.19c-2.28-3.124-1.381-1.99-2.68-3.839 1.332 1.845 1.745 2.365 1.613 2.163-.064-.1-.256-.38-.517-.758l-.915-1.354 1.585 2.244c.405.573.848 1.198 1.843 2.561-1.006-1.292-.29-.285-.929-1.017zm-1.091-1.072c.026-.142.052-.308.068-.725l.03-1.467c-.004.344-.002.737.014 1.158.03.806.064 1.732.096 2.66l.099 2.657c.045.798.079 1.476.085 1.92-.074-.182-.189-1.285-.268-2.27-.071-.991-.143-1.848-.215-1.494-.02-1.958.036-2.152.09-2.439zm.114-7.934c-.02-1.501-.007-3.144-.012-4.308-.032-1.554.04-.052.11 2.06l.105 3.314c.048 1.046.082 1.94.075 2.38-.143-.603-.257-1.943-.278-3.446zm-3.515.822c.042.534.085 1.07.13 1.604-.047-.46-.095-1.011-.13-1.604zm-2.308-14.837l-.13-2.498a205.04 205.04 0 0 1-.058-2.337c-.01-.341-.006-.649.002-.91.006-.26.014-.475.024-.63 0 .365-.004.76 0 1.174.013.416.024.849.037 1.288l.039 1.322.067 1.29c.071 1.659.192 3.032.152 3.32-.026-.521-.082-1.231-.133-2.019zm.127 2.011c-.059-.798-.118-1.453-.141-2.049-.022-.596-.04-1.136-.062-1.714l-.057-1.932-.03-2.69c.022-.023.047.505.07 1.306l.033 1.37.062 1.576.058 1.567c.014.498.028.96.05 1.352.039.783.05 1.281.017 1.214zm-.289-14.326c.036.876.032 2.517.108 3.147.017.99-.006 1.479.012 2.134.018.655.019 1.466.175 3.113l-.107-1.136c-.036-.36-.046-.702-.066-1.037l-.048-.98c-.014-.32-.031-.637-.032-.955l-.033-1.98c-.001-.697.002-1.449-.009-2.306zm.086 4.758l-.067-2.532c-.02-.827-.007-1.595-.019-2.226.034.525.056 1.05.067 1.605.015.557.033 1.15.052 1.808l.046 2.193c.005.407.023.842.05 1.306l.08 1.482c-.062-.5-.183-1.986-.209-3.636zm.09-3.339c-.035-.339-.077-.677-.097-1.005l-.067-.988c-.01-.165-.022-.331-.03-.496l-.015-.496-.028-1.017c-.007-.345.002-.692.002-1.054-.005-.726.032-1.477.06-2.302.014 1.999-.048 4.857.294 8.394l-.118-1.036zm5.88-11.927c-.022-.377-.044-.756-.068-1.135l-.03-.564-.01-.549-.024-2.09c-.003-.658.031-1.25.045-1.784l.011.793c.004.336 0 .73.023 1.177.015.441.031.921.05 1.413.02.494.02.987.057 1.487.06.992.11 1.922.134 2.574.041.663.054 1.046.003.926-.038-.366-.088-.746-.115-1.12l-.076-1.128zm-.057-1.29l-.028-2.09c-.024-.8.014-1.67-.002-2.742.1 1.02.054 2.203.1 3.628.015.709.029 1.461.044 2.247l.04 1.215.11 1.304c-.226-1.317-.246-2.32-.264-3.561zm-.259-8.112c.127-.272.065 1.17.092 1.705.084.4.066-.053.048-.506-.02-.455 0-.88.062-.498-.069-.86-.066-2.474.06-2.117a58.78 58.78 0 0 0-.033 1.95c.001.18-.003.356.004.541.008.187.017.374.027.56l.059 1.09c.022.35.033.676.064.986l.086.826c.05.47.08.762.082.77.035.656-.057.214-.12.026-.03-.093-.054-.122-.052.081.003.205.021.633.144 1.509-.36-1.408-.394-3.835-.523-6.923zm4.941-.904c-.074-.427-.106-.838-.141-1.23-.04-.397-.08-.77-.11-1.073.113-.25.215.825.323 1.095-.051-.518-.114-.963-.11-1.292-.002-.333.005-.599.017-.824a7.81 7.81 0 0 0-.164-.959c.015-.628.06-.818.105-1.038.047-.218.066-.492.142-1.186-.02.2-.042.397-.062.59l-.015.617c-.006.412-.012.825-.02 1.263.02.46.039.944.06 1.478 0 .258.03.554.058.862.024.306.053.63.08.97-.132.134-.097.913.194 2.614-.122-.32-.223-1.047-.357-1.887zm1.718-5.879c.606-.962.91-1.417 1.217-1.874l1.243-1.866c.307-.276-2.286 3.551-3.127 5.075-.353.43 1.024-1.772.667-1.335zm-.013.043c.211-.405.436-.758.66-1.134.453-.749.977-1.533 1.83-2.668-.258.359-.543.78-.847 1.22l-.441.691-.226.35c-.075.118-.143.24-.215.36l-.422.704c-.141.228-.262.463-.388.679l-.357.615c-.108.194-.207.376-.3.535.248-.526.49-.95.706-1.352zm4.897-4.926l2.12-2.57c.425-.52.778-.948 1.696-2.01-.294.413-.75 1.011-1.37 1.79-.313.386-.662.82-1.05 1.302-.39.48-.83.997-1.28 1.585l-.116-.097zm.181-5.247c.121-.186.266-.42.467-.643l.635-.742c.115-.128.227-.263.352-.387.128-.121.257-.242.386-.361l.749-.682c.24-.21.491-.372.694-.52.413-.289.694-.454.726-.401a21.932 21.932 0 0 0-4.257 4.17c.042-.097.128-.247.248-.434zm5.839-.42c.22-.205.175-.184.173-.201.001-.016.037-.08.453-.42.69-.419 2.697-2.007 3.758-2.469l-.748.476c-.212.131-.359.232-.406.24-.363.371-1.068.728-1.037.839-.427.297-.825.624-1.239.935-.204.159-.415.31-.613.476l-.593.497c-.026-.051 2.386-2-.089-.088-.5.37-.04.018.34-.285zm2.543-7.553c.178-.017.376-.016.562-.024.382-.008.759-.018 1.13-.027.365-.017.763.006 1.148.024.381.015.753.03 1.114.046.346.002.719.042 1.06.067l.96.058c-1.2.009-2.888-.053-4.433.003l-1.16.03c-.374.017-.713.06-1.056.083-.344.024-.673.047-.98.07-.292.037-.562.074-.807.107.548-.201 1.241-.289 1.936-.376l.526-.06zm7.662-8.656l2.448-1.78a4066.2 4066.2 0 0 1 2.474-1.73c-.532.408-1.886 1.356-1.614 1.234-.791.537-1.666 1.18-2.324 1.644-.658.465-1.094.759-.984.632zm.477-.312c-.322.224-.556.394-.459.292 1.266-.943 2.197-1.609 2.954-2.153.759-.541 1.354-.932 1.946-1.338.064-.026-.949.696-1.642 1.198-.69.514-1.067.793.258-.14.065-.024-.55.425-1.308.977-.756.552-1.66 1.195-2.16 1.58.592-.466.384-.356 1.366-1.082-.232.156-.635.442-.955.666zm6.672-1.575l.682-.038.581-.004.976.009c.628.012 1.256-.004 2.432.02-.33-.037-.664-.093-1.411-.097-.01-.092 2.548.078 3.42.107-.245.046-2.111-.018-1.234.12-2.663-.175-5.402.004-7.2.173.662-.096 2.017-.187 1.754-.29zm.21.026c.923-.033 1.6-.038 2.1-.052.506-.008.84-.016 1.055-.08.721 0 1.194 0 1.676.028.481.027.95.054 1.64.075-.54.026-1.12.03-1.746.022-.614.007-1.268.009-1.975.006-1.401.011-2.972.06-4.715.265a23.14 23.14 0 0 1 1.966-.264zm10.923.336c.337-.066.412-.165-.843-.187 2.268-.189 2.936-.116 3.72-.092.394.015.82.025 1.506.005a70.368 70.368 0 0 0 3.102-.091c-.804.15-2.137.15-3.596.21-1.445.077-3.07.135-4.453.387-.318-.054.236-.151.564-.232zm5.194-6.28c.804-.014 1.429-.033 1.644-.066 1.426.042.31.091-1.586.134-1.913.012-4.517.162-6.186.213-.19-.083 1.525-.156 3.394-.227.926-.05 1.93-.034 2.734-.053zm-4.843.05c1.154 0 1.453.05 2.901.037.712-.027 1.055-.066 1.574-.1.511-.041 1.215-.056 2.659-.012-1.009.11-4.967.37-8.436.293.712-.088 1.421-.126 1.302-.218zm2.235-.084c3.287-.108 2.496.054 4.899.01-.767.08-2.098.127-3.628.159-.769.005-1.573.038-2.38.068l-2.39.079c-.553-.1 5.46-.22 3.5-.316zm2.468.148c.214-.024.456-.05.763-.078.307-.026.684-.043 1.161-.067-.135.028-.699.063-.785.09l1.035-.057.438-.02c.138-.006.267-.006.387-.008.477-.006.803 0 .962.016l.445-.016.42-.009.789-.017c.256-.004.507-.013.77-.006.262.006.532.017.82.033l-1.072.01-1.027.017c-.677 0-1.325.028-1.977.04l-.487.01-.484.021-.977.043c-.33.01-.655.041-.99.064l-1.016.078c.217-.027.3-.042.236-.042a6.632 6.632 0 0 0-.641.052c.486-.068.805-.102 1.23-.154zm10.919.02c.74-.035 1.686-.07 2.644-.097 1.918-.06 3.888-.095 4.385-.062-.136.035-.678.048-1.42.08-.739.035-1.683.067-2.641.096l-4.374.117c.138-.036.666-.097 1.406-.134zm-1.325.048c1.923-.127 4.477-.162 8.354-.207-.295.193-2.892.287-8.323.397a11.34 11.34 0 0 0-.031-.19zm47.62 7.567c2.736 1.938 3.479 2.59 3.011 2.392l-2.324-1.666-2.35-1.623c-.591-.54 1.144.624 1.664.897zM724.376 199c.44.33.996.745 1.61 1.245l1.998 1.694c-1.042-.666-1.127-.815-1.643-1.061l-.74-.625-.757-.602-1.522-1.206c-.274-.367.172-.099 1.054.555zm13.543 7.766c-.008.041-.138-.17-.293-.435a74.625 74.625 0 0 0-.24-.412 9.98 9.98 0 0 0-.221-.326c-.079-.052-.007.076.1.246.11.168.232.4.292.52.034.013.106.106.21.265.105.159.244.381.387.678-.056-.01-.158-.174-.227-.27-.074-.09-.105-.123-.019.127-.397-.662-.062-.298-.351-.8-.046.024-.205-.253-.334-.432-.129-.18-.208-.283-.054.046-.26-.416-.437-.685-.64-.967l-.353-.442c-.065-.084-.135-.173-.213-.27-.076-.1-.159-.208-.26-.317.16.14.23.186.25.134-.205-.174-.522-.533-.792-.89-.281-.346-.538-.668-.6-.793a18.103 18.103 0 0 1 3.358 4.338zm-6.614-1.063c.946 1.167 1.131 1.592.909 1.476-.924-1.186-2.632-3.35-2.194-2.58l-.534-.657c-.185-.212-.372-.426-.561-.64-.261-.363-.517-.718-.45-.748 1.333 1.438 2.182 2.593 2.667 3.168.474.584.541.628.163-.02zm3.952-2.41c.772.992.573.843.714 1.091.917 1.208 1.413 1.822 1.611 2.015 1.392 1.997.021.264-1.3-1.49l-1.619-2.167c-.297-.417-.22-.385.594.551zm2.851 4.051c-.37-.584-.86-1.274-1.444-2.097-.297-.408-.63-.839-.978-1.31-.35-.469-.716-.978-1.128-1.505 0-.025.253.26.607.716.352.46.818 1.081 1.278 1.703.898 1.261 1.755 2.54 1.665 2.493zm4.832 15.398c.168.247.33.48.461.696.266.43.456.76.508.876.543.809-.245-.438.233.264.374.61.77 1.23 1.121 1.844.178.307.36.604.524.897l.475.84c-.026-.108-.566-1.062-.453-.94.156.268.313.538.362.596.246.451-.083-.115-.034.017.154.256.304.5.44.746.137.246.27.49.402.738.272.495.52 1.02.812 1.613a79.152 79.152 0 0 1 2.172 5.022c-.033-.059-.137-.318-.148-.314.141.374.261.689.361.95.1.263.17.475.228.638.114.325.16.46.153.45-.006-.011-.064-.168-.159-.426l-.167-.456c-.064-.173-.141-.364-.22-.57-.163-.41-.338-.88-.54-1.352-.2-.473-.396-.96-.6-1.404l-.287-.64-.13-.29-.126-.264c-.16-.333-.284-.59-.353-.727.026.01-.085-.265-.224-.56-.137-.295-.288-.615-.315-.709l-.247-.483-.192-.351a15.1 15.1 0 0 1-.36-.702c-.04-.028.173.384.117.33.16.278.313.556.463.858l.482.988c-.04-.047-.292-.56-.476-.923-.56-1.068-.014.04-.352-.595-.252-.5-.482-.95-.73-1.378-.244-.43-.481-.85-.755-1.29l-.42-.69c-.144-.24-.308-.487-.474-.754l-.26-.414c-.089-.142-.18-.29-.28-.44-.196-.301-.405-.625-.63-.974-.152-.29-.908-1.386-.916-1.47.187.25.365.507.534.753zm8.88 15.705l.181 6.273c-.08-.067-.123-.378-.145-.86a44.312 44.312 0 0 1-.057-1.854l-.018-2.421c-.006-.852-.01-1.73-.066-2.536-.043-1.51.03-.466.105 1.398zm-121.912 82.228c-.337-.204-.576-.402-.766-.529a5.053 5.053 0 0 0-.35-.235c-.093-.05.108.118.652.534l-1.252-.876-.42-.298c-.136-.111-.276-.226-.42-.341-.282-.234-.575-.475-.865-.713l-.424-.36-.387-.373-.363-.358a34.191 34.191 0 0 0 4.814 3.572c-.126-.047-.234-.08-.22-.023zm-1.215-.678c.374.35.703.667.935.914.66.81-1.62-1.229-.528-.196l-.42-.386-.279-.267-.291-.32c-.402-.451-.867-.963-1.266-1.454-.764-1.016-1.344-1.861-.98-1.588.376.446.156.257-.035.037.141.22.385.537.684.904l.482.585c.181.193.371.394.563.594.388.399.772.817 1.135 1.177zM608 283.371a2.593 2.593 0 0 1-.14-.158c-1.293-1.779-1.997-2.77-2.733-3.804a109.51 109.51 0 0 1-.677-.957 577.873 577.873 0 0 0 3.55 4.919zm17.774-78.736c.035-.014.07-.029.103-.045-.372.195-.74.395-1.106.597.307-.243.621-.386 1.003-.552zm1.571-3.578c.2-.111.299-.151.227-.072-.075.077-.315.28-.786.664-.887.662-1.06.738-1.334.897-.137.082-.305.178-.59.39-.283.215-.69.538-1.323 1.057.017-.092 1.712-1.386 1.503-1.308-.611.317-2.304 1.85-2.172 1.576 1.207-.933 1.925-1.545 2.608-2.043l1.002-.747c.348-.255.723-.532 1.197-.835-.151.142-1.34 1.002-2.147 1.605.638-.422 1.423-.953 1.815-1.184zm119.587 29.33c.251 1.755.401 4.602.294 8.395-.028-1.22.027-3.586-.094-3.754-.014-.515-.018-.926-.03-1.244-.015-.317-.025-.55-.032-.729a8.045 8.045 0 0 1-.007-.6c.004-.113.008-.208-.002-.489-.01-.28-.054-.734-.13-1.578zm-4.463-13.013c1.683 2.534-2.187-2.91-3.134-4.254.09.079.35.41.686.856.327.45.728 1.015 1.11 1.556.765 1.082 1.456 2.067 1.338 1.842zM729.6 203.726c.602.72.936 1.152 1.317 1.592.377.443.8.899 1.407 1.837-.138-.175-.284-.356-.434-.542a7.9 7.9 0 0 0-.47-.567c-.33-.377-.67-.77-1.014-1.163-.332-.404-.71-.764-1.064-1.127-.358-.359-.697-.714-1.035-1.023.124-.115 1.059.933 1.293.993zm-78.607-17.399l-1.83 1.307c-.215.112.307-.28 1.233-.95.462-.332 1.027-.74 1.65-1.179l2.004-1.392c.062-.007-.538.428-1.464 1.083l-.75.528-.843.603zm5.845 1.338l-.376.2-.347.19a15.89 15.89 0 0 1-.508.27 35.169 35.169 0 0 1 1.103-.64c.442-.244.933-.517 1.402-.77-.459.213-.578.251-1.799.945-.066.026.14-.093.359-.212.046-.032-.044.013-.178.085 1.479-.823 2.423-1.354 3.77-2.045-.236.106-.827.402-.723.326.271-.131.583-.284.912-.448.329-.163.673-.344 1.009-.501.67-.32 1.303-.629 1.688-.772.443-.254 1.911-.927 4.327-1.9.006.024-.638.294-1.367.591-.364.15-.75.32-1.086.46-.336.145-.623.262-.788.34.276-.071-.43.289-.403.3a.939.939 0 0 0 .184-.07c.125-.052.324-.142.62-.266l1.216-.522c.26-.111.553-.228.88-.363l.517-.213.28-.115.292-.114-.905.41-.584.259c-.209.09-.432.188-.67.297.03-.004.193-.076.402-.161l.677-.278a113.63 113.63 0 0 0-6.924 3.216 106.163 106.163 0 0 0-7.759 4.369c.172-.12.557-.364 1.057-.673.5-.308 1.118-.666 1.752-1.04.318-.18.64-.364.955-.541.315-.178.621-.356.91-.51.574-.315 1.069-.59 1.386-.77-.255.119-.772.397-1.281.666zm-36.195 24.478l-.359.3c-.12.106-.241.217-.366.329l-.764.676-.745.64c-.23.208-.44.4-.62.565-.369.325-.63.529-.688.519.209-.238.469-.508.77-.803l.48-.464c.18-.153.369-.31.564-.477.39-.33.811-.686 1.254-1.063.464-.354.95-.73 1.442-1.13-.154.19-.513.521-.968.908zm6.847-11.68c-1.265 1.38.342-.142-2.22 2.487-3.659 3.398-1.103.705-1.49.8 1.38-1.316 2.102-2.04 2.344-2.327 4.297-4.083-5.849 5.962 1.366-.96zm-24.865 29.357c.533-.855 1.06-1.711 1.618-2.563-.591.926-.86 1.41-1.177 1.956a76.583 76.583 0 0 1-1.407 2.34c-.439.659-.621.911-.628.837.522-.861 1.064-1.714 1.594-2.57zm-1.537 2.492c.664-1.119 1.158-1.934 1.628-2.695.478-.759.942-1.46 1.527-2.36-.02.046-.262.44-.605.993-.342.552-.793 1.26-1.2 1.94-.829 1.358-1.587 2.578-1.35 2.122zm3.155-5.055c-.382.752-3.545 5.81-3.169 5.08 1.95-3.264 1.97-3.143 3.169-5.08zm2.13 60.227c-.207-.896-.292-6.277-.295-8.394.065.972.145 2.584.171 4.214.019.812.019 1.634.045 2.354.03.72.059 1.354.078 1.826zm-1.923 1.658c.365.453.985 1.316 1.645 2.25.666.933 1.352 1.937 1.905 2.67-.526-.645-1.575-2.092-2.922-3.937.1.082.193.157-.628-.983zm1.542 1.041c-.005.08.007.234.024.48a196.503 196.503 0 0 1 .06.703l.038.298c-.003-.017-.047-.271-.074-.49-.03-.216-.062-.385-.068-.211-.09-1.166-.082-1.976-.08-3.144.01.122.012.376.01.705v.541c.003.193.016.39.028.593.007-.117.006-.288.002-.482l-.001-.64c0-.22-.002-.432.004-.615.009-.184.02-.333.036-.419.007-.363.007-.63.018-.851l.024-.54.015-.448c.003-.16.017-.35.028-.603.014-.058.004.1-.007.268-.042.75.087-.861.05-.03-.02.209-.031.384-.043.559l-.036.555c-.01.514.016.156.038-.09-.011.289-.02.577-.025.862-.012.163-.026.297-.04.447-.007.083-.014.172-.02.273a8.967 8.967 0 0 0-.01.347c-.001.134-.002.288 0 .47.001.183.002.396.017.636 0-.11-.002-.195-.003-.26l.005-.132c.003-.047.006-.016.01.074.007.18.026.589.049 1.079-.004-.555.003-.745.016-.696.042 1.032.124 2.036.25 3.008-.009-.027-.012-.031-.015-.032-.006-.003-.008.015-.05-.293-.068-.026.23 1.64.104 1.262-.057-.505-.123-.914-.158-1.348l-.062-.657a34.271 34.271 0 0 1-.037-.746c-.065-.416-.092-.589-.097-.433zm12.22 22.256c-.195-.259-.297-.418-.186-.356-.17-.194-.327-.397-.495-.6a1.966 1.966 0 0 1-.364-.343c-.086-.098-.194-.23-.338-.414-.14-.186-.311-.428-.532-.74.114.173.226.342.198.347-.624-.822-.717-.984-.74-1.066-.022-.081.018-.076-.329-.572-.002.039.055.185-.075.064a4.297 4.297 0 0 1-.365-.43 19.283 19.283 0 0 1-.809-1.132c-.162-.11.32.66.554 1.064-.292-.38-.63-.923-.973-1.465-.332-.549-.647-1.112-.899-1.53.418.59.396.595.267.284.187.325.284.473.417.671l.242.364c.105.15.235.34.407.6l-.982-1.561-.305-.484-.309-.521c-.207-.358-.428-.727-.639-1.115.337.649.354.625.137.379-.145-.237-.255-.453-.363-.649l-.299-.56-.298-.56c-.103-.2-.213-.418-.34-.668.018.092.302.673.568 1.15.26.48.468.88.283.645-.922-1.69-1.553-3.141-1.848-3.948-.154-.316-.248-.534-.329-.695a9.344 9.344 0 0 0-.193-.376c-.057-.108-.114-.215-.193-.377-.078-.161-.181-.374-.313-.703-.04-.195.011-.153-.033-.323a4.99 4.99 0 0 0-.162-.467l-.18-.456c-.073-.184-.152-.407-.253-.668l.028-.016c.105.269.212.536.32.803a58.837 58.837 0 0 0 3.13 6.77c.037.037-.015-.079-.128-.299l-.212-.402-.269-.533-.315-.622a17.825 17.825 0 0 1-.335-.677c-.219-.466-.447-.94-.644-1.38.008.004.017.008.022.006 2.319 4.968 5.262 9.538 8.775 13.61.143.199.273.385.442.612.197.266.462.573.857 1.024-.191-.14-.78-.723-1.6-1.685zm4.35-8.822c-.362-.457-.764-.96-1.121-1.464-.362-.5-.704-.983-.976-1.379a10.009 10.009 0 0 1-.547-.866l.825 1.154c.208.294.435.61.951 1.285.311.326-.202-.37-.752-1.11-.556-.734-1.116-1.535-.95-1.381 2.254 3.058 2.173 3.096 3.526 4.896a23.01 23.01 0 0 1-.955-1.135zm-5.587-1.636c-.033-.73-.09-1.447-.107-2.21-.02-1.304-.06-2.627-.047-4.051.017 1.399.208 3.042.349 4.416-.12.42-.09 1.19-.054 1.97.018.39.038.781.038 1.135.012.344.008.646-.039.873-.075-.682-.1-1.41-.14-2.133zm1.733-2.013c-1.218-1.612-2.124-2.815-2.7-3.625-.572-.812-.84-1.227-.815-1.261 1.393 1.912 1.732 2.396 3.605 4.86l-.09.026zm-1.887-4.248c.053.483.092 1.133.126 1.864.038.725.036 1.562.098 2.333.098 1.57.15 3.149.255 4l-.204.179c-.452-4.275-.163-4.599-.275-8.376zm-.369 1.244c-.786-1.113-1.408-2.03-1.234-1.859.699.956 1.121 1.556 1.603 2.224.49.663 1.035 1.397 1.97 2.62-.438-.548-1.007-1.22-.071.03a83.098 83.098 0 0 1-2.268-3.015zm2.028-83.236c.383-.412.88-.829 1.39-1.278.261-.218.514-.456.804-.661l.864-.62c-.116.21-1.17 1.02-.683.844-.98.858-1.41 1.236-1.843 1.613-.412.397-.822.793-1.755 1.69-.043-.143.454-.768 1.223-1.588zm15.608-9.838l.5-.38 1-.76.998-.759 1.013-.738c.554-.345 1.355-.808.669-.27-.532.375-1.06.747-1.558 1.1l-1.379 1.002c-.417.3-.786.561-1.084.764-.297.205-.519.36-.652.43l.493-.39zm60.14-17.774c-.92-.126.41-.272 2.044-.322 1.632-.053 3.605-.09 4.065-.195 5.255.147-.828.4-6.108.517zm33.427 9.338l-.6-.377-1.318-.86c-.457-.296-.937-.58-1.397-.858-.462-.275-.907-.542-1.333-.749-.029-.071.624.289.545.188l1.468.904.56.343.488.318c.313.205.611.402.95.623l.54.36c.193.13.396.28.624.443-.164-.1-.34-.212-.528-.335zM620.47 306.418c.548.67.845 1.199 1.233 1.78.387.582.835 1.245 1.642 2.221.972 1.407-2.45-3.151-2.134-2.472-.645-1.02-1.41-2.196-1.237-2.167.815 1.22.988 1.364.496.638zm.382.548c.305.426.62.867.934 1.303l.9 1.294c.302.401.591.774.853 1.099-.005.07-.206-.133-.482-.45l-.455-.541-.456-.613c-.587-.79-1.014-1.374-.388-.391-1.014-1.193-.953-1.218-.899-1.286.052-.067.1-.184-.893-1.609.29.356.588.762.886 1.194zm-.417 10.448c.122.208.191.368.27.536.163.331.331.729 1.115 1.513.455.437-.074-.17.105-.11.697.734.885.91.921 1 .038.088-.058.07.163.324l.64.565c-.339-.261-.713-.578-1.1-.924-.38-.353-.737-.775-1.106-1.175-.376-.392-.679-.855-.988-1.25l-.432-.578-.35-.54.215-.22.547.86zm20.675 10.63c.135.053.192.074.139.048-.053-.027-.218-.094-.517-.236.109.023.664.243 1.208.464l.751.306c.21.083.364.136.397.143-1.908-.744-4.814-2.104-2.671-1.224-.432-.186-.85-.367-1.242-.553l-1.111-.544-.509-.248-.47-.236a13.419 13.419 0 0 0-.841-.383c.458.241 1.016.52 1.512.754.498.23.926.435 1.11.56-.645-.292-1.384-.625-2.126-1.005l-.562-.282c-.188-.094-.376-.19-.56-.29l-1.086-.59c-.353-.19-.684-.391-.999-.576l-.867-.52a18.21 18.21 0 0 1-1.13-.765c-1.554-.908-3.7-2.39-4.485-3.049.443.31.458.352 1.014.73.096.022-.395-.335-.918-.7-.262-.183-.534-.365-.742-.506-.207-.143-.355-.24-.376-.24.114.085.25.191.38.296.133.101.26.2.351.274.184.149.227.199-.098-.03-.327-.232-.38-.297-.492-.395-.111-.1-.278-.236-.82-.63-.692-.51-.354-.188-1.035-.713-.092-.086-.407-.333-.703-.567-.295-.233-.561-.465-.576-.494.535.435.888.693 1.051.814.165.119.148.087-.026-.095.85.673 1.822 1.379 2.342 1.737-.213-.165-.484-.37-.772-.587-.286-.219-.595-.44-.863-.66-.543-.432-.98-.788-.974-.823.72.551 1.013.853.99.755-.343-.264-.61-.473-.833-.652a14.244 14.244 0 0 1-.572-.471c-.336-.29-.635-.551-1.159-.985-.327-.23.922.832-.042.05-1.092-.996-2.557-2.294-3.836-3.566-.164-.156-.32-.316-.473-.473l-.45-.462c-.295-.302-.577-.589-.825-.868-.5-.553-.922-1.017-1.179-1.366a91.188 91.188 0 0 0 4.982 4.99 65.655 65.655 0 0 0 4.757 4.008c-.603-.465-2.073-1.666-1.279-1.06l.675.545c.265.212.543.441.776.616.46.356.7.553.142.173l.722.548.39.294.409.295.842.608c.281.208.576.399.861.596l.841.573.798.514.71.454c.22.137.423.254.598.358l-.506-.303c-.14-.09-.252-.164-.338-.223-.172-.118-.237-.174-.197-.17.688.443.716.419 1.084.627.037.066.523.38 1.11.74l1.723 1.013c-.02-.07.8.37 1.543.771.75.385 1.42.737 1.073.54l-.654-.343c-.232-.12-.47-.242-.684-.363-.43-.24-.782-.441-.853-.508-.507-.24-.94-.481-1.345-.712-.403-.232-.782-.447-1.149-.689l-1.15-.738c-.403-.266-.836-.557-1.338-.876-.085-.04-.027.022-.366-.194-.236-.172-.56-.4-.914-.645l-.549-.379-.541-.393a49.758 49.758 0 0 1-.92-.684c-.24-.19-.396-.328-.415-.37a29.643 29.643 0 0 1-1.78-1.314c-.312-.248-.617-.485-.871-.705-.255-.22-.469-.41-.611-.545.805.647 1.315 1.12 1.617 1.298-.514-.398-.69-.55-.89-.724a22.013 22.013 0 0 0-1.019-.857c-.296-.18-.734-.573-1.193-.996-.463-.419-.927-.89-1.283-1.218-.949-.873.753.751-.336-.24-.058-.07-.245-.245-.592-.58.033.004.4.354.335.254-1.18-1.12-2.44-2.407-2.6-2.66 2.036 2.13 3.465 3.41 4.732 4.62.157.119.338.263.535.427l.645.526.706.59c.238.204.49.4.731.599l.706.577c.224.185.445.35.641.504.395.306.708.546.88.666a13.88 13.88 0 0 0-.7-.577c-.314-.247-.695-.535-1.076-.85-.383-.312-.785-.628-1.142-.93a49.845 49.845 0 0 1-.916-.798l.704.586.33.278.324.26c.427.34.825.657 1.223.939.17.099-.824-.749-.947-.801.194.172.1.11-.154-.084-.126-.098-.295-.224-.482-.377a525.333 525.333 0 0 1-1.274-1.057l-.597-.524-.678-.595c.147.105.694.574 1.242 1.052.56.466 1.123.94 1.283 1.083.156.078-.558-.505-.265-.322a19.589 19.589 0 0 1-1.381-1.132c-.38-.346-.726-.664-1.112-1.042-.106-.051.818.834-.065.072l-.759-.694-.383-.349-.364-.35c-.237-.23-.46-.45-.657-.653a6.391 6.391 0 0 1-.493-.55c.235.239.446.434.63.614l.505.49c.155.151.299.297.452.442l.49.456c-.08-.089-.24-.251-.443-.451l-.682-.69a46.374 46.374 0 0 0-.71-.694 9.545 9.545 0 0 0-.507-.481c-.567-.578-.768-.808-.962-1.053a17.862 17.862 0 0 0-.97-1.099c-.171-.11.125.245.553.724.214.238.457.513.697.77.241.254.471.499.647.692-.823-.806-1.191-1.213-1.504-1.539a38.938 38.938 0 0 0-.464-.48l-.624-.652c.17.204.5.589.808.913.302.327.561.611.559.639-.11-.093-.307-.286-.56-.543a27.337 27.337 0 0 1-.88-.944c-.252-.304-.3-.37-.398-.48l-.215-.239-.466-.534c-.057-.125-.268-.418-.457-.687a19.348 19.348 0 0 1-.46-.54c-.137-.165-.26-.314-.373-.448-.226-.27-.404-.48-.545-.647-.275-.34-.412-.494-.498-.569-.061-.115-.335-.486-.202-.368.699.93.689.883.638.79-.026-.048-.061-.107-.023-.062s.149.194.428.554c-.1-.254-.847-1.12-1.03-1.292a13.742 13.742 0 0 0-.366-.524c-.11-.158-.211-.294-.3-.409-.176-.227-.3-.363-.338-.386-.179-.25-.41-.552-.588-.816a7.685 7.685 0 0 1-.354-.536c.542.675-.55-.94-1.745-2.812.028.003-.072-.183-.175-.374.543.877 1.053 1.656 1.493 2.357l.648.963c.203.297.393.571.584.81-1.548-2.264-3.066-4.636-4.31-7.034.152.277.271.5.382.685l.292.483c.177.29.336.547.583.965.096.2.463.836.889 1.547.22.35.457.717.68 1.058l.323.486c.105.149.204.286.292.405a19.829 19.829 0 0 1-.62-.936c-.16-.253-.279-.45-.37-.605-.18-.312-.244-.462-.281-.58.286.482.528.812.797 1.203.266.394.584.832 1.021 1.536-.16-.178-.025.076.225.463.256.382.628.897.917 1.254-.323-.492-.081-.147.259.301.344.446.776 1.004.793.968a91.069 91.069 0 0 1-2.964-4.193c-.99-1.515-1.761-2.847-1.81-3.001.124.21.283.475.47.782l.298.489.162.265.177.272.774 1.188c.28.41.574.836.87 1.267.146.217.3.43.455.642l.459.636c.3.425.612.828.903 1.218.147.195.29.385.427.57.137.184.277.356.407.525.26.336.496.643.697.911-.85-1.035-.555-.563-.075.063l-.646-.798c-.216-.267-.435-.532-.642-.806.174.31-.265-.243-.565-.601 1.25 1.65 2.186 2.831 3.642 4.47.181.095-.067-.21-.164-.402-.044-.028-.17-.154-.362-.36-.189-.21-.439-.505-.741-.863.108.073.565.603.852.894-.514-.566-.856-1.075-1.067-1.246.28.328.19.26-.282-.309-.008-.07.188.123.595.578.296.351.634.777 1.02 1.212l.587.675c.1.114.2.23.302.344l.31.337a52.855 52.855 0 0 0 2.211 2.298c-1.03-1.045-1.232-1.312-1.953-2.118.727.76 1.329 1.44 1.716 1.767-.855-.937-2.078-2.217-2.47-2.746.245.285.488.543.716.789l.651.698c.417.437.803.82 1.16 1.185.176.184.353.357.526.526l.507.504c.165.17.329.336.495.505.168.166.336.335.506.51.064.032-.016-.078.34.245.3.336 1.032 1.007 1.573 1.522.134.13.259.247.364.344.105.097.187.178.238.233.102.11.078.12-.15-.035-.202-.159-1.18-1.065-1.256-1.076.276.25.601.551.96.87l1.162.99c.814.664 1.656 1.327 2.345 1.788l.449.356c.157.125.323.255.5.384l1.137.841c.406.292.84.588 1.286.898l.337.233.348.227.706.46a65.946 65.946 0 0 0 5.684 3.266c-1.768-.924-4.057-2.25-4.283-2.519-1.868-1.122.807.532-.377-.169-.16-.1-.305-.19-.44-.276-.135-.086-.256-.17-.373-.25l-.655-.453c-.213-.15-.438-.298-.693-.48-.256-.182-.55-.387-.912-.634 1.417.946-.08-.16-.317-.27.589.441-.924-.54.28.323-.488-.322-.878-.615-1.215-.862-.336-.25-.618-.455-.856-.65-.476-.389-.815-.682-1.196-1.005.003.05-.483-.333-1.01-.76-.534-.42-1.082-.914-1.238-1.05.386.314.555.463.74.624.188.157.394.325.856.678.058.005-1.339-1.1-.595-.569.696.564 1.185.992 1.752 1.433.282.223.576.457.92.72.349.256.745.544 1.222.883a20.935 20.935 0 0 0-.66-.514c-.264-.201-.566-.419-.852-.649l-.818-.648-.333-.271a7.713 7.713 0 0 1-.24-.22c.295.237.617.47.91.696.294.224.565.433.776.6.429.321.613.475.246.242 1.412 1.04 3.262 2.18 4.44 3-.416-.252-.666-.425-.95-.608l-.473-.306-.298-.19-.357-.235c.071.061.186.149.336.258.151.107.34.231.553.372.428.278.95.628 1.518.962.46.244-.32-.298 1.09.593.317.117-.724-.504-1.377-.914-.88-.442-1.714-1.154-2.725-1.849-.022 0-.019.02-.1-.023a2.959 2.959 0 0 1-.202-.12 7.406 7.406 0 0 1-.409-.281c.008-.072-1.612-1.194-1.603-1.284-.528-.405-.599-.441-.67-.478-.036-.018-.071-.036-.164-.101a7.727 7.727 0 0 1-.501-.384c-.189-.202-.845-.742-1.263-1.118-.416-.38-.61-.574.095-.049a41.917 41.917 0 0 1-1.244-1.007c-.14-.119-.28-.244-.426-.371l-.944-.82a95.054 95.054 0 0 0-1.122-.995c.18.124.03-.031-.197-.25-.222-.224-.517-.516-.639-.653.296.28.588.574.89.844.086.023-1.85-1.881-2.298-2.325.164.17.494.52.683.73.094.106.156.174.143.17-.014-.003-.102-.08-.298-.275l-.694-.741c-.12-.128-.243-.257-.365-.39l-.37-.41c-.251-.279-.51-.565-.779-.861l-.81-.933c.469.487.818.897 1.169 1.266.172.187.34.368.516.55.176.183.354.37.562.557-.213-.21-.364-.38-.495-.522l-.338-.377-.338-.376-.215-.235-.266-.296c0 .04-.322-.324-.66-.7-.341-.373-.678-.779-.744-.794-.936-1.115-.093-.23.343.252-.383-.447-.72-.843-.987-1.165-.261-.329-.455-.583-.562-.738.443.548.603.746.623.759.018.015-.11-.15-.242-.328-.267-.356-.565-.758.195.151.144.188.32.397.533.653.215.254.464.556.778.909-.008.026.123.2.35.48l.409.495.248.297.279.317c.058.033-.017-.085.316.265.258.4 2.185 2.32 2.503 2.69.222.107 2.219 2.005 2.73 2.466-.044-.004-.8-.677-.652-.501 1.226 1.074 2.302 1.956 2.797 2.395-.004-.04.102.015.364.202-1.04-.872-1.996-1.73-3.37-2.978.186.096-.024-.138-.39-.498-.182-.18-.404-.39-.635-.606l-.675-.655c.278.253.495.45.67.603.178.15.312.26.42.347.215.172.326.25.477.357.19.18.37.358.547.52.179.16.347.313.502.453l.754.677c-.23-.177-.238-.168-.115-.046.123.122.385.346.685.607.302.257.637.556.933.797.295.243.535.444.627.533-.5-.398-.723-.552-.908-.689a8.909 8.909 0 0 1-.694-.577c.057.079.255.265.535.514.279.25.655.546 1.048.867.198.16.399.326.603.485l.605.465c.39.299.74.58 1.002.778.026-.005-.09-.099-.268-.237-.177-.142-.417-.327-.646-.506-.46-.356-.875-.682-.651-.572 2.1 1.587 3.618 2.716 4.987 3.562-.67-.439-1.285-.892-1.978-1.376-.345-.244-.698-.513-1.086-.793-.193-.143-.396-.286-.603-.442l-.647-.491c.182.094-.152-.17-.558-.49-.403-.323-.87-.716-.978-.849.377.295.609.486.87.697.265.206.562.43 1.064.797.248.149-.24-.23-.663-.556-.425-.322-.77-.609-.269-.238l1.4 1.073c.492.355 1 .729 1.543 1.11-.184-.148-.308-.263-.449-.388 7.548 5.247 16.26 9.137 25.884 11.249a74.988 74.988 0 0 0 21.07 1.577c.623-.035 1.108-.067 1.53-.097.451-.042.835-.078 1.252-.11l-.779.09c-.267.031-.54.063-.814.085l-1.604.143a41.668 41.668 0 0 0-2.193.19c.063.002.204 0 .377-.002l.577-.022c.392-.014.744-.02.707.015-1.372.086-2.195.007-2.913.103 1.975-.056.458.008 1.251.017-.4.013-.588.029-.844.044-.255.014-.577.035-1.239.023.834.05-.537.083.414.127l-1.785.01a17.541 17.541 0 0 0-1.139.007c.267.018.777.032 1.225.048.449.004.836.01.859.03-.148.012-.316.023-.507.033-.191.01-.406.02-.645.02-.48.002-1.063.005-1.773-.014.17-.018 1.618.031 1.254-.028-1.09 0-2.012-.036-2.983-.061l-1.517-.086-.409-.025-.425-.037-.911-.084c.24.065-.136.048-.646.005-.508-.052-1.15-.127-1.447-.143a85.97 85.97 0 0 0 3.916.49c.674.06 1.365.133 2.095.165l1.122.057c.384.013.78.016 1.187.022.08-.08-1.411-.036-1.668-.121.37.024.572.037.681.034.11-.001.127-.008.128-.016.004-.016-.053-.035.447-.02.539.029 1.022.072 1.398.102.377.03.644.063.75.097.104.035.047.07-.227.102-.137.015-.328.03-.58.044-.252.013-.563.013-.943.016-1.313-.044-.704-.067.003-.064l-.718-.014-.358-.01-.352-.02-1.329-.078c-.823-.06-1.495-.129-1.848-.14.07.015-.066.015-.311.007l-.972-.062-1.065-.068c-.307-.023-.535-.035-.59-.024l.579.086c.2.03.411.051.63.078l1.397.161c.497.043 1.02.089 1.567.135.274.026.554.042.84.058l.873.05c2.369.123 5.064.133 7.823-.022.345-.013.69-.042 1.037-.066l1.04-.077c.692-.06 1.385-.133 2.074-.2.688-.087 1.373-.164 2.048-.257l1.007-.148c.333-.05.664-.095.99-.155a84.995 84.995 0 0 0 7.009-1.469c-.453.11-.998.222-.42.073.36-.087.873-.22 1.349-.344.475-.126.913-.24 1.11-.326-.893.26-1.305.348-1.239.297a79.686 79.686 0 0 0 14.954-5.618 80.986 80.986 0 0 0 13.28-8.258c-.142.107-.304.235-.455.355l-.393.309c-.197.159-.222.19.184-.112.327-.246.718-.56 1.17-.91.455-.347.95-.757 1.487-1.193.133-.108.27-.22.409-.331.136-.116.274-.233.414-.35l.859-.73c.294-.245.58-.51.876-.77.293-.263.595-.522.887-.794.582-.545 1.18-1.082 1.737-1.636.281-.275.56-.546.834-.812l.785-.8c.516-.517.984-1.025 1.414-1.487.434-.458.807-.889 1.131-1.253-.322.36-.457.492-.59.624l1.2-1.362c.405-.483.828-.976 1.24-1.469l1.185-1.463 1.047-1.336c.285-.4.561-.784.827-1.155.131-.186.264-.367.389-.548.124-.182.246-.36.365-.537.24-.352.47-.692.695-1.02l.63-.971a86.584 86.584 0 0 0 2.13-3.463l.237-.401.225-.402.446-.794c.301-.524.574-1.06.863-1.598.291-.537.565-1.094.852-1.671.142-.29.295-.58.435-.885l.436-.935c-.278.626-.491 1.123-.753 1.642l-.41.829c-.075.15-.152.306-.239.471l-.28.525c.203-.322-.131.333-.416.89-.14.28-.28.528-.325.62-.046.093-.003.028.207-.329.945-1.803 1.877-3.565 2.862-5.775.177-.404.232-.535.246-.568.021-.045.09-.19.28-.6.121-.27.303-.717.509-1.224.101-.254.213-.52.315-.793l.298-.807c.334-.887.57-1.632.562-1.649.071-.165.258-.646.438-1.132.196-.575.381-1.156.366-1.23-.08.168-.12.323-.183.562-.067.239-.146.566-.338 1.067.206-.709-.212.441.067-.428.475-1.446.496-1.476 1.03-3.257.01.034.042-.015.096-.15.052-.133.13-.35.217-.655.017-.332.246-1.208-.013-.44-.183.699-.437 1.516-.688 2.379-.126.432-.274.869-.412 1.309-.14.44-.278.879-.43 1.304l-.433 1.234c-.14.393-.287.762-.416 1.102-.131.338-.25.646-.358.91-.113.263-.21.484-.289.654l.276-.684.255-.674c.166-.446.336-.882.493-1.314.3-.867.608-1.701.866-2.532.132-.415.27-.824.393-1.235l.359-1.229c.058-.204.12-.408.175-.613l.16-.617.318-1.24c.063-.217.232-.88.454-1.767.109-.444.214-.948.333-1.48.057-.267.124-.539.175-.817l.162-.843.161-.846c.05-.28.093-.559.137-.83l.128-.79.06-.374.047-.357c.085-.653.157-1.198.194-1.557-.003.058-.002.084.002.08.012-.006.04-.141.069-.337.059-.39.135-1.023.147-1.355-.056.459-.14 1.01-.079.42.037-.368.082-.683.108-.969l.083-.795c.05-.502.098-.98.107-1.616.021.02.047-.195.074-.417.007-.259.045-.83.062-1.49l.037-1.03c.014-.347.011-.688.017-.996.006-.614.014-1.095.006-1.216-.003-.061-.005-.033-.008.113l-.026.819.009-.899-.012-.906-.012-.894-.03-.862c-.028-1.122-.098-2.107-.116-2.76l.093 1.564c.022.439.03.798.042 1.081.01.283.02.49.025.628.006.139.01.207.011.212.003.004.003-.055.002-.173l-.01-.523c-.009-.457-.016-1.126-.062-1.956l.051.79c.014.246.022.439.034.47-.012-.456-.056-1.009-.086-1.541l-.05-.768-.057-.644c-.068-.738-.091-.913.007.432-.255-3.007-.59-5.508-.911-7.083.27 1.957.665 3.983.636 5.002-.036-.78-.232-2.308-.11-.835-.065-.614-.156-1.165-.23-1.686l-.116-.761-.13-.73c-.162-.965-.356-1.9-.582-3.019-.078-.53-.257-1.67-.517-2.458.181.718.472 2.037.34 1.64a66.67 66.67 0 0 0-1.317-5.162c-.11-.367-.216-.733-.332-1.104l-.372-1.137c-.065-.196-.127-.397-.2-.6-.071-.205-.145-.413-.221-.628l-.236-.665-.125-.348-.136-.358c.099.115-.29-1.17-.489-1.6.149.398.015.095-.188-.397l-.62-1.524c-.096-.155-.073-.065-.006.118.067.182.178.459.255.68a76.09 76.09 0 0 0-1.335-2.992 470.66 470.66 0 0 0-.308-.66l-.297-.604-.495-1.03c.11.167.486.94.837 1.655.334.723.643 1.387.649 1.323-.41-.873-.154-.442-.482-1.156a91.178 91.178 0 0 0-1.484-2.887c-.263-.507-.552-1.008-.832-1.51-.142-.25-.278-.503-.423-.747l-.43-.729-.421-.711-.42-.678c-.277-.441-.533-.866-.79-1.25l-.691-1.065-.56-.827c-1.313-1.775-2.902-3.88-4.926-6.225-1.022-1.163-2.133-2.403-3.4-3.661a65.933 65.933 0 0 0-4.196-3.88c.176.188-.08-.03-.336-.247-.26-.212-.522-.423-.341-.24.297.25.565.47.784.65.22.18.389.321.474.428l-.603-.51-.361-.303a197.145 197.145 0 0 1-1.089-.88l-.284-.241a7.065 7.065 0 0 1-.214-.181c.03-.029.89.699.687.473a22.09 22.09 0 0 0-.927-.714l-.544-.397-1.527-1.11c-.826-.692-1.938-1.474-3.156-2.256-.301-.201-.62-.386-.935-.58l-.954-.578-.966-.554c-.32-.183-.634-.368-.951-.538-.047-.045.22.093.499.255.278.161.574.334.6.332-.284-.177-.64-.405-1.038-.623l-1.221-.678c-.812-.425-1.534-.788-1.745-.9.46.25.743.417.71.43-.64-.346-2.168-1.117-2.23-1.112 1.11.58.695.381.021.052-.168-.084-.354-.17-.538-.254l-.52-.236c-.313-.142-.531-.237-.496-.21 1.379.628.69.381-.392-.146.519.305 1.37.696 1.204.651.094.038.201.093.328.16.183.096.398.226.666.352.031-.01-.349-.225-.54-.342-.196-.11-.194-.14.592.242.064.05.312.185.658.362.348.173.785.406 1.233.644a31.1 31.1 0 0 1 2.11 1.187c-.019.02-1.006-.554-1.099-.58.29.166.673.384 1.104.628l.331.188a192.563 192.563 0 0 0 1.044.624c.478.277.945.576 1.373.844.427.268.814.508 1.108.706-.465-.315-.675-.448-.705-.482-.032-.034.11.039.328.163.432.257 1.166.73 1.445.953-1.69-1.121.65.447-.038.053.886.621 1.457 1.017 1.382.91-.398-.283-.961-.674-1.003-.726.764.509-.403-.332.367.2.293.214.391.303.574.448.091.072.205.157.373.281.166.127.387.291.698.517.257.117 1.028.673.069-.09 1.492 1.06 2.496 1.894 3.906 3.073-.45-.362-.185-.062-1.007-.739-1.009-.81-.758-.655-1.267-1.064-.744-.514-.58-.317.256.344.039.058-.414-.302-.817-.619-.4-.32-.76-.582-.513-.36.345.283.784.636 1.277 1.02.25.19.499.402.761.614l.798.649c.53.448 1.062.902 1.549 1.333.48.439.921.846 1.275 1.194-1.17-1.064-2.344-2.11-3.573-3.1-.605-.506-1.235-.983-1.859-1.473-.311-.246-.636-.475-.954-.715-.322-.235-.637-.481-.967-.709-.326-.194-.161-.014-.73-.395-.209-.166-.438-.344-.686-.509a34.281 34.281 0 0 0-.753-.49c-.25-.16-.494-.314-.717-.455a13.778 13.778 0 0 1-.59-.376c.015-.007.16.074.361.195l.337.205.363.236c.482.313.909.586.718.41-.54-.363-.846-.563-1.17-.764a50.28 50.28 0 0 1-1.266-.792c.002.03-.186-.079-.38-.177.918.558.568.434.31.286-.386-.27-.74-.488-1.08-.697a10.248 10.248 0 0 0-1.05-.567c-.193-.16.31.092.831.393.524.296 1.081.613 1.024.531l-1.056-.614c-.153-.089-.298-.176-.441-.256l-.425-.235-.895-.501-.253-.143-.276-.147-.622-.333c.052.077-.374-.144-.88-.407l-1.348-.687c-.52-.244-.086.026-.775-.295-.81-.463-2.491-1.127-3.396-1.544.37.12 1.413.59 1.171.438-.634-.283-1.281-.532-1.918-.792.032.038-.001.047-.127.014-.125-.032-.341-.11-.685-.228-.248-.114-.86-.354-1.54-.607l-1.042-.365c-.34-.118-.655-.235-.917-.32a19.4 19.4 0 0 1-1.203-.338l-.432-.13-.467-.131-.98-.277c-1.325-.362-2.634-.68-2.96-.7-.006-.025.204.01.42.048-.965-.231-1.393-.326-1.826-.403a50.62 50.62 0 0 1-1.84-.36c-.296-.007 1.74.385 2.026.48-2.44-.493 1.337.366-.84-.075l-.887-.209c-.306-.074-.633-.132-.988-.204-.356-.07-.741-.145-1.172-.223l-1.447-.226c.175-.004-.109-.062-.603-.133-.496-.066-1.2-.165-1.864-.268.202-.001.45.018.834.054.309.052.745.107 1.147.151.4.05.764.094.933.103-.385-.059-.74-.123-1.074-.162l-.919-.114-.766-.089-.626-.05c-.74-.052-1.113-.053-1.198-.014.772.093 1.397.093 1.662.168-1.343-.063-3.482-.32-4.994-.422-.372-.07 1.08.021 1.256 0-1.385-.06-1.825-.06-1.248-.095l-.697-.031-.82-.024c-.53-.015-.975-.026-1.002-.008.965.055 1.602.098.835.116a2.799 2.799 0 0 0-.386-.039 13.177 13.177 0 0 0-.705-.027c-.524-.01-1.104-.017-1.423-.034.042-.03 1.389-.011 1.26-.048h-1.47l-1.475.037c.035-.025-.242-.035-.493-.039-.252-.001-.478-.005-.34-.041l-1.52.074c-.42.029-.77.05-1.095.066-.325.019-.627.025-.947.049l-1.071.07c-.39.06-1.314.182-2.52.33.015.045.74-.02 1.624-.12.221-.026.452-.048.685-.068l.694-.065c.453-.044.878-.087 1.205-.107-.08.019-.203.038-.363.058-.16.023-.355.05-.58.077l-.748.085c-.272.031-.565.056-.869.097l-.942.114c-.32.039-.646.072-.966.12l-.943.13c-.306.041-.6.077-.873.123-.116.029-.45.094-.894.175l-.736.135-.82.165-.825.162c-.267.052-.52.112-.748.16-.455.096-.81.169-.954.191.23-.1 1.555-.384 2.484-.549.168-.086.878-.247 1.66-.382l1.16-.214c.366-.062.688-.122.908-.177-1.818.262-3.327.479-6.248 1.137-.009-.024.287-.1.737-.203l.772-.174.898-.175.906-.176.807-.145c.479-.088.814-.16.858-.196l-1.58.276-1.25.245c-.512.095-.85.163-.935.167-.175.073-1.118.316-1.639.399-.14-.019 1.605-.374 1.23-.344-.486.108-.935.198-1.297.28-.361.083-.638.142-.784.162.15-.049.654-.178 1.076-.28.423-.097.76-.178.571-.161-2.246.52-2.474.577-4.543 1.171 1.074-.273 1.425-.298 1.68-.303-.464.135-.866.245-1.223.341-.358.095-.667.19-.951.27-.567.164-1.025.294-1.494.498l.493-.16.503-.15c.316-.094.571-.167.636-.176-.478.166-1.065.344-1.686.566-.623.217-1.29.44-1.933.685-1.146.328 1.053-.458 1.578-.665a62.363 62.363 0 0 0-4.011 1.458c.26-.077.748-.266 1.177-.433.43-.166.805-.298.829-.293-.373.159-1.507.599-2.67 1.067-.578.242-1.168.477-1.671.697l-1.177.517c.61-.26.28-.084.018.044a69.994 69.994 0 0 1 4.75-1.873c-.326.14-.654.273-1.003.412l-.54.211-.579.237c-.402.166-.844.34-1.336.548-.49.214-1.035.448-1.647.723.63-.302.717-.357.549-.3a8.964 8.964 0 0 0-.405.157c-.174.07-.37.162-.558.248-.142-.028-.367.077.328-.307-1.852.871.176-.158-.798.3-.06.046-.284.16-.592.31-.309.147-.693.348-1.084.54-.785.384-1.567.807-1.739.93.33-.155.7-.356.996-.507.298-.146.52-.25.548-.224-.512.245-1.07.536-1.507.766-.437.23-.751.4-.762.43.377-.182.966-.481 1.547-.778.585-.29 1.168-.563 1.52-.721-.225.136-1.48.721-1.513.78.341-.16.585-.276.905-.441l.565-.285.37-.183.458-.209c-.143.108.72-.294.42-.107-.795.33-1.583.746-2.31 1.116-.723.38-1.376.734-1.898.954-1.325.735-2.769 1.618-3.692 2.123.073-.024-.097.094-.399.287-.3.193-.734.459-1.176.751-.444.29-.912.58-1.277.827l-.717.478c1.518-1.073 2.998-2.007 3.529-2.41l-1.461.884c0 .04-.199.19-.509.4l-1.168.774-.664.439c-.22.145-.436.285-.63.423-.392.271-.721.5-.902.635.271-.189.688-.488.708-.483l-1.05.754-1.1.823c-.376.276-.745.568-1.115.856-.368.29-.741.567-1.091.857l-1.028.828c-.329.266-.636.529-.926.767-.288.24-.561.455-.798.658-.237.201-.448.376-.628.521.178-.169.388-.364.646-.6.258-.234.574-.5.953-.824-.694.522-.47.317-1.057.748.604-.54 1.975-1.668 1.607-1.422a62.777 62.777 0 0 0-2.262 1.963l-.544.492c-.187.17-.376.354-.579.545-.405.385-.863.805-1.38 1.322-.101.137.482-.42.033.034-.44.425-.529.491-.913.904.43-.47.78-.85-.055-.055a89.82 89.82 0 0 0-4.76 5.303c-1.55 1.862-2.903 3.674-3.804 4.856.009.026-.186.33-.5.797-.157.235-.35.506-.552.812l-.65.985-.348.527-.343.543-.675 1.067c-.269.448-.525.867-.742 1.229.823-1.4.59-1.109.705-1.333.143-.22.904-1.379.906-1.456-.29.454-.481.736-.494.706l.555-.892c.184-.278.335-.503.38-.553-.063.153-.35.617-.455.825-.054.102-.068.138.006.033l.543-.8c-.181.212.122-.238.492-.786.181-.277.394-.567.565-.817.171-.249.306-.452.35-.542-.214.289-.578.803-.859 1.208-.277.407-.483.698-.408.524.274-.416.5-.762.699-1.049.196-.29.355-.528.49-.736.434-.574-.005.042.052.035l.31-.454.282-.389.47-.636.38-.503.345-.43c-.218.202.52-.722.771-1.036l-.062-.047c.52-.646.754-.948.935-1.195l.265-.36c.098-.128.216-.275.383-.478.471-.469-.372.544.121.099.482-.573.859-1.025 1.126-1.3-.05.003.191-.287.5-.634.155-.174.325-.363.486-.535.165-.17.317-.326.429-.438-.052-.016-.554.51-.07-.063.387-.42.292-.275.609-.612.247-.308.04-.168.525-.69.88-.912 3.107-3.018 2.506-2.36 1.63-1.514 1.263-1.266 2.154-2.096.5-.46 1-.875 1.404-1.219.203-.17.383-.323.535-.444.154-.12.278-.214.363-.273-.564.498-.218.25.348-.198l.934-.751c.315-.25.599-.482.765-.63-.207.147-.562.418-.862.643-.299.227-.537.416-.528.377l.427-.33.46-.345.983-.74 1.058-.766c.179-.13.36-.26.54-.392l.551-.384c1.459-1.04 2.947-2.002 4.042-2.746-.256.105-.265.055-.09-.146l-.951.622c-.336.218-.687.444-1.044.69l-1.107.751-1.14.808c-.389.27-.77.558-1.155.844-.384.286-.772.567-1.145.864l-1.113.869-1.053.863c-.245.26-2.113 1.893-2.901 2.56-.537.408 1.078-.982.928-.897-1.43 1.255-.515.432-.042-.047a80.852 80.852 0 0 0-14.39 16.61 77.743 77.743 0 0 0-2.966 4.933 77.172 77.172 0 0 0-2.624 5.178 77.02 77.02 0 0 0-2.25 5.375l-.258.681-.242.688c-.16.459-.327.915-.48 1.377l-.449 1.385c-.077.23-.147.463-.215.696l-.207.697-.207.697c-.07.232-.129.467-.193.7l-.379 1.402c-.226.94-.47 1.876-.664 2.82l-.153.706-.077.353-.068.354-.271 1.416c-.086.472-.16.946-.24 1.418l-.116.708-.1.709a74.996 74.996 0 0 0-.604 5.657l-.09 1.406-.056 1.402c-.024.467-.023.932-.032 1.396-.006.465-.02.929-.01 1.39l.012 1.384.045 1.375c.01.229.014.457.026.685l.04.682c.03.453.048.907.086 1.357l.113 1.347c.017.224.04.447.065.67.025.222.05.444.073.666.087.889.22 1.765.332 2.639.52 3.48 1.24 6.83 2.155 9.989.082.308.18.693.312 1.126l.45 1.434c.171.515.364 1.058.556 1.613.196.554.415 1.111.62 1.664.846 2.2 1.754 4.19 1.958 4.778.112.241.218.48.334.708l.34.671c.224.437.437.856.659 1.25l.62 1.138c.202.361.395.707.57 1.042-.179-.32-.433-.777-.613-1.11-.177-.334-.291-.537-.214-.337l.258.47.223.392a30.106 30.106 0 0 1 .622 1.165l.293.544c.664 1.068 2.043 3.322 3.156 4.922-.047-.171-1.746-2.654-1.75-2.85.12.198.242.41.38.621l.422.657.443.685c.152.23.31.458.467.688.314.457.621.917.932 1.342.309.426.592.838.859 1.198-.316-.415-.567-.768-.778-1.044a20.03 20.03 0 0 0-.484-.619l1.09 1.532c.394.523.791 1.062 1.185 1.572.4.504.783.991 1.137 1.418.359.423.68.793.937 1.08-.23-.302-.672-.826-1.091-1.344a34.754 34.754 0 0 1-.98-1.278 80.23 80.23 0 0 0 4.3 5.056 57.653 57.653 0 0 0 4.833 4.658c-.175-.152-.347-.32.01-.012.44.382 1.21 1.045.64.533-1.038-.895-1.586-1.345-2.8-2.503.934.83-.39-.454-.843-.922 1.001.91.476.405.955.805a71.26 71.26 0 0 0 4.005 3.656c-.52-.38-.34-.207-.29-.147.024.03.016.032-.128-.08l-.333-.26-.267-.214-.342-.286c.238.212.499.427.752.636l.714.595c.214.183.404.336.54.451.138.116.22.193.227.214-.098-.084-.414-.334-.703-.58-.29-.244-.564-.47-.602-.474.69.593 1.578 1.28 2.382 1.898l1.123.834c.164.125.319.235.455.333l.35.256c-1.48-.986 1.054.787-.401-.164l.785.557c.261.187.521.375.787.552l.785.538.386.265c.129.087.26.17.387.254l.757.49c.247.16.488.317.729.46.479.289.93.558 1.347.797-2.077-1.219-3.667-2.34-4.927-3.203.462.26-.47-.393-.268-.347-1.73-1.24-2.692-2.076-3.927-3.112.503.397.744.588.98.784.24.193.471.396.99.768.265.158-.111-.118-.482-.401-.366-.289-.734-.577-.475-.414.884.746.321.23 1.015.738.043.056-.088-.009.302.285.769.575 1.51 1.093 2.212 1.615l1.055.746.518.368.523.354 1.044.701 1.074.673c.182.111.363.226.549.335l.567.322c.383.213.77.435 1.177.643-.419-.252-1.51-.867-1.43-.873.793.453 1.404.8 1.743.983.336.188.386.235.05.1.592.32.79.413.929.472.138.06.22.085.583.26.221.119.516.27.835.433l.49.248.494.235c.638.305 1.167.564 1.174.605a39.41 39.41 0 0 1-1.751-.83c-.374-.2-.67-.366-1.257-.663-.299-.106-.076.032-1.16-.51.239.125.684.386 1.09.59.403.208.753.385.78.38-.028-.022.047.008.194.077.149.068.366.179.634.3.266.124.576.27.9.42.322.153.659.313.984.452.648.285 1.226.547 1.497.654z" mask="url(#c)"/>
        <path fill="#FF5E16" d="M593.607 184.075c.61 0 .947-.388.564-.648l-.692-.47-1.082-.735c-.29-.197-.836-.197-1.127 0l-1.081.735-.693.47c-.383.26-.046.648.564.648h3.547zm8 10c.61 0 .947-.388.564-.648l-.692-.47-1.082-.735c-.29-.197-.836-.197-1.127 0l-1.082.735-.692.47c-.383.26-.046.648.563.648h3.548zm-18 0c.61 0 .947-.388.564-.648l-.692-.47-1.082-.735c-.29-.197-.837-.197-1.127 0l-1.082.735-.692.47c-.383.26-.046.648.564.648h3.547zm-7 7c.61 0 .947-.388.564-.648l-.692-.47-1.082-.735c-.29-.197-.837-.197-1.127 0l-1.081.735-.693.47c-.383.26-.046.648.564.648h3.547zm32 1c.61 0 .947-.388.564-.648l-.691-.47-1.083-.735c-.29-.197-.836-.197-1.127 0l-1.081.735-.693.47c-.383.26-.046.648.564.648h3.547zm-15 0c.61 0 .947-.388.564-.648l-.692-.47-1.082-.735c-.29-.197-.836-.197-1.127 0l-1.081.735-.693.47c-.383.26-.046.648.564.648h3.547zm25 8c.61 0 .947-.388.564-.648l-.691-.47-1.083-.735c-.29-.197-.836-.197-1.126 0l-1.083.735-.692.47c-.383.26-.046.648.564.648h3.547zm-17 0c.61 0 .947-.388.564-.648l-.692-.47-1.082-.735c-.29-.197-.837-.197-1.127 0l-1.081.735-.693.47c-.383.26-.046.648.564.648h3.547zm-17 0c.61 0 .947-.388.564-.648l-.691-.47-1.083-.735c-.29-.197-.836-.197-1.126 0l-1.083.735-.692.47c-.383.26-.046.648.564.648h3.547zm-16.999 0c.61 0 .946-.388.563-.648l-.692-.47-1.082-.735c-.29-.197-.836-.197-1.127 0l-1.082.735-.692.47c-.383.26-.046.648.563.648h3.549zm58 8c.609 0 .946-.388.563-.648l-.691-.47-1.083-.735c-.29-.197-.836-.197-1.126 0l-1.083.735-.692.47c-.383.26-.046.648.564.648h3.547zm-17 0c.609 0 .946-.388.563-.648l-.692-.47-1.082-.735c-.29-.197-.837-.197-1.127 0l-1.081.735-.693.47c-.383.26-.046.648.564.648h3.547zm-15 0c.609 0 .946-.388.563-.648l-.692-.47-1.082-.735c-.29-.197-.837-.197-1.127 0l-1.081.735-.693.47c-.383.26-.046.648.564.648h3.547zm-17 0c.61 0 .946-.388.563-.648l-.692-.47-1.082-.735c-.29-.197-.836-.197-1.127 0l-1.082.735-.692.47c-.383.26-.046.648.564.648h3.548zm-17 0c.609 0 .946-.388.563-.648l-.692-.47-1.082-.735c-.29-.197-.837-.197-1.127 0l-1.081.735-.693.47c-.383.26-.046.648.564.648h3.547zm59 8c.609 0 .946-.388.563-.648l-.692-.47-1.082-.735c-.29-.197-.837-.197-1.127 0l-1.081.735-.693.47c-.383.26-.046.648.564.648h3.547zm-17 0c.609 0 .946-.388.563-.648l-.691-.47-1.083-.735c-.29-.197-.836-.197-1.127 0l-1.081.735-.693.47c-.383.26-.046.648.564.648h3.547zm-17 0c.61 0 .946-.388.563-.648l-.692-.47-1.082-.735c-.29-.197-.836-.197-1.127 0l-1.082.735-.692.47c-.383.26-.046.648.563.648h3.549zm-17 0c.609 0 .946-.388.563-.648l-.691-.47-1.083-.735c-.29-.197-.836-.197-1.127 0l-1.081.735-.693.47c-.383.26-.046.648.564.648h3.547zm66 1c.609 0 .946-.388.563-.648l-.691-.47-1.083-.735c-.29-.197-.836-.197-1.127 0l-1.081.735-.693.47c-.383.26-.046.648.564.648h3.547zm-82 0c.609 0 .946-.388.563-.648l-.691-.47-1.083-.735c-.29-.197-.836-.197-1.127 0l-1.081.735-.693.47c-.383.26-.046.648.564.648h3.547zm90 7c.61 0 .946-.388.563-.648l-.692-.47-1.082-.735c-.29-.197-.836-.197-1.127 0l-1.082.735-.692.47c-.383.26-.046.648.564.648h3.548zm-16 0c.609 0 .946-.388.563-.648l-.692-.47-1.082-.735c-.29-.197-.837-.197-1.127 0l-1.081.735-.693.47c-.383.26-.046.648.564.648h3.547zm-17 0c.609 0 .946-.388.563-.648l-.691-.47-1.083-.735c-.29-.197-.836-.197-1.127 0l-1.081.735-.693.47c-.383.26-.046.648.564.648h3.547zm-15 0c.61 0 .946-.388.563-.648l-.692-.47-1.082-.735c-.29-.197-.836-.197-1.127 0l-1.082.735-.692.47c-.383.26-.046.648.564.648h3.548zm-17 0c.609 0 .946-.388.563-.648l-.692-.47-1.082-.735c-.29-.197-.837-.197-1.127 0l-1.081.735-.693.47c-.383.26-.046.648.564.648h3.547zm-18 0c.61 0 .946-.388.563-.648l-.692-.47-1.082-.735c-.29-.197-.836-.197-1.127 0l-1.082.735-.692.47c-.383.26-.046.648.563.648h3.548zm-15 0c.609 0 .946-.388.563-.648l-.692-.47-1.082-.735c-.29-.197-.837-.197-1.127 0l-1.081.735-.693.47c-.383.26-.046.648.564.648h3.547zm-8 9c.61 0 .946-.388.563-.648l-.692-.47-1.082-.735c-.29-.197-.836-.197-1.127 0l-1.082.735-.692.47c-.383.26-.046.648.563.648h3.548zm66 0c.61 0 .946-.388.563-.648l-.692-.47-1.082-.735c-.29-.197-.836-.197-1.127 0l-1.082.735-.692.47c-.383.26-.046.648.564.648h3.548zm-50 1c.609 0 .946-.388.563-.648l-.691-.47-1.083-.735c-.29-.197-.836-.197-1.127 0l-1.081.735-.693.47c-.383.26-.046.648.564.648h3.547zm16 0c.609 0 .946-.388.563-.648l-.691-.47-1.083-.735c-.29-.197-.836-.197-1.127 0l-1.081.735-.693.47c-.383.26-.046.648.564.648h3.547zm17 0c.609 0 .946-.388.563-.648l-.691-.47-1.083-.735c-.29-.197-.836-.197-1.127 0l-1.081.735-.693.47c-.383.26-.046.648.564.648h3.547zm34 0c.609 0 .946-.388.563-.648l-.692-.47-1.082-.735c-.29-.197-.836-.197-1.127 0l-1.081.735-.693.47c-.383.26-.046.648.564.648h3.547zm15 0c.61 0 .946-.388.563-.648l-.692-.47-1.082-.735c-.29-.197-.836-.197-1.127 0l-1.082.735-.692.47c-.383.26-.046.648.563.648h3.548zm17 0c.609 0 .946-.388.563-.648l-.692-.47-1.082-.735c-.29-.197-.836-.197-1.127 0l-1.081.735-.693.47c-.383.26-.046.648.564.648h3.547z"/>
        <circle cx="701" cy="141" r="5" fill="#CACBF0"/>
    </g>
</svg>
