<?xml version="1.0" encoding="utf-8"?>
<!-- Generator: Adobe Illustrator 23.1.1, SVG Export Plug-In . SVG Version: 6.00 Build 0)  -->
<svg version="1.1" id="Layer_1" xmlns="http://www.w3.org/2000/svg" xmlns:xlink="http://www.w3.org/1999/xlink" x="0px" y="0px"
	 viewBox="0 0 274.2 456" style="enable-background:new 0 0 274.2 456;" xml:space="preserve">
<style type="text/css">
	.st0{display:none;filter:url(#b);}
	.st1{display:inline;fill-rule:evenodd;clip-rule:evenodd;}
	.st2{fill-rule:evenodd;clip-rule:evenodd;fill:#373656;}
	.st3{filter:url(#Adobe_OpacityMaskFilter);}
	.st4{fill-rule:evenodd;clip-rule:evenodd;fill:#FFFFFF;}
	.st5{mask:url(#c_1_);fill-rule:evenodd;clip-rule:evenodd;fill:#4C4A70;stroke:#4C4A70;}
	.st6{filter:url(#Adobe_OpacityMaskFilter_1_);}
	.st7{mask:url(#c_2_);}
	.st8{fill-rule:evenodd;clip-rule:evenodd;fill:#4D52B1;}
	.st9{fill-rule:evenodd;clip-rule:evenodd;fill:#4C4A70;}
	.st10{filter:url(#Adobe_OpacityMaskFilter_2_);}
	.st11{mask:url(#c_3_);fill-rule:evenodd;clip-rule:evenodd;fill:#FF9561;}
	.st12{filter:url(#Adobe_OpacityMaskFilter_3_);}
	.st13{mask:url(#c_4_);fill-rule:evenodd;clip-rule:evenodd;fill:#FFDD00;}
	.st14{filter:url(#Adobe_OpacityMaskFilter_4_);}
	.st15{mask:url(#c_5_);fill-rule:evenodd;clip-rule:evenodd;fill:#78BC8D;}
</style>
<filter  filterUnits="objectBoundingBox" height="125.1%" id="b" width="141.8%" x="-20.9%" y="-9.2%">
	<feMorphology  in="SourceAlpha" operator="dilate" radius="2.5" result="shadowSpreadOuter1"></feMorphology>
	<feOffset  dy="15" in="shadowSpreadOuter1" result="shadowOffsetOuter1"></feOffset>
	<feGaussianBlur  in="shadowOffsetOuter1" result="shadowBlurOuter1" stdDeviation="14"></feGaussianBlur>
	<feColorMatrix  in="shadowBlurOuter1" values="0 0 0 0 0 0 0 0 0 0 0 0 0 0 0 0 0 0 0.112980769 0"></feColorMatrix>
</filter>
<g>
	<g transform="translate(32 54)">
		<g class="st0">
			<path class="st1" d="M-22.8-54h257c4.4,0,8,3.6,8,8v439c0,4.4-3.6,8-8,8h-257c-4.4,0-8-3.6-8-8V-46C-30.8-50.4-27.2-54-22.8-54z"
				/>
		</g>
		<g>
			<path class="st2" d="M-22.8-54h257c4.4,0,8,3.6,8,8v439c0,4.4-3.6,8-8,8h-257c-4.4,0-8-3.6-8-8V-46C-30.8-50.4-27.2-54-22.8-54z"
				/>
		</g>
		<defs>
			<filter id="Adobe_OpacityMaskFilter" filterUnits="userSpaceOnUse" x="-50.8" y="144.2" width="310.6" height="332.7">
				<feColorMatrix  type="matrix" values="1 0 0 0 0  0 1 0 0 0  0 0 1 0 0  0 0 0 1 0"/>
			</filter>
		</defs>
		<mask maskUnits="userSpaceOnUse" x="-50.8" y="144.2" width="310.6" height="332.7" id="c_1_">
			<g class="st3">
				<path id="a_1_" class="st4" d="M-22.8-54h257c4.4,0,8,3.6,8,8v439c0,4.4-3.6,8-8,8h-257c-4.4,0-8-3.6-8-8V-46
					C-30.8-50.4-27.2-54-22.8-54z"/>
			</g>
		</mask>
		<path class="st5" d="M-50.3,149.7c51.9,41.5,123.8,45.6,186.1,29.2c36.6-9.6,70.5-27.5,107.9-34.1c20.8-3.6,20.8,106.9,0,331.6
			H-36.6L-50.3,149.7z"/>
		<defs>
			<filter id="Adobe_OpacityMaskFilter_1_" filterUnits="userSpaceOnUse" x="-65" y="142" width="327.3" height="352.9">
				<feColorMatrix  type="matrix" values="1 0 0 0 0  0 1 0 0 0  0 0 1 0 0  0 0 0 1 0"/>
			</filter>
		</defs>
		<mask maskUnits="userSpaceOnUse" x="-65" y="142" width="327.3" height="352.9" id="c_2_">
			<g class="st6">
				<path id="a_2_" class="st4" d="M-22.8-54h257c4.4,0,8,3.6,8,8v439c0,4.4-3.6,8-8,8h-257c-4.4,0-8-3.6-8-8V-46
					C-30.8-50.4-27.2-54-22.8-54z"/>
			</g>
		</mask>
		<g class="st7">
			<path class="st8" d="M-61.3,187l-0.7-0.5l1.9,4.4L-61.3,187z M-59.6,199.2L-62,197c0.6,6.2,2.5,14.1,1.9,18.5
				c2.7-2.8-0.9-10.3-0.1-15.5L-59.6,199.2L-59.6,199.2z M-62.3,245.6l-0.5-2C-63,244-63.1,244.5-62.3,245.6 M-63.2,241.6
				c0.9,0.3,0-0.5-0.7-2.3l1.1,4.3C-62.3,243-61.4,242.9-63.2,241.6 M-61.6,235.6c-0.7-7.6-2.7-6.4-2,1.2
				C-63,234.6-62.7,231.7-61.6,235.6 M-57.1,216.9l0.7-3l-1.1-2.5C-57,212.6-58,217.1-57.1,216.9 M-63.5,262.1
				c-0.4,1.5-0.6,4.4-1.5,4.6c0.6,0.2,1.6-1.4,2.3-1.7L-63.5,262.1z"/>
			<path class="st8" d="M-62.6,265l1.2,4.3C-61.4,265.4-62,264.7-62.6,265 M-59,247.6l-0.1-1.4l-2.5-7.1L-59,247.6z M-62.4,306.8
				c-0.3-1.2-0.9-2.5-1.5-3.8C-63.5,304.3-63.1,305.6-62.4,306.8 M-63,280.3l1.6-1.8l0-1.7C-61.7,277.1-62.7,277.8-63,280.3
				 M-61.3,278.4L-61.3,278.4l0,3.8L-61.3,278.4 M-61.4,276.3l0,0.4C-61.2,276.6-61.2,276.5-61.4,276.3 M-60.1,257.7
				c1.1,2.5,2.3,7.8,3.5,2.6C-57.8,258.6-58.5,261.6-60.1,257.7 M-60.8,269.2l1.4,4.9l0.2-4.7C-59.6,269.6-60.2,270.4-60.8,269.2
				 M-58.7,276.4l-0.6-2.3l-0.1,1.7L-58.7,276.4z M-59.7,297.4c-0.6-0.3-1.6-1.5-1.4,1.4c0.8,2,1,4.2,1.2,6.6
				C-59.7,302.8-59.6,300-59.7,297.4 M-61,288.9c0,0.1,0.1,0.3,0.1,0.4C-60.8,289.1-60.8,288.8-61,288.9 M-58.9,329.9
				c0.1-0.1,0.2-0.3,0.3-0.4c-0.1,0-0.2,0-0.3-0.1L-58.9,329.9z M-59.4,296.9c0.2-2-0.2-3.2-0.8-4.3c0.2,1.5,0.4,3.1,0.5,4.8
				C-59.5,297.6-59.3,297.6-59.4,296.9 M-61.3,313.6c0.3-1.1,0.6-2.2,0.8-3.5C-61,311.1-61.7,313.3-61.3,313.6 M-61.4,290
				c0-0.1-0.1-0.2-0.1-0.3C-61.8,290.4-61.6,290.3-61.4,290"/>
			<path class="st8" d="M-61.4,290c0.3,1,0.7,1.8,1.2,2.6c-0.2-1.2-0.4-2.3-0.7-3.3C-61,289.6-61.2,289.8-61.4,290 M-58.8,320.7
				l-0.3-1.9c-0.2,2.2-0.8,3.7-1.9,6.6c0.9,3.1,1.5,3.7,2.1,3.9l-0.2-9.3L-58.8,320.7L-58.8,320.7z M-59.4,310.3
				c1.8,1.4,2.7,5.9,4.5,3.1c-0.4-5.5-1.6-3.8-2.5-7.1c0.8,8.9-1.1-2.5-1.8,4c-0.4-1.7-0.5-3.3-0.7-4.8c-0.1,1.6-0.3,3.1-0.6,4.7
				c0-0.1,0.1-0.1,0.1-0.2l0,0c0,0,0,0,0,0c0.2-0.4,0.3-0.5,0.2-0.1c0,0,0,0.1,0,0.2C-59.9,310-59.7,310.2-59.4,310.3
				c-0.3,2.6-0.4,0.4-0.7-0.4c-0.1,0-0.2-0.1-0.3-0.1c0,0,0,0,0,0l1.3,8.9C-58.9,316.9-59.1,314.5-59.4,310.3 M-52.7,265
				c-0.1,0.3-0.3,0.3-0.4,0.3C-52.8,265.9-52.7,266.1-52.7,265"/>
			<path class="st8" d="M-53.6,268.7c-0.3-0.6-1-1.2-0.9-3.3c0.4-1.9,0.8,0,1.4-0.1c-0.5-1.3-1.4-4.4-2.1-0.4l0.3,0.6
				c-0.3,2.9-1.6,6.4-2.3,7.5C-55.9,272-54.9,271-53.6,268.7 M-57.2,273c-0.1,0.1-0.2,0.2-0.4,0.3C-57.5,273.4-57.4,273.3-57.2,273
				 M-56.1,289.8l1.2,7.4l1.3-3.9l-0.9,0.2C-54.3,289.3-55.3,290.3-56.1,289.8 M-59.7,330.8l-1.9-0.9l2.7,4.2L-59.7,330.8z
				 M-59.1,340.4l-1.6-0.3l1.1,2.5L-59.1,340.4z M-54.3,439.8c-0.6,2.8-0.8,5-0.8,6.9C-54.2,443.4-52.8,440.6-54.3,439.8 M256,362.7
				c-0.2-1.4-0.5-2-0.9-2C255.3,362.2,255.5,363,256,362.7 M-54.7,454.7c0.2-0.5,0.2-1,0.3-1.5c-0.4-2-0.7-4-0.7-6.5
				C-55.7,449.2-56,452-54.7,454.7 M-27.7,164.6c-0.5-0.4-1.5-0.9-3.2-1.6C-30.1,163.3-28.9,163.9-27.7,164.6 M-58.2,379.5
				C-58.4,377.5-58.4,379.2-58.2,379.5 M-50.9,370c-0.4-0.1-0.7-0.4-0.9-0.8C-51.5,369.7-51.3,370-50.9,370 M-57.5,376.4
				c-0.2,0.8-0.3,1.7-0.4,2.7C-57.8,378.6-57.7,377.8-57.5,376.4 M-58.3,376.8l0.1-1.8C-58.5,374.8-58.7,375-58.3,376.8"/>
			<path class="st8" d="M-58.2,379.5c0.1,0.6,0.1,1.5,0.2,2.9c-0.1-1.1-0.1-2.2,0-3.3C-58,379.5-58.1,379.6-58.2,379.5"/>
			<path class="st9" d="M212.9,484.7c-1-0.4-0.2-1.3,1.2-2.4c-0.6,0.2-1.1,0.4-1.5,0.6c-1.2-0.4-1.6-0.8-1.6-1.3h4.1l-1,0.7l2-0.7
				h1.8c1.3,0.8,2.5,1.4,3.3,1.7L212.9,484.7L212.9,484.7z M103.7,485.1c0.4-0.9,0.2-2.2-0.1-3.6h5.1L103.7,485.1z M87.4,486.5
				c0.2-0.2,0.3-0.4,0.4-0.7C87.9,486.3,88.6,486.5,87.4,486.5z M29,487.2l-1.7-1.3l-6.7,1.5c1.8-1.5,4.9-3.6,8.4-5.9h11.1
				C36.9,484.1,33,486.4,29,487.2L29,487.2z M-8,486.9c-0.7-0.2-11.1-2.9-13.5-4.5c-0.4-0.3-0.7-0.6-0.8-0.9h7.4l0.1,3l0.9-3h7.2
				C-6.7,483.9-7.1,486-8,486.9z M-44.9,477.2c0.6-0.1,1.2-1.3,1.7-2.1l0.3,6.1C-43.9,480.3-44.6,478.8-44.9,477.2L-44.9,477.2z
				 M-48.6,425.7c0-14.1-6.4-11.7-4.4-23.5c2-4.7,4.3-0.4,5.8-1.5c1.1,6.1-1,9.4-0.7,13.5l0.8-5.1c0.8,1.9,1.5,6,1,8.2
				c0.2-0.5,0.4-1.2,0.5-2.1l1.2,28.8c-2.2-2.7-4.3-7.7-5.6-13.8C-51.3,422.9-48.1,427-48.6,425.7L-48.6,425.7z M-49.2,336.5
				c0,0,0.1,0,0.1,0l0,0.6L-49.2,336.5z M-49.5,327.1l0.3,7.9C-50,333.1-50.3,330-49.5,327.1z M192.9,154.1l1.5,0
				C191.6,155.6,192.2,154.9,192.9,154.1z M-55.7,402c0,0.1,0.1,0.1,0.1,0.2C-56.2,405.6-55.9,404.4-55.7,402L-55.7,402z
				 M259.1,211.6c-0.7-2.8-1.3-5.5-2-8.3c-0.2,10.8-3.2-1.5-4.2,3c-0.6-4.2,1.7-11,2.3-5.8l-0.3,0.8c1.9,0.9,2.1-2.5,2.1-6.1
				c0-3.6-0.3-7.3,1-7.3c-0.5-5.3-0.9-10.7-1.6-16.1c-0.3-2.7-0.7-5.4-1.2-8.1c-0.1-0.7-0.2-1.4-0.4-2.1l-0.2-1.1
				c-0.1-0.4-0.2-0.9-0.3-1.3c-0.3-0.9-0.5-1.8-0.8-2.7c-0.3-0.9-0.6-1.8-1-2.6c-1.4-3.4-3.3-6.7-6-9c-1.4-1.2-3-2.1-4.7-2.5
				c-0.4-0.1-0.9-0.2-1.3-0.3c-0.4-0.1-0.8-0.2-1.3-0.1l-2.7,0.3l-5.5,0.6l-1.4,0.1c-0.5,0-1,0.2-1.4,0.2l-2,0.4
				c-2.5,0.5-5,1-7.5,1.7l3,2.2l-6.8,1.6c-1.9-0.1-3-1.6,1.9-2.8c-3-1-7.7,3.7-7.7,4.3c-4.8,0.9-4.2-0.2-2.7-1.4
				c1.5-1.2,3.9-2.5,2.5-2.1c-1.3,0.4-2.6,0.9-3.9,1.4l1,0c-2.8,2.2-2.7,3.4-8.4,5.2c-3.8,0.7-2.4-1.1-3.9-0.7
				c-0.1-0.2-0.6-0.1-2.2,0.7c-2.8,0.9-5.6,1.8-8.3,2.7l4.1,1c-3.2,2.4-7.7,2.7-3.1,3.8c-3.5-0.9-11.2,1.6-18.4,4.2
				c-7.3,2.7-14.2,5.4-16,5.4c-2.2,1.7-4.6,2.8-7.2,3.9c-2.6,1-5.4,1.8-8.5,2.6c1.7,0,3.3,2.3-2.1,3.5c0.3-2.9-2.3-2.7-5.7-2.3
				c-3.3,0.5-7.4,1.2-10-0.2c2.2,0.8-1.6,1.8-5.1,2.8c-3.5,1-6.8,2-3.3,3.2c-4.6,0.4-0.6-1.9-4.3-2.6c-5.2,1.9-11.3,2.4-17.6,2.5
				c-6.4,0.1-13-0.2-19.7,0.3c-0.2,0.7,2.1,1.7-0.8,2.8c-2.4-1.1-4.8-2.3-7.1-3.5c-2.6,0.3-2.6,4-7.3,1.4c0.7,0.6,1.6,1.6-0.2,1.7
				c-6.6-1.2-13.2-2.1-19.8-3c-6.6-1-13.3-1.9-19.9-3.4c-6.6-1.5-13.1-3.4-19.3-6.1c-6.2-2.7-12-6.1-17-10.6
				c2.5,2.8,0.4,1.9-2.1,0.7c1.4,1.1-0.8,1.5-1,2.5l-4.3-3.9c-1.4-1.3-2.7-2.7-4.1-4c-1.6,0.6-4.1-1-6.5-2.6
				c-2.4-1.6-4.6-3.2-5.8-2.6c1,0.6,2.1,1.1,3.1,1.7c-2.8-0.1-2.4,2.1-1.6,4.9c0.1,0.3,0.2,0.5,0.2,0.8c-3.1-2.2-6.2-4.4-9.2-6.8
				l6.8,162.7c0-0.1-0.1-0.3-0.1-0.4l-0.9,0.2c0.2,2.4,0.8,4.1,1.1,2.7l0.3,6.4c-1.5-3.9-6.4-0.8-9.1,3.1c0.7,0.1,1.3,0.1,2.5,4.6
				c0.8-1.6,1.6-10.3,3.2-6.5c1.1,6-0.4,5-1.1,8c1.7-2.3,2.9,5.5,5.1,6.2l1.6,36.9c-0.2-0.2-0.5-0.2-0.7,0.3l0.4,3.4
				c-1.6,3.2-2.7-6.4-3.3-2c-1.4-4.5-3.5-9.6-2.8-16.1l2.4-1.3c-0.7,0.2-1.3,4.3-0.5,6.1c-1.2-2.7,2.9-10.1-0.4-12.9l-1.5,4.6
				c-1.4-4.6-4.3-10.2-3.7-15.9c-2.3,2.7,0.3,1.3-2.3,5.5c3.2-3.5,0.7,13.3,3.6,9.4c-2.6,4-0.8,7-3.3,12.3c0.8-0.2,1.5-2,1.3,2.8
				c0.2,0.2,0.6,0.7,0.8,1c0,0.1,0,0.2,0,0.3l0.1-0.3c0.1,0.2,0.2,0.2,0-0.1c0.3-1.2,0.7-2.1,1.1-2.5c2,2.3,2.2,10,3.3,12.5
				c-0.3,2.9-1-1.2-1.8,0.4l1.6,3.8c-1.8,0.5-2.7,7.7-4,1l0.2,6.1c-0.9,3.6-1.1,8.5-0.2,11.5c-0.3,2.9,2.3,7.1,0.8,4.7l1.5,9.5
				l-0.4,0.1c0.2,9.4,3.8,19.2,1,30c0.6,3.1,1.3,6.4,1,11.7l-1.5,1.1c0,0.3,0.1,0.5,0.1,0.8l0,0.4l0,0.8c0,1.1,0.1,2.2,0.1,3.4
				l-0.1,7.4c0,4.9,0,9.5,0.9,10.3c-0.5,1.4-0.8,3-1,4.9c4.3,1.1,13.3,1,21.9,0.8l3.2-0.1l1.6-0.1l0.9-0.1l3.3-0.2
				c2.1-0.1,4.1-0.1,5.7,0l0.3-2c4.9,0.1,9.6-0.5,15.7-1.3l-0.4-1.8c5.3-1.5,13.5,1.3,21.8,1.1c-0.6,0.7-2.7,0.5-4.2,0.1
				c9.9,4,21-2.9,30,0c2.2-0.7,3.9-0.4,5.4,0c-0.2,0-0.4,0-0.6,0.1c0.2,0,0.6,0,0.9,0c1,0.3,2,0.7,3.1,1c-0.9-0.4-1.8-0.8-2.6-1
				c1.7,0,4.4-0.3,6.9-0.7l1.1,1.9c0.2,0,0.4,0,0.6-0.1c2.5,0.7,2-0.9,0.7-2.4c1.3-0.3,2.5-0.7,3.4-1.2c2.1,3.1,6.8-1,9.6,2.3
				c1.6-1.5,11.3-1.3,13.8-3.9c2.8,0.4,5.7,0.8,8.2-0.2l1.2,2.5l6.3-3.3c3.8,1.5,5.4,2.4,1.6,4.2c9.1-2.9,7.4-1.1,15.2-4l-0.4,1.6
				c2.8-0.1,7.2-2.2,8.9-0.9c6.2,3,30.7,0.4,46.6,3.2c-3.1-4.7,7.4,2.1,8-1.5c0.9,1.1,3.1,1.7,0.6,2.7c8.1-1.1,12.2,1.7,17.8-1.3
				c0.9,1.1-1.7,1.6-0.9,2.3c0.7-0.2,2.6-1,3.4-0.3c0.8,0.7-1.2,0.9-2.5,1.4c8.3-0.2,9.1-3.6,9.7-6.8c4.2,1.5,6.3,1.3,9.3-0.8
				c1.5,1,3.9,2.1-1.3,2.5l4,0.3c2.6,0.1,5.7,0.2,8.6,0.2c6,0,11.3-0.2,10.1-1.6c0.7-0.6,0.7-5.3,0.5-6.5l1-9
				c0.1-0.6,0.1-1.2,0.2-1.8l0.2-1.9c0.1-1.1,0.2-2.3,0.2-3.9l-0.6,1.7c-2.8-2.8-0.2-5.4-0.1-10.5l0.3,0.2
				c3.3-11.6-0.6-5.2,2.9-16.6l-2,0.5c-4-1.4,3.3-10.1,2.3-17l-1.3,2.3c-1.1-3.8,6.4-9.8,7.3-13.5c0.4-0.8,0.5,1.3,0.6,2.5
				c3.2-9.5-2.4-1.5-2.4-8.7c1.5-1.2,3.3,2,3.9-2.9c1.3-2.3-3.3-14.5-0.2-20.9c-1.2,1.4-2.3,2.8-2.8-0.7c0-5.2,5-13.6,2-18.5
				c0.3-0.6,0.6-0.9,0.9-0.9c-0.6-4-0.5-12.9-2.2-15.4c6.9-3.2-1.7-24.7,4.4-24.2l0.3-12.2l0.6,0.4c0.8-7.7-0.5-10.6-1.9-13.4
				c0.5-1.8,1-0.4,1.3-0.3c1.7-11.3,1.5-12.5-1.2-22.1l2-0.9c-1.1-2.6,3.7-16.4,1.5-27.6c0.2,0.1,0.6,0.4,0.9,1.2
				c-1.1-6.3,0.4-13.8,1.1-20.4C262.7,219.4,262.8,213.8,259.1,211.6L259.1,211.6z"/>
			<path class="st8" d="M-58.8,358.7c-0.4,0.1-0.9,0.8-1.1,0.1l0.6,4C-59.5,360.5-59.1,359.8-58.8,358.7"/>
			<path class="st8" d="M-59.9,358.7l-0.1-0.5C-59.9,358.5-59.9,358.6-59.9,358.7 M-53.7,353.9c1.6-0.4,0.9-3.2,0.5-6.3
				c0,0.2,0,0.4,0,0.6C-55.5,347.3-54.6,350.6-53.7,353.9 M-53.3,346.8c-0.1-1-0.2-1.9-0.2-2.9C-54.4,343.6-53.6,345.1-53.3,346.8
				 M-56.6,386.2c0.4-1.5-2.1-0.8-1.5-1.7C-60.2,383-55.2,394.3-56.6,386.2 M-50.4,352.3l1.7,1.7l0.3-2.9L-50.4,352.3z M-48.9,375.8
				l0.3-5c-0.3,0.1-0.6-0.5-0.7-1.3C-49.3,372.6-49.5,376-48.9,375.8 M-49.3,369.5c0-1.6-0.1-3.1-0.5-4
				C-49.8,366.4-49.6,368.2-49.3,369.5 M-45.5,431.9c-0.5-1.3-0.9-3.3-1.5-2.4l0.8,5.4C-45.5,435.5-45.2,434-45.5,431.9 M-42,153.5
				l-2.7-2.9l1.3,2.6L-42,153.5z M-49.9,151.5l0.8-2.6l-3.3,0.4C-51.6,149.7-50.1,150.6-49.9,151.5"/>
		</g>
		<defs>
			<filter id="Adobe_OpacityMaskFilter_2_" filterUnits="userSpaceOnUse" x="191.7" y="141" width="16" height="16">
				<feColorMatrix  type="matrix" values="1 0 0 0 0  0 1 0 0 0  0 0 1 0 0  0 0 0 1 0"/>
			</filter>
		</defs>
		<mask maskUnits="userSpaceOnUse" x="191.7" y="141" width="16" height="16" id="c_3_">
			<g class="st10">
				<path id="a_3_" class="st4" d="M-22.8-54h257c4.4,0,8,3.6,8,8v439c0,4.4-3.6,8-8,8h-257c-4.4,0-8-3.6-8-8V-46
					C-30.8-50.4-27.2-54-22.8-54z"/>
			</g>
		</mask>
		<circle class="st11" cx="199.7" cy="149" r="8"/>
		<defs>
			<filter id="Adobe_OpacityMaskFilter_3_" filterUnits="userSpaceOnUse" x="30.7" y="-26" width="8" height="8">
				<feColorMatrix  type="matrix" values="1 0 0 0 0  0 1 0 0 0  0 0 1 0 0  0 0 0 1 0"/>
			</filter>
		</defs>
		<mask maskUnits="userSpaceOnUse" x="30.7" y="-26" width="8" height="8" id="c_4_">
			<g class="st12">
				<path id="a_4_" class="st4" d="M-22.8-54h257c4.4,0,8,3.6,8,8v439c0,4.4-3.6,8-8,8h-257c-4.4,0-8-3.6-8-8V-46
					C-30.8-50.4-27.2-54-22.8-54z"/>
			</g>
		</mask>
		<circle class="st13" cx="34.7" cy="-22" r="4"/>
		<defs>
			<filter id="Adobe_OpacityMaskFilter_4_" filterUnits="userSpaceOnUse" x="23.7" y="178" width="11" height="11">
				<feColorMatrix  type="matrix" values="1 0 0 0 0  0 1 0 0 0  0 0 1 0 0  0 0 0 1 0"/>
			</filter>
		</defs>
		<mask maskUnits="userSpaceOnUse" x="23.7" y="178" width="11" height="11" id="c_5_">
			<g class="st14">
				<path id="a_5_" class="st4" d="M-22.8-54h257c4.4,0,8,3.6,8,8v439c0,4.4-3.6,8-8,8h-257c-4.4,0-8-3.6-8-8V-46
					C-30.8-50.4-27.2-54-22.8-54z"/>
			</g>
		</mask>
		<circle class="st15" cx="29.2" cy="183.5" r="5.5"/>
	</g>
</g>
</svg>
