<?xml version="1.0" encoding="utf-8"?>
<!-- Generator: Adobe Illustrator 23.0.6, SVG Export Plug-In . SVG Version: 6.00 Build 0)  -->
<svg version="1.1" id="Layer_1" xmlns="http://www.w3.org/2000/svg" xmlns:xlink="http://www.w3.org/1999/xlink" x="0px" y="0px"
	 viewBox="0 0 138 138" style="enable-background:new 0 0 138 138;" xml:space="preserve">
<style type="text/css">
	.st0{filter:url(#a);}
	.st1{fill-rule:evenodd;clip-rule:evenodd;}
	.st2{fill-rule:evenodd;clip-rule:evenodd;fill:#373656;}
	.st3{fill:#00B6CD;}
	.st4{filter:url(#Adobe_OpacityMaskFilter);}
	.st5{fill-rule:evenodd;clip-rule:evenodd;fill:#FFFFFF;}
	.st6{mask:url(#b_2_);}
	.st7{fill-rule:evenodd;clip-rule:evenodd;fill:#CACBF0;}
</style>
<filter  filterUnits="objectBoundingBox" height="254.1%" id="a" width="254.1%" x="-77%" y="-56.8%">
	<feMorphology  in="SourceAlpha" operator="dilate" radius="2.5" result="shadowSpreadOuter1"></feMorphology>
	<feOffset  dy="15" in="shadowSpreadOuter1" result="shadowOffsetOuter1"></feOffset>
	<feGaussianBlur  in="shadowOffsetOuter1" result="shadowBlurOuter1" stdDeviation="14"></feGaussianBlur>
	<feColorMatrix  in="shadowBlurOuter1" values="0 0 0 0 0 0 0 0 0 0 0 0 0 0 0 0 0 0 0.260025131 0"></feColorMatrix>
</filter>
<g transform="translate(32 17)">
	<g class="st0">
		<circle id="b_1_" class="st1" cx="37" cy="37" r="37"/>
	</g>
	<g>
		<circle class="st2" cx="37" cy="37" r="37"/>
	</g>
</g>
<g transform="translate(1.09 2.182)">
	<g>
		<path class="st3" d="M71.8,41.8c0.6,0,1.1,0.5,1.1,1.1v2.4h4.5c0.6,0,1,0.4,1.1,1l0,0.1v13.4c0,0.6-0.4,1-1,1.1l-0.1,0H58
			c-0.6,0-1-0.4-1.1-1l0-0.1l0-7.5c0-0.1,0-0.2,0-0.3l0-0.1v-5.5c0-0.6,0.4-1,1-1.1l0.1,0h4.5v-2.4c0-0.6,0.4-1,1-1.1l0.1,0H71.8z
			 M76.3,53.4l-8.4,1.7c-0.1,0-0.2,0-0.3,0l-0.1,0l-8.4-1.7v5.3h17.2V53.4z M76.3,47.5H59.1v3.7l8.6,1.7l8.6-1.8
			C76.3,51.2,76.3,47.5,76.3,47.5z M70.7,44h-6v1.3h6C70.7,45.3,70.7,44,70.7,44z"/>
	</g>
	<defs>
		<filter id="Adobe_OpacityMaskFilter" filterUnits="userSpaceOnUse" x="55.9" y="39.8" width="24" height="24">
			<feColorMatrix  type="matrix" values="1 0 0 0 0  0 1 0 0 0  0 0 1 0 0  0 0 0 1 0"/>
		</filter>
	</defs>
	<mask maskUnits="userSpaceOnUse" x="55.9" y="39.8" width="24" height="24" id="b_2_">
		<g class="st4">
			<path id="a_2_" class="st5" d="M71.8,41.8c0.6,0,1.1,0.5,1.1,1.1v2.4h4.5c0.6,0,1,0.4,1.1,1l0,0.1v13.4c0,0.6-0.4,1-1,1.1l-0.1,0
				H58c-0.6,0-1-0.4-1.1-1l0-0.1l0-7.5c0-0.1,0-0.2,0-0.3l0-0.1v-5.5c0-0.6,0.4-1,1-1.1l0.1,0h4.5v-2.4c0-0.6,0.4-1,1-1.1l0.1,0
				H71.8z M76.3,53.4l-8.4,1.7c-0.1,0-0.2,0-0.3,0l-0.1,0l-8.4-1.7v5.3h17.2V53.4z M76.3,47.5H59.1v3.7l8.6,1.7l8.6-1.8
				C76.3,51.2,76.3,47.5,76.3,47.5z M70.7,44h-6v1.3h6C70.7,45.3,70.7,44,70.7,44z"/>
		</g>
	</mask>
	<g class="st6">
		<path class="st7" d="M55.9,63.8h24v-24h-24V63.8z"/>
	</g>
</g>
</svg>
