<?xml version="1.0" encoding="utf-8"?>
<!-- Generator: Adobe Illustrator 23.0.6, SVG Export Plug-In . SVG Version: 6.00 Build 0)  -->
<svg version="1.1" id="Layer_1" xmlns="http://www.w3.org/2000/svg" xmlns:xlink="http://www.w3.org/1999/xlink" x="0px" y="0px"
	 viewBox="0 0 1002 251.8" style="enable-background:new 0 0 1002 251.8;" xml:space="preserve">
<style type="text/css">
	.st0{fill-rule:evenodd;clip-rule:evenodd;}
	.st1{fill-rule:evenodd;clip-rule:evenodd;fill:#373656;}
	.st2{filter:url(#Adobe_OpacityMaskFilter);}
	.st3{fill-rule:evenodd;clip-rule:evenodd;fill:#FFFFFF;}
	.st4{mask:url(#c_1_);fill-rule:evenodd;clip-rule:evenodd;fill:#4C4A70;}
	.st5{filter:url(#Adobe_OpacityMaskFilter_1_);}
	.st6{mask:url(#c_2_);fill-rule:evenodd;clip-rule:evenodd;fill:#4C4A70;}
	.st7{fill:none;stroke:#00B7CD;stroke-width:3;}
	.st8{fill-rule:evenodd;clip-rule:evenodd;fill:#78BC8D;}
	.st9{fill-rule:evenodd;clip-rule:evenodd;fill:#FF9561;}
	.st10{fill-rule:evenodd;clip-rule:evenodd;fill:#FFDD00;}
	.st11{fill-rule:evenodd;clip-rule:evenodd;fill:#00B7CD;}
</style>
<g>
	<g transform="translate(0 37)">
		<g>
			<path class="st0" d="M8.4-36.2h985c4.4,0,8,3.6,8,8v235c0,4.4-3.6,8-8,8H8.4c-4.4,0-8-3.6-8-8v-235C0.4-32.6,4-36.2,8.4-36.2
				L8.4-36.2z"/>
		</g>
		<g>
			<path class="st1" d="M8.4-36.2h985c4.4,0,8,3.6,8,8v235c0,4.4-3.6,8-8,8H8.4c-4.4,0-8-3.6-8-8v-235C0.4-32.6,4-36.2,8.4-36.2
				L8.4-36.2z"/>
		</g>
		<defs>
			<filter id="Adobe_OpacityMaskFilter" filterUnits="userSpaceOnUse" x="656.5" y="36.5" width="250" height="248.5">
				<feColorMatrix  type="matrix" values="1 0 0 0 0  0 1 0 0 0  0 0 1 0 0  0 0 0 1 0"/>
			</filter>
		</defs>
		<mask maskUnits="userSpaceOnUse" x="656.5" y="36.5" width="250" height="248.5" id="c_1_">
			<g class="st2">
				<path id="a_1_" class="st3" d="M8.4-36.2h985c4.4,0,8,3.6,8,8v235c0,4.4-3.6,8-8,8H8.4c-4.4,0-8-3.6-8-8v-235
					C0.4-32.6,4-36.2,8.4-36.2L8.4-36.2z"/>
			</g>
		</mask>
		<path class="st4" d="M845.4,41.2c-0.9-0.5-1.8-1-3.3-1.7c0-0.1,1,0.3,0.8,0.2c0.6,0.3,1.1,0.6,1.6,0.8c0.4,0.2,0.7,0.4,1.1,0.6
			c0.7,0.4,1.2,0.8,2.3,1.5C847,42,846.3,41.6,845.4,41.2L845.4,41.2z M853.9,54.6c1.3,1.9,2.6,4.4,3.5,6.9c0.2,0.6,0.4,1.2,0.6,1.8
			l0.5,1.6c0.3,1,0.6,2,0.9,2.7c-0.2,0.3-0.7-1.1-1.4-3.4c-0.1-0.3-0.2-0.6-0.3-0.9l-0.4-1.1c-0.1-0.4-0.2-0.8-0.4-1.1
			c-0.2-0.4-0.3-0.8-0.5-1.2c-0.6-1.6-1.5-3.3-2.4-4.9c-0.1,0.1-0.8-1,0.1,0.8c-1.7-2.7-3.2-4-4.3-4.9c-0.6-1-0.3-1,0.5-0.3
			C851.1,51.2,852.6,52.6,853.9,54.6L853.9,54.6z M861.2,70.6c-0.9-2.1,0.1,3.9-2-4.4c0.3,0.2,2.3,6.4,1.1,1.1
			C860.4,67.2,860.9,69.7,861.2,70.6L861.2,70.6z M857.1,71.8c0.3,0.5,1,2.3,1.5,4.6c0.1-0.5,0.5,1.1,0.5,0.6c0.4,1.4,0.7,3,1.2,4.6
			c0.2,0,0.3-1,1.2,2.5c-0.5-0.9,0.4,2.2,0.4,2.7c0.2,3.1-2.5-6.3-2.6-5c2.3,7.9,4.2,12.2,6.3,21c-0.5-1.4-0.3,0.1-0.3,0.8
			c-0.8-2.8-1.5-4.5-1.7-3.8l-1.4-5.7c0.3,0.8,0.7,1.8,1,2.2c-0.2-0.8-0.3-1.2-0.3-1.3c-0.5-1.3-0.9-2.2-1.1-2.7l-0.8-3.4
			c0-0.1,0-0.2,0-0.4c-0.1-0.2-0.1-0.3-0.2-0.4l-3.2-13c0.1,0.2,0.1,0.4,0.2,0.7c-0.3-1.2-0.4-1.6-0.6-2l-0.5-2.2
			C856.9,71.6,857,71.7,857.1,71.8L857.1,71.8z M863.6,93.5c0.4,1.4,0.4,1.8,0.6,2.7c-0.4-0.7-0.9-2.2-1.8-5.9
			C862.9,91.9,863.2,92.8,863.6,93.5z M870.8,122.2c-0.2-0.3-1-3.7,0,0.7c-0.4-0.5-1.1-4-1.3-5.3C869.7,118,870.2,119.6,870.8,122.2
			L870.8,122.2z M870.9,123.6c0.3,1.3-0.2,0.4,0,1.4c-0.5-1.8-1.1-3.9-1.1-3.2c-0.2-1.3-1.1-4.1-0.8-4
			C869.9,121.8,870.5,122.8,870.9,123.6L870.9,123.6z M869.7,123.9c-0.3-1.5-0.2-1.7-0.4-2.7c0.2,0,0.7,1.8,0.9,1.9
			C870.8,126.1,870,124.4,869.7,123.9z M873.5,133.5c0.9,3.9,0.9,2.1,2.1,7.2c-0.3-0.3,0.6,2.8,0.7,3.4c-0.8-1.3-1.2-0.5-1.1,2.1
			l-2.6-10.7c0.3-0.4,1.3,2.2,0.4-2.6c0.3,1.1,0.4,1.7,0.5,2C873.1,133,874,135.9,873.5,133.5L873.5,133.5z M877.5,145.2
			c-0.3,0-0.6-0.4-1.1-1.8c0.2,1.1,1.4,5.2,1.9,6.6c0.7,3.5,1.3,5.4,2.2,8.6c0-0.5,0-0.5,0.2-0.1c0.9,4.2-0.4-0.3-0.8-0.5
			c-0.9-3.7-1.8-7-2.5-9.3c-0.2-1.1,0.1-0.8-0.2-2.1c-0.3-0.9-0.5-1.3-0.7-1.9c-0.5-2.4-0.8-4-0.8-4.8
			C876.7,143.8,876.1,139.5,877.5,145.2z M880.8,157.1c0.7,2.5,0.8,3.2,1.3,5.3c-0.3-0.4-0.2-0.4-0.2,0.1c-0.5-1.9-1.6-5.9-2.2-8.7
			C880.2,155.4,880.7,157.4,880.8,157.1L880.8,157.1z M883.5,167c-0.1-0.1-0.5-1.6-0.9-3.3c0.1,0.1,0-0.2-0.1-0.7
			C882.9,163.8,883,165.3,883.5,167z M886,177c-0.3-1.4-0.2-1.4-0.3-2.1c-0.4-1.6-0.1,0.4-0.6-2c-0.2-1.3,0.2,0.4,0.2-0.1
			c-0.6-2.6-0.5-1-1.1-4c-0.1,0.2,0.7,2.9,0.7,3.4c-0.9-2.6-1-4.4-1.5-6.7C884.1,166.7,886.9,179.2,886,177L886,177z M887.6,178.7
			c0.1-0.1-0.5-2.3-0.6-2.7c0.3,0.4,0.2,0.4,0.2-0.1c0.6,2.6,0.5,3,0.8,4.8c-0.5-1.5-1.9-6.3-2.4-8.6
			C886.2,173.4,887,176.4,887.6,178.7L887.6,178.7z M894.3,197.5c0.2,1,0.5,1.9,0.5,2c0.6,3.1-0.8-1.6-1.2-3.2
			C893.8,196.4,894,196.9,894.3,197.5L894.3,197.5z M887.6,196.6l-0.1-0.3c-0.1-0.7,0.2-0.3-0.4-2.5c-0.2-0.4-0.3-0.5-0.3-0.4
			l-0.7-2.9c0.4,1.1,0.9,1.9,1.5,3.2C887.7,195,887.9,197.1,887.6,196.6L887.6,196.6z M898.4,212c-0.3-0.4-0.7-1.6-1-2.5
			c0-0.4-0.6-2.6-0.6-2.7C897.3,208,897.8,209.8,898.4,212z M891,203.4c0.6,1.5,1,2.6,1.3,2.5C892.9,209.1,892.2,208.4,891,203.4z
			 M888.5,200.1c0.2,0.4,0.3,0.6,0.5,1c0.3,0.9,0.3,1.1,0.5,2c-0.2-0.7-0.4-1.3-0.6-1.6L888.5,200.1z M895.6,227.8
			c0.4,1.9,0.2,1.7,0.1,1.5l-0.3-1.3C895.4,228,895.6,228.1,895.6,227.8L895.6,227.8z M895.8,266.4c-0.2,0.4-0.8,1.7-3.5,4.6
			c0.2-0.6-0.8,0.2-1.5,0.6c0.6-0.5,1.1-1,1.5-1.5c0.4-0.4,0.8-0.8,1.1-1.2l1-1.2l1.1-1.4C895.5,266.4,895.9,266,895.8,266.4
			L895.8,266.4z M874.6,280.5c-1.2,0.2-1.5,0.1,0.2-0.4c1.9-0.3,4.9-1.3,5.2-1.3C878,279.7,875.8,280.4,874.6,280.5z M861.5,283
			c-0.1,0-0.5,0-1-0.1c-0.5-0.1-1.1-0.2-1.6-0.3c-1-0.2-1.9-0.4-1.8-0.3c-1-0.3-0.5-0.3-2.6-0.8c0.5,0.1,1.1,0.1,0-0.1
			c0.4,0,3.2,0.7,4.7,1c-0.1,0,0,0.1,0.5,0.2L861.5,283L861.5,283z M854.8,282.9c-2.7-0.7-4.2-0.9-6.7-1.6c-1.3-0.1,4.1,1.1,6,1.6
			c0.1,0.2-1.8-0.3-3.4-0.6c-3.1-0.9-8.9-2.3-9.9-2.9c4.7,1,7,1,14.8,3.1c-1.2-0.1,0.9,0.6,3.3,1.1
			C859.3,284,853.9,282.4,854.8,282.9L854.8,282.9z M838.8,279c2.6,0.7,7.4,2,9.2,2.7C844.5,280.8,838.8,279.4,838.8,279z
			 M843.2,281.1c-3.4-0.8-3.9-1.1-6.6-1.8c1.3,0.1,2.4,0.6,5.4,1.2C842.2,280.7,843.8,281.1,843.2,281.1L843.2,281.1z M830.2,276.6
			c-0.6,0.2-5.9-1.3-8.1-1.8c0.4,0-0.2-0.2-2-0.6c1.1,0.1,5.8,1.3,6.8,1.3c2.2,0.6,3.8,1,5.3,1.5c-2.6-0.6-4.1-1.2-4.7-1.1
			C827.6,276,829.8,276.5,830.2,276.6L830.2,276.6z M788.8,264.1c-1.8-0.5,0.1-0.3,2.1,0.2C790.9,264.5,789.4,264.2,788.8,264.1z
			 M786.6,264.2c-3.3-0.9,1.2,0,0.8-0.3C789.4,264.6,786.2,263.9,786.6,264.2z M777,258.1c-0.6-0.2-1.5-0.4-2.7-0.7
			c-0.5-0.3,0.6,0,1.4,0.1C777.4,257.9,777,258,777,258.1z M772.2,257.3c0.1,0,1.2,0.3,2,0.4c-0.2-0.2,0.3-0.1,2.1,0.3
			C776.2,258.1,774.8,258.1,772.2,257.3z M772.2,259.7c-0.9-0.2-1.8-0.4-2.7-0.7c-0.2-0.2,1.4,0.2,2.7,0.5c-0.6-0.3-1.2-0.3-3.3-0.9
			c2.8,0.5,5.6,1.1,8.8,1.7C777.4,260.6,772.2,259.3,772.2,259.7L772.2,259.7z M762.6,253.4c1.7,0.5,2.1,0.7,1.9,0.9
			C761,253.3,763.9,253.9,762.6,253.4L762.6,253.4z M765.3,256.5c-0.7-0.2-1.3-0.4-2-0.5c-0.2-0.2,1.4,0.2,2.7,0.5
			C766.1,256.6,765.2,256.4,765.3,256.5z M758.7,254.8l-0.1,0.3c-1.4-0.2-1.3-0.3-2.7-0.7c-1.9-0.4,1.5,0.6,2.6,0.9
			c-2.1-0.4-3.9-1.1-4.6-1.4c-2-0.4,1.5,0.5,0.6,0.5c-2.6-0.9-4.9-1.7-3.7-1.9c-2.3-0.5-0.1,0.1-1.4-0.1c-2.4-0.6-0.8-0.5,1.4,0
			c-0.1-0.6,2.5,0,0.3-1c1.6,0.4,1.4,0.6,3.9,1.2c-1.2-0.2-1-0.1-1.4,0l1.3,0.3c1.4,0.2-0.3-0.2,0.8-0.2c2.9,0.7,3.8,0.9,8,2
			c-1.5-0.2-3.9-0.8-5.4-1c0.4,0.3,3.1,0.8,4,1.1c1.1,0.6,0.3,0.7,0.5,0.8c-0.8-0.1-4.1-1.1-6.7-1.6c3.4,0.9,5.7,1.6,8,2.2
			C763.4,255.9,760.1,255,758.7,254.8L758.7,254.8z M748.5,252.8c-3.2-0.9-3.2-1.1-7.2-2.1c1.9,0.5,3.1,1.1-0.7,0.1
			c1.6,0.4,1.3,0.6,3.9,1.2c-1-0.1,0.1,0.2,1.2,0.6c-2.2-0.5-6.2-1.7-10.7-2.7c-0.3-0.2-1.4-0.5-1.3-0.6c-1.2-0.2-2.4-0.4-2-0.5
			c-0.9-0.1-2.9-0.7-4.7-1.1c2.2,0.4-1.8-0.7-2.6-0.8c1.7,0.4,2.1,0.7,6,1.6c0,0.1-4-0.9-0.7-0.1c-2-0.3-4.6-1.1-6.7-1.5
			c0.1,0-0.1-0.1-0.6-0.3c0.5,0,1.2,0.3,2,0.5c-0.6-0.3-2-0.5-4-1c3,0.6-0.9-0.4-0.6-0.5c1.4,0.2,1.9,0.5,4,1
			c1.5,0.3,3.1,0.5,0.8-0.1c4.6,0.7,2.5,1,6.6,1.9c-0.2,0-2-0.5-2-0.4c1.2,0.4,4.1,1,5.3,1.5c1,0.2-0.6-0.2,0.7,0.1
			c-2.3-0.5-2.1-0.8-5.2-1.6c-0.4-0.2,0.9-0.1-0.6-0.5c0.6,0,1.6,0.5,2,0.6c2,0.5-0.6-0.3,0.1-0.2c1.9,0.5,1.7,0.7,4.6,1.3
			c-0.1-0.2-3.1-0.9-3.9-1.3c0.5,0.1,3.7,1,5.3,1.4c0.5,0-1.3-0.4-2-0.6c1.3,0.2,2.3,0.7,4,1c-0.6,0.1-4-0.7-4.2-0.5
			c3.9,0.9,5.5,1,10.1,2.1c1.3,0.4-0.3,0-0.7,0c1.5,0.4,1,0.1,2,0.4C750.4,252.7,750.8,253.2,748.5,252.8L748.5,252.8z M722.1,245.3
			c0.1,0.1-0.6,0-2-0.4c0.6,0.2,1.6,0.5,3.3,0.9c-2.1-0.2-5.2-1.3-6.6-1.8C717.7,244.1,720.2,244.9,722.1,245.3L722.1,245.3z
			 M715.2,244.5c-0.8-0.2-1.2-0.3-1.4-0.3c-2.1-0.6,1.5,0.1-1.3-0.6c0.2,0,1.7,0.4,2.7,0.6C714,244.1,715.2,244.4,715.2,244.5
			L715.2,244.5z M683.7,237.2c-1.2-0.3-1.4-0.4-1.4-0.5c-0.9-0.2-1.2-0.3-1.6-0.4c-0.4-0.1-0.9-0.2-2.1-0.7c0.1,0.1,0.5,0.3,0.8,0.5
			c0.3,0.2,0.6,0.3,0.5,0.3c-1.1-0.3-2.3-0.9-2.2-0.7c-0.8-0.3-1.3-0.7-1.8-0.9c-0.4-0.2-0.7-0.4-1-0.6c-0.6-0.4-1.2-0.7-2.4-1.6
			c0.5,0.3,1.3,0.8,2,1.1c0.7,0.4,1.3,0.7,1.4,0.6c-2.8-1.7-2.5-1.3-4.5-2.8c0.5,0.3,0.7,0.2,1.4,0.6c0.6,0.6,1.1,0.9,1.6,1.1
			c0.5,0.2,0.8,0.3,1,0.4c0.8,0.5,1.3,0.8,1.2,0.9c0.3,0,1.6,0.4,4.4,1.3c1.1,0.4,1.4,0.5,1.4,0.5c0.1,0.1-0.1,0.1-0.1,0.1
			c1.9,0.6,1.4,0.3,2.2,0.4C687.1,237.6,684.6,237.2,683.7,237.2L683.7,237.2z M674.3,234.1c-0.6-0.4-1.2-0.8-1.8-1.2
			c-0.6-0.4-1.2-0.8-1.7-1.3c-1.1-0.8-1.9-1.5-2.1-1.6c-1-1-1.2-1.5-1.2-1.4c0.1,0,0.5,0.5,1.3,1.1c1.4,1.3,3.9,3.2,5.6,4.3
			C673.2,233.3,674.4,234,674.3,234.1L674.3,234.1z M671.5,232.6c-1-0.8-1.1-1-0.7-0.8c0.4,0.3,1.4,1,2.7,1.9
			C673.8,234.1,671.8,232.6,671.5,232.6L671.5,232.6z M670.2,231.8c0.2,0.3-1.2-0.8-0.8-0.3c-0.7-0.7-1.3-1.2-1.7-1.6
			c-0.3-0.4-0.7-0.7-1-1.1c-0.3-0.3-0.6-0.6-0.9-1c-0.3-0.4-0.7-0.8-1.2-1.5c0.4,0.3,1.5,1.5,1.8,1.6
			C668,229.7,667.2,229.2,670.2,231.8L670.2,231.8z M666.5,226.7l-0.6-0.8c-0.2-0.3-0.4-0.7-0.7-1.1c0.6,0.6,1.8,2.3,4,4.6
			c-0.4-0.3-0.7-0.6-0.1,0.1c-0.5-0.2-1.1-1.2-2.1-2.2c1.7,2.2-1.5-0.6-3.9-4.7C664,223.7,665.7,226.2,666.5,226.7L666.5,226.7z
			 M661,219.4c-1-2.2-1.6-3.6-1.6-3c-0.4-1.5-0.5-1.7-0.8-3.1c-0.4-1.2,0.5,2.7,0.4,2.4c-0.3-1-0.4-1.9-0.6-2.7
			c-0.1-0.7-0.2-1.3-0.1-1.3c0.1-0.2,0.2,0.2,0.3,0.9c0.2,0.6,0.4,1.5,0.6,2.2c-0.2-1-0.4-1.9-0.2-1.6c0.7,2.9,1.9,5.7,2.6,6.6
			c-1-2.5-1.2-3.4-1.4-3.7c-0.1-0.3-0.1,0.1-0.1,0.1c-0.4-1.4-0.5-1.6-0.6-1.7c-0.1-0.2-0.2-0.4-0.5-2.1c0.2,0.1,0.2,0.1-0.2-2.4
			c0-1,0.4,1.7,0.2,0c-0.3-2.2-0.4-2.3-0.5-2.7c-0.1-0.3-0.3-0.8-0.2-3.7c0.1-0.3,0.1,0,0.1,0.3c0,0.3,0.1,0.7,0.1,0.5
			c0.1-1.3,0.2-2.1,0.3-2.7c0.1-0.6,0.2-1,0.3-1.3c-0.5,3-0.3,4.5-0.2,5.7c0.2,1.3,0.3,2.3,0.4,4.5c0.4,1.6,0.1-0.8,0.6,1.5
			c-0.3-2.1-0.4-3.3-0.5-4.2c-0.1-0.9-0.2-1.6-0.1-2.7c0.4-1.2,0.7-1.1,1.3,1.5c0,0.2-0.1,1.3,0,1.5c0.1-1.3,0.2-1.7,0.3-1.4
			c0.1,0.3,0.2,1.2,0.4,2.5c0.1,0.6,0.2,1.3,0.3,2c0.1,0.7,0.3,1.5,0.5,2.2c0.3,1.3,0.8,2.6,1.3,3.9c1,1.5,2.2,3,3.4,4.2
			c0.5,0.5,1,1,1.5,1.3c0.4,0.6,0.8,1.1,1.2,1.7c0.1,0.3-0.2,0.1-0.6-0.2c-0.5-0.4-1.1-1-0.5,0c-0.4-0.6-0.8-1.1-1.2-1.7
			c0.8,1.3,0.4,1-0.2,0.3c-0.5-0.6-1.2-1.6-1.1-1.2c0.1,0,0.7,1,0.7,1.2c0,0.1-0.6-0.8-0.1,0.1c1.4,1.9,0.1,0.1,0.2-0.1
			c1.9,2.7,3.3,3.4,3.8,3.5c0.2,0,0.3,0,0.4-0.1c1.8,2,4,3.7,6.5,5.1c0,0,0.1,0.1,0.1,0.1c-1.4-0.7-2.3-1-2.1-0.6
			c0.8,0.5,1.6,1,2.4,1.4l0.1-0.3c0.8,0.5,1.3,0.6,1.7,0.8c0.4,0.1,0.7,0.3,1.5,0.6c-3.7-0.8-6.6-2.2-8.3-2.6c0,0.1,0.7,0.6,1.3,1
			c0.6,0.4,1.2,0.8,1,0.8c-1.2-0.7-1.2-0.6-3-2c0.1,0,1.1,0.7,0.1-0.1l-1.4-0.9c-0.3-0.2-0.5-0.4-0.6-0.4c-0.1,0,0.3,0.5,1.7,1.8
			c-1.8-1.4-2.9-2.6-4.3-4.1c-0.6-0.9-1.2-1.7-1.6-2.5c-0.4-0.3-1.5-2-2.1-3.1c-0.7-1.1-1.1-1.7-0.2,0.2c-0.9-1.6,0.5,1.5-0.6-0.6
			c-0.1-0.2-0.4-1-0.1-0.8c-0.2-0.4-0.4-0.9-0.6-1.5c-0.2-0.6-0.4-1.2-0.6-1.6c-0.4-1-0.5-1.5-0.2-0.4c0.1,0.1,0.9,2.4,1.2,2.8
			c-0.3-0.3,0,0.6,0.5,1.6c0.5,1,1.2,2.1,1.3,2.5c-0.7-0.9-1-0.9-1.2-1.1c-0.1-0.1-0.3-0.3-0.6-0.6c-0.3-0.4-0.6-0.9-1.1-1.9
			c1.1,2.8,2.6,5.2,3.7,6.8C663.7,224.3,662,221.5,661,219.4L661,219.4z M661.9,196c0,0.3-0.3,1.3-0.3,1.5c0.3-1,0.6-2,1-3
			C662,195.8,661.9,195.9,661.9,196c-0.1,0-0.2-0.1-0.5,0.7c0.3-0.9,0.6-1.7,0.8-2.4c0.2-0.7,0.5-1.3,0.8-2
			c-0.2,0.2-0.3,0.6-0.5,1.1c-0.2,0.5-0.4,1.1-0.7,1.8c0.8-2.4,0.8-2.5,0.8-2.7c0-0.1,0-0.2,0.1-0.5c0.1-0.2,0.1-0.4,0.3-0.7
			c0.2-0.3,0.4-0.7,0.6-1.3c-0.4,0.8-0.3,0.8,0.5-0.6c0.3-0.3-1.1,2.2-0.5,1.5c0.5-0.9,0.9-1.7,1.4-2.4c0.2-0.4,0.4-0.7,0.6-1
			l0.6-0.9c0.4-0.6,0.8-1.2,1.2-1.8c0.4-0.6,0.9-1.2,1.5-1.8c-0.6,0.6-1.4,1.6-2.2,2.6c-0.4,0.5-0.8,1.1-1.1,1.6
			c-0.4,0.5-0.7,1.1-1,1.5c0-0.1,0.6-1.2,1.4-2.3c0.7-1.1,1.6-2.1,1.7-2.3c1.8-2,2-1.9,1.5-1.2c-0.5,0.7-1.5,2.1-2,2.9
			c0.5-0.6,1.1-1.3,1.8-2c0.7-0.7,1.4-1.6,2.1-2.2c1.4-1.4,2.7-2.8,3.8-3.7c1.3-1.4,2.5-2.8,3.7-4.3c1.8-1.6,1.4-0.9,0.4,0.4
			c-1,0.9-2.8,2.8-3.5,3.6c-0.1,0.2,0.5-0.4,0.5-0.5c1-0.8,0.4-0.1-0.8,1.2c0.4-0.3,1-0.9,1.6-1.4c0.3-0.4,0.6-0.7,0.9-1.1
			c1.1-1.1-0.3,0.6-1.3,1.7c0.2-0.3-0.8,0.7-1.6,1.4c-0.7,0.7-0.3,0.5-0.4,0.6l-3.1,3.1c-0.7,0.7-1,1.1-0.8,1.1
			c-1.4,1.5-0.2-0.2-0.2-0.2c0.5-0.5,1-1.1,1.5-1.5c0.5-0.5,0.9-1,1.3-1.4c0.6-0.7,1.3-1.4,1.9-2.1c0.7-0.9,0.4-0.8-2,1.7
			c-0.6,0.8-1.3,1.6-2.1,2.5c-0.4,0.5-0.9,1.1-1.4,1.7c-0.5,0.6-1.1,1.4-1.7,2.1c0.1,0,1.4-1.6,1.1-1.1c-0.6,0.7-1,1.3-1.4,2
			l-0.8,1.2l-1.1,1.8c-1.3,1.6,0.1-1.9,1.7-4.4c-1.4,1.9-1.9,2.5-3.3,5.3c-0.5,1.4,1.3-2.2,1.4-1.9c-1.4,2.3-1.7,3.1-1.9,3.7
			c-0.1,0.3-0.2,0.5-0.3,0.9c-0.1,0.4-0.3,0.9-0.6,1.7c0.6-1.2,0,0.4-0.1,1.5c-0.3,1-0.3,0.8-0.3,0.7c0-0.1-0.1,0-0.4,1.4
			c0-0.4-0.4,0.8-0.1-0.8c-0.1,0.2-0.3,0.9-0.5,1.8c-0.2,0.9-0.4,1.9-0.4,2.7C660.8,201.1,660.8,199.5,661.9,196L661.9,196z
			 M677.3,173c1.4-1.5,2.7-2.6,4-4.1c0.2,0.2-0.1,0.9-0.5,1.5c-3.8,3.7-5.8,5.8-8.4,8.6C674.1,177.1,678.9,172.1,677.3,173
			L677.3,173z M688.9,164.5c1.9-1.9,1.5-1.4,3-3c-1.2,1.6,3.2-3.1,3.5-3.5c1.1-0.8-2,2.5-3.1,3.9c0.5-0.6,0.4-0.7,0.3-0.7
			c-2.2,2.2-1.6,2-3.8,4.3C690,164,688.2,165.4,688.9,164.5z M692.4,160c2.4-2.4,2-1.7,4.2-3.9c-0.2,0.3-0.5,0.6-0.4,0.6
			c-0.6,0.7-0.8,0.8-1.5,1.5c0.2,0,2.2-1.9-0.3,0.7c0.1-0.1,0.5-0.5,0.4-0.6c-0.2,0.1-1.4,1.3-2.1,1.9
			C695.3,157.5,692.6,160.2,692.4,160z M694.6,157.2c1.8-1.7,1.9-2,3.5-3.6c-0.1,0.5,0.1,0.6-4.2,4.8
			C693.2,158.8,695.3,156.9,694.6,157.2z M709.1,147.5c0,0.1-0.2,0.4-0.4,0.8l-3.2,3.2c0-0.1,0-0.2-0.3,0
			C707.4,149.2,706.7,149.8,709.1,147.5z M705.6,144c-1.1,1.3-2.8,2.6-3.1,2.9C703.9,145.4,703.9,145.6,705.6,144z M710.4,145.9
			c1.9-1.7,0.7-0.3,0.9-0.3l-0.7,0.7c0,0,0-0.1,0-0.1c-0.1,0.1-0.4,0.5-1,1C710.5,146.3,709,147.5,710.4,145.9z M712.6,143
			c1.7-1.6,0.8-0.6,0.7-0.3c-0.5,0.5-0.6,0.4-1.6,1.4C711.9,143.8,712.4,143.3,712.6,143z M716.8,139.2c0.6-0.5-1.4,1.7,0.2,0.2
			c0.4-0.6,0.1-0.5,1.2-1.8c0.8-0.5,1-1,2.5-2.5c-0.6,0.7,1.5-1,2.3-1.7c-0.5,0.7-1,1.3-1.6,2.1l-1.6,1.6c0.2-0.3,0.4-0.6,0.7-1
			c-0.6,0.6-0.7,0.7-1.5,1.5c-0.6,0.6-0.2,0.5,0.2,0.1l-3,3c0.2-0.4,0-0.4-0.8,0.3c-0.6,0.7-0.9,1.3-1.1,1.6l-1.9,1.9
			C713.9,142.7,715.2,141.1,716.8,139.2z M721.1,133.4c-0.3,0.3-1,1.3,0.6-0.4c-0.3,0.5,0.2,0.2-0.7,1.3c-1.6,1.5,1.3-1.8-1.3,0.7
			C720.2,134.5,719.7,134.8,721.1,133.4L721.1,133.4z M747.1,109.3c1-1.1,1.4-1.5,3-3.1c-0.1,0.4,0,0.5,0.2,0.5l-3.4,3.4
			C747.6,109.2,747.8,108.8,747.1,109.3z M678.3,231.7c0.8,0.4,1.7,0.8,2.6,1.2c-0.5-0.1-1-0.2-2.7-1
			C678.1,231.8,678.2,231.7,678.3,231.7L678.3,231.7z M724.8,245.9c-2.2-0.7,2,0.3,4,0.8c0.8,0.4-2-0.4-2.1-0.3
			C724.6,246.1,725.9,246,724.8,245.9L724.8,245.9z M738.9,249.1c0,0.2-3.4-0.7-4.1-0.8c-2.7-0.7-4.4-1.3-5.9-1.8
			c1.4,0.4,2.2,0.7,4.6,1.2c-0.2-0.1-1.7-0.5-2.6-0.7c1.5,0.2-1.3-0.4-0.6-0.5c3.1,0.8,3.9,0.8,6.7,1.6c-2.2-0.4,0,0.2,1.9,0.8
			c0.6,0.1,0.6,0.1,0.7,0.1c1.9,0.5-1.8-0.3-3.4-0.7C736.4,248.4,737.4,248.7,738.9,249.1L738.9,249.1z M750.6,250.5
			c-2.3-0.6-2.2-0.3-4.1-0.8c-0.9-0.3-0.8-0.5-1.7-0.8l16.3,4c-0.8,0-0.1,0.4-3.9-0.6c0,0.3-1.3,0.1-3.5-0.4
			c-1.8-0.6-2.3-1.1-5.2-1.8C748.8,250.2,751.6,250.9,750.6,250.5L750.6,250.5z M828.2,39.4c0.8,0,1.5,0.1,2.3,0.1
			c-0.9,0.2,2,0.6,3.6,1.2c-0.7,0-3.4-0.4-6-0.4c-2.2-0.2,3-0.3-1.5-0.5C826.9,39.6,827.5,39.5,828.2,39.4L828.2,39.4z M884.9,174.5
			c0.1,0.3,0.2,0.7,0.3,0.6c0.4,1.9,0.5,1.7,0.9,3.3l-0.1,0C885.5,176.4,885.3,176,884.9,174.5L884.9,174.5z M866.6,95.5
			c1.3,6.3-1.4-0.5-1.6,0.5c-0.1-0.2-0.7-3.4-0.6-3.4C865.5,95.5,865.8,94,866.6,95.5z M897.2,215.2c0.1,0.6,0.3,1.5,0.6,2.7
			c-0.2-0.3-0.5-1.1-0.8-2.6C896.8,214.4,896.9,214.4,897.2,215.2z M899,216.8c0.6,2.8,1,4.6,0.9,5.4c-0.3-0.9-0.6-2-0.8-2.6
			c-0.1-0.8-0.2-1.2-0.7-3.4C898.8,216.5,898.7,216.6,899,216.8L899,216.8z M900.6,227.1c0.9,3.5,0.5,3.3,1.3,6.8
			c-1.5-5.6-2.1-6.4-3.5-11.8c0.5,0.8-0.4-2.3-0.3-2.8C898.5,219.1,899.1,222,900.6,227.1z M896,217c-0.2-0.1-0.7-2.9-0.8-3.3
			c0.1-0.2,0.5,1.9,0.6,2C896.1,216.6,895.8,215.9,896,217z M666.8,230.7c-0.8-0.9-1.1-1.4-0.9-1.4c1.3,1.5,1.2,1.3,2.9,2.9
			C668.1,231.7,667.7,231.5,666.8,230.7z M728.6,125c3.3-3.1-0.3,0.8-0.1,0.9C726,128.3,729.7,124.3,728.6,125z M852,45.7
			c-0.8-0.7-1.6-1.6-2.6-2.3c0.1,0.3,0.8,0.9,0.5,0.7c-1.8-1.6-3.8-3-6-4.2c-2.3-1.3-5.1-2.5-8.7-3.3c0.5,0.2-0.3,0-0.9-0.1
			c-0.7-0.1-1.1-0.2,0.1,0.1c1.2,0.1,3.7,1,5.6,1.7c-0.5,0-1.9-0.5-3.5-0.9c-1.5-0.4-3.2-0.6-3.9-0.6c-2.5-0.5-6.3-0.6-9.7-0.1
			c-3.4,0.4-6.2,1.3-6.9,1.2c-2,0.7-2.5,1-4,1.7c-0.2,0,0.1-0.2-0.8,0.2c-0.3,0.2-0.9,0.6-2.2,1.3c-0.3,0.1-0.7,0.3-1.2,0.6
			c-0.5,0.3-1.2,0.7-1.8,1.2c-0.7,0.5-1.5,1-2.2,1.7c-0.4,0.3-0.8,0.6-1.2,1c-0.4,0.4-0.8,0.7-1.2,1.1c-0.2,0.2-0.4,0.4-0.6,0.6
			l-0.5,0.5c-0.3,0.3-0.7,0.7-1,1l-2,2c-1.2,1.2-2.4,2.3-3.6,3.5c0.8-0.4-5.4,5.4-4.8,5.2c-1.4,1.3-2.9,3-3,3
			c0.8-0.9,3.3-3.3,3.4-3.6c-1.9,1.9-2.9,2.9-5.1,4.9c-0.7,0.9-0.7,1-0.2,0.8c-1.2,1.2-1.9,1.9-2.5,2.5c-1.9,2.2-2.4,3-5.1,5.9
			l-0.1-0.1c-3.6,3.5-2.2,2.8-4.2,4.9c0.9-1.1-0.6,0.3-2.6,2.4c-0.2,0.4-2,2.4-0.7,1.3c2-1.9,1.7-1.9,2.9-3.1c0,0.2,0.9-0.7,1.6-1.4
			c0.4-0.5,0.8-1.1,2.4-2.6c-1.7,2.1-3.1,3.9-3.8,5.2c1-1,1.7-1.8,2.6-2.4c0.7-0.9,0.1-0.6,1.7-2.3c0.5-0.3-0.6,0.9-0.2,0.8
			c2.2-2.2,1.7-2.1,4.9-5.2c0.1,0,0,0.2,0.6-0.4c0-0.1,1.8-1.9,2.5-2.5c0.5-0.9,3.1-3.7,5.7-6.4c0.2,0,0.3,0.2-0.2,0.8
			c1.7-1.6,0.3-0.5,1.9-2.1c0.2-0.1,0.9-0.7,0.7-0.3c1.7-1.6,0.3-0.5,1.9-2.1c-0.4,0.4-1.1,1.6,0.7-0.3c1.5-1.6-0.3-0.3,2.8-3.2
			c0.1-0.6,3.9-4.3,4.6-5.4c-0.7,0.6-3.9,4-4.6,4.5c1.1-1.2,2.4-2.5,3.6-3.8c0.3-0.3,0.6-0.6,1-1c0.4-0.4,0.7-0.7,1.1-1.1
			c0.7-0.7,1.5-1.4,2.3-2c3.1-2.6,6.4-4.3,8.6-5.4c0,0.1,2.2-0.8,2.4-0.8c1.9-0.6,1.7-0.6,4.8-1.3c-0.3,0.1-3.1,0.7-2.4,0.7
			c-1.8,0.5-2.5,0.7-2.4,0.6c-2.6,1.4-5.1,3.4-6,4.6c4.2-2.1,5.9-2,6.2-1.8c0.4,0.2-0.4,0.9-0.5,1.4c0.1,0-0.4,0.2-0.9,0.4
			c-0.5,0.2-1.1,0.5-1.1,0.6c2.6-1.2,3.6-1.2,4-1.2c0.5,0,0.5,0.1,1.7,0c-2.8,0.8-4.9,1.8-6.9,3c-2,1.2-4.1,2.7-6.6,4.9
			c-0.4,0.5-0.7,0.9-1,1.3l-4.1,4.1c0.3-0.4,0.5-0.6,0.1-0.3c-0.5,0.6-0.9,1-1.3,1.5l-2.2,2.2c0.1-0.2,0.2-0.4,0.5-0.7
			c3.3-3.1,6.6-7.4,4.5-5.6c0,0.3-1.8,1.8-3,3l0.2,0.2c0.8-0.6,1.5-1.6,2-2c-0.7,0.9-1.2,1.5-1.7,2.3c-0.5,0.5-0.6,0.6-1,1
			c-1.3,1.2,0.3-0.6-0.7,0.3c-0.2,0.4-1.2,1.6-1.6,2.2l-36.9,36.9c0.7-1.1,1.5-2.3,2.1-3.2c1.7-1.7,2.8-2.8,4.1-4
			c-2.7,2.2-8.6,8.2-11.9,11.2c-1.8,2.5-9.2,10.6-15.3,16.8c0,0,0,0.1,0.1,0.1l-8.7,8.7l0.1-0.1c-0.4,0.4-0.6,0.7-0.9,0.9l-2.7,2.7
			c0.1-0.5,1-1.8,3.1-4c-0.9,0.7-1.1,0.6-0.8,0.2c-3.4,3.3-0.5-0.3-1,0c2.7-2.6-0.9,1.5,2.3-1.7c0.4-0.5,1-1.2,1.9-2.1
			c-1.5,1.2-1.2-0.1-0.2-1.2c-1.4,1.2-0.4,0.1-2.7,2.3c0.2-0.3,0.7-0.8,0.9-1.1c-1.3,1.3-1.8,1.6-2.2,1.8c0.6-0.8,1.3-1.5,3.4-3.6
			c1.5-2.1-0.4-0.3-0.1-1.1c-1.8,2-3.7,3.9-5.5,5.5c1.4-1.3-0.5,0.2,0.9-1.1c0.1,0,0.2-0.1,1.1-0.9c0.3-0.3,1.9-2.1,0.4-0.6
			c0,0.1-0.1,0.2-0.9,1.1c0.7-1-0.2-0.1-0.3-0.3c-2.6,2.9-0.6,0.1-3.2,2.8c-0.6,1-2.4,2.6-3.5,3.5c0.1,0.2,0,0.5-1.2,1.8
			c-0.8,0.7-1,0.5-0.3-0.3c-1.3,1.2-3.1,2.9-4.1,3.9c0.2,0.1,0.7-0.5,0.2,0.2c-1.9,1.7-1.7,1.9-2.4,2.6c-1,0.9-3.6,3.4-2.2,1.8
			c-2.7,2.7-3.7,3.5-4.2,3.8c1.1-1.1,1.6-1.6,1.4-1.6l-7.7,7.4c0-0.1,1.3-1.3,0.9-1.1c-1.8,1.7-3.4,3.5-3.4,3.6
			c-1.5,1.3-5.2,5.1-5.8,5.3c-1.5,1.7-2.6,2.6-4.5,4.5c-0.4,0.6,0.1,0.3-0.3,0.7c-2.6,2.6-4.4,4.2-6.1,5.9c0.6-0.6,1.2-1.2,0.9-1.1
			c-1.5,1.6-1.3,1.2-2.1,2c0.4,0-2.8,3.2-3.7,4.3c-1.9,1.9-4.3,4.2-6.1,6c0.1-0.1,0,0.1-0.3,0.4c-0.3,0.3-0.7,0.8-1.2,1.2
			c-0.5,0.5-1.1,1.1-1.5,1.6c-0.4,0.5-0.7,0.9-0.9,1c-0.9,1.2-0.3,0.7-0.8,1.5c-1.7,2.1-3.4,5.5-2,2.7c-1.1,1.9-1.5,3-1.9,4
			c-0.4,1-0.8,2-1.4,3.7c0.3-0.7,0.3-0.3,0.2,0.5c-0.1,0.4-0.2,0.9-0.3,1.4c-0.1,0.5-0.1,1-0.2,1.4c-0.2,0.7-0.3,1.3-0.4,1.9
			c-0.1,0.5-0.1,1-0.2,1.4c0.1-1.1,0.1-1.6,0.2-2.4c-0.2,0.7-0.5,3-0.5,2.4c0.2-1.3,0.2-1.6,0.2-1.8c0-0.2,0-0.4,0.2-1.5
			c0.2-0.3-0.2,1.5,0,0.8c0.2-1.1,0.4-1.8,0.4-2.3c0.1-0.5,0.1-0.7,0.1-1c0-0.5,0-1,0.8-3.3c-0.9,2.2-1,2.9-1.5,4.8
			c0.5-1.9,0.1,0.1,0,0.9c-0.2,0.5-0.6,2.3-0.8,3.7c-0.2,1.5-0.4,2.7-0.4,2c0.2-2.5,0.2-1.5,0.3-1.7c0.3-2.6,0.4-3.7,0.6-5
			c0.2-1.3,0.5-3,2.1-6.4c-0.5,0.9-0.4,0.5,0-0.3c0.3-0.8,1-2,1.4-2.8c-0.4,0.7-0.8,1.3-1.2,2c-0.3,0.7-0.7,1.4-1.2,2.7
			c-0.3,0.4,0.6-2-0.5,0.7c0.1,0.3-0.1,0.9-0.5,2.6c-0.3,0.8-0.5,1.6-0.7,2.4c-0.2,0.8-0.3,1.6-0.3,2.5c-0.2,1.7-0.2,3.7-0.3,6
			c-0.1-0.7-0.1-1.8-0.1-2.9c0.1-1.1,0.1-2.3,0.2-3c-0.2,0.5-0.5,4-0.6,4.2c0-1,0.1-2.3,0.3-3.6c0.2-1.2,0.4-2.4,0.6-3.1
			c0.2-0.7,0.2-1,0.1-0.4c-0.1,0.6-0.5,1.9-0.8,4.6c-0.1,0.8-0.2,1.7-0.2,2.6c0.1-0.2,0.1,0.2,0.2,1.7c0.1,3.3-0.1,4.4,0.5,6.7
			c-0.2-1.2-0.5-4.2-0.1-1.7c0,0.2,0,0.6,0.1,1.2c0.1,0.7,0.3,1.4,0.4,2c0.4,1.4,0.8,2.9,1.1,3.2c0-0.8,0.9,1,3,5
			c0.3,0.8,0.3,1,0.1,0.9c-0.2-0.1-0.6-0.6-1.1-1.3c0.6,1.2,0.9,1.7,1,2.1c0.1,0.3,0.1,0.5,0.5,0.9c0-0.3,0.3,0,0.8,0.6
			c0.7,0.8,1.4,1.6,2.1,2.4c0.5,0.9-1-0.8-0.4,0.4c1,1.1,1.7,2,2.2,2.5c0.4,0.3-0.1-0.2-0.5-0.7c-0.4-0.5-0.9-1-0.5-0.7l1.5,1.5
			c0.4,0.5,0.9,0.9,1.5,1.3c0.3,0,0.3-0.1-1-1.4c0.4,0.3,0.8,0.6,1.3,0.9c0.5,0.3,0.9,0.7,1.4,1c1,0.6,2,1.2,2.9,1.6
			c0.8,0.4,1.4,0.6,1.6,0.5c0.1-0.1-0.2-0.4-1.2-1.1c2.3,1.4,3.3,1.8,4.3,2.2c0.5,0.2,1.1,0.4,1.9,0.6l1.4,0.5
			c0.5,0.2,1.2,0.3,1.9,0.5c0.6,0.1-0.2-0.2-1.1-0.4c-0.9-0.2-2-0.6-1.8-0.6c0.6,0.2,0.9,0.3,0.8,0.2c1.1,0.3,1.2,0.4,2.2,0.7
			c1.6,0.3-0.1-0.2,2.8,0.4c0,0.1-1-0.2,0,0.1c1.1,0.2,0-0.2-1.3-0.6c-0.5-0.1-0.8-0.1-1.3-0.2c-0.5-0.1-1.3-0.3-2.3-0.6
			c0.8,0.2,1.5,0.3,2.5,0.4c1.1,0.2,2.2,0.4,3.3,0.6c1,0.3-0.2,0.2,1.9,0.7c1.4,0.3,2.9,0.4,4.7,1c-2.5-0.4-6.2-1.2-8.2-1.4
			c1.2,0.3,1.5,0.4,1.3,0.5c-1.1-0.3-2.2-0.5-3.3-0.6c-1.1-0.1-1.7-0.1-1.1,0.3c1.1,0.3,1.7,0.3,2.2,0.4c0.6,0.1,1.1,0.2,2,0.4
			c-2.3-0.7,0.4-0.1-1.2-0.7c0.9,0.3,1.6,0.5,2,0.4c-2.5-0.9,9,1.8,4.9,0.5c2.7,0.8,4.8,1.1,6.1,1.3c-1.8-0.5-3.2-0.6-4-0.9
			c2.3,0.5,8.4,1.5,4.2,0.5c3,0.7,2.7,0.3,5.4,1.2c0.7,0.1,0.7,0,2.1,0.3c2.2,0.6,6.2,1.6,7.3,2c-2.4-0.5,0,0.1,0.6,0.3
			c-3.5-0.8-5.4-1.4-7.3-1.8c5.2,1.2,10.5,2.8,12,2.9c-1-0.3-4.6-1.1-3.9-1.2c2.2,0.6,0.6,0.1,0-0.1c3.5,0.8,4.8,1.2,8,2.1
			c-2.7-0.7,6,1.9,1.9,1c2.1,0.5,1.6,0.5,2.6,0.8c-1.4-0.7-0.8-0.7-3.8-1.6c3.7,1,6.2,1.5,8,2c-1.6-0.3-1.7-0.3-2-0.4
			c-1.1-0.3-3.4-1-4-1c2.2,0.5,1.1,0.5,3.3,1c0.9,0.2,0.6,0.1,1.4,0.2c1.8,0.5,0.1,0.2,1.3,0.6c1.2,0.2,3.8,1,5.3,1.5
			c0.1,0-0.1-0.2,0.7,0c2.8,0.7-0.7,0.1,1.9,0.7c1.8,0.2-0.6-0.6-1.2-0.9c6.5,1.7,8.8,2.2,11.4,2.5c1.2,0.3,2.2,0.6,2.6,0.8
			c-1.8-0.3-2.4-0.3-0.8,0.3c4.5,1,0.1-0.5,2.8,0c3.7,1,2.5,1.2,7.2,2.4c-0.3-0.2-1.7-0.6-1.9-0.8c3.6,0.8-1.2-0.8,2.2-0.1
			c2.7,0.8,1.1,0.3,2.7,0.6c4.4,1.2,2,0.8,2.5,1.2c-2.4-0.6-2.7-0.5-2.8-0.3c3.3,0.8,0.4-0.1,2.7,0.4c0,0.1,1.8,0.5,1.3,0.5
			c-2.7-0.7,0.4,0.3-2.1-0.2c3.4,0.8,2.4,0.9,4.6,1.5c-2.3-0.5-2.3-0.3-4.1-0.7c-3-0.8-5.8-1.6-7.3-1.8c3.3,0.7,6.2,1.6,8.7,2.1
			c0,0.1-1.8-0.4-1.4-0.1c2.5,0.6,1.7,0.5,1.3,0.5c1.2,0.3,3.4,0.7,4,1c-1.5-0.2-0.7,0.2,1.2,0.8c-0.1,0.1-0.2,0.2-2.1-0.3
			c0.4-0.1-0.5-0.4-2.6-0.8l-0.1,0.2c1.1,0.3,1.7,0.4,2,0.5c-3.8-0.6-2.5-1.2-5.8-2c-1.7-0.3,2.4,1.1-0.2,0.7
			c-0.7-0.2-1.3-0.3-2-0.5c-0.8-0.3,0.4-0.3-1.9-0.9c0.7,0.5-1,0.2-3.5-0.3c0.8,0.2,1.6,0.4,1.3,0.4c4.6,1-0.5-0.4,7.4,1.6
			c0.3,0.2,1.9,0.6,1.3,0.6c2.9,0.6,6.8,1.3,8.7,1.9c-1.5-0.3-4.9-0.8-4-0.8c-2.6-0.7-0.3,0.1-2-0.3c-2.7-0.7-6.7-1.6-8.7-2
			c5,1.2,14,3.2,13.9,3.7c-0.4,0-3.6-0.5-2.1-0.1c1.8,0.3,1.6,0,3.5,0.4c1.7,0.5,2.2,0.7,3.9,1.2c1.5,0.1,5,0.8,6.9,1
			c1.4,0.5,4.5,1.2,3.9,1.3c-2.4-0.6-5.2-1.1-3.4-0.5c-0.2-0.2,1.4,0.2,2.7,0.5c-0.1,0.1,0.1,0.2,0.6,0.4c-5-1.1-12.1-3-14.1-3.1
			c6,1.4,15.5,3.4,15.9,4.2c2.2,0.5,2,0.3,4.1,0.8c0.5,0-2.9-0.9-0.6-0.4c0.6,0.2,2.2,0.8,2.6,0.8c-2.4-0.7-0.1-0.3-1.9-0.8
			c2.5,0.5-0.8-0.1,2.7,0.7c1.4,0.5,1.6,0.7,2.5,1.1c0.8,0,3,0.9,4.6,1.3c1.3,0,2,0.5,4.7,1.2c1.1,0-2.4-0.7-3.3-1.1
			c1.7,0.4,0.8-0.1,2.8,0.3c2.5,0.9,3.1,1.4,5.1,2.2c-0.3-0.2-0.4-0.4,0.1-0.3c0.1,0.1,2.1,0.8,2.6,0.8c-1.3-0.3,0.5-0.1,1.4,0.1
			c1.1,0.3,2.2,0.5,3.3,0.8c-0.2,0.1,0.7,0.3,0.6,0.4c3.2,0.8,1.9,0.4,2.7,0.7c-0.3-0.2,3.6,0.9,3.4,0.7c-0.9-0.3-2.1-0.4-2-0.6
			c2.8,0.7,3,1,7.3,2c-0.1,0.5,5.8,2,9.1,3c-1.8-0.7,1.2,0.1,3.4,0.7c0.3-0.2,5.3,1.1,6.8,1.3c-1.5-0.5-4.4-1-4.6-1.2
			c2.2,0.4,4.7,0.9,7.4,1.4l2,0.4l2.4,0.4c0.8,0.1,1.7,0.2,2.5,0.3c0.8,0.1,1.7,0.1,2.5,0.1c-0.5,0-0.3,0.1,0.3,0.1
			c0.6,0,1.6,0,2.7,0c2.2-0.1,4.8-0.6,5.4-0.8c-1,0.2-3.5,0.5-3.4,0.3c0.6-0.2,2.2-0.3,3.9-0.8c1.8-0.4,3.7-1,5.1-1.5
			c-0.5,0-3.8,1.2-0.1-0.2c-1.2,0.4-2.2,0.7-3,1c-0.8,0.3-1.5,0.4-1.8,0.4c1.3-0.4,3-1,2.3-1c-2.2,0.5-4.5,0.9-6.8,1.2
			c-2.5,0.3-4.9,0.2-7,0c-0.5-0.2-1.7-0.3-2.3-0.5c-0.7-0.2-0.8-0.3,0.8-0.1c2.4,0.3,2.9,0.4,4.8,0.5c-0.1-0.1-3.6-0.3-2.4-0.5
			c0.8,0.1,1,0,1.6,0.1c0.7,0,1.5,0,2.3,0.1c0.7,0,1.4,0,1.7-0.1c-1.9,0.1-0.5-0.2,0.8-0.2c-0.3,0.1-0.2,0.1,0.2,0.1
			c0.4,0,1.1-0.1,1.9-0.2c0.8-0.1,1.8-0.3,2.6-0.5c0.9-0.3,1.7-0.5,2.3-0.7c0.7-0.4-0.6,0-1.9,0.3c-1.3,0.3-2.7,0.5-2.1,0.2
			c3-0.6,5.6-1.6,6-2c-1.1,0.4-1.5,0.5-1.9,0.7c-0.4,0.2-0.8,0.4-1.8,0.7c-1,0.2-1.7,0.4-2.2,0.5c-0.6,0.1-1.1,0.2-1.6,0.2
			c0.8-0.2,1.8-0.4,2.7-0.7c1-0.3,1.9-0.6,2.6-0.9c-2.5,0.7-3.3,0.7-3,0.6l1.2-0.4c0.6-0.2,1.4-0.4,2.3-0.8c1.8-0.6,4-1.6,5.9-2.8
			c1-0.5,1.8-1.1,2.6-1.6c0.7-0.5,1.3-1,1.8-1.4c-0.7,0.5-0.7,0.4-0.7,0.3c-0.4,0.3-0.8,0.6-1.2,0.8l-1,0.7c-0.5,0.4-1.1,0.7-1.7,1
			c1.6-0.9,3.4-2.3,4.4-3.1c0.8-0.5,1.8-1,2.7-1.7c-0.6,0.6-1.1,1-1.5,1.4c-0.4,0.3-0.6,0.6-1,0.9c-0.6,0.5-1.3,1.2-3,2.2
			c0.1-0.2,1-0.8,1.2-1c-3,1.9-5.2,3-5.6,3.3c-0.2,0.2,0,0.2,0.7-0.2c0.4-0.2,0.9-0.4,1.5-0.7c0.6-0.3,1.4-0.8,2.3-1.3
			c0.1,0.1,1.4-0.6,2.8-1.8c0.7-0.5,1.5-1.2,2.2-1.8c0.7-0.6,1.4-1.3,1.9-1.7c0.1-0.4-1,0.5,0.8-1.4c1.3-1.3,2.6-3,3.8-4.9
			c1.2-1.9,2.2-4,3-6.1c0.7-2,1.3-4,1.7-6.1c0.2-1,0.3-1.9,0.4-2.7l0.3-2.2c-0.1-0.4-0.3-0.8-0.4-1.8c-0.2-1-0.2-2.8-0.8-5.7
			c-0.1,1-0.6-0.9-0.9-0.5c-0.5-2.1-0.6-2.4-1-4c0-0.1,0.2,0.1,0-0.7c-0.5-1.3-1-4-1.7-6.7c-0.2-0.3-0.2,0.3,0,1.4
			c-0.6-2.5-0.5-1.1-0.9-2.6c-0.2-0.8-0.4-2.6-0.8-3.3c-0.1,1.1-1,0.1-1.1,1c0,0.2,0.2,1.6,0.1,1.4c-0.1-0.1-0.5-2.2-0.5-2
			c0,0.1,0.1,0.3,0.1,0.4c0.1,0.2,0.1,0.6,0.2,0.9c0.1,0.7,0.3,1.4,0.3,1.4c0,0.2,0,0.4-0.1,0.5l-5.6-22.5c0,0,0,0,0,0
			c0.8,3,1.1,3.4,1.8,5.9c0.3,1.5-0.5-0.5,0.2,2.1c0.4-0.2,0.9,0.4,0.5-2.3c0.4,1.3,0.6,2.9,0.9,3.3c-0.5-2.4,0.4,0.5,0.8,1.9
			c-0.7-4-1.2-6.7,0.1-2.9c-0.2-0.8-0.4-1.6-0.2-1.3c0.2,0,1.1,4,1.2,3.9c-0.2-1-0.9-3.4-0.8-3.3c0.4,1.7,0.4,0.9,0.8,2.6
			c0.8,2.7,0.5,3.1,1.1,4.7c-0.4-2.2,0.4,0.4,0.5,0.6c-0.5-1.9-1.4-4.9-1.5-6c0.7,2.6,1.1,4.1,1.6,5.3c0-0.3-0.8-3.8-0.3-2.1
			c0.4,1.6,0.4,2,0.9,4c0-0.7-0.2-1.5,0.2-0.8c0.9,3.7,1.1,3.8,1.8,5.9c0.2,0.9,0,0.7-0.2,0.8c0.4,1.6,0.5,2.7,1,4
			c-0.8-3.4,0.4-0.1,0.7,0.5c-0.2-0.8-0.5-1.9-0.4-2c0.1-0.4,0.6,2,0.4,0.6c0.7,2.8,1.3,4.2,1.7,6.6c-0.2-1.6-0.3-2-0.1-2.1
			c0.2,0.9,0.4,1.7,0.7,2.6c0.1,0.3,0.2,0.7,0.3,1c0.1,0.4,0.2,0.8,0.3,1.2c-0.3-1.7-0.5-2.3-0.7-2.9c-0.2-0.6-0.3-1.1-0.4-1.9
			c0.3,0.7,0.6,1.7,1,2.9c0.2,0.5,0.4,1.4,0.6,2.2c0.2,0.8,0.3,1.7,0.5,2.7c0.2,1,0.2,2,0.3,3c0,1.1,0.1,2.2,0,3.3
			c-0.1,2.3-0.5,4.7-1.1,7.1c0.4-1.4,0,0.2,0.1,0c0.6-2.5,1-4.9,1.1-7.2c0.1-1.1,0-2.3,0-3.4c-0.1-1.1-0.1-2.2-0.3-3.3
			c-0.1-0.5-0.2-1.1-0.3-1.6c-0.1-0.5-0.2-1.1-0.4-1.6l-0.2-0.8l-0.2-0.7c-0.1-0.5-0.2-0.9-0.3-1.4c-0.5-2-1-4.1-1.4-6.1
			c0.2,0.1,0.9,3.4,1.2,3.9c-0.5-2.1-1.5-5.2-1.9-7.3c0.6,1.8-0.1-0.8,0.1-0.7c0.7,2.3,1.6,5.5,2.4,8.6c0.2,0.8,0.4,1.5,0.6,2.3
			c0.1,0.4,0.2,0.7,0.3,1.1l0.3,1.3c0.2,0.8,0.4,1.6,0.5,2.4c0.1,0.7,0.3,1.4,0.3,2c0-0.4-0.2-1.9-0.1-1.7c0.7,5.1,0.1,9.6-0.1,12
			c0.3-1.3,0.4-1.8,0.5-1.7c0.6-3.8,0.5-7.6-0.1-11.3c-0.1-1-0.4-1.9-0.6-2.9l-0.6-2.3c-0.4-1.6-0.8-3.1-1.2-4.6
			c-1.5-6.1-3-11.7-3.8-15.3c-0.3-0.4-0.8-3-1.1-4c0,0.3-0.3,0.2-0.7-1.2c-0.1-0.8-0.1-0.8,0.2-0.1c-0.6-2.5-0.5-1.2-1.1-3.3
			c-0.3-1.4-0.4-2.2-0.7-3.4c-0.3,0-0.9-2.7-1.5-4.6c0.7,2.7-0.2-0.2-0.1,0.7c-1-3.9-1.7-6.3-2.3-7.9c-0.5-1.8,0-0.7-0.3-2.1
			c-0.5-1.1-0.4-1-1.1-4c-0.4-1.5-0.7-2.4-0.9-2.6c-0.1,0.2,0.3,2.1,0,1.4c-0.6-1.9-0.9-3.3-1.2-4.6c-0.1-0.2-0.5-0.4-1-1.9
			c0.3,0.6-0.4-2.1-0.7-3.4c-0.8-2.2-0.3,0.3-1.1-2.5c0.1,0,0.2,0.3,0.3,0.6c-1-3.9-1.8-6.3-2.3-8.6c0.1,0.8,0,0.5-0.3,0.1
			c0.7,3.1,0.2,2.2-0.5,0.1c-0.5-1.7-0.6-3.1-0.9-4c0.2,1.1,0.7,3.1,0.8,4c-0.8-3.1-0.3-0.3-0.9-2.6c-0.7-3-1.2-5.8-2.2-9.4
			c0.4,0.9,0-0.6,0.4,0.6c-0.3-1.3-0.3-1.5-0.6-2.7c-0.4-1-0.1,0.3-0.4-0.6c-0.2-1.3-0.8-3.5-0.8-4.1c0.3,0.5,0.9,2.4,0.9,3.3
			c0.4,1.2,0-0.8,0-1.4c0,0.8-0.5-1-1-3.3c-0.4-0.4-0.2-0.1-0.5,0.1c0.5,1.9,0.7,3.2,0.4,2.7c-0.3-1.3-0.1-0.9-0.6-2.7
			c0,0.3,0.2,1.5,0.3,2.1c0.3,0.5,0.4,1.7,0.8,3.3c0.1-0.2,0.2-0.3,0.7,1.9c-0.3-0.6-0.3-0.6-0.3,0.1c-0.4-1.7-0.4-2.1-0.7-2.6
			c0.1,0.5,0.3,1.3,0.3,1.3c-0.3-1-0.6-2.5-0.7-2.7c0.8,3.1-0.3-0.4,0.2,1.4c0.3,0.6,0.7,2.9,0.5,2.7c-0.6-2.4-0.7-2.1-1.5-5.3
			c0.4,0.6-0.3-1.9-0.5-3.4c0.4,1.8,0.9,3.9,1.1,4c-1-4-1.3-4.9-2.2-8.7c-0.1,0-0.3-0.2-0.2,0.8c-0.7-3.1-0.4-0.9-0.7-1.9
			c-0.8-3.3-0.7-3.8-1-5.4c-0.2-0.2-0.6-2-0.7-2.7c0.5,2,0.8,2.3,1.5,5.3c0-2.7,0.4-3.1,0.9-3.1c-0.2-1.4-0.8-2.5-0.9-3.3
			c0.2,0.4,0.3,0.7,0.2-0.1c-0.8-1.7,0.2,3.2-0.9,0.3c-0.1-1.2-0.2-3.1,0.3-1.5c-1.4-4.6-0.2,3.1-1.4-0.3c-1.1-3.9-1.9-6.3-2.9-9.2
			c0.7,2.8,1.3,4.9,1.8,7.3c0.2,0,0.6,1.9,1.2,4c-0.4-0.7,0,1.2,0,1.4c-0.7-3.1-0.2-0.7-0.6-2c-0.3-1.8-1.2-4.2-1.5-6
			c-0.1,0-0.1,0.2,0,0.7c-0.4-1.6-0.4-1.4-0.9-3.3c0.1-0.1,0.1-0.4,0-1.4c-0.5-1.7-0.8-4.3-1.7-7.4c0.1-0.5,0.4,0.6,0.6,0.6
			c-0.3-1.2-0.5-2.1-0.6-2.7c-0.3-0.2-0.5-0.4-0.4,0.8c-1.5-5.5-2.6-8.6-3.9-13.2c-0.1-1,0.3,0.5,0.1-0.7c-0.6-2.4-0.9-3.2-1.2-4.6
			c-0.3-1.7,0-1.3,0.5,0.6c0.4,2.2,0.4,1.5,1.4,5.3c1,1.3,1.1,0.1,2.7,5.7c0,0.3-0.4-1.2-0.4-0.6c0.7,2.8,0.5,1.2,1.1,4
			c0.6,0.4,1.4,2.7,2.7,6.3c-0.1-2,1.6,2.3,2.8,6.3c0.2-0.3,1,0.8,2.1,4.4c-0.6-2-0.8-3.8-0.3-2.1c0,0,0.2,1.2,0.3,1.3
			c-0.4-1.7-1.1-4.5-1.2-5.4c0-0.5,0.4,1.3,0.5,1.3c-1.1-3.9-1.2-3.7-1.8-5.2c-0.4-1.9-0.1-1.4,0.2-0.8c-0.6-2.1-0.4-2.1-0.7-3.4
			c-0.3-0.4-0.4-0.1-0.9-1.9c-0.2-0.9-0.5-2.5-0.7-3.4c-0.4-1-0.8-2.1-1.2-3.2c-0.3-2-0.7-2.7-1.2-4.6c-0.9-4.3-0.2-3.9-2-10.8
			c-0.9-2.8-1.6-5.7-2.3-8.6c-0.8-2.4-1.1-2.4-1.9-5.1c0.4,0.6-1.2-5.4-0.2-2.8c-0.6-2.4-0.5-2.7-0.3-2.8c-0.4-1.2-0.7-2.3-1-3.5
			c-0.2-0.8-0.5-1.6-0.7-2.4c-0.3-0.8-0.6-1.7-0.9-2.5c-1.3-3.4-3.4-6.8-5.9-9.4c-1.9-2.4,0.2-0.3-0.2-0.9
			C853.3,47,852.7,46.5,852,45.7L852,45.7z"/>
		<defs>
			<filter id="Adobe_OpacityMaskFilter_1_" filterUnits="userSpaceOnUse" x="53.6" y="-139.6" width="211.4" height="212.7">
				<feColorMatrix  type="matrix" values="1 0 0 0 0  0 1 0 0 0  0 0 1 0 0  0 0 0 1 0"/>
			</filter>
		</defs>
		<mask maskUnits="userSpaceOnUse" x="53.6" y="-139.6" width="211.4" height="212.7" id="c_2_">
			<g class="st5">
				<path id="a_2_" class="st3" d="M8.4-36.2h985c4.4,0,8,3.6,8,8v235c0,4.4-3.6,8-8,8H8.4c-4.4,0-8-3.6-8-8v-235
					C0.4-32.6,4-36.2,8.4-36.2L8.4-36.2z"/>
			</g>
		</mask>
		<path class="st6" d="M260.9,21.6c0.3-0.7,0.7-1.5,1.2-2.7c0.1,0-0.2,0.8-0.1,0.7c-0.2,0.5-0.4,0.9-0.6,1.3
			c-0.2,0.3-0.3,0.6-0.5,0.9c-0.3,0.5-0.6,1-1.2,1.9C260.3,23,260.6,22.4,260.9,21.6L260.9,21.6z M250,28.3
			c-1.6,1.1-3.7,2.1-5.7,2.8c-0.5,0.2-1,0.3-1.5,0.5l-1.3,0.4c-0.8,0.2-1.5,0.5-2.3,0.7c-0.3-0.1,0.9-0.6,2.9-1.2
			c0.2-0.1,0.5-0.1,0.8-0.2c0.3-0.1,0.6-0.2,0.9-0.3c0.3-0.1,0.6-0.2,1-0.3c0.3-0.1,0.6-0.2,1-0.4c1.3-0.5,2.7-1.2,4.1-2
			c-0.1-0.1,0.8-0.7-0.7,0.1c2.3-1.4,3.3-2.6,4.1-3.6c0.8-0.5,0.8-0.3,0.3,0.4C252.8,26.1,251.6,27.3,250,28.3L250,28.3z
			 M236.2,34.9c1.8-0.8-3.4,0.1,3.9-1.8c-0.2,0.2-5.6,2-1,1C239.3,34.1,237.1,34.6,236.2,34.9z M235.2,31.4
			c-0.4,0.3-1.9,0.8-3.8,1.3c0.4,0-0.9,0.4-0.5,0.5c-1.2,0.3-2.5,0.6-3.9,1c0,0.2,0.8,0.3-2.1,1c0.8-0.4-1.9,0.3-2.3,0.3
			c-2.6,0.2,5.3-2.1,4.2-2.2c-6.6,1.9-10.2,3.5-17.6,5.2c1.2-0.4-0.1-0.2-0.7-0.3c2.3-0.6,3.7-1.3,3.2-1.4l4.8-1.2
			c-0.7,0.3-1.5,0.6-1.9,0.8c0.6-0.2,1-0.2,1.1-0.2c1.1-0.4,1.9-0.7,2.3-1l2.9-0.7c0.1,0,0.2,0,0.3,0c0.1-0.1,0.2-0.1,0.3-0.1
			l10.8-2.6c-0.2,0.1-0.4,0.2-0.6,0.2c1-0.2,1.4-0.4,1.7-0.5l1.8-0.4C235.4,31.3,235.4,31.4,235.2,31.4L235.2,31.4z M217.2,36.6
			c-1.3,0.3-1.7,0.3-2.6,0.5c0.7-0.3,2.1-0.7,5.7-1.4C218.7,36,218,36.3,217.2,36.6L217.2,36.6z M192.4,42.4c0.3-0.2,3-1.1-0.6,0.1
			c0.4-0.3,3.2-1.1,4.2-1.4C195.7,41.3,194.4,41.8,192.4,42.4z M191.5,42.8c-1.1,0.3-0.4-0.1-1.2,0c1.5-0.5,3.4-1.1,2.8-1.2
			c1.1-0.2,3.6-1.2,3.5-0.9C193.1,41.9,192.2,42.5,191.5,42.8z M191.2,42.2c1.4-0.3,1.6-0.2,2.5-0.3c0,0.2-1.7,0.6-1.7,0.8
			C189.2,43.1,190.7,42.5,191.2,42.2z M182.7,45c-3.3,0.7-1.8,0.7-6.1,1.6c0.3-0.3-2.3,0.4-2.9,0.5c1.1-0.6,0.4-1.1-1.9-1l9-1.8
			c0.3,0.2-1.8,1,2.3,0.4c-1,0.2-1.5,0.2-1.7,0.3C183.1,44.7,180.7,45.4,182.7,45z M172.7,48.6c0-0.2,0.3-0.5,1.5-0.9
			c-0.9,0.2-4.4,1.1-5.5,1.5c-2.9,0.5-4.5,1-7.2,1.7c0.4,0,0.4,0,0.1,0.2c-3.5,0.7,0.2-0.4,0.4-0.6c3.1-0.7,5.8-1.4,7.7-2
			c0.9-0.2,0.7,0.1,1.7-0.2c0.7-0.2,1.1-0.4,1.6-0.6c2-0.4,3.3-0.6,4-0.6C173.8,48,177.4,47.5,172.7,48.6z M163,51.3
			c-2.2,0.6-2.8,0.8-4.8,1.2c0.4-0.2,0.4-0.2-0.1-0.2c1.7-0.4,5.3-1.5,7.7-2C164.5,50.7,162.8,51.2,163,51.3L163,51.3z M154.2,53.7
			c0.1-0.1,1.5-0.4,2.9-0.7c-0.1,0.1,0.2,0,0.6,0C157.1,53.2,155.7,53.3,154.2,53.7z M145.8,55.6c1.2-0.3,1.2-0.2,1.7-0.3
			c1.4-0.4-0.4-0.1,1.7-0.6c1.1-0.2-0.3,0.2,0,0.2c2.2-0.6,0.9-0.4,3.4-1.1c-0.2,0-2.5,0.7-2.9,0.8c2.3-0.8,3.7-1,5.7-1.6
			C154.5,53.5,143.9,56.4,145.8,55.6L145.8,55.6z M143.9,56.9c0.1,0.1,2.1-0.5,2.4-0.5c-0.4,0.2-0.4,0.2,0.1,0.2
			c-2.3,0.5-2.7,0.4-4.3,0.7c1.3-0.5,5.7-1.7,7.8-2.1C148.7,55.7,146,56.4,143.9,56.9z M128.8,62.4c-0.8,0.1-1.6,0.2-1.6,0.3
			c-2.6,0.2,1.3-0.5,2.6-0.7C129.6,62.1,129.3,62.2,128.8,62.4L128.8,62.4z M128.7,57l0.3-0.1c0.6-0.1,0.2,0.2,2.3-0.3
			c0.4-0.2,0.5-0.3,0.4-0.3l2.6-0.6c-1,0.4-1.8,0.8-2.9,1.3C130.2,57.1,128.3,57.2,128.7,57z M115.9,66.5c0.3-0.2,1.3-0.6,2.1-0.9
			c0.3,0,2.1-0.6,2.2-0.5C119.1,65.5,117.6,66,115.9,66.5z M123.1,60.1c-1.5,0.6-2.5,1-2.4,1.2C117.7,62,118.4,61.3,123.1,60.1z
			 M126.2,57.6c-0.3,0.1-0.5,0.2-0.8,0.3c-0.8,0.1-0.9,0.1-1.6,0.2c0.6-0.1,1-0.2,1.2-0.3L126.2,57.6L126.2,57.6z M102.8,63.7
			c-1.9,0.4-1.7,0.3-1.5,0.1l1.3-0.3C102.6,63.5,102.5,63.6,102.8,63.7z M69.2,63.7c-0.3-0.1-1.5-0.6-3.8-2.8
			c0.5,0.1-0.1-0.7-0.4-1.3c0.4,0.5,0.8,0.9,1.2,1.2c0.4,0.3,0.7,0.6,1,0.9l1,0.8l1.1,0.8C69.2,63.4,69.5,63.8,69.2,63.7L69.2,63.7z
			 M57.8,45.4c-0.1-1.1-0.1-1.3,0.3,0.2c0.2,1.7,1.1,4.4,1,4.6C58.5,48.4,58,46.5,57.8,45.4z M55.8,34.1c0-0.1,0-0.4,0.1-0.8
			c0.1-0.4,0.2-0.9,0.3-1.3c0.2-0.8,0.4-1.5,0.3-1.4c0.3-0.8,0.2-0.4,0.7-2.1c-0.1,0.4-0.1,0.9,0.1,0c0,0.3-0.7,2.6-0.9,3.8
			c0-0.1-0.1,0-0.2,0.4L55.8,34.1z M55.8,28.3c0.6-2.2,0.7-3.4,1.4-5.5c0.1-1-0.9,3.4-1.3,4.9c-0.1,0,0.2-1.4,0.5-2.8
			c0.8-2.5,1.9-7.3,2.4-8.1c-0.8,3.9-0.8,5.8-2.6,12.1c0.1-1-0.5,0.8-0.9,2.7C55,32.1,56.2,27.6,55.8,28.3L55.8,28.3z M59.1,15.4
			c-0.6,2.2-1.6,6.2-2.1,7.8C57.7,20.3,58.7,15.5,59.1,15.4z M56.8,19c0.6-2.8,0.9-3.3,1.4-5.5c-0.1,1-0.4,2-1,4.5
			C57.1,18.2,56.8,19.5,56.8,19z M61.2,7.8c-0.2-0.5,1-5.2,1.4-7.1c0,0.4,0.2-0.2,0.5-1.7c0,1-1,5.1-0.9,6c-0.5,1.9-0.7,3.3-1.2,4.6
			c0.4-2.2,0.9-3.6,0.8-4.1C61.7,5.6,61.3,7.5,61.2,7.8z M71.9-27.8c0.4-1.6,0.3,0.1-0.1,1.9C71.7-26,71.9-27.3,71.9-27.8z
			 M71.8-29.3c0.8-3.1,0,1.1,0.3,0.8C71.5-26.7,72.1-29.7,71.8-29.3z M76.7-37.1c0.2-0.7,0.3-1.5,0.4-2.2c0.2-0.4,0.1,0.6,0,1.2
			C76.9-36.7,76.8-37,76.7-37.1z M77.4-41.5c0,0.1-0.2,1.1-0.4,1.7c0.1-0.1,0.1,0.3-0.3,1.8C76.6-38,76.6-39.2,77.4-41.5z
			 M74.9-41.1c0.2-0.7,0.4-1.4,0.5-2.1c0.1-0.1-0.2,1.1-0.4,2.2c0.3-0.5,0.3-1,0.7-2.7c-0.4,2.3-0.9,4.5-1.4,7.1
			C74.1-37,75.2-41.1,74.9-41.1z M80.5-50.1c-0.5,1.7-0.8,2.1-0.9,1.9C80.5-51.7,79.9-48.9,80.5-50.1z M77.8-47.6
			c0.1-0.5,0.2-0.9,0.4-1.8c0.1-0.1-0.1,1.3-0.4,2.4C77.7-46.9,77.9-47.7,77.8-47.6z M79.1-53.2l-0.2-0.1c0.2-1.2,0.3-1.1,0.6-2.3
			c0.3-1.7-0.5,1.3-0.7,2.2c0.2-1.4,0.6-2.7,1.2-4c0.3-1.7-0.5,1.3-0.4,0.5C80.2-59,80.8-61,81-60c0.4-2-0.1-0.1,0.1-1.2
			c0.5-2.1,0.4-0.7,0,1.2c0.5-0.1,0.1,2.1,0.9,0.3c-0.4,1.4-0.5,1.2-1,3.4c0.1-1.1,0-0.8,0-1.2l-0.3,1.2c-0.2,1.2,0.2-0.2,0.2,0.7
			c-0.5,2.5-0.7,3.3-1.6,6.9c0.2-1.3,0.6-3.4,0.8-4.7c-0.3,0.4-0.6,2.7-0.9,3.4c-0.5,0.9-0.6,0.2-0.7,0.4c0.1-0.7,0.9-3.5,1.3-5.8
			c-0.7,2.9-1.3,4.9-1.8,6.9C78.2-49.2,78.8-52,79.1-53.2z M81.2-61.7c0.7-2.7,0.9-2.7,1.7-6.1c-0.4,1.6-0.8,2.6-0.1-0.6
			c-0.4,1.4-0.5,1.1-0.9,3.3c0.1-0.9-0.2,0-0.5,1.1c0.4-1.9,1.3-5.2,2.1-9c0.1-0.2,0.4-1.2,0.5-1.1c0.2-1,0.3-2,0.4-1.7
			c0.1-0.7,0.5-2.5,0.9-4c-0.3,1.8,0.6-1.6,0.6-2.2c-0.3,1.4-0.6,1.8-1.3,5c-0.1,0,0.7-3.4,0-0.6c0.2-1.7,0.8-3.9,1.2-5.7
			c0,0.1,0.1-0.1,0.2-0.5c0,0.4-0.2,1-0.4,1.7c0.3-0.5,0.4-1.7,0.8-3.4c-0.5,2.6,0.3-0.7,0.4-0.5c-0.2,1.2-0.4,1.6-0.8,3.4
			c-0.3,1.2-0.4,2.6,0.1,0.6c-0.5,3.9-0.8,2.1-1.5,5.6c0-0.1,0.4-1.7,0.3-1.7c-0.3,1-0.8,3.5-1.2,4.5c-0.2,0.9,0.2-0.5,0,0.6
			c0.4-1.9,0.7-1.8,1.3-4.4c0.2-0.3,0.1,0.8,0.4-0.5c0,0.5-0.4,1.3-0.5,1.6c-0.4,1.7,0.2-0.5,0.2,0c-0.4,1.6-0.5,1.4-1.1,3.9
			c0.2-0.1,0.7-2.6,1-3.3c0,0.4-0.8,3.1-1.1,4.5c0,0.4,0.3-1.1,0.5-1.7c-0.1,1.1-0.5,2-0.8,3.4c-0.1-0.5,0.5-3.4,0.3-3.5
			c-0.7,3.3-0.8,4.7-1.6,8.6c-0.3,1.1,0-0.3,0-0.6c-0.3,1.2-0.1,0.8-0.3,1.7C81.3-60.1,80.9-59.8,81.2-61.7z M87.3-83.9
			c-0.1,0.1,0-0.5,0.3-1.7c-0.2,0.5-0.4,1.4-0.7,2.8c0.1-1.8,1-4.4,1.4-5.7C88.2-87.7,87.5-85.6,87.3-83.9z M87.6-90.1
			c0.1-0.7,0.2-1,0.2-1.2c0.4-1.8,0,1.3,0.4-1.1c0,0.2-0.2,1.5-0.4,2.3C88-91.2,87.8-90.2,87.6-90.1z M94.1-116.8
			c0.3-1,0.4-1.1,0.4-1.2c0.2-0.7,0.3-1,0.3-1.3c0.1-0.3,0.2-0.8,0.6-1.7c-0.1,0.1-0.3,0.4-0.4,0.7c-0.1,0.3-0.3,0.5-0.3,0.4
			c0.3-0.9,0.8-1.9,0.6-1.9c0.3-0.7,0.6-1.1,0.8-1.5c0.2-0.4,0.3-0.6,0.5-0.9c0.3-0.5,0.6-1,1.4-2.1c-0.2,0.4-0.7,1.1-1,1.7
			c-0.3,0.6-0.6,1.1-0.5,1.2c1.4-2.3,1.1-2.1,2.4-3.8c-0.2,0.4-0.2,0.6-0.6,1.2c-0.5,0.5-0.8,0.9-1,1.3c-0.2,0.4-0.3,0.7-0.3,0.9
			c-0.4,0.7-0.7,1.1-0.7,1c0,0.2-0.4,1.4-1.1,3.7c-0.3,0.9-0.4,1.2-0.4,1.2c-0.1,0-0.1-0.1-0.1-0.1c-0.5,1.6-0.3,1.2-0.4,1.8
			C93.7-114,94.1-116.1,94.1-116.8z M96.8-124.9c0.3-0.5,0.6-1,0.9-1.5c0.3-0.5,0.7-1,1-1.4c0.6-0.9,1.2-1.5,1.3-1.8
			c0.8-0.8,1.2-1,1.2-0.9c0,0.1-0.4,0.4-0.9,1c-1.1,1.1-2.5,3.1-3.3,4.6C97.4-125.8,96.9-124.8,96.8-124.9z M98.1-127.2
			c0.7-0.8,0.9-0.9,0.7-0.6c-0.2,0.3-0.8,1.2-1.6,2.3C96.9-125.3,98.1-127,98.1-127.2z M98.6-128.2c-0.3,0.1,0.7-1,0.3-0.7l1.4-1.5
			c0.4-0.4,0.7-0.7,1-0.9c0.3-0.3,0.6-0.5,0.9-0.8c0.4-0.3,0.7-0.6,1.3-1c-0.2,0.3-1.3,1.3-1.4,1.6
			C100.4-130.1,100.9-130.8,98.6-128.2z M103.4-130.9c0.2-0.1,0.5-0.3,0.7-0.5l0.9-0.6c-0.5,0.6-2,1.6-4,3.4
			c0.3-0.3,0.5-0.6-0.1-0.1c0.2-0.4,1-1,2-1.8c-1.9,1.4,0.5-1.4,4.2-3.4C106.1-133,103.9-131.6,103.4-130.9L103.4-130.9z
			 M109.8-135.6c1.8-0.9,3.1-1.3,2.5-1.4c1.2-0.3,1.4-0.4,2.7-0.7c1-0.4-2.3,0.5-2,0.3c0.8-0.2,1.6-0.4,2.3-0.5
			c0.6-0.1,1.1-0.1,1.1-0.1c0.2,0.1-0.2,0.2-0.7,0.3c-0.5,0.1-1.3,0.3-1.9,0.5c0.8-0.2,1.6-0.3,1.3-0.2c-2.4,0.6-4.9,1.6-5.6,2.2
			c2.1-0.8,2.9-1.1,3.1-1.2c0.2-0.1-0.1-0.1-0.1-0.1c1.2-0.3,1.3-0.4,1.5-0.5c0.1-0.1,0.3-0.2,1.8-0.4c-0.1,0.2-0.1,0.1,2-0.1
			c0.9,0-1.5,0.3,0,0.2c1.8-0.3,2-0.3,2.3-0.5c0.3-0.1,0.7-0.3,3.2-0.2c0.3,0.1,0,0.1-0.3,0.1c-0.3,0-0.6,0-0.4,0.1
			c1.1,0.1,1.8,0.2,2.3,0.3c0.5,0.1,0.8,0.2,1.1,0.3c-2.6-0.5-3.8-0.3-4.9-0.2c-1.1,0.2-2,0.3-3.9,0.4c-1.4,0.3,0.7,0.1-1.3,0.5
			c1.8-0.3,2.8-0.3,3.6-0.4c0.8,0,1.4-0.1,2.3-0.1c1,0.4,0.9,0.6-1.3,1.1c-0.2,0-1.1-0.1-1.3,0c1.1,0.1,1.4,0.2,1.2,0.3
			c-0.3,0.1-1,0.1-2.1,0.3c-0.6,0.1-1.1,0.2-1.7,0.3c-0.6,0.1-1.2,0.3-1.8,0.4c-1.1,0.3-2.2,0.7-3.3,1.1c-1.3,0.9-2.6,1.9-3.5,2.9
			c-0.4,0.4-0.8,0.8-1.1,1.3c-0.5,0.3-1,0.7-1.4,1c-0.3,0.1-0.1-0.2,0.2-0.5c0.3-0.4,0.8-0.9,0-0.5c0.5-0.4,1-0.7,1.5-1
			c-1.1,0.6-0.8,0.3-0.3-0.2c0.5-0.5,1.3-1,1-0.9c0,0-0.9,0.6-1,0.6c-0.1,0,0.7-0.5,0-0.1c-1.6,1.2-0.1,0.1,0.1,0.2
			c-2.3,1.7-2.9,2.8-3,3.3c0,0.2,0,0.3,0.1,0.4c-1.7,1.6-3.1,3.4-4.3,5.5c0,0,0,0.1-0.1,0.1c0.6-1.2,0.9-2,0.5-1.8
			c-0.4,0.7-0.8,1.3-1.2,2l0.2,0.1c-0.4,0.7-0.5,1.1-0.7,1.4c-0.1,0.3-0.3,0.6-0.5,1.3c0.7-3.1,1.9-5.6,2.2-7
			c-0.1,0-0.5,0.6-0.9,1.1c-0.4,0.5-0.7,1-0.6,0.9c0.6-1,0.5-1,1.7-2.6c0,0.1-0.6,0.9,0.1,0.1l0.8-1.2c0.2-0.3,0.3-0.5,0.3-0.5
			c0-0.1-0.5,0.3-1.5,1.4c1.2-1.5,2.2-2.4,3.4-3.7c0.8-0.5,1.5-1,2.1-1.4c0.3-0.3,1.7-1.3,2.6-1.8c1-0.6,1.5-0.9-0.1-0.2
			c1.4-0.7-1.2,0.4,0.5-0.5c0.2,0,0.9-0.3,0.6-0.1c0.3-0.1,0.8-0.3,1.2-0.5c0.5-0.2,1-0.4,1.4-0.5c0.8-0.3,1.3-0.4,0.3-0.2
			c-0.1,0.1-2,0.7-2.4,1c0.2-0.2-0.5,0-1.4,0.5c-0.9,0.4-1.8,1-2.1,1.1c0.8-0.6,0.8-0.8,1-1.1c0.1-0.1,0.2-0.3,0.5-0.5
			c0.3-0.2,0.8-0.5,1.6-0.9c-2.3,0.9-4.4,2.2-5.8,3.2C105.5-133.4,107.9-134.8,109.8-135.6z M128.7-134.8c-0.2,0-1.1-0.3-1.3-0.3
			c0.8,0.3,1.7,0.5,2.5,0.9C128.9-134.7,128.8-134.8,128.7-134.8c0-0.1,0.1-0.1-0.6-0.4c0.8,0.3,1.4,0.5,2,0.7
			c0.6,0.2,1.1,0.5,1.7,0.7c-0.2-0.1-0.5-0.3-0.9-0.5c-0.4-0.2-1-0.3-1.5-0.6c2,0.7,2.1,0.7,2.3,0.7c0.1,0,0.1,0,0.4,0.1
			c0.1,0.1,0.3,0.1,0.6,0.2c0.3,0.1,0.6,0.3,1.1,0.6c-0.7-0.3-0.7-0.3,0.5,0.4c0.2,0.3-1.9-0.9-1.3-0.4c0.8,0.4,1.4,0.8,2,1.2
			l0.9,0.5l0.8,0.5c0.5,0.3,1,0.7,1.5,1c0.5,0.4,1,0.8,1.6,1.3c-0.5-0.5-1.3-1.2-2.2-1.9l-1.4-1c-0.5-0.3-0.9-0.6-1.3-0.8
			c0.1,0,1.1,0.5,2,1.2c0.9,0.6,1.8,1.4,2,1.5c1.7,1.6,1.6,1.7,1,1.3c-0.6-0.4-1.8-1.3-2.4-1.7c0.5,0.5,1.1,1,1.7,1.5
			c0.6,0.6,1.3,1.2,1.9,1.8c1.2,1.2,2.4,2.3,3.2,3.2c1.2,1.1,2.4,2.2,3.7,3.2c1.3,1.6,0.8,1.2-0.4,0.4c-0.7-0.8-2.4-2.4-3-3
			c-0.2-0.1,0.4,0.5,0.4,0.5c0.7,0.8,0.1,0.4-1-0.7c0.3,0.3,0.7,0.8,1.2,1.3c0.3,0.3,0.6,0.5,0.9,0.8c0.9,1-0.5-0.2-1.4-1.1
			c0.3,0.1-0.6-0.7-1.2-1.3c-0.6-0.6-0.4-0.3-0.5-0.3l-2.7-2.6c-0.6-0.6-0.9-0.8-0.9-0.7c-1.2-1.2,0.1-0.2,0.2-0.2l1.3,1.3
			c0.4,0.4,0.8,0.8,1.2,1.2c0.6,0.5,1.2,1.1,1.8,1.6c0.8,0.6,0.6,0.3-1.5-1.7c-0.7-0.5-1.3-1.1-2.1-1.8l-1.4-1.2
			c-0.5-0.5-1.2-0.9-1.8-1.5c0,0.1,1.3,1.2,0.9,1c-0.6-0.5-1.1-0.8-1.7-1.2l-1.1-0.7l-1.5-0.9c-1.4-1.1,1.6,0.1,3.7,1.5
			c-1.6-1.2-2.2-1.6-4.5-2.9c-1.2-0.4,1.9,1.1,1.6,1.2c-2-1.2-2.7-1.5-3.2-1.6c-0.3-0.1-0.5-0.1-0.8-0.3c-0.3-0.1-0.7-0.2-1.4-0.5
			c1,0.5-0.4,0-1.3-0.1c-0.8-0.3-0.7-0.3-0.6-0.3c0.1,0,0-0.1-1.2-0.4c0.4,0-0.7-0.4,0.7,0c-0.2-0.1-0.8-0.3-1.5-0.4
			c-0.7-0.1-1.6-0.3-2.3-0.4C124.4-135.7,125.8-135.7,128.7-134.8z M149-121.8c1.4,1.2,2.3,2.4,3.6,3.5c-0.2,0.2-0.8-0.1-1.4-0.4
			c-3.2-3.4-5.2-5.1-7.7-7.5C145.3-124.6,149.7-120.4,149-121.8L149-121.8z M156-112.1c1.7,1.7,1.2,1.3,2.7,2.7
			c-1.5-1,2.8,2.8,3.1,3.1c0.7,1-2.2-1.7-3.5-2.7c0.5,0.5,0.6,0.4,0.6,0.2c-2-1.9-1.8-1.4-3.8-3.3
			C156.4-111.1,155.2-112.7,156-112.1z M159.9-109.2c2.2,2.1,1.5,1.8,3.4,3.7c-0.3-0.2-0.5-0.4-0.5-0.3c-0.6-0.5-0.7-0.7-1.3-1.3
			c0,0.2,1.6,1.9-0.6-0.3c0.1,0.1,0.5,0.4,0.5,0.4c-0.1-0.2-1.1-1.2-1.7-1.9C162.1-106.6,159.8-109,159.9-109.2z M162-107.4
			c1.6,1.6,1.8,1.7,3.3,3.2c-0.5-0.1-0.6,0.1-4.4-3.9C160.5-108.7,162.3-106.8,162-107.4z M170.3-94.5c-0.1,0-0.4-0.2-0.7-0.4
			l-2.8-2.8c0.1,0,0.1,0,0-0.3C168.9-96,168.3-96.6,170.3-94.5z M173.4-97.7c-1.2-1-2.5-2.6-2.7-3C172.1-99.3,171.9-99.2,173.4-97.7
			z M172.2-93.3c1.2,1.4,0.2,0.6,0.1,0.8l-0.5-0.5c0,0,0.1,0,0.1,0c-0.1-0.1-0.3-0.3-0.8-0.7C171.9-93.2,171-94.3,172.2-93.3z
			 M174.1-92.3c1.2,1.2,0.4,0.6,0.2,0.6c-0.3-0.4-0.3-0.5-1-1.1C173.5-92.7,173.9-92.4,174.1-92.3z M178.2-88
			c0.4,0.6-1.5-1.1-0.2,0.2c0.5,0.4,0.5,0.1,1.5,1c0.4,0.7,0.9,0.9,2.1,2.1c-0.6-0.5,0.8,1.3,1.4,2c-0.6-0.4-1.2-0.8-1.8-1.3
			l-1.3-1.3c0.2,0.1,0.6,0.4,0.9,0.6c-0.5-0.5-0.6-0.6-1.3-1.3c-0.6-0.5-0.4-0.2-0.1,0.2l-2.6-2.6c0.4,0.2,0.4,0-0.2-0.7
			c-0.6-0.5-1.1-0.8-1.4-0.9l-1.6-1.6C175.1-90.3,176.5-89.3,178.2-88z M182.6-85.1c-0.2-0.2-0.9-0.7,0.3,0.5
			c-0.4-0.2-0.2,0.2-1-0.4c-1.1-1.2,1.4,0.8-0.4-1C181.8-85.7,181.6-86,182.6-85.1z M203.2-62.3c0.8,0.8,1.2,1,2.4,2.3
			c-0.3-0.1-0.4,0-0.5,0.2l-2.7-2.7C203.1-61.9,203.5-61.7,203.2-62.3z M98.5-121.1c-0.3,0.7-0.5,1.3-0.7,2c0-0.4,0.1-0.8,0.6-2.2
			C98.4-121.3,98.4-121.2,98.5-121.1L98.5-121.1z M87.5-81.8c0.8-2-0.4,1.7-1.1,3.5c-0.4,0.7,0.5-1.7,0.4-1.8
			C87.4-81.9,87.3-80.8,87.5-81.8z M84.5-69.6c-0.1,0,0.6-2.7,0.6-3.3c0.6-2.2,1-3.6,1.4-4.8c-0.3,1.2-0.5,1.8-1,3.8
			c0.1-0.2,0.4-1.4,0.6-2.2c-0.1,1.2,0.3-1.1,0.4-0.5c-0.6,2.5-0.7,3.2-1.2,5.5c0.3-1.8-0.2,0-0.7,1.6c-0.1,0.5-0.1,0.5-0.1,0.6
			c-0.4,1.5,0.2-1.4,0.6-2.8C85-71.7,84.8-70.9,84.5-69.6L84.5-69.6z M82.9-60.1c0.5-1.9,0.3-1.8,0.7-3.4c0.3-0.7,0.4-0.7,0.7-1.4
			l-3.5,13.4c0-0.6-0.3-0.1,0.6-3.2c-0.2,0-0.1-1,0.3-2.9c0.5-1.5,0.9-1.9,1.5-4.3C83.2-61.6,82.5-59.3,82.9-60.1z M262.7,6.5
			c0,0.7-0.1,1.3-0.1,2c-0.2-0.8-0.5,1.7-0.9,3.1c0-0.6,0.3-2.9,0.3-5.1c0.2-1.9,0.3,2.6,0.4-1.3C262.5,5.3,262.6,5.8,262.7,6.5z
			 M147.8,54.9c-0.3,0.1-0.6,0.2-0.5,0.2c-1.7,0.3-1.5,0.3-2.9,0.6l0-0.1C146.1,55.3,146.4,55.2,147.8,54.9z M214.9,39.2
			c-5.5,1.1,0.4-1.2-0.4-1.4c0.2-0.1,3-0.7,2.9-0.5C214.9,38.2,216.2,38.5,214.9,39.2z M113,65.1c-0.6,0.1-1.5,0.4-2.6,0.7
			c0.3-0.2,1.1-0.5,2.6-0.9C113.8,64.7,113.9,64.8,113,65.1L113,65.1z M111.8,66.1c-2.7,0.6-4.4,0.9-5.1,0.9
			c0.8-0.2,1.9-0.5,2.5-0.8c0.8-0.1,1.2-0.2,3.2-0.7C112.1,65.9,112,65.8,111.8,66.1L111.8,66.1z M103,67.8
			c-3.1,0.6-2.9,0.3-5.9,0.9c4.9-1.1,5.5-1.6,10.3-2.7c-0.7,0.4,2-0.3,2.4-0.2C110,66.2,107.4,66.6,103,67.8L103,67.8z M111.3,63.8
			c0.1-0.2,2.9-0.8,3.3-0.9c0.2,0-1.9,0.6-1.9,0.7C111.7,63.8,112.4,63.5,111.3,63.8L111.3,63.8z M100.1-131
			c0.7-0.6,1.1-0.8,1.1-0.6c-1.1,0.9-0.9,0.9-2.1,2.1C99.3-130,99.5-130.3,100.1-131L100.1-131z M189.7-78.4c2.5,2.7-0.7-0.2-0.8,0
			C187-80.4,190.2-77.5,189.7-78.4z M257.1,27c0.6-0.7,1.3-1.4,2-2.2c-0.3,0.1-0.8,0.7-0.6,0.4c1.4-1.5,2.6-3.2,3.6-5.1
			c1.1-2,2.1-4.3,2.8-7.4c-0.1,0.4,0-0.3,0.1-0.8c0.1-0.6,0.1-1-0.1,0.1c-0.1,1-0.8,3.1-1.4,4.7c0-0.4,0.4-1.6,0.7-2.9
			c0.3-1.3,0.5-2.7,0.5-3.3c0.4-2.1,0.5-5.4,0.1-8.3c-0.3-2.9-1.1-5.3-1.1-5.9c-0.6-1.7-0.8-2.1-1.4-3.4c0-0.1,0.2,0.1-0.2-0.7
			c-0.2-0.3-0.5-0.8-1.1-1.9c-0.1-0.2-0.3-0.6-0.5-1c-0.3-0.4-0.6-1-1-1.6c-0.4-0.6-0.9-1.2-1.4-1.9c-0.3-0.3-0.5-0.7-0.8-1
			c-0.3-0.3-0.6-0.7-0.9-1c-0.2-0.2-0.3-0.3-0.5-0.5l-0.4-0.4c-0.3-0.3-0.6-0.6-0.9-0.9l-1.7-1.7c-1.1-1.1-2.2-2.2-3-3.1
			c0.3,0.7-4.6-4.6-4.4-4.1c-1.1-1.2-2.6-2.5-2.6-2.6c0.8,0.7,2.8,2.8,3.1,2.9c-1.6-1.6-2.4-2.5-4.2-4.4c-0.8-0.6-0.9-0.6-0.7-0.2
			c-0.7-0.7-1.4-1.4-2.1-2.2c-1.8-1.6-2.6-2-5.1-4.4l0.1-0.1c-3-3-2.4-1.9-4.1-3.6c0.9,0.7-0.3-0.5-2-2.3c-0.4-0.2-2-1.7-1.1-0.6
			c1.6,1.7,1.6,1.5,2.7,2.5c-0.1,0,0.6,0.7,1.2,1.4c0.4,0.3,0.9,0.7,2.2,2.1c-1.8-1.5-3.3-2.6-4.4-3.3c0.8,0.9,1.5,1.5,2.1,2.2
			c0.8,0.6,0.5,0.1,1.9,1.5c0.2,0.5-0.8-0.5-0.7-0.2c1.9,1.9,1.8,1.5,4.4,4.1c0,0.1-0.2,0,0.3,0.5c0.1,0,1.7,1.5,2.2,2.1
			c0.8,0.4,3.1,2.7,5.5,4.8c0,0.2-0.2,0.2-0.7-0.1c1.4,1.4,0.4,0.2,1.8,1.7c0.1,0.2,0.6,0.8,0.2,0.6c1.3,1.4,0.4,0.2,1.8,1.7
			c-0.4-0.3-1.3-1,0.3,0.6c1.3,1.2,0.3-0.2,2.7,2.4c0.5,0.1,3.7,3.3,4.6,3.9c-0.5-0.6-3.4-3.4-3.8-3.9c1,1,2.1,2,3.2,3.1
			c0.3,0.3,0.5,0.5,0.8,0.8c0.3,0.3,0.6,0.6,0.9,0.9c0.6,0.6,1.2,1.3,1.7,2c2.2,2.7,3.7,5.4,4.6,7.3c-0.1,0,0.7,1.9,0.7,2
			c0.5,1.7,0.5,1.4,1.1,4.1c-0.1-0.3-0.6-2.7-0.6-2c-0.4-1.5-0.6-2.2-0.5-2.1c-1.2-2.2-2.9-4.3-4-5.1c1.8,3.6,1.7,5,1.6,5.3
			c-0.2,0.3-0.8-0.3-1.2-0.5c0,0.1-0.2-0.3-0.4-0.8c-0.2-0.4-0.4-0.9-0.5-0.9c1,2.3,1.1,3,1.1,3.4c0,0.4-0.1,0.5,0,1.4
			c-0.7-2.4-1.6-4.2-2.6-5.9c-1.1-1.7-2.3-3.5-4.2-5.6c-0.4-0.3-0.8-0.6-1.1-0.9l-3.5-3.5c0.3,0.3,0.5,0.4,0.3,0.1
			c-0.5-0.5-0.8-0.8-1.3-1.1l-1.9-1.9c0.1,0.1,0.3,0.2,0.6,0.5c2.7,2.8,6.3,5.7,4.8,3.8c-0.2,0-1.5-1.5-2.6-2.6l-0.1,0.1
			c0.5,0.6,1.3,1.2,1.7,1.7c-0.7-0.6-1.3-1-1.9-1.5c-0.4-0.4-0.5-0.5-0.9-0.8c-1.1-1.1,0.5,0.3-0.3-0.6c-0.3-0.2-1.4-1-1.9-1.3
			l-31.5-31.5c0.9,0.6,1.9,1.3,2.7,1.8c1.5,1.5,2.4,2.4,3.4,3.5c-1.8-2.3-7-7.3-9.5-10.2c-2.1-1.5-9-7.9-14.4-13.1
			c0,0-0.1,0-0.1,0.1l-7.4-7.4c0,0,0.1,0.1,0.1,0.1c-0.3-0.3-0.6-0.5-0.8-0.7l-2.3-2.3c0.4,0.1,1.5,0.8,3.4,2.7
			c-0.6-0.8-0.5-0.9-0.2-0.7c-2.8-2.9,0.3-0.4,0-0.9c2.2,2.3-1.3-0.8,1.5,1.9c0.4,0.3,1,0.8,1.8,1.6c-1-1.3,0.1-1,1-0.2
			c-1-1.2-0.1-0.3-2-2.3c0.3,0.2,0.7,0.6,1,0.7c-1.1-1.1-1.4-1.5-1.6-1.9c0.6,0.5,1.3,1.1,3.1,2.9c1.8,1.3,0.2-0.3,1-0.1
			c-1.7-1.5-3.2-3.1-4.7-4.7c1.1,1.2-0.2-0.4,1,0.7c0,0.1,0.1,0.2,0.8,0.9c0.3,0.2,1.8,1.7,0.5,0.3c-0.1,0-0.2-0.1-0.9-0.8
			c0.9,0.6,0.1-0.2,0.3-0.3c-2.5-2.2-0.1-0.5-2.4-2.7c-0.8-0.6-2.2-2.1-3-3c-0.1,0.1-0.4,0-1.5-1.1c-0.6-0.7-0.4-0.8,0.2-0.2
			c-1-1.1-2.4-2.6-3.4-3.5c-0.1,0.1,0.4,0.6-0.2,0.2c-1.4-1.6-1.6-1.5-2.3-2c-0.8-0.8-2.9-3-1.6-1.9c-2.3-2.3-3-3.1-3.3-3.6
			c0.9,0.9,1.4,1.3,1.4,1.2l-6.3-6.6c0.1,0,1.1,1.1,0.9,0.8c-1.5-1.6-3-2.9-3.1-2.9c-1.1-1.3-4.3-4.4-4.5-4.9
			c-1.4-1.3-2.3-2.2-3.9-3.9c-0.5-0.3-0.3,0.1-0.6-0.2c-2.2-2.2-3.6-3.7-5.1-5.2c0.5,0.5,1,1,0.9,0.8c-1.4-1.3-1-1.1-1.7-1.8
			c0,0.3-2.7-2.4-3.7-3.2l-5.1-5.2c0.1,0.1-0.1,0-0.3-0.2c-0.3-0.2-0.6-0.6-1.1-1c-0.5-0.4-0.9-0.9-1.3-1.3
			c-0.4-0.4-0.7-0.6-0.8-0.7c-1.1-0.8-0.6-0.2-1.3-0.7c-1.8-1.5-4.7-2.9-2.3-1.7c-1.6-0.9-2.5-1.3-3.4-1.7c-0.9-0.4-1.7-0.7-3.1-1.2
			c0.6,0.3,0.3,0.3-0.4,0.2c-0.3-0.1-0.8-0.1-1.2-0.2c-0.4-0.1-0.9-0.1-1.2-0.2c-0.6-0.2-1.1-0.3-1.6-0.3c-0.5,0-0.8-0.1-1.2-0.2
			l2.1,0.2c-0.6-0.2-2.5-0.4-2.1-0.5c1.1,0.2,1.3,0.2,1.5,0.2c0.2,0,0.3,0,1.2,0.2c0.3,0.2-1.3-0.2-0.7,0c0.9,0.2,1.5,0.3,1.9,0.4
			c0.4,0.1,0.6,0.1,0.8,0.1c0.4,0,0.9,0,2.8,0.7c-1.9-0.8-2.5-0.9-4.1-1.3c1.6,0.4-0.1,0.1-0.7,0c-0.4-0.2-1.9-0.5-3.2-0.7
			c-1.3-0.2-2.3-0.3-1.7-0.4c2.1,0.1,1.3,0.2,1.4,0.3c2.2,0.2,3.2,0.4,4.3,0.5c1.1,0.2,2.5,0.4,5.5,1.8c-0.7-0.5-0.4-0.3,0.3,0
			c0.7,0.3,1.7,0.9,2.4,1.2c-0.7-0.4-1.1-0.7-1.7-1c-0.6-0.3-1.2-0.6-2.3-1c-0.3-0.3,1.7,0.5-0.6-0.5c-0.3,0.1-0.8-0.1-2.2-0.4
			c-0.7-0.3-1.3-0.5-2-0.6c-0.7-0.2-1.4-0.2-2.1-0.3c-1.5-0.1-3.1-0.2-5.1-0.3c0.6-0.1,1.5-0.1,2.5-0.1c1,0.1,1.9,0.1,2.5,0.2
			c-0.4-0.2-3.4-0.4-3.6-0.5c0.9,0,2,0.1,3,0.2c1.1,0.2,2.1,0.3,2.7,0.5c0.6,0.1,0.8,0.2,0.4,0.1c-0.5-0.1-1.7-0.4-3.9-0.7
			c-0.7-0.1-1.4-0.2-2.2-0.2c0.2,0.1-0.2,0.1-1.4,0.1c-2.8,0.1-3.7-0.1-5.7,0.4c1-0.2,3.6-0.4,1.4-0.1c-0.1,0-0.5,0-1,0.1
			c-0.5,0.1-1.1,0.2-1.7,0.3c-1.2,0.3-2.4,0.7-2.7,0.9c0.7,0-0.9,0.7-4.2,2.5c-0.7,0.2-0.9,0.3-0.8,0.1c0.1-0.2,0.5-0.5,1.1-1
			c-1.1,0.5-1.5,0.8-1.8,0.9c-0.3,0.1-0.4,0.1-0.8,0.4c0.2,0,0,0.3-0.5,0.7c-0.5,0.4-1.3,1-2,1.7c-0.8,0.5,0.7-0.9-0.3-0.4
			c-0.9,0.8-1.7,1.5-2.1,1.9c-0.3,0.4,0.1,0,0.6-0.4c0.4-0.4,0.9-0.8,0.6-0.4l-1.3,1.3c-0.4,0.4-0.8,0.8-1.1,1.3
			c0,0.3,0.1,0.2,1.2-0.8c-0.2,0.3-0.5,0.7-0.8,1.1c-0.3,0.4-0.6,0.8-0.8,1.2c-0.5,0.9-1,1.7-1.3,2.4c-0.3,0.7-0.5,1.2-0.4,1.3
			c0.1,0.1,0.3-0.2,1-1c-1.2,1.9-1.5,2.8-1.8,3.7c-0.2,0.4-0.3,0.9-0.5,1.6l-0.4,1.2l-0.4,1.6c-0.1,0.5,0.1-0.2,0.4-1
			c0.2-0.8,0.5-1.7,0.5-1.6c-0.2,0.5-0.2,0.7-0.1,0.7c-0.3,0.9-0.4,1-0.6,1.9c-0.2,1.4,0.2-0.1-0.4,2.4c-0.1,0,0.1-0.8-0.1,0
			c-0.2,0.9,0.2,0,0.5-1.1c0.1-0.4,0.1-0.7,0.2-1.1c0.1-0.5,0.2-1.1,0.5-2c-0.1,0.7-0.2,1.3-0.4,2.1c-0.1,0.7-0.3,1.5-0.5,2.8
			c-0.3,0.9-0.2-0.2-0.6,1.7c-0.3,1.2-0.3,2.5-0.8,4c0.3-2.1,1-5.3,1.2-6.9c-0.2,1-0.4,1.3-0.4,1.1c0.2-0.9,0.4-1.9,0.5-2.8
			c0.1-0.9,0.1-1.5-0.3-0.9c-0.2,0.9-0.3,1.4-0.4,1.9c-0.1,0.5-0.2,1-0.3,1.7c0.6-2,0.1,0.3,0.6-1c-0.2,0.8-0.4,1.4-0.4,1.7
			c0.8-2.1-1.5,7.7-0.4,4.1c-0.6,2.3-1,4.1-1.1,5.2c0.4-1.5,0.5-2.7,0.8-3.4c-0.4,2-1.3,7.1-0.4,3.5c-0.6,2.6-0.3,2.3-1,4.6
			c-0.1,0.6,0,0.6-0.3,1.7c-0.5,1.9-1.3,5.2-1.7,6.2c0.4-2-0.1,0-0.3,0.5c0.7-3,1.2-4.6,1.5-6.2c-1,4.4-2.3,8.9-2.5,10.2
			c0.3-0.8,0.9-3.9,1-3.4c-0.5,1.9-0.1,0.5,0.1,0c-0.7,2.9-1,4-1.7,6.8c0.6-2.3-1.6,5.1-0.8,1.6c-0.4,1.8-0.4,1.4-0.6,2.2
			c0.6-1.2,0.6-0.7,1.4-3.2c-0.8,3.2-1.3,5.2-1.7,6.8c0.3-1.4,0.3-1.4,0.3-1.7c0.2-0.9,0.8-2.9,0.9-3.4c-0.5,1.9-0.4,1-0.9,2.8
			c-0.2,0.7-0.1,0.5-0.2,1.2c-0.4,1.5-0.2,0.1-0.5,1.1c-0.2,1-0.9,3.2-1.2,4.5c0,0.1,0.1-0.1,0,0.6c-0.6,2.4-0.1-0.6-0.6,1.6
			c-0.2,1.5,0.5-0.5,0.8-1c-1.4,5.6-1.9,7.5-2.1,9.7c-0.3,1.1-0.5,1.9-0.6,2.2c0.3-1.5,0.2-2-0.2-0.7c-0.8,3.8,0.4,0,0,2.4
			c-0.9,3.2-1,2.1-2,6.1c0.2-0.3,0.5-1.5,0.7-1.6c-0.7,3.1,0.7-1,0.1,1.9c-0.7,2.3-0.3,1-0.5,2.3c-1,3.8-0.7,1.7-1,2.1
			c0.5-2,0.4-2.3,0.3-2.3c-0.7,2.8,0.1,0.3-0.3,2.3c-0.1,0-0.4,1.5-0.4,1.1c0.6-2.3-0.3,0.4,0.2-1.8c-0.7,2.9-0.7,2-1.3,3.9
			c0.4-1.9,0.3-1.9,0.6-3.5c0.7-2.5,1.4-4.9,1.5-6.3c-0.6,2.8-1.4,5.2-1.8,7.4c-0.1,0,0.3-1.6,0.1-1.2c-0.5,2.1-0.4,1.4-0.4,1.1
			c-0.3,1-0.6,2.9-0.8,3.4c0.2-1.3-0.2-0.6-0.6,1c-0.1-0.1-0.2-0.2,0.2-1.8c0.1,0.3,0.3-0.4,0.7-2.2l-0.2,0c-0.3,1-0.3,1.5-0.4,1.7
			c0.5-3.2,1-2.1,1.7-5c0.2-1.5-0.9,2.1-0.6-0.2l0.4-1.7c0.3-0.6,0.2,0.3,0.7-1.6c-0.4,0.6-0.2-0.8,0.3-3c-0.2,0.7-0.3,1.3-0.4,1.1
			c-0.9,3.9,0.4-0.5-1.4,6.3c-0.1,0.2-0.5,1.6-0.5,1.1c-0.5,2.5-1.1,5.8-1.6,7.4c0.3-1.2,0.7-4.2,0.7-3.4c0.6-2.2-0.1-0.2,0.3-1.7
			c0.6-2.3,1.3-5.7,1.7-7.4c-1,4.2-2.7,11.9-3.1,11.8c0-0.3,0.5-3,0.1-1.8c-0.3,1.6,0,1.3-0.3,2.9c-0.4,1.5-0.6,1.9-1,3.3
			c-0.1,1.3-0.7,4.3-0.8,5.8c-0.4,1.2-1,3.9-1.1,3.3c0.5-2,0.9-4.4,0.4-2.9c0.1-0.1-0.2,1.2-0.4,2.3c-0.1-0.1-0.2,0.1-0.3,0.5
			c0.9-4.3,2.6-10.3,2.6-12c-1.2,5.1-2.9,13.2-3.6,13.5c-0.5,1.9-0.2,1.7-0.6,3.5c0,0.4,0.8-2.4,0.4-0.5C67.5-21,67-19.7,67-19.3
			c0.6-2.1,0.2-0.1,0.7-1.6c-0.4,2.2,0.1-0.6-0.6,2.3c-0.4,1.2-0.6,1.3-1,2.1c0,0.7-0.8,2.6-1.1,3.9c0,1.1-0.4,1.7-1,4
			c0,0.9,0.6-2,0.9-2.8c-0.3,1.4,0.1,0.6-0.3,2.3c-0.7,2.1-1.2,2.6-1.8,4.3C63-5,63.2-5,63.1-4.6c-0.1,0.1-0.7,1.8-0.7,2.2
			c0.3-1.1,0.1,0.4-0.1,1.2c-0.2,0.9-0.5,1.9-0.7,2.8c0-0.1-0.2,0.6-0.3,0.5c-0.6,2.7-0.3,1.6-0.6,2.3c0.2-0.2-0.8,3.1-0.6,2.9
			c0.3-0.8,0.4-1.8,0.5-1.7C60,7.9,59.8,8.2,59,11.8c-0.4,0-1.6,4.9-2.5,7.8c0.6-1.5-0.1,1-0.6,2.9c0.2,0.3-0.9,4.5-1.1,5.8
			c0.4-1.2,0.8-3.8,1-3.9c-0.3,1.8-0.7,4-1.2,6.3l-0.3,1.7L54,34.4c-0.1,0.7-0.2,1.4-0.2,2.1c-0.1,0.7-0.1,1.4-0.1,2.1
			c0-0.4-0.1-0.2-0.1,0.3c0,0.5,0,1.4,0,2.3c0.1,1.9,0.5,4.1,0.7,4.6c-0.1-0.8-0.4-3-0.3-2.9c0.1,0.5,0.3,1.9,0.6,3.4
			c0.3,1.5,0.8,2.9,1.3,4.3c0-0.4-1-3.3,0.2-0.1c-0.3-1-0.6-1.8-0.8-2.5c-0.2-0.7-0.4-1.2-0.4-1.6c0.3,1.1,0.9,2.5,0.9,2
			c-0.5-1.9-0.8-3.8-1-5.8c-0.2-2.1-0.2-4.2,0-6c0.1-0.4,0.3-1.4,0.5-2c0.2-0.6,0.2-0.7,0.1,0.7c-0.3,2.1-0.3,2.5-0.4,4.1
			c0.1-0.1,0.3-3.1,0.4-2c0,0.7,0,0.8,0,1.4l-0.1,1.9c0,0.6,0,1.2,0.1,1.5c-0.1-1.6,0.1-0.4,0.2,0.7c-0.1-0.3-0.1-0.2-0.1,0.2
			c0,0.4,0.1,0.9,0.2,1.6c0.1,0.7,0.3,1.5,0.5,2.2c0.2,0.7,0.4,1.5,0.6,2c0.4,0.6,0-0.5-0.2-1.6c-0.3-1.1-0.4-2.3-0.2-1.8
			c0.5,2.6,1.4,4.8,1.7,5.2c-0.3-0.9-0.4-1.3-0.6-1.6c-0.2-0.3-0.3-0.7-0.6-1.5c-0.2-0.8-0.3-1.4-0.4-1.9c-0.1-0.5-0.2-0.9-0.2-1.4
			c0.1,0.7,0.4,1.5,0.6,2.3c0.3,0.8,0.5,1.6,0.8,2.2c-0.6-2.1-0.6-2.8-0.5-2.6l0.3,1c0.2,0.5,0.4,1.2,0.7,2c0.5,1.6,1.4,3.4,2.4,5
			c0.5,0.8,1,1.5,1.4,2.2c0.5,0.6,0.9,1.1,1.2,1.5c-0.5-0.6-0.4-0.6-0.3-0.6l-0.7-1c-0.2-0.3-0.4-0.6-0.6-0.9
			c-0.3-0.5-0.6-1-0.9-1.5c0.8,1.4,2,2.9,2.7,3.7c0.4,0.7,0.9,1.5,1.4,2.3c-0.5-0.5-0.9-0.9-1.2-1.2c-0.3-0.3-0.5-0.5-0.8-0.8
			c-0.5-0.5-1-1.1-1.9-2.6c0.1,0.1,0.7,0.9,0.8,1.1c-1.6-2.5-2.5-4.4-2.8-4.8c-0.1-0.2-0.1,0,0.1,0.6c0.1,0.3,0.3,0.7,0.6,1.3
			c0.3,0.5,0.7,1.2,1.1,1.9c-0.1,0.1,0.5,1.2,1.5,2.4c0.5,0.6,1,1.3,1.6,1.9c0.5,0.6,1.1,1.2,1.5,1.6c0.3,0.1-0.4-0.9,1.2,0.7
			c1.1,1.1,2.5,2.2,4.2,3.2c1.6,1,3.4,1.9,5.2,2.6c1.7,0.6,3.4,1.1,5.2,1.5c0.8,0.2,1.6,0.3,2.3,0.4l1.9,0.2
			c0.3-0.1,0.6-0.2,1.5-0.3c0.9-0.1,2.4-0.2,4.9-0.7c-0.9-0.1,0.8-0.5,0.5-0.7c1.8-0.4,2.1-0.5,3.4-0.9c0.1,0-0.1,0.1,0.6,0
			c1.1-0.4,3.4-0.9,5.7-1.4c0.3-0.2-0.2-0.2-1.2,0c2.1-0.5,0.9-0.4,2.2-0.8c0.7-0.2,2.2-0.4,2.8-0.7c-0.9-0.1-0.1-0.8-0.9-0.9
			c-0.1,0-1.3,0.2-1.2,0.1c0.1,0,1.9-0.4,1.7-0.5c-0.1,0-0.2,0.1-0.3,0.1c-0.2,0-0.5,0.1-0.8,0.2c-0.6,0.1-1.2,0.2-1.2,0.2
			c-0.2,0-0.3,0-0.4,0l19.1-4.7c0,0,0,0,0,0c-2.6,0.7-2.9,0.9-5,1.5c-1.3,0.3,0.4-0.4-1.8,0.2c0.2,0.3-0.3,0.7,1.9,0.4
			c-1.1,0.4-2.4,0.5-2.8,0.8c2.1-0.4-0.4,0.3-1.6,0.7c3.4-0.6,5.7-1,2.5,0.1c0.7-0.2,1.3-0.3,1.1-0.2c0,0.2-3.4,0.9-3.3,1
			c0.8-0.2,2.9-0.8,2.8-0.7c-1.5,0.4-0.8,0.4-2.2,0.7c-2.3,0.6-2.7,0.5-4,0.9c1.9-0.4-0.3,0.3-0.5,0.4c1.6-0.4,4.2-1.2,5.1-1.2
			c-2.2,0.6-3.5,0.9-4.5,1.3c0.2,0,3.3-0.7,1.8-0.3c-1.3,0.3-1.7,0.3-3.4,0.8c0.6,0,1.2-0.2,0.6,0.1c-3.1,0.7-3.2,1-5,1.5
			c-0.8,0.1-0.6,0-0.6-0.1c-1.4,0.4-2.3,0.4-3.4,0.8c2.9-0.6,0.1,0.4-0.4,0.6c0.7-0.2,1.6-0.4,1.7-0.4c0.3,0.1-1.7,0.5-0.5,0.4
			c-2.4,0.6-3.6,1.1-5.6,1.5c1.3-0.2,1.7-0.3,1.8-0.1c-1,0.2-1.6,0.4-2.2,0.6c-0.3,0.1-0.6,0.2-0.8,0.2c-0.3,0.1-0.7,0.2-1,0.3
			c1.4-0.3,1.9-0.5,2.5-0.6c0.5-0.1,1-0.2,1.6-0.4c-0.6,0.2-1.5,0.5-2.5,0.8c-0.5,0.2-1.2,0.3-1.9,0.5c-0.7,0.2-1.5,0.3-2.3,0.4
			c-0.8,0.1-1.7,0.2-2.6,0.2c-0.9,0-1.8,0.1-2.8,0c-1.9-0.1-4-0.4-6-0.9c1.2,0.3-0.2,0,0,0.1c2.1,0.5,4.2,0.8,6.1,0.9
			c1,0.1,1.9,0,2.9,0c0.9-0.1,1.9-0.1,2.8-0.3l1.4-0.2l1.4-0.3l0.7-0.2l0.6-0.1l1.2-0.3c1.6-0.4,3.3-0.8,5.2-1.2
			c-0.1,0.2-2.9,0.8-3.3,1c1.8-0.4,4.4-1.3,6.2-1.6c-1.5,0.5,0.7-0.1,0.6,0.1c-2.4,0.7-4.9,1.4-7.3,2c-0.7,0.2-1.3,0.4-1.9,0.5
			c-0.3,0.1-0.6,0.2-0.9,0.3l-1.1,0.3c-0.7,0.2-1.4,0.3-2,0.4c-0.6,0.1-1.2,0.2-1.7,0.3c0.3,0,1.6-0.2,1.4-0.1
			C85.8,73,82,72.4,80,72.3c1.1,0.3,1.6,0.4,1.4,0.5c3.2,0.5,6.4,0.5,9.6-0.1c0.8-0.1,1.6-0.3,2.5-0.5l2-0.5c1.3-0.3,2.6-0.7,3.9-1
			c5.2-1.3,9.9-2.5,13-3.2c0.3-0.3,2.6-0.7,3.4-1c-0.2,0-0.2-0.2,1-0.6c0.7-0.1,0.7-0.1,0,0.2c2.1-0.5,1-0.4,2.8-0.9
			c1.2-0.3,1.9-0.4,2.9-0.6c0-0.3,2.3-0.7,3.9-1.2c-2.3,0.6,0.2-0.1-0.6-0.1c3.4-0.8,5.3-1.4,6.7-1.9c1.6-0.4,0.6,0,1.8-0.3
			c1-0.4,0.9-0.3,3.4-0.9c1.3-0.4,2-0.6,2.2-0.8c-0.2-0.1-1.8,0.3-1.2,0c1.6-0.5,2.8-0.7,3.9-1.1c0.2-0.1,0.3-0.4,1.6-0.8
			c-0.5,0.3,1.8-0.4,2.9-0.6c1.9-0.7-0.3-0.2,2.1-1c0,0-0.2,0.2-0.5,0.3c3.4-0.8,5.3-1.5,7.3-2c-0.7,0.1-0.4,0-0.1-0.2
			c-2.6,0.6-1.9,0.1-0.1-0.4c1.4-0.4,2.7-0.5,3.4-0.8c-0.9,0.2-2.7,0.6-3.4,0.7c2.6-0.7,0.3-0.3,2.2-0.8c2.6-0.6,4.9-1,8-1.8
			c-0.8,0.3,0.5,0-0.5,0.4c1.1-0.3,1.3-0.3,2.3-0.5c0.8-0.3-0.2-0.1,0.5-0.3c1.1-0.2,3-0.7,3.4-0.7c-0.4,0.2-2,0.7-2.8,0.8
			c-1,0.3,0.7,0,1.2,0c-0.7,0,0.8-0.4,2.8-0.9c0.3-0.3,0-0.1-0.1-0.4c-1.6,0.4-2.7,0.6-2.3,0.4c1.1-0.3,0.7-0.1,2.3-0.5
			c-0.3,0-1.2,0.2-1.8,0.2c-0.5,0.2-1.4,0.3-2.8,0.7c0.2,0.1,0.2,0.2-1.7,0.6c0.5-0.2,0.5-0.2-0.1-0.2c1.4-0.3,1.8-0.4,2.2-0.6
			c-0.4,0.1-1.1,0.3-1.1,0.2c0.9-0.2,2.1-0.5,2.3-0.6c-2.6,0.7,0.3-0.2-1.2,0.2c-0.5,0.2-2.5,0.6-2.3,0.4c2.1-0.5,1.8-0.6,4.5-1.2
			c-0.5,0.3,1.7-0.2,2.9-0.5c-1.5,0.4-3.3,0.8-3.4,0.9c3.4-0.8,4.1-1.1,7.4-1.8c0-0.1,0.1-0.3-0.7-0.1c2.6-0.6,0.7-0.3,1.7-0.6
			c2.8-0.7,3.2-0.6,4.6-0.8c0.1-0.2,1.7-0.5,2.3-0.6c-1.7,0.4-1.9,0.6-4.5,1.2c2.3,0,2.6,0.4,2.7,0.8c1.2-0.2,2.1-0.7,2.8-0.7
			c-0.4,0.2-0.6,0.3,0,0.2c1.5-0.6-2.7,0.1-0.2-0.8c1-0.1,2.6-0.2,1.3,0.3c3.9-1.2-2.6-0.2,0.3-1.2c3.3-0.9,5.4-1.6,7.8-2.4
			c-2.4,0.6-4.1,1.1-6.2,1.5c0,0.1-1.6,0.5-3.4,1c0.6-0.3-1,0-1.2,0c2.6-0.6,0.6-0.2,1.7-0.5c1.5-0.3,3.6-1,5.1-1.2
			c0-0.1-0.2-0.1-0.6,0c1.4-0.3,1.2-0.4,2.8-0.7c0.1,0.1,0.4,0.1,1.2,0c1.5-0.4,3.7-0.7,6.3-1.4c0.4,0.1-0.5,0.4-0.5,0.5
			c1-0.2,1.8-0.4,2.3-0.5c0.2-0.2,0.4-0.4-0.7-0.3c4.7-1.3,7.3-2.2,11.2-3.3c0.8-0.1-0.4,0.2,0.6,0.1c2-0.5,2.7-0.7,4-1.1
			c1.5-0.2,1.1,0-0.5,0.5c-1.9,0.3-1.3,0.3-4.5,1.1c-1.1,0.8-0.1,0.9-4.8,2.2c-0.3,0,1-0.3,0.5-0.3c-2.3,0.6-1,0.4-3.4,0.9
			c-0.3,0.5-2.3,1.2-5.4,2.3c1.7,0-2,1.3-5.4,2.4c0.3,0.2-0.7,0.9-3.7,1.8c1.7-0.5,3.2-0.7,1.7-0.3c0,0-1,0.2-1.1,0.3
			c1.5-0.3,3.8-0.9,4.6-1c0.4,0-1.1,0.4-1.1,0.4c3.3-0.9,3.1-1,4.4-1.5c1.6-0.3,1.2-0.1,0.7,0.2c1.8-0.5,1.8-0.4,2.9-0.6
			c0.4-0.2,0.1-0.3,1.6-0.7l2.9-0.6c0.8-0.3,1.8-0.7,2.7-1.1c1.7-0.3,2.3-0.6,4-1.1c3.6-0.7,3.3-0.2,9.2-1.7
			c2.4-0.8,4.9-1.4,7.3-1.9c2.1-0.6,2-0.9,4.4-1.6c-0.5,0.4,4.6-1,2.4-0.2c2-0.5,2.3-0.4,2.4-0.3c0.8-0.3,1.9-0.6,3-0.8
			c0.7-0.2,1.3-0.4,2-0.6c0.7-0.2,1.4-0.5,2.2-0.8c2.9-1.1,5.8-2.9,8-5c2-1.6,0.2,0.2,0.8-0.2C256.2,27.9,256.7,27.5,257.1,27
			L257.1,27z"/>
	</g>
	<path class="st7" d="M949.9,194.8l5-5l-5-5"/>
	<circle class="st8" cx="195.5" cy="45.3" r="5.5"/>
	<circle class="st9" cx="96" cy="156.8" r="10"/>
	<circle class="st10" cx="717.5" cy="24.3" r="4.5"/>
	<circle class="st11" cx="898" cy="84.8" r="7"/>
</g>
</svg>
