<svg xmlns="http://www.w3.org/2000/svg" width="374" height="335" viewBox="0 0 374 335">
    <path fill="#EFFAFF" fill-rule="evenodd" d="M299.315.623c-.182.057-2.115.042-3.47.05 9.13.157 11.043.192-2.312.139 2.988.101 8.542.097 14.072.094h3.294c-8.966-.16 7.583-.043 10.416-.14.607.038 1.198.076 1.147.14 3.485-.147 5.239.023 9.277 0 1.622-.015.101-.081-1.16-.094 1.574-.13 5.635.01 4.433.104.985-.03 2.473-.05 4.29-.064.64-.002 1.312-.007 2.017-.01.677-.01 1.428-.01 2.358.046 1.766.038 3.61.31 5.42.688 1.893.38 3.68.993 5.304 1.713 1.675.614 3.625 1.484 5.459 2.682 2.366 1.467 4.491 3.34 6.14 5.029-2.076-2.008-5.303-4.51-3.067-2.502-3.557-2.702-4.398-3.016-5.845-3.897l-.429-.193c3.524 1.927 5.944 4.12 6.488 4.774 4.051 3.7 6.985 8.481 8.486 13.872.824 2.672 1.07 5.6 1.14 8.448.005 2.5.007 5.081.013 7.784.05-1.015.08-2.627.096-4.601.002-.985.007-2.063.01-3.2-.064-1.26-.05-2.739-.28-4.155-.307-2.896-1.254-5.832-2.391-8.492-1.155-2.672-2.732-4.951-4.142-6.796-1.587-2.06.371.096 1.122.876 1.235 1.652 1.513 2.573 1.352 2.436 1.524 2.591 2.07 4.043 2.544 5.352.5 1.302.86 2.518 1.34 4.929.518 2.91-.038-1.013.442 1.337a16.55 16.55 0 0 0-.763-3.555c-.245-.77-.372-1.27-.528-1.845.212.152.765 2.076 1.12 4.02.13.982.277 1.961.325 2.723.02.761.02 1.302.005 1.4.182-1.4.293 9.855.212 13.056a80.904 80.904 0 0 1-.05 1.791c.002.094.008.472.005 1.678-.015 6.558-.147 11.948-.094 17.46-.123 4.47-.053-5.563-.232-3.507.04-4.586.035-6.738-.048-10.453v.02c-.013 15.296-.162 24.122.048 45.326-.104 5.363-.134 12.908-.14 18.955l-.002.81.009-.096c.037-.443.07-.926.083-1.968v-.115.346c-.057 10.622-.182 34.241-.228 43.291l-.002.407c0 2.295-.09.44-.099-1.349v-.05l-.009.74c-.243 29.95-.414 51.235-.672 82.63l-.014 1.754c.104.208.15-.944.142-3.487.128 1.167-.013 4.941 0 6.971.017 1.58.077.194.09-1.054v-.036l-.001.672c-.023 11.092-.057 26.65-.087 41.522-.008 3.802-.018 7.558-.025 11.187-.008 1.812-.015 3.594-.02 5.332-.033 1.766-.11 3.865-.463 5.662-1.221 7.12-4.908 12.516-8.22 15.702-1.231 1.387-2.22 2.218-3.619 3.336-2.752 2.083-1.375 1.41 1.104-.596-1.327 1.31-3.24 2.576-5.046 3.555-.936.426-1.816.852-2.606 1.148-.68.222-1.268.415-1.722.562-1.584.605-4.81 1.449-8.332 1.452.866-.232 2.524-.169 4.249-.553 1.415-.187 2.864-.6 4.01-.953.36-.152 1.061-.416 1.797-.71l.303-.12c1.332-.645 2.644-1.312 2.162-1.162 3.53-1.883 6.08-4.412 7.586-5.96.206-.248.483-.583.796-.976.64-.718 1.362-1.688 1.999-2.657 1.296-1.924 2.206-3.843 1.948-3.475l.988-2.104c.367-.908.804-1.99 1.188-3.213.672-2.113 1.088-4.702 1.194-7.246l.016-.51v.025c-.021 1.763.01 2.872.186-.47l.012-.214c-.27-8.36-.789-4.926-1.074 1.246-.086 1.507-.026 1.335.02 1.345.023.005.043.058.035.39-.015.328-.119.937-.303 2.051.424-.748.442-5.309.622-5.032a27.139 27.139 0 0 1-3.073 12.966 27.997 27.997 0 0 1-7.158 8.792l-.469.374.13-.124c.695-.658 2.064-1.853 2.968-2.99 1.046-1.139 1.61-2.134 1.087-1.598 2.325-3.063 3.634-5.888 4.46-8.667.796-2.784 1.185-5.553 1.168-8.753.134-.826.08 1.396.011 2.763l-.006.118.027-.403c.205-3.4-.044-5.444-.116-6.952l-.007-.178c-.142.152-.028 4.274-.19 5.867-.016-1.087-.088-4.243-.093-7.5v-.694l-.01.196c-.121 2.193-.219-1.11-.35.79l-.012.176c.038-3.703-.076-3.586-.093-5.82-.084 2.219-.162-2.02-.14 3.5-.22-2.005.023-4.312 0-8.141-.191-.21-.138 3.931-.186 4.642-.268-1.848-.304-9.49-.42-15.11-.027 2.234-.049 4.143-.088 7.68l-.005.47v18.83c0 14.087-11.257 25.533-25.23 25.76l-.425.004h-80.5c.56.06 1.058.13 1.76.188-3.765-.051-7.171-.097-10.418-.143-3.548.09 5.11.072 3.48.234-3.536.035-4.228-.046-6.947-.043.95.226 6.924.183 5.776.373 6.422.053 10.525.198 15.064.327-4.554.056-9.906-.256-17.373-.233-1.385.259 5.996.162 5.787.375-3.723-.18-12.833-.137-13.902-.42 2.735.113 2.166-.074 5.792-.05-1.432-.144-11.389-.192-8.086-.372-1.393-.03-3.973-.084-6.955-.142-1.046.127-1.52.21-5.791.327 3.383.01 8.086.064 6.939.373 5.266.071 8.902.203 12.749.33-.147.007-.278.014-.395.022 2-.062 4.339.187 8.574.142l.461-.006v.22c4.443-.115 6.978.26 7.134 0 3.583.08-.873.248-3.582.221 1.434-.165-5.007-.237-5.947-.11-.005-.03-.278-.064-.735-.097-.455-.03-1.089-.069-1.811-.11-1.437-.076-3.216-.166-4.588-.238l.141.008c-.343.036-.466.08-.415.133-1.867-.096-5.807-.106-10.424-.094-.642-.104 2.221-.063 2.323-.137-1.949-.109-9.76-.22-10.424.046-1.378-.195-9.09-.132-10.417-.33-1.37.008-.983.089-1.16.142-3.32-.111-5.716-.19-5.794-.327-2.684.015-4.453-.008-5.792-.046-6.732.104 5.676.249-2.317.231 1.068.084 3.623.104 6.961.094-1.847.058-5.301.254-1.175.284.309-.215 5.972-.038 5.808-.188 3.376.044 3.547.046 6.939.094-3.159.155-5.43-.033-9.262.094 4.81.104 9.037.198 12.731.28 3.131-.041-.968-.173-2.307-.188 1.752-.067 9.161.016 9.258.177l-.004.01h-3.47c1.032.082 4.696.061 3.47.234 6.25-.152 9.853.023 13.894-.091-4.963.24 3.095.324 4.632.56 3.75.059.89-.152 4.64-.093.128.182 5.675.144 5.776.327 2.484.023 2.221-.066 2.323-.14.775.004 1.531.031 2.268.068 1.493-.027 3.617-.026 5.797-.022-.028.054-1.42.045-2.327.057.515.051 1.024.1 2.327.111-.524.061-1.363.065-2.242.053 1.2.055 2.345.068 3.44-.036 2.166.056 5.568.059 4.638.236-4.68-.127-2.02.069-3.477.142-3.692-.022-7.053-.06-8.1-.187 3.533-.036 4.213.048 6.94.045-1.97-.115-4.436-.146-7.018-.15l-.008.005c-.122 0-.23-.003-.328-.005-2.593-.001-5.289.022-7.702.01 2.357-.117-2.356-.228-6.519-.233h-.428c1.953.2 8.058.236 10.416.422-6.578-.03-8.844-.236-13.886-.328-2.57.117 2.446.142 2.307.234-3.267.038-2.992-.066-5.792-.049 1.163.054 8.304.242 8.115.049 2.807.182 5.028.388 11.579.42-4.152-.136.902-.215-1.16-.326.72-.115 5.943.14 1.16.14 4.927.05 6.219.248 10.424.327 3.85-.016-4.956-.163 1.147-.14.937.29 8.331.32 13.901.421-10.654-.02-26.655-.233-34.742-.515-4.644.188-12.026.01-16.2-.094.179-.114 3.924-.013 4.644 0 3.08-.302-5.597-.434-8.117-.655-1.354.008-.98.087-1.175.14-5.488-.322-10.02-.168-18.502-.28 1.844.168 6.838.14 10.408.328-1.422.142-3.972-.053-6.939 0 3.045.064 3.983.213 8.11.234-4.395.05-13.361-.115-18.534-.19-1.718.042-2.486.119-2.322.235 2.077.013 2.385-.043 1.175-.045.75-.14 2.466.043 4.617 0-1.148.06-3.116.091-3.47.187 2.633.013 4.352-.012 4.632-.093.581.162 1.688.218 1.147.42-6.155-.055-10.38-.088-16.195-.141 1.269-.052 3.168-.082 2.393-.22l-.086-.014h5.787c-2.216-.06-3.773-.254 0-.279-7.533-.297-24.578-.183-30.097-.33.887.264 17.305.3 24.31.47.101.203-7.935.025-4.63.187-2.585.132-7.136-.053-5.794-.236-4.652-.236-6.095.069-9.246-.045.636.167 1.706.318 6.264.327h.675c-3.328.1-10.346-.048-11.58-.188-2.726 0-3.403.082-6.953.049 7.576.248 15.465.205 23.165.42-3.437.105-8.102-.139-13.889-.093.607.035 1.198.076 1.148.14 6.226-.044 11.695.124 9.271.281.359.064 2.891.038 4.615.046.232-.097 2.046-.236 4.647-.046.39-.064 1.585-.155 2.682-.174a388.164 388.164 0 0 1-6.626-.184l13.894.224c-.498-.05-1.017-.101-2.324-.11 2.943-.138 7.795.105 10.43.165-.837.123-4.41.12-4.635.275-1.933-.17-5.598-.258-9.364-.34.25.02.45.051.575.096-5.11-.135 1.88.173-4.632.094-.493.099.798.124 1.16.188.629-.127 2.31-.163 8.109-.234.915.089 1.925.17 2.294.282 3.73-.04 2.416-.04 4.632.046 2.712-.016 4.991-.049 5.792-.14-.1-.122-4.306-.074-5.792-.142 4.284-.155 3.973-.079 10.437-.137-2.929-.135-9.226-.13-8.114-.424 4.695.013 3.57.261 8.114.282.904-.09 3.142-.08 5.217-.03 2.346.017 4.11.143 3.702-.038 3.14.024 4.3.076 4.795.154l.204.008c2.028.075 4.007.114 6.925 0-.96.132 1.622.121 1.145.233l-.27-.009a274.916 274.916 0 0 0-7.508-.036c.032.017.068.035.114.054 3.719.026 12.342.09 9.989-.057.361-.1 4.018.05 3.467.142-2.724.112-5.691-.008-9.247 0 3.601.165 11.824.147 13.886.373-2.345.069-12.963-.396-17.37-.094-4.9-.238-10.268-.24-18.519-.279.824.168 5.866.168 10.417.185.326.076-1.097.082-1.168.142 1.347-.007 2.062.01 2.315.046 3.808-.005-1.529-.13.496-.14h.651c2.712.013 7.38.35 9.292.094 4.322-.05 3.298.117 6.924.094-.965.137-2.906-.063-5.792 0 2.194.155 8.383.178 11.594.046.455.264 8.332.226 11.584.376 1.117 0 .89-.059 1.148-.094 6.628.035 9.984.464 16.21.236.526.147 4.501.16 6.955.23 2.213.135-8.397-.205-8.117.095-2.82-.117-8.888-.107-9.256-.325-1.176.028-1.203.106-3.483.091-.11.058.268.097 1.039.12l-18.397-.166c3.75-.165-3.447-.172-5.792-.236-2.59.04 1.806.131 4.14.142h.49c-10.503.046-23.423-.289-37.041-.142 4.811.406 18.401.165 26.632.422 3.457-.028-1.112-.1 0-.186 3.788.003 4.422.132 9.249.092.217.182-.945.018-3.47.048.101.183 6.275.122 9.27.188-1.752.068-5.095.073-8.107.094 1.392.208.361.17-3.47.233.164.086 3.917.03 4.614.094 2.388-.013 1.1-.172 3.485-.188 1.635-.018 2.296.004 2.712.035.302-.026.457-.056.172-.075-.2-.005-.392-.007-.567-.008a.091.091 0 0 1 .027-.01l-.307-.003c.144-.006.285-.01.423-.014 1.035-.117 7.264-.183 6.797.027-1.87-.023-1.969-.023-3.47-.046.998.064 2.539.124 4.334.172.677.007 1.418.009 2.241 0-.355.014-.568.027-.679.039 2.996.066 6.416.099 9.158.071 1.09.136 3.433.24 6.349.313l1.211-.007-.527.023a531.69 531.69 0 0 0 16.117.092c-1.21-.208-5.236-.055-8.102-.142 3.06-.238 7.546.087 12.741.048-1.737.043-2.346.086-2.198.126 3.527-.044 6.967.15 11.181.128-1.517.136-5.521-.045-6.983.027 1.926.038 4.196.07 6.1.093-.375.063-6.354-.066-6.955.096 7.295.206-12.334-.11-11.561.094-.116.089-4.324-.038-5.81-.048 3.34-.087 2.62-.117 3.485-.234 3.636.026 3.73.193 9.264.14-.131-.198-6.494-.145-9.264-.234-2.229.018-.915.18-4.63.142 1.316-.148.55-.19-1.606-.21h-.066c.055.011.052.026-.035.044-1.482-.017-2.826-.035-4.086-.051.163.112 3.35.102 4.631.17-5.12.1-9.76-.044-14.48-.2-.676.01-1.376.02-2.106.036-.728-.063-1.46-.12-2.216-.172a267.43 267.43 0 0 0-10.148-.132c-1.357-.007-.96-.086-1.147-.142-2.245.024-.506.198-2.971.113l-.514-.019c-1.685.178 5.188.008 3.485.185-3.533-.02-3.404-.02-6.954-.045 4.475.132 7.993.302 13.886.375-.526.229 2.62.218 1.162.376 4.22.045 9.588.109 16.224.185-5.294.089-12.623-.145-19.693-.14 4.798-.175-3.75-.144 1.162-.281-2.643-.008-10.022-.03-15.064-.048.18-.115 3.932-.01 4.648 0-.21-.145-4.584-.125-8.117-.138 7.417-.104 1.081-.116 4.647-.33-4.943-.09-10.116-.187-15.064-.279-1.733.122.294.125-3.462.231 1.812.066 6.924.097 3.462.236 4.653-.02 6.614-.03 10.417-.045 2.128.035-.693.048-2.307.045-1.31.01-.645.049 0 .049-13.917.17-23.396-.19-37.052-.236 1.658.137 7.17.116 9.27.236-4.279.111-13.181-.074-19.678-.143.977-.068 2.898-.099 5.791-.093-4.97-.054-12.24-.132-17.385-.186.46.216 8.806.112 9.271.328-5.405-.02-12.726-.112-16.21.045-2.49-.088-3.794-.193-8.102-.094-1.175-.142 2.582-.08 4.617-.093-4.19-.104-9.148.16-15.041.142-3.412-.394-24.232-.084-31.257-.328-18.142-.094-37.653-.193-57.884-.292-8.851-.024-17.842-.05-26.914-.079l-3.893-.012-3.904-.008c-1.4-.066-3.08-.048-4.59-.324-3.108-.384-6.143-1.353-8.973-2.703-5.704-2.665-10.457-7.228-13.565-12.712a32.32 32.32 0 0 1-3.32-8.848c-.625-3.045-.675-6.512-.637-8.918.007-5.278.017-10.552.025-15.808.015-10.517.03-20.97.043-31.282.038-19.724.077-38.918.11-57.021l.003-2.456.006.083c.112 1.798.117 4.86.18.153l.004-.242c.111-.457-.028 5.297.14 3.485.133-2.792.087-9.497-.094-10.454L.38 157.077c.222.687.361.738.513 0 .217 7.164.068 19.219-.141 26.746.13.168.116-3.289.187-4.664.179 2.41.03 11.062-.14 7-.095 1.113-.1 4.456-.093 8.133.052 3.223.278 2.156.236 7.762l-.004.365-.007-.101c-.16-2.015-.234 5.788-.317 9.246l-.004.16c.048 1.927.202 1.267.283 2.333C.88 215.311.8 214.85.8 216.39c.098 2.03.133.066.278 0-.074 1.719-.16 5.992.048 5.805-.03.828-.045 2.014-.048 3.493v1.164c-.27 1.776-.289-1.79-.468 0 .027 2.76.174 2.497.144 6.608l-.002.363h.232c-.028 1.086-.109 4.29.048 3.5-.063 1.941-.124 3.88-.093 8.134-.127.101-.094-1.947-.187 0 .04 1.34.06 3.109.048 5.809.19.995.155-3.646.227-5.675l.004-.131.01.063c.154 1.254-.111 8.097.073 6.97l.012-.075c-.096 5.921-.157.886-.326 0-.066.363-.04 2.929-.048 4.667.078.051.12-.87.141-2.332.116.183.013 3.941 0 4.65.04.735.236-.482.19 5.185l-.002.22.003-.226c.03-2.805.072-7.325.112-11.385l.005-.484v-2.503c0-1.27 0-2.422-.002-3.365-.018-1.533-.056-2.507-.121-2.556.29-8.047.232-24.543.141-36.048.073-3.121.147-1.725.233 0-.056-1.527-.018-1.827 0-3.484-.02-1.678-.059.32-.132.036l-.007-.036v-17.448c.154-1.195.07 3.624.09 5.82.19-1.97.203-1.145.375-3.5-.016 2.707.007 4.484.048 5.816.182-3.148.257-9.382.269-15.805l-.003-.066c-.014-.376-.028-.97-.034-2.4-.054.986-.08 2.931-.074 5.827-.132-2.352.028-3.88 0-8.164-.06 2.337-.132 4.325-.146 8.164-.146-7.813.084-9.368.252-8.934-.007-1.872-.018-3.688-.032-5.368l-.007.018-.006.338c-.007.463-.017.945-.029 1.443l-.01.376.001-.017v.017l.006-.158-.001.16-.003.125-.002-.111v-.01.01l-.003.111c-.128-.819-.015-2.347-.036-5.64l-.002-.36c.04.369.065.834.079 1.377.037-2.875.071-6.141-.041-7.503-.03.79-.052 1.757-.04 3.81l.002.31-.006-.211a156.723 156.723 0 0 1-.035-4.451.284.284 0 0 0-.033-.081l-.021-.022c.035-1.023.05-2.617.045-4.652.01.08.019.166.028.257.01-1.138.025-2.19.043-2.821.077-.217.094 2.357.075 4.64.106 2.243.166 5.579.221 9.1l.007.439.002-.038c.02-1.314.063-12.39-.14-11.577.159-2.868.002-7.484-.049-11.613.268-3.086-.098-8.109.049-12.804-.134-.954-.122 1.647-.236 1.167-.037 4.028.089 4.914 0 6.97-.08-.147-.031-3.662-.084-4.55l-.007-.08-.004.283-.132 8.701-.005.313c-.112-.123-.096-3.484-.094-6.464v-.52c-.2.078-.067 2.491-.13 4.444l-.009.204-.012-.088c-.166-1.404-.075-9.21-.254-10.312l-.014-.068c-.023-2.924.233 3.254.187-2.317.174 2.152.17 1.48.42 1.152v-.243c.007-2.196.108-4.59.232-.91-.052-7.14.038-11.036-.125-14.799l-.015-.306-.01.42c-.08 3.355-.089 8.506-.123 12.944l-.006.563-.003-.066c-.038-.757-.12-1.616-.136-.084l-.002.065-.001-.102c-.024-3.201-.042-13.473-.22-15.93l-.011-.15c-.09.117.073 4.34-.045 5.82-.07-2.724-.071-7.159-.091-11.102l-.004-.532.008.078c.14 1.63.155 7.563.354 4.726l.01-.154c-.065-3.754-.126-7.695-.232-10.456-.063.355-.038 2.905-.045 4.652-.256-2.77-.003-5.196-.094-10.462-.185.657-.359 1.565-.457 4.345l-.01.305V83.816c.151-1.036.063 3.796.141 4.652.091-.805.124-3.094.139-5.817.15-1.023.063 3.845.187 3.484.119-1.461.013-4.136-.088-4.603.11-.467.093-4.964.088-10.494.334.527-.056 13.98.233 13.945l.139-17.43c.262 2.47.055 9.454.374 10.446-.02 2.594-.107 6.312.045 6.984.111-1.609.104-12.644 0-13.945.104-6.094.192-15.687-.094-17.453-.012 3.613.003 11.582-.277 11.633.01-3.34-.013-5.905-.094-6.984.15-4.505.258-6.086.233-12.794.165.733.178-2.28.31-2.312l.015.008v-8.152c.11-.36.054 3.37.142 3.487.099-1.776.083-6.428.232-6.984-.017-2.304-.22-.284-.28 2.333-.045-.084-.068-1.282-.04-2.802.043-.817.09-1.698.136-2.52.097-.699.19-1.35.265-1.879l.035-.25-.005.13c-.031.722-.016.816.066.312l.016-.095c.062-.614.302-1.877.81-3.75l.09-.332-.012.056c-.077.331-.31 1.336-.523 2.242l-.045.193c-.217 1.017-.265 1.847-.12 1.289.745-4.632 3.914-10.527 6.537-13.651-.347.248-.759.797-1.256 1.517-.528.7-1.095 1.602-1.704 2.622.028-.261.43-1.355 1.79-3.195 1.354-1.807 3.626-4.505 7.765-6.995-.89.544-3.641 2.675-5.051 4-.84.838-1.266 1.48-1.648 1.96 2.777-3.066 6.606-5.647 5.842-4.886 5.61-3.563 9.5-4.116 13.04-4.413 6.737-.363-5.044.002 2.52-.406-.453.007-2.28-.039-3.852.22-1.582.183-2.908.51-2.494.33 1.491-.342 2.595-.431 3.47-.591.887-.066 1.559-.114 2.234-.163 1.339-.096 2.471-.088 5.258-.078-.606.038-1.198.076-1.162.142 1.781-.272 14.99-.081 17.386-.327 1.271.025 3.012.032 4.724.04A20.713 20.713 0 0 1 56 2.529c.987-.081 3.806-.081 5.909-.111.387.09-.51.14-1.75.157.787.013 1.42.034 1.795.064 1.95-.041 2.523-.14 2.349-.266l-.025-.016h5.792c.342.055-.06.08-.713.094.762.016 1.533.032 2.643.032-.508.028-1.432.057-2.445.076h.394c2.512-.002 5.331-.052 7.068.08 2.128-.007.7-.16 2.307-.188 1.575-.002 7.405.155 6.942-.094 5.729.039 7.442.013 12.739-.045.518.238-7.18.147-5.784.421 2.292-.18 4.306-.127 6.946 0 .837-.043 1.845-.261-1.162-.233.606-.039 1.21-.08 1.162-.143l8.1-.045c1.442.228-5.676.111-5.777.281 2.228.087 6.267-.203 9.261 0 1.92-.048 1.249-.2 2.31-.281 8.989-.033 17.76-.064 26.632-.094-5.562-.175-15.842.106-20.84-.046-1.86-.185 4.998-.018 4.624-.142-2.987-.013-3.687-.17-1.162-.327 1.827.02 1.008.147 4.632.094 2.98-.006 1.867-.176 3.485-.234-5.143.033-8.79-.013-13.901.094 3.424.117.773.155 0 .327-4.307.049-3.743-.099-5.78-.142-2.618.028 1.408.074-1.16.142.18.054 2.1.038 3.47.046.346.124-1.602.155-4.632.142 2.208-.16-5.676-.172 0-.188-1.975-.185-9.573.174-3.691.188H89.751c.258-.068 3.454-.018 3.47-.094-1.944-.157-11.855.01-12.75-.188-4.877.059.132.19 0 .328-1.32.02-2.323-.109-3.004-.091l-.1.004.024-.006c.247-.076-2.108-.072-3.722-.221l-.137-.014c3.356.066 5.383-.129 1.163-.093-.493-.117 11.607-.03 4.63-.188.143-.104 4.912-.02 6.941-.046.063-.081-.851-.122-2.31-.142 1.327-.003 9.002-.155 12.734-.046-.116.09-3.826.033-3.47.14 8.006-.086 17.146-.429 23.163-.046 6.073-.033 4.508-.152 10.417-.233.836.127-2.308.094-2.323.185 1.68.11 6.902-.028 9.262-.046-.75-.14-2.459.043-4.63 0-1.427-.152 3.75-.035 2.323-.188 22.66-.106 39.783.19 52.104-.187 6.257.091 22.494.096 33.575-.046 2.185.005.793.155 3.477.14.31.185-8.158.012-9.272.142 3.672.08 9.828.025 16.21 0-1.295-.059-3.31-.087-2.309-.236 2.115.066 8.155.02 5.795-.046 1.314-.066 5.026.167 4.63.327l28.941-.094c1.155-.142-2.58-.083-4.63-.093 2.295-.165 5.467-.02 6.948.093L284.264 1c-4.061-.137.182-.193 2.322-.046-2.762-.393-8.445.025-13.894-.188 4.438-.143 11.377 0 19.676-.045-4.536-.075-2.791-.094.393-.097l6.554-.001zM283.06 334.408l-10.69.092c2.024-.092 7.92-.177 10.69-.092zm38.174-.461c1.855.087.012.06-.004.172l.004.01h-2.3c.097-.12-1.785-.094-.162-.174l.162-.008h2.3zm-19.034.133l.105.004c.392.013.854.026 1.364.04-.157-.03-.757-.04-1.469-.044zm10.306-.273c2.547.127 6.235-.08 8.799.047 1.183.09-6.826-.072-3.31.045.343.108-3.173.053-3.295.14-3.442-.06-.562-.095-2.194-.232zm-41.088.138l-.392.004c2.638.038 6.151.058 7.56.022-2.496-.03-4.721-.046-7.168-.026zm3.51-.057l-.015.004c-.007.003-.01.006-.011.01l.608-.004-.582-.01zm3.94-.01H278.81h.059l-.033-.003zm-57.937-.282c-.131.135 6.775.193 6.962.046-1.38-.053-4.098-.053-6.962-.046zm-57.884-.094c-.346.122 1.615.153 4.648.14.328-.124-1.618-.152-4.648-.14zM277 333.437c2.564-.14 6.524.117 10 .111-2.106.015-3.018.021-7.763.057-.963-.048-.665-.153-2.237-.168zm28 .089c-1.695.117-6.697.015-12.156-.054-7.429-.096 9.833-.042 12.156.054zm-81.746-.12c1.096.04 3.735.249 5.784.096-3.144.044-2.704-.291-5.784-.096zm35.013.075l.018.001a141.05 141.05 0 0 0-.017-.001zm-134.558-.083l-.02.008h6.94c1.158-.194-6.447-.137-6.92-.008zm107.646-.177c1.168.05 6.32.175 8.11.045-4.67.092-5.353-.213-8.11-.045zm-15.04-.142h-4.633c.076.078-.216.138-1 .179l-.175.008h2.456c.66-.003 1.223-.007 1.03-.045-4.259-.074 4.68.01 2.322-.142zm-67.154.048c2.047.043 2.937.13 6.94.094 1.478-.158-5.876-.196-6.94-.094zm22.003-.47h-3.554c-2.632.004-4.896.02-5.725.097 3.881-.046 7.3.167 9.28.045-1.992-.02.227-.06 0-.142zm-120.347-.015c-1.478.013-2.964.023-4.071.033-1.104.018-1.832.046-1.8.079 6.01-.008 7.188.07 11.58 0 .179-.087-2.752-.117-5.709-.112zm-9.355-.218c2.454.183 12.213.068 16.226.188-1.132-.236-10.533-.137-16.226-.188zm231.571.062c.718.012 1.388.02 1.934.027a37.32 37.32 0 0 1-1.934-.027zm-116.932-.438c-.786.147 6.635.196 8.109.094-2.641-.028-5.924-.068-8.11-.094zm-32.412-.185c3.967.071 8.857.11 15.048.091-1.986-.226-11.002-.13-15.048-.091zM3.079 314.389c2.56 5.86 6.295 9.914 10.335 12.807 3.407 2.406 7.167 3.918 11.233 4.68-5.355-1.127-9.966-3.685-13.41-6.68-3.81-3.336-6.333-7.099-7.969-10.416l-.19-.391zm235.369 17.276l-.048.002-.098.008h.22l.287.002-.361-.012zm65.531-.036h-.445c-.45-.004-.574-.021-.631-.044l-.026-.013c-1.217-.141-8.482.02-9.877-.111.903-.177 11.533-.078 10.98.168zm-71.767-.003c1.618.003 3.332-.01 4.928 0h.004a86.886 86.886 0 0 0-4.932 0zm-5.489-.184c1.155.132 2.84.172 4.703.182.422-.093-.313-.128-1.081-.162l-3.622-.02zm-202.114-.655c.867.178 1.956.312 3.106.495 1.13.06 2.451.162 3.485.165 2.054.005 3.871 0 4.478-.054-1.292-.005-2.431-.01-3.447-.012a38.49 38.49 0 0 1-2.881-.09c-1.84-.045-3.293-.34-4.74-.504zm135.329.418h-.368c-1.306.272 5.648.17 8.125.095-3.95.028-4.405-.085-7.412-.094h-.345zm-7.307-.42c6.535.174 12.233.38 21.988.42-.115-.225-9.924-.144-5.956-.41l.176-.01h-4.63c-1.111.086 3.455.157 0 .187-.71-.066-4.467-.007-4.639-.094.023-.076 3.217-.025 3.477-.094-3.426-.04-8.809-.14-10.416 0zm-4.632-.468c-5.714.013-9.35.038-12.746.231 6.744-.005 3.201.404 10.424.378 1.225-.172-3.897-.09-4.617-.187.887-.1 2.797-.262 1.147-.328 2.876.008 5.625.008 5.792-.094zm-50.948.422c1.726.055 4.837.22 5.795.045-1.289-.096-8.102-.08-5.795-.045zM292 330.584c-1.249.108-6.112-.075-7-.168 1.597-.126 4.807.138 7 .168zm-17.977-.166c1.935.075 7.378-.022 6.953.164-1.937-.072-7.373.022-6.953-.164zm-104.877-.24h-.307c-.525.15 5.16.284 6.942.185-1.797-.013-.804-.101 0-.14-3.266.03-4.087-.036-6.345-.044l-.29-.001zm-9.27-.094h-.306c.069.163 2.21.242 6.578.234h.369v-.188c-3.263.03-4.098-.037-6.352-.045l-.289-.001zm44.845 0c1.233.002.917.058-1.145.046-.195.116 1.774.147 3.462.187-1.019-.154 7.055-.18 4.644-.233-3.6.124-4.5-.13-6.961 0zm-82.192-.33c1.837.203 12.082.023 10.414.376l4.632.093c1.498-.116-2.575-.225 0-.233 9.507.11 10.836.124 16.21.188-.189-.35-19.141-.135-13.9-.33-2.71.038-4.787.063-6.942.094-.556-.26-7.632-.107-10.414-.188zm68.298-.14c-.852.19 7.51.008 5.794.234-3.262.04-2.997-.066-5.794-.046 1.327.193 8.693.366 11.586.14-4.32-.092-4.283-.356-11.586-.328zm-76.402 0c2.438.14 4.417.148 0 .282 2.229.018.902.18 4.632.14.836-.211-.377-.234 1.147-.373-3.26.035-3.01-.069-5.78-.049zm106.506-.094v.282c4 .064 11.013.233 15.663.15l.546-.01h-2.323c-1.72-.075.612-.179-3.786-.187l-.83-.001c-.463.081 1.718.122 0 .142-6.025-.008-4.307-.325-9.27-.376zm-59.046.049c5.082.02 5.308.24 11.116.234h.47v-.189c-2.532-.04-8.743-.175-11.586-.045zm47.475-.19c5.956-.008.354.398 5.78.235-3.96-.185 4.968.051 4.644-.14-2.893-.027-7.25-.233-10.424-.096zm28.687-.032c5.074.021 6.22.24 10.953.28-2.585.071-11.73.002-10.953-.28zm40.96.015c3.01.177 8.504.021 7.955.276-3.66-.051-8.152.057-7.956-.276zm21.993.22c-.326.128-4.31-.007-4.633-.058-.984-.009-1.098.021-1.163.057-3.802.138 2.879-.192 0-.168 2.373-.177 2.945.19 5.796.168zm-164.585-.298c1.34.01 1.253.077 1.16.143 2.17-.006 3.874-.03 4.632-.094-1.726.002-4.733-.173-5.792-.049zm35.894-.512c-2.63.023-5.923.091-8.1 0 5.004.185 9.492.353 13.894.512-1.091-.291-4.862-.2-5.794-.512zm-62.529.048c4.053.112 1.226.223 4.645.327-.554-.15 3.093-.124 3.472-.236l-8.117-.091zm47.49-.751h-2.324v.094c6.5.038 4.675.177 5.779.373 4.104.025 2.856-.165 6.97-.14 2.471.229 7.065.368 12.716.467 1.766-.24-5.282-.127-5.792-.279 3.29.038 4.831.053 8.109.094.965-.15.993-.097-1.147-.188 2.053.04 4.04.05 5.862.057-1.96-.054-3.626-.122-4.443-.193 3.036-.045 9.598.204 14 .276-1.298.028-3.108.026-5.01.004-1.491.018-1.872.06-3.47-.002.965.147.993.097-1.148.188 2.879.071 7.577.315 10.424.233-1.37-.116-4.055-.182-3.5-.375 7.584-.018 5.974-.295 5.808-.421 3.593.048-.354.3 5.787.327.042-.063-.556-.102-1.17-.142 4.208.15 4.91.087 5.618-.058l.168-.036h2.323c-.362.11.194.183 1.162.236 3.765-.005 6.24-.058 6.94-.188-3.334-.054-4.658-.187-6.238-.313l-.184-.014h-47.945c-.003.015-.023.033-.048.045 5.633.1 13.353.08 12.746.234-8.475-.107-16.1-.203-21.992-.28zm-38.213.842c-.816.132 5.749.198 6.94.094l-6.94-.094zm104.197-.47c-2.042.179 9.09.435 11.563.422-3.398-.038 3.516-.035 1.175-.185-3.057-.112-10.431-.046-12.738-.188.657 0 1.311-.038 0-.048zm-95.214-.372h-3.724c.988.048 2.926.094.533.142l-4.645-.097c-3.52.084 3.161.145 0 .19-.702.003-1.362.006-1.147.044 4.278-.084 4.162-.058 10.409-.043 1.314.22 7.308.106 9.271.279-3.666.063-6.992-.117-8.109 0 5.077.053 8.57.086 13.901.142-1.47-.14 3.303-.264 3.47-.284-7.958.106-8.627-.02-4.63-.231 4.81.14 8.006.096 12.732.185 2.031-.238-6.118-.063-5.792-.233 1.993-.042 1.148-.046 1.578-.09l.052-.004h-13.765c-.478.04.242.101 2.886.188-4.402-.008-7.354-.003-3.485.091-6.55.046-7.202-.15-9.535-.28zm143.96.557c-.297.144-2.082-.072-4.846 0-.894-.15 2.39-.111 2.422-.22.228-.047-.478-.053-1.204-.056 3.27-.126 2.339.24 3.628.276zm-151.796-.184c2.012.018 7.157.142 8.117.048-1.835-.025-6.206-.18-8.117-.048zm-79.887-.328c-1.364.102-5.013.11-6.942.19 7.597-.088 11.572.16 18.51 0-7.18.072-7.18-.146-11.568-.19zm208.925-.045h-14.796c4.14.101 10.99.134 13.118.142-3.174-.071-2.439-.102 1.162-.048-.129-.046.182-.069.516-.094zm-133.516 0h-8.253l8.102.045a.518.518 0 0 0 .151-.045zm-24.163 0H88.38c1.196.005 2.403.012 3.182 0zM364.85 322l.149.133c-1.157 1.372-1.97 2.131-2.466 2.508-.475.393-.6.436-.504.26 1.024-.892 1.94-1.863 2.821-2.901zM1.218 298.944l-.01.496c-.016.87-.034 1.823-.055 2.834.069 1.38.023 2.883.299 4.388.384 3.033 1.362 6.15 2.726 8.728.298.294-1.438-2.88-2.236-6.878-.202-.992-.331-2.028-.493-3.033-.088-1.012-.121-2.007-.177-2.921-.023-1.504-.04-2.77-.05-3.484l-.004-.13zm370.02 3.673v.063-.063zm-366.66-14.15c.019 4.665-.17 6.536-.017 9.058l.016.25-.006-.509c-.029-3.223.108-6.114.037-8.163l-.014-.333-.017-.302zm-3.313-13.953c-.15-1.433-.033 3.777-.187 2.333.03-1.1.108-4.294-.046-3.5.083 6.408-.217 11.535 0 13.969.03-6.7.202-.802.28-3.5v-.07l-.022-5.087c-.005-2.865.007-6.335.068-8.789-.144-.55-.167 2.914-.093 4.644zm2.238 5.817c-.02 2.218-.133 2.102-.093 5.82.116.82.197-4.977.093-5.82zm.652-1.165v6.985c.081.086.144-.262.187-1.168-.01-3.223-.149-3.289-.187-5.817zm-2.284-2.32c-.068 2.917-.111 4.559-.045 8.137.154 1.437.113-7.852.045-8.136zm1.314-33.27v-.017c-.002 2.547-.12 2.248-.101 5.374.053.558.106 1.246.141 2.332a162.35 162.35 0 0 0-.05 5.82c-.088-.508-.083-3.325-.233-2.333.03 3.15-.058 9.238.048 10.469.006-4.145.091-6.281.235-6.984.054-6.347-.002-10.207-.037-14.437l-.003-.223zm-1.36 8.841c-.025 3.568-.025 3.436-.047 6.984.144-.87.088 3.19.232 2.335-.076-2.723.025-9.933-.184-9.319zm.091-24.375l-.002.638-.088 22.585c.255-5.48.152-15.81.095-22.667l-.005-.556zm1.259 13.914l.01 1.39v.032-.093c0-.379-.004-.817-.01-1.329zm-1.63-18.605L1.5 228.83l-.003.34h.142c.007-2.885-.026-4.832-.094-5.82zm.465-19.763c-.053-.048-.101.87-.134 2.315-.015 1.444-.04 3.41-.066 5.456-.017 4.094.016 8.5.106 9.667.023-3.992.056-10.39.094-17.438zm-1.723-3.484c-.12 5.838-.015 12.22.219 12.761l.013.025V202.42c-.149 1.002-.144-1.825-.232-2.317zm3.31-1.168c.048 5.39-.086 10.07 0 12.789.172-.277.212-10.702 0-12.789zm1.071-1.164c-.01 7.027-.197-3.003-.232 1.164.035.264.056.98.048 2.32.182-.249.336 2.363.42-1.152-.11-2.581-.127-1.02-.236-2.332zm-1.307-12.794l-.017.277c-.179 2.998-.06 9.35-.215 11.357.064 2.817.096.738.14 2.324-.018 1.277-.054 2.792 0 1.168.11-8.094.128-.234.184-.005l.002.005v-8.129c-.164-.147.006-2.137-.139-3.5.049-.191.051-1.566.047-3.051l-.002-.446zm1.075-3.487c-.08 3.89.023 5.165 0 10.484.18.492-.025-3.5.141-4.667.107-.363.048 3.355.137 3.487-.083-5.368.128-3.4.141-6.332v-.64c-.146-4.17-.259-.434-.366 2.206l-.006.12v-.205c-.007-1.742.014-4.105-.047-4.453zm-.466-12.775l.009.532c.06 5.225-.173 12.84-.069 19.653l.012.698.015-.52c.127-5.072.24-13.518.075-19.173l-.02-.617-.022-.573zm1.07 14.62c-.037.885-.074 1.592-.03 2.405l.03.417v-2.822zM.575 165.112l-.01.101v8.142c.21-.977.295-5.063.374-9.31-.062-1.369-.258.01-.364 1.067zm2.693-11.535v6.984c.124.363.122-2.436.142-4.652-.091.348-.091-1.563-.142-2.332zm.658-9.3l-.003.004c-.06 1.956-.124 3.898-.094 8.144.091.355.094-1.564.142-2.325.01 1.645.101 1.317.139 2.325-.028-1.696.056-6.005-.046-5.81-.08 4.26-.078-2.101-.135-2.332l-.003-.006zm.045-12.782c-.01 1.477-.136 5.687-.048 5.801.01-1.296.05-1.796.093-2.317-.022 4.028-.027 4.472-.045 8.152.13-.294.157 2.02.223 3.346l.006.133-.01-.489c-.067-3.2-.116-7.655-.047-11.678l.012-.631c-.146 1.335-.113-1.825-.184-2.317zm-2.51 8.543l.012.005c.01 2.994.008 5.728-.137 5.239.004-2.512.007-5.055.115-5.234l.01-.01zm1.807-22.474l-.008.427c-.05 2.562-.07 3.589-.13 6.52.21 1.129.07 2.92.045 6.984.045 2.05.106 3.616.187 4.652-.172-7.912.154-13.452-.07-18.159l-.024-.424zm1.168-43.042c-.015 20.72-.15 9.824-.561 11.613l.056-6.047c.012-2.353-.003-4.434-.102-4.406-.002 7.801-.116 12.524.094 13.953-.2 2.485-.04 8.142-.142 11.626.088.328.094-1.408.136-2.224l.005-.091.01.628.167 11.435.01.632.001-.044c.003-.658.008-1.237.045-1.032.003.71.008 1.376.046 1.165-.08-3.962.015-4.34.141-5.817.017 2.897.025 6.072.085 7.887l.008.248.015-.172c.11-1.568.102-6.019.206-7.767l.012-.19.008.22c.131 4.36-.082 17.287.134 19.537v-3.848c.01-14.93.124-31.722-.037-43.095l-.012-.686v.143c-.005 1.291.005 2.953-.04 3.271l-.007.038c-.06-3.081-.154-5.414-.278-6.977zm-1.587 38.36c.032 6.447-.29 4.14-.324 9.005l-.003.304.039-.34c.24-2.036.226.791.37.38l.011-.037c-.222-3.422.122-7.325-.093-9.312zm.376-5.802c.124 1.1-.045 9.622.137 9.302.018-3.964-.02-12.563-.137-9.302zm-1.4-2.334c-.015 2.296.061 2.304.091 3.487l-.045 2.332c.061-.047.096.462.13 1.032l.008.128.01-.284c.073-2.515-.055-5.4-.167-6.476l-.014-.12-.012-.1zm.757-1.172l-.011.007c-.01 3.347-.005 6.347.139 5.817-.005-2.793-.007-5.64-.118-5.815l-.01-.009zm-.572-6.957c0 2.304-.126 1.472-.094 4.644.167-1.81.03 3.957.142 3.485.04-2.977.076-6.591-.048-8.13zm1.493-29.064c-.126 3.236.046 5.736.048 9.294-.12.883-.164 3.71-.141 8.136-.068-.276-.078-1.921-.142-2.332-.032 5.54.12 6.388.187 9.316v-.564c.006-1.657.044-1.778.096-.603-.012-8.121.248-14.86-.048-23.247zm-.187 6.969c-.037.797-.103 6.482 0 6.977.036-.805.104-6.492 0-6.977zM2.197 54.749c-.014 2.546.005 4.27.041 5.59l.007.23h.139c.01-3.784-.056-5.596-.187-5.82zm-.63-11.09c-.03 4.326-.028 3.979-.045 6.707-.09-.448-.005-5.124-.185-3.357-.017-4.822.115-4.326.23-3.35zM365.568 9.78c.346.524.65 1.025.86 1.431-.252-.444-.556-.936-.86-1.431zM21.913 3.104c-.524.5-.53.443.087.369-1.858.89-2.144 1.17-4 2.423 2.493-1.814.93-1.202 3.913-2.792zM126.74 4.78l.06.013h4.632c.657-.135.851-.081 2.307-.234-4.394-.01-7.862.017-6.999.22zM31.868 2.49c-2.582.036-4.271.177-5.633.45-.717.09-1.407.252-2.23.525-.832.225-1.793.55-3.005 1.152.235-.177 1.67-.885 3.432-1.365 1.75-.513 3.792-.81 5.074-.852.257.03-.467.078-1.231.135-.162.08.805-.012 1.817-.094l.32-.026c1.07-.063 1.926-.042 1.456.075zm8.085.43c-.642.145-6.188.091-4.632.327 4.14-.028 8.852-.23 4.632-.327zm59.052-.142c-.343.06-1.512.088-1.219.174l.059.014h3.482c.311-.107-.28-.176-2.322-.188zm49.782-.373c-.447.119-3.439.14-3.462.279 3.92-.1 8.959-.229 12.739-.328-4.66-.025-5.287.122-9.277.049zM43 2.497c-.827.126-6.307.021-9 .057.94-.129 6.918-.153 9-.057zm152.1-.091c1.812.104 9.16.116 5.795-.049.568.12-5.302-.111-5.795.049zm-30.097-.564c-7.43.015-15.349.033-23.147.048 1.117.145 6.962.374 9.254.188.093.079-.258.145-1.16.186 5.056-.003 6.348-.066 10.424 0-2.858-.197 1.997-.064 2.31-.224l.012-.01c-1.084-.048-4.268-.015-3.485-.14 1.688-.025 5.994.054 5.792-.048zm-2.268.179l-.039.009.199.002c2.063.022.175.206 3.27.186-2.026-.168.774-.117 1.163-.282-2.546-.012-4.219.009-4.593.085zm81-.085c-9.024.04-16.158-.048-20.84.094 8.328-.024 1.98.13 10.385.142h1.201c.607-.218 6.255-.056 9.254-.236zm-166.369.195c-.06.012-.172.025-.349.041.087-.018.182-.03.287-.038l.062-.003zm131.643-.616c-.243.053-1.291.073-2.322.094-.526.142 2.89.125 3.437.223l.045.01h-13.906c-2.836.064 2.09.142-1.163.188-.836-.145-5.092-.32-9.241-.188.247.163 4.692.153 5.78.282 11.123.099 15.654-.264 23.162-.094 2.41-.013-1.729-.127 2.31-.14 1.362-.007 3.282.008 3.477-.048-2.704-.012-4.797-.091-6.947 0 .245-.089-1.304-.101-1.163-.185 2.202.086 2.902.005 5.792 0 .645.13 4.756.12 4.625.28 4.106-.115 36.569-.034 15.056-.189 0-.045.937-.055 1.16-.091-16.777.056-22.145-.317-30.102 0-.468-.081 1.718-.122 0-.142zm-32.216.266h-1.292c-1.479.01-2.962.023-4.069.033-1.104.018-1.832.043-1.797.076 5.118.049 8.946-.093 11.58 0 .148-.071-1.963-.104-4.422-.109zm69.267-.078c2.964.023 6.55.264 6.94 0-3.094.045-9.659-.104-6.94 0zm-141.263-.094c.258.089-1.3.104-1.16.188 3.932-.163 9.522.035 12.746-.14-4.725-.02-5.729-.025-11.586-.048zm54.414-.14c2 .208-.424.089-5.792.14-.035.06.469.098 1.021.131l.14.008h2.324c-1.177-.14 2.583-.08 4.63-.091.326-.107-.273-.178-2.323-.188zm11.58.046c-4.438.167 7.82.251 3.469.048-.243.036-.953.053-2.307.046-.253-.038-.038-.092-1.163-.094zM286 .583l-9-.057c.685-.132 8.096-.18 9 .057z"/>
</svg>
