<?xml version="1.0" encoding="utf-8"?>
<!-- Generator: Adobe Illustrator 24.0.0, SVG Export Plug-In . SVG Version: 6.00 Build 0)  -->
<svg version="1.1" id="Layer_1" xmlns="http://www.w3.org/2000/svg" xmlns:xlink="http://www.w3.org/1999/xlink" x="0px" y="0px"
	 viewBox="0 0 18 18" style="enable-background:new 0 0 18 18;" xml:space="preserve">
<style type="text/css">
	.st0{fill:#18A369;}
	.st1{filter:url(#Adobe_OpacityMaskFilter);}
	.st2{fill-rule:evenodd;clip-rule:evenodd;fill:#FFFFFF;}
	.st3{mask:url(#b_1_);}
	.st4{fill-rule:evenodd;clip-rule:evenodd;fill:#00756A;}
</style>
<g>
	<g>
		<path id="a_1_" class="st0" d="M12.7,2.2c2.6,2.6,2.9,6.8,0.7,9.8l3.6,3.6c0.4,0.4,0.4,1,0,1.4c-0.4,0.4-1,0.4-1.4,0L12,13.4
			C8.7,15.9,4,15.3,1.5,12S-0.3,4,2.9,1.5C5.9-0.7,10.1-0.5,12.7,2.2L12.7,2.2z M3.6,3.6c-2.1,2.1-2.2,5.6,0,7.7s5.6,2.2,7.7,0
			c0,0,0,0,0,0c2.1-2.1,2.1-5.6,0-7.7C9.2,1.5,5.7,1.5,3.6,3.6z"/>
	</g>
	<defs>
		<filter id="Adobe_OpacityMaskFilter" filterUnits="userSpaceOnUse" x="0" y="0" width="18" height="18">
			<feColorMatrix  type="matrix" values="1 0 0 0 0  0 1 0 0 0  0 0 1 0 0  0 0 0 1 0"/>
		</filter>
	</defs>
	<mask maskUnits="userSpaceOnUse" x="0" y="0" width="18" height="18" id="b_1_">
		<g class="st1">
			<path id="a_2_" class="st2" d="M12.7,2.2c2.6,2.6,2.9,6.8,0.7,9.8l3.6,3.6c0.4,0.4,0.4,1,0,1.4c-0.4,0.4-1,0.4-1.4,0L12,13.4
				C8.7,15.9,4,15.3,1.5,12S-0.3,4,2.9,1.5C5.9-0.7,10.1-0.5,12.7,2.2L12.7,2.2z M3.6,3.6c-2.1,2.1-2.2,5.6,0,7.7s5.6,2.2,7.7,0
				c0,0,0,0,0,0c2.1-2.1,2.1-5.6,0-7.7C9.2,1.5,5.7,1.5,3.6,3.6z"/>
		</g>
	</mask>
	<g class="st3">
		<path class="st4" d="M0,18h18V0H0V18z"/>
	</g>
</g>
</svg>
