<svg xmlns="http://www.w3.org/2000/svg" width="380" height="338" viewBox="0 0 380 338">
    <g fill="#FFF5EE" fill-rule="evenodd">
        <path d="M33.38 333C18.81 333 7 321.208 7 306.664V34.338C7 19.792 18.81 8 33.38 8h315.24C363.19 8 375 19.792 375 34.338v272.326C375 321.208 363.19 333 348.62 333H33.38z"/>
        <path d="M293.461 330.468c-2.879-.154-4.863-.27-5.053-.572-2.952.052-3.628.171-5.06.267-3.244-.148 5.507-.429 1.276-.61-2.346.1-3.896.166-6.33.267-7.664-.078-5.547-.808 6.33-.762.723.292 1.124.411 8.837.458-.757.205-2.606.377-2.52.608 2.7-.033 4.463-.093 3.77-.228 9.02.156-1.25.462-1.25.572zm-27.79 4.984c-1.535-.078 1.981-.408-3.787-.458 2.57-.132 5.607-.288 8.84-.457-.96.247-3.477.624-5.053.915zm82.89-322.577a12.759 12.759 0 0 0-1.67-.055 9.967 9.967 0 0 0-.96.047c-.364.047-.2.12.307.19-1.053.122-1.646-.065-1.253-.114-9.79-.112-2.164-.606-1.267-.799 3.87.037 4.48.128 4.299.234-.065.078-1.113.219-.512.338.179-.02 1.167.091 2.192.13.996.112 1.935.281 1.818.182.798.1.954.268 1.919.484-.19.01.374.075.931.322-3.34-.876-1.727-.426-3.857-.65-1.235-.163-2.28-.16-2.824-.254-.312-.021-.424-.042-.268-.06.185-.026.577-.031 1.144.005zM9.857 200.868c.055-4.768-.107-2.423-.078-6.318.172-.055.33-4.14.419 0 .033.234.036-.481.039-1.25.013 3.996-.242 3.444-.38 7.568zm214.125 128.344c-1.001-.172.093-.315 1.266-.497 3.306.128.094.385-1.266.497zm21.47.418c-1.432-.007-.694-.039 0-.039-1.25-.117-3.409.045-3.786.076-3.558-.029 4.265-.372-1.266-.34.213-.107 2.32-.16 2.533-.269 5.053.052-.354.078 0 .19.41.19 7.807.219 2.52.382zM294.46 9.9c1.872-.046 7.72-.103 2.517-.153.159-.083 5.36-.015 7.589-.036 1.344.208-4.874.21 0 .34-.53.076-4.905.032-3.802.154-2.905-.263-4.18.041-6.304-.304zM9.247 226.136c-.083 2.108.075-6.908.114-8.838-.078-1.211-.099.63-.114-3.783-.23.77-.362 4.769-.645 3.783.252-4.297.627-9.89.723-2.532.463 3.713.34-9.058.684-5.036-.112 7.623-.588 3.193-.57 15.147-.07-.169-.08 1.534-.153 1.259-.008-1.443-.04-.694-.04 0zM265.385 9.178l3.817.036c1.223 0 .97-.047 1.251-.075-.463-.018 8.738.374 1.254.343 3.573-.18-7.092-.099-6.322-.304zM372.27 287.084c-.322 2.928-.61-4.73-.913-3.786.276-2.75.669 1.378.913 3.786zM7.84 217.297c.135-4.011.205-3.824.419-6.318-.086 3.895-.253 5.122-.42 6.318zm.608-87.15c-.044-6.286-.528 5.43-.723-1.25.052-3.715.255-2.503.344-5.07.169 8.209.76-2.878.988 2.55-.05 6.948-.393 2.804-.494 5.053-.068-.944-.005-2.304 0-3.817-.065-.04-.099.962-.115 2.535zm-.684 17.689H7.65c.013-3.463.195-7.766.19-1.259-.037-.039-.029-1.541-.04-2.527-.043.206-.03 2.306-.036 3.786zM318.445 8.302c3.93.145-8.142.07-8.837.114-4.486-.112 8.07-.031 8.837-.114zm-21.468.153c-3.5-.026-10.072.164-3.786.19-6.232.002-2.898.09-6.302.153 1.59-.216-3.802-.242-7.588-.19-.237-.033.496-.039 1.266-.039v-.075c2.252.016 2.66.018 5.038.036.92-.117-2.164-.111-1.251-.228 2.265.135 11.302.067 13.874.192-.66.057-1.306.003-1.25-.04zM7.156 224.876c.086 8.567-.115-2.826-.193 3.783-.067-4.035.266-19.913.42-8.845-.035-.975-.087-1.352-.152-1.266.042 3.266.097 6.076.19 7.587.138.84.146-2.733.265-2.52.021-3.972-.13-3.335-.036-6.318h.15l-.036 3.786c.323-1.495.469-6.248.762-3.786-.03.874-.101 7.522.037 6.318-.06 5.185-.281 5.005-.419 7.564.016 2.829.187.528.268 1.266-.044 5.304-.234 7.623-.078 12.62-.182.463-.203 1.519-.455 1.282.026-5.106-.037-7.223-.193-6.318.076-2.587.214-3.086.23-7.584-.185-4.911-.601 5.052-.685-3.786-.02-2.792.073-1.794.076-3.783-.024-3.793-.08 1.212-.151 0zm.075-75.766c-.047-1.675-.015-1.997 0-3.791-.117-1.401-.327 1.006-.38-5.052.125-2.927.23 3.526.38 3.783-.026-3.083.146-2.982.266-1.258.018 2.675-.052 2.392-.115 2.527.016 1.022.018 1.25.04 2.517.202-.104.166-7.036.264-7.569-.02 9.025-.262 8.237-.455 8.843zM374.1 93.852c-.1 2.912-.177-2.556-.268-3.783.013-1.134.27.21.268 3.783zm-176.64 239.164c-2.432-.003 1.969-.14-1.266-.19-1.03.015-1.251.018-2.52.039-1.675.101-3.054.182-5.05.304 1.234.107 3.36-.055 5.05.039v.19c-3.108.028-7.287-.182-7.586 0-5.061-.203 4.478-.757 12.639-.648 1.867-.06 2.038-.169 2.52-.267 4.32.078-2.59.38-3.787.533zm17.684.455c-2.967.052.858-.284 1.27-.377 3.908.106-2.23.236-1.27.377zm160.248-226.983c-.018 1.843-.034-.117-.075 0-.024.164-.034.793-.034 1.383.002.59.034 1.152.034 1.152-.117 1.362-.307-8.05-.497-2.535v-3.783c-.21 4.053-.463-5.554-.684 0-.104-4.69-.289-3.999-.419-5.036.416-1.243 1.256-2.998 1.485 8.819.128-.265.115-4.155.19 0zM227.785 334.615c-9.209-.13-3.495-.554-2.536-.762 8.767.015 2.843.47 6.312.647-6.681.003-6.114-.015-3.776.115zM3.653 303.165c-.042 1.716-.008-3.502-.076-6.318.198 2.857.216 5.208.42 8.845 0 1.73-.016 1.651-.123.598-.044-.967-.076-2.756-.068-4.391-.06.127-.145-.609-.153 1.266zm230.428 32.133c-2.63-.07 4.705-.16 5.066-.265 5.305.05-.016.125 0 .229-1.683-.052-4.697-.052-5.066.036zM3.083 241.28c.032-3.557.33-4.948.23-8.835.09-1.953.246-1.882.379-2.527-.04 3.377-.154 4.173-.229 6.328.018 1.123.034 2.25.078 2.517-.036 2.626-.114 3.838-.229 3.786-.023-2.803.07-1.79.076-3.786-.078-3.338-.2 2.59-.305 2.517zm-.19 46.732c.224 2.1.3-1.536.57 0-.05 3.422-.07 7.813-.19 8.835-.023-6.341-.31-4.066-.38-8.835zm293.088 47.708c-.237.041-1.27 0-1.27 0-3.304-.013-.982.145-5.052.111 2.171-.062.512-.239 5.053-.226-.096.052-.198.107 1.269.115zm-69.465.223c.252-.14-2.083-.343-11.373-.301 3.503-.175 9.29-.279 16.418-.344 2.408.143 2.858.346 2.52.57 11.994-.138-3.92.132-7.565.075zM2.475 213.514c.039 7.283.236 11.141.114 20.197-.065-3.856-.114-6.752-.19-11.362-.14-.392-.145 7.538-.268 3.786.107-6.643.047-11.677.344-12.62zm-.04 22.732c.05-3.588.102 3.232.079 6.303-.148 1.066-.203 1.482-.344 2.516-.041-3.95-.018-3.32.037-6.302.094 2.66.333.41.229-2.517zm345.392 100.08c.635-.058 1.722-.151 2.647-.232.918-.091 1.66-.296 1.623-.333 1.47-.122 1.985-.208 2.736-.437.754-.215 1.784-.452 4.148-1.401-2.72 1.199-4.369 1.48-2.619 1.238-1.706.47-2.876.777-2.772.793-10.507 1.17 4.268-.515-5.763.371zM300.764 2.404c1.079-.112 3.178.05 6.327 0-.715.078-3.81.075-1.267.153-1.347.086-2.866-.138-5.06-.153zM1.18 256.443c.13-3.076.039-6.076.265-6.31-.099 1.74-.13 5.75-.265 6.31zM379.198 85.025c-.033 4.508-.197-3.242-.229 1.274-.02-3.557-.179-2.462-.19-6.326.12 2.322.282 3.305.42 5.052zM.686 202.145c.163 5.514.254-.411.304 11.37-.102-1.958-.193-3.646-.265-5.07.104-3.36-.047-2.738-.04-6.3zm.15 50.505c-.015 2.485-.265 2.272-.19-2.517.167 2.912.24-7.584.115-6.318.185-1.968.242-2.127.229 5.049-.065 1.773-.263-.66-.154 3.786zM254.02 1.607c-2.408-.1 9.185.111 5.06.19-3.838 0-1.216-.193-5.06-.19zM.571 165.516c-.07-.983.15-6.807-.075-3.786v-6.318c.033.772.067 1.519.075 0 .133 2.299.122 8.146 0 10.104zM.342 132.68l.305 17.673c-.14-6.586-.219-10.216-.38-17.673.12.63.101-4.342.19-1.25-.006 1.464-.07 1.04-.115 1.25zm10.504 156.596c-.06-.21-.197-4.233-.229-1.264.042.91.177 4.94.23 1.264zM9.4 299.379c-.05-1.677-.203-.267-.229 2.52.11.283.193-.315.23-2.52zm-2.398-94.718c.019-3.95-.08-4.035-.19-3.793v5.062c.107 1.045.1-1.773.19-1.269zM24.78 330.626c3.992 1.142 6.315.879 7.3.848 1.038-.104.778-.237-.088-.377-3.948.062-6.44-.4-8.725-1.032-2.276-.66-4.5-1.41-7.44-3.523 2.995 2.321 4.65 2.8 5.687 3.203 1.048.41 1.703.398 3.266.881zm-19.07-56.51c.057-1.888.159-2.25.19-5.053-.167-1.092-.385-4.461-.497 1.267.135.179.172 3.614.307 3.785zm-.307 6.325c.206.19.023-5.164.114-7.576-.184 1.079-.215-2.944-.265-6.318-.073 1.84-.252.054-.304 2.516.12 1.488.413 3.573.455 11.378zm11.859 48.438c-5.94-4.313-7.25-7.103-8.247-8.245.435.77.786 1.285 1.238 1.88.435.614.939 1.324 1.896 2.314 1.14 1.116 2.424 2.208 5.113 4.05zM4.872 280.44c.068-2.517.196-9.095 0-10.111-.012 8.356.006 1.926-.114 1.266-.02 4.81.016 7.878.115 8.845zm47.319 52.424c.905-.112.715-.512-3.787-.497-1.079.122 1.985.117 2.52.193-2.52.036-1.984.166-6.306.15 3.77-.075.663-.358 5.037-.418-9.24-.003-1.927-.146-2.517-.304-2.645-.084-3.597.02-7.578 0 2.202-.086.606-.286 2.533-.383-4.242-.036-1.977.12-2.533.193-2.645-.078-3.748-.008-4.903.06-1.149.07-2.38.182-5.12-.104-3.44-.294-4.367-.645-5.084-.65-.677-.167-1.184-.045-3.483-.978-.873-.481-.9-.543-1.357-.876-.427-.382-1.42-.822-3.813-2.678-.182.109-2.265-1.235-4.793-4.176-.111-.255-.663-.824-1.41-2.124 1.39 2.22 8.219 8.69 2.076 1.617-.497-.593-1.058-1.308-1.547-2.13-.549-.784-1.017-1.666-1.436-2.524a32.302 32.302 0 0 1-1.695-4.095c.35 1.84.301 1.888-.237.726-.432-1.178-1.287-3.648-1.358-6.896-.114 1.212.063 4.072-.314 1.31a25.63 25.63 0 0 0 3.326 11.053 25.879 25.879 0 0 0 6.353 7.434c4.895 3.86 10.884 6.193 18.473 5.982 1.214.1-2.752.552-6.349-.054-.886-.18-1.747-.356-2.496-.51l-1.802-.507c-.874-.226-.994-.174.35.424.425.244 2.146.757 3.548 1.097 1.41.291 2.483.447 1.513.398 3.441.489 4.741.273 5.126.231.416-.08.029-.187.11-.28 3.22-.089 6.163-.04 8.855-.078-.905-.138 2.148-.162 1.25-.302 4.219.018 7.753-.17 8.848-.304zM4.605 117.528c.023-9.381-.367-10.954-.494-5.06.202-.031.306 2.07.494 5.06zm-.266 119.969c.136-1.378.224-4.337.266-8.838-.05-1.268-.084-2.077-.151-3.783.039-2.449.174-1.755.229-3.793-.162-4.423-.193-10.678-.193-17.69-.216-.526-.395-9.142-.494-1.248.117.886.073.886.19 0 .062 6.263.172 9.835.039 16.403.086 2.662.213 10.522.19 12.63-.104-2.864-.273-3.595-.458-3.787-.015 10.797.34 2.805.382 10.106zm-.647-66.93c.052-.049.083.59.114 1.267-.015-2.975-.018-3.713-.039-7.569h-.114c.018 3.037.018 2.738.039 6.303zm0 34.094c.127-.45.158 3.24.265 6.318-.01-5.176-.028-12.755-.036-16.43-.117.898-.073.898-.19 0-.065 4.036-.068 5.305-.04 10.112zm-.115-12.628c.006-3.122.008-6.123-.075-6.305.042 3.219-.117 6.02 0 7.571.008-.985.031-1.463.075-1.266zM138.095 334.88c-7.542-.07 1.123-.24-2.536-.38-4.39.044-9.035.083-10.106.229 2.913.125 7.77.198 6.322.455h3.784c1.235-.088 2.229-.187 2.536-.304zM3.349 97.313c.023-.773.088-5.988 0-6.31 0 2.092-.104.714-.115 2.524.073.143.029 4.194.115 3.786zm0 90.935c-.006-4.43.228-7.53.078-12.623-.068.764.002 5.998-.078 6.305.052-5.502-.146-2.684-.115-7.58.122-.746.12 2.393.193 0 .057-4.49-.13-.761-.115-3.782.05-1.267.14-1.196.151-3.786-.224-4.21-.427 19.2-.114 21.466zm89.271 145.68c-2.582.216-5.856.408-11.372.533 3.531.068 1.18.099 1.266.229-12.985.055-24.916.34-24.004.686 12.184-.457 42.224-.72 34.11-1.448zM8.464 320.975c.268.816-1.623-1.742-2.572-3.344-.47-.793-.765-1.297-.705-.803.076.478.479 1.994 2.143 4.846 1.001 1.376 1.35 1.319 1.813 1.63.489.29 1.115.944 3.357 3.066.063.031-.972-1.173-2.015-2.444-.994-1.316-1.927-2.75-2.021-2.951zM61.03 335.49c-15.806.002-4.683.392-8.84.68 1.842-.017 6.531.048 6.32-.035-9.989-.12 1.998-.474 2.52-.645zM2.514 168.033c.052-.765.002-4.855.075-5.052.057 4.378.073 10.174.19 12.644.039-4.32-.062-13.588-.19-16.427-.08 3.28-.236 3.95-.268 8.835.117-.874.073-.874.193 0zM2.36 93.527c-.015-2.808-.067-4.5-.153-5.041l-.037 5.04c.05 1.639.138 1.639.19 0zm-.153-7.576c.12-.715.075-6.753.268-5.052-.068-10.392-.398-12.054-.458-22.732-.02 6.5-.252 5.933-.265 12.628.236 9.735.143 15.21.455 15.156zm-.838-6.303c-.158 1.41-.262 4.769-.304 10.104.18.54.102.66.343 1.25-.03-4.027.034-4.784.076-6.302l-.115-5.052zm-.34 46.73c.088 1.23.187 2.21.301 2.52-.065-3.022-.244-12.197-.34-6.321.044.213.041 2 .039 3.8zm113.06 211.242c-4.997-.086-6.869.047-10.104.115 3.981.015 4.463.018 8.837.039-.281-.076 1.425-.086 1.266-.154zM.835 108.698c.07-.198.024-4.295.078-5.067-.096-1.872-.18-4.202-.304-5.037.052 4.108.122 7.642.226 10.104zm149.882 228.2c1.11.122-3.282.077-3.786.15 4.88-.026 4.486-.023 7.58-.036.227-.086-1.04-.122-3.794-.115zM2.74 221.082c.08-1.056.161-4.8.229-2.535-.128 1.698-.029 5.343.075 6.328.097-1.024.1-5.202.154-7.579-.029-1.692-.102.614-.193-1.266l.04-5.052c.098 2.307.114-.55.228 1.25-.073-6.876.047-11.982.115-17.68-.032-4.29-.198.82-.23-5.05l-.114 7.591c-.109-1.768.068-4.342.04-7.592-.1-4.035-.334-5.798-.383 0-.112-.873-.185-1.503-.226 0l-.154-16.403c.032.673.063 1.313.115 1.256-.112-5.445-.172-.731-.38-5.034.016-2.392-.052-7.618.075-6.336-.062-2.816-.306-3.39-.38-3.783-.023-2.629-.046-5.13-.077-8.845-.17-1.368-.187 2.132-.305 2.527-.111-.45-.187-2.182-.226-5.044.04-5.51.1-5.28-.078-7.569.01-2.605.17-.314.154-3.801-.146-3.18-.253-7.68-.268-15.155-.11 1.778-.208-3.919-.19 1.266-.114-3.666-.01-8.609-.265-8.827.039-2.25.067-3.708.114-6.318-.008-3.98-.205-1.63-.192-6.336.057 1.482.096 1.482.153 0-.026-2.77-.21-2.98-.268-2.502-.062-1.856.047-6.783-.114-7.592 0-6.775-.003-17.435-.005-28.964C.165 56.277.147 50.294.132 44.473l-.016-8.565c-.055-2.511.057-6.23.69-9.196.043.237.335-.754.959-2.938C1.31 25.857.545 28.836.54 32.492.527 35.562.51 39.156.496 43.027c.02.302.05-1.981.036-2.532.094 6.942.304 22.74.419 31.566.106.247.09-4.734.192-1.266.115-3.876-.031-9.89-.039-13.879.104 1.142.06 7.23.19 7.569.104-8.281.083-15.163.031-21.902l-.05-5.047-.023-2.54c-.005-.858-.036-1.651.024-2.728A30.596 30.596 0 0 1 4.23 19.877c.193-.255-1.006 2.335.104.052a30.639 30.639 0 0 0-2.972 12.287c-.06 1.072-.04 1.878-.034 2.715.008.834.015 1.659.02 2.467.019 1.615.034 3.172.05 4.657.076 5.933.185 10.717.354 13.595.07-3.021-.01-3.73 0-8.837.039 2.888.117 4.461.114 8.837.156-.073.172-.928.304-3.785-.135 4.54.034 7.3.076 12.62.148-2.634.062 1.88.229 1.269.044-.213.031-2.299.039-3.786.078 1.274.35 7.686.416 1.266.153 2.543-.018 4.47 0 7.561-.099.018-.216-.478-.265 1.266.065 4.142.244 4.449.228 11.373.167 1.414.125-.018.266-1.27-.018 3.857-.024 4.613-.04 7.588.048 3.375.102-3.297.154-3.801.161 2.288.182 5.122.19 10.11.169-1.926.013-7.843 0-11.361.07.338.19 5.382.268 1.25.135 3.006-.115 3.752-.04 8.843.003 3.25.15 1.82.152 5.055.083.21.018-4.47.039-6.321.145-.133.057 7.39.19 7.569.065.48.072-.968.075-2.502.294 7.301.452 2.424.648-5.067.01 2.69.127 8.302.228 3.786.14.928-.015 3.8.078 6.318.206-4.878.476-3.588.799-3.783.034 4.947-.2.91-.23 3.783.045 4.854.212 5.618.23 11.37.12 1.076.117-2 .19-2.533.122.575.22 1.942.19 7.592-.157 3.801-.414 2.714-.534-1.266-.044 1.661-.015 1.991 0 3.783.097 1.708.362 2.244.23 7.57.264 5.588.441-6.452.647 0-.057 2.323-.159 3.163-.193 6.319-.262-5.036-.405 3.856-.684 0-.026-4.675.133-3.156.19-5.036-.12-1.464-.403 2.54-.533 5.036.421 4.854.6 6.516.837 13.887.047-1.927.117-7.405 0-7.561.138-1.165.435 3.28.497 8.835-.132-1.077-.145.033-.265-2.517.01 7.303.413 3.367.455 0 .286 1.339.375 6.123.684 2.517-.018 3.983.117 2.857.075 7.57-.078-.52-.098.874-.15 1.283.187 2.613.384 7.217.608 5.036.037 9.859.44.377.648 5.052-.117 16.034-.708 11.999-.952 21.465.065 3.336.262.466.265-2.535.143 4.95.406 5.98.611 8.858-.255 4.298-.64-4.373-.952-3.806-.085.944-.127 5.933-.228 2.54.052 5.156.41 7.28.494 3.778.26 1.646.343 1.069.608 2.525-.54 13.338-1.776 3.21-2.359 7.586.076 2.125.237 1.376.344 2.535-.013 2.265-.203 4.933-.23 2.517-.275 13.086-1.149 17.995-1.71 13.887-.091 1.118.086 7.059-.115 6.328-.008 9.675.281 6.516.266 13.887.06-4.477.202 1.126.304-2.533.057.541-.016 1.628 0 3.799.307-12.55.767 2.218 1.063-8.85.175 6.34.557-4.07.612 2.516.015-4.713.371 2.55.38-5.036.283 1.36.4 6.443.722 8.835-.304-.055-.853-2.759-1.102 5.054.01 3.484.314-4.123.304 2.525-.21-2.252-.304 4.376-.533 5.052.023 2.571.192.353.153 5.052.091.517.08-2.307.19-1.251.055-1.087.055-4.085.075-6.336.247-2.273.492-4.776.838-3.783-.057 2.98-.08 2.35-.04 6.318-.166 2.462-.368 3.7-.493 7.568.041 3.084.548 5.343.494-5.051.08 6.01.543-3.627.572 7.584h.38c-.094 1.024-.037 10.145-.037 12.63.198-2.4.349-2.196.57 0 .018 2.928.028 4.855.039 6.303h.455c-.076 5.32-.24-.143-.38 2.532.029 2.858.213.497.304 1.27.019 2.64.026 3.343.04 5.048.14-.109.106-1.422.228 0-.176-7.246.383-2.46.494-7.568-.111-12.842.445-5.642.723 1.25-.338 10.127-.647 9.522-1.102 6.318.148 5.785-.432.484-.611 1.25.075 1.69.195 2.658.148 6.23.135 1.867.18 1.722.229 1.592.054-.133.036-.245.353 1.604.466 2.483-.052 1.375-.254 1.152.853 2.496 1.139 3.393.99 3.143.807 2.171 1.99 3.599 1.956 3.885.98 1.52 1.105 1.292 2.08 2.53.791 1.136 3.288 3.418 2.913 3.242 3.792 2.852 5.813 3.497 7.675 4.074 1.505.491 3.472 1.05 5.352.98.983.055 1.734.094 2.372.09.595.014.967.037 1.232.06.53.048.632.107 1.251.152 4.18-.068 7.446-.1 7.57.114 2.7.018 2.417-.052 2.526-.114 3.518.143 8.73.01 7.588.304 6.5.023 6.965-.177 5.053-.304 4.447-.167 10.702-.078 15.149.039-2.343.239 2.497.312 2.52.572 4.871-.198 5.352-.528 11.373-.687 1.628.052 5.484.04 8.855.04 1.682-.18 7.664-.227 6.309-.497 10.769-.052 17.427-.086 30.31-.151 2.707-.06 3.66-.17 5.069-.265 4.751-.034 5.926.124 8.837.039 2.36-.107 2.392-.286 5.045-.383 4.902-.02 5.193.097 8.84.115-.859.153 1.211.216 1.266.34 3.557-.005 1.573-.18 6.32-.15 1.77.239 10.113.48 7.572.722 9.396.4 26.074.583 20.218 1.446.858.088 4.194.101 5.053.192-8.478.736-10.933 1.42-22.738 2.13-11.924-.089-17.536.33-27.79.418 4.093.167.237.575 10.098.57-.143.073-4.163.026-3.786.114-1.007.567-6.06 1.235 8.855 1.6-2.3.524-7.053.98-11.373 1.445.14.026 1.082.028 1.992.034.456.002.9.007 1.236.01.333.005.554.016.556.031 7.376-.31 22.197-.395 34.11-.572-1.423-.096-9.765.016-11.37-.075 2.25-.21 11.78-.203 12.637-.458 7.518.096 3.77-.158 7.573-.229 4.65-.03 2.304.203 1.25.23 4.094.049.983-.123 5.061-.074-.73.123.866.175 1.267.263 4.085.05.96-.122 5.053-.075-1.306.1-1.503.234-1.267.382 6.619-.094 13.45-.18 15.175-.421 1.597.054 6.169.062 6.296-.037 1.495.008 1.069.07 1.267.115 7.768.044 7.081-.17 12.639-.193.676.148-2.253.19-1.267.343 4.106-.026 3.014-.213 5.053-.304 1.896.117 3.792.024 6.31.076-2.58.293-6.492.54-11.363.761 3.966.019 5.162-.046 6.32-.114 1.84.034 3.989.06 3.786.153 3.092-.02 2.681-.148 7.578-.114 3.03.101-1.685.203-2.52.304-5.178 0-8.805-.018-6.32-.15-5.06.088-2.43.408-11.361.379v-.15c-7.147.075-8.785.319-13.9.454-1.465-.01-3.392-.018-6.32-.036.913.14.73.213-1.267.343-5.344-.05-7.872-.073-12.626-.114.536-.125 6.746-.078 8.84-.154-.14-.073-4.237.044-7.589 0 .923.229-14.04-.018-12.615.229-10.104-.12-29.38.036-32.841-.19-2.166-.002-3.282.026-3.802.076-1.48-.008-1.053-.07-1.267-.115-2.4.029-3.165.04-6.304.076-1.825-.406-17.63-.172-25.272-.266-2.06.151-10.002.13-11.365.305 3.079.01 7.006.19 8.847.114 3.73.034-2.936.055-1.269.15-11.11-.017-18.038-.166-25.262-.303-.583.036.858.093 1.258.228-3.682-.041-7.469-.057-8.829.04-1.118-.07 3.415-.19-1.266-.305-10.736.26-23.864.018-31.577.265.023-.143-.575-.26-5.069-.265 5.092-.226-6.382-.122-5.053-.343-5.375.104-5.375.37-10.095.494-1.748-.013-3.379-.023-4.91-.031-.768.002-1.509.002-2.226.002-.85-.03-1.673-.065-2.471-.098-3.207-.237-6.008-.812-8.426-1.68-3.709-1.365-6.182-2.943-7.953-4.326-1.815-1.342-2.928-2.561-3.898-3.604-.934-1.092-1.722-2.044-2.523-3.284a18.8 18.8 0 0 1-1.3-2.056c-.447-.786-.983-1.646-1.449-2.733-1.862-3.962-2.559-5.572-3.053-9.953-.236-1.305-.288-2.626-.413-3.853-.063-1.058-.12-2.072-.177-3.03.02-1.66.057-4.656.075-6.317-.033-3.43-.19-2.88-.304-3.786.018-2.407.11-2.282.078-6.315.099 1.266.255 2.241.304-1.269-.171-3.037-.293-2.699-.382-10.096.078.016.05 3.448.154 2.535.09-1.653.072-6.83.114-10.106.023.156.034.78.031 1.37 0 .588-.031 1.15-.031 1.15.083 3.377.252.015.15-3.783.123 6.923.54 9.3.763 8.834.216 7.68.624 16.162.952 12.631.306 7.16.52 11.604.876 12.618-.05 2.608-.029 3.203.005 3.796.026.621.055 1.238.174 3.957-.049 1.136-.197-1.926-.26-1.362.063 1.456.188 2.69.411 3.728.151 1.05.385 1.898.611 2.605a13.14 13.14 0 0 0 1.087 2.81c.567 1.142.846 1.236 1.701 2.422 1.75 3.421 2.926 4.565 3.626 5.488.834.822 1.232 1.48 2.821 2.94 2.988 2.408 3.826 2.694 1.197.65-2.128-1.871-3.55-2.893-6.125-6.892-1.16-2.095.393.432-.491-1.245-2.232-3.942-3.29-7.74-3.623-11.81-.234-4.037-.216-8.072-.3-13.387-.153 2.283-.241 1.825-.418 1.266.01-1.128.02-2.857.04-5.067.124.07.189 2.14.342 1.282-.14-5.879.154-10.551.076-13.895.047-1.817.13-2.392.229-2.535-.021-3.564-.021-3.263-.04-6.318-.033.986-.085 1.363-.15 1.267.11-3.352-.112-8.019 0-11.37-.018-2.462-.11 2.085-.078-3.783-.115.382-.135 3.902-.304 2.517.013 1.996.023 3.884.03 5.278.024 1.393.06 2.295.123 2.324-.078 4.625-.005 8.481 0 13.876-.164-5.535-.351-10.252-.458-17.677-.294-6.594-.816 7.514-1.027-1.27.125 3.087.356-.342.533-2.531-.307-5.681-.51 3.447-.76 0 .032-1.391.084-.864.152 0 .109-1.542-.167-3.65-.04-6.295.352.135.77-.229 1.257-5.052-.032 5.697.09 6.303.114 10.096.065-1.141.104-4.651 0-5.044.099-3.03.263-3.918.265-10.12-.005-2.02-.18 2.07-.15-3.782-.05 1.744-.167 1.266-.268 1.266-.016-7.13-.021-8.788-.037-16.414.096.14.076 4.233.076 7.569.057-2.73.05-7.6.229-6.303-.013-6.034-.138-5.545-.115-10.1-.083-.536-.21 3.767-.114 5.033.01 3.375-.149-3.351-.115 2.535-.052-.387-.03-3.156-.036-5.052-.021.01-.026.4-.031.905l-.008 1.612c-.112-1.087-.042-1.888-.04-5.034-.108 1.124-.114 1.124-.225 0-.04 4.202.052 4.13.15 3.783.05 3.133-.111 5.232 0 6.318-.07 1.077-.104 3.25-.19 3.776-.028-3.445.076-2.54.076-5.042-.143-.944-.185 1.417-.19 5.042-.26.192-.156.93-.38 0 .019-4.381.006-7.803-.153-6.308zM7.92 31.79c-.088.621-.124-1.407-.25 1.154.027.076.016.143.016 1.24-.06.11-.132-.19-.114 2.52.159-.546.15-1.69.348-4.914zm363.794 280.082c.595-1.456.01 2.81.957-1.019.06-1.035.138-2.272-.034-2.501-.13-.226-.218.593-.923 3.52zm1.508-204.1c-.052 3.115.112 5.232 0 6.295-.088-.419-.159-1.518-.229-2.52-.015 2.975-.26 4.785-.114 8.838.054-2.478.322-1.534.382 0 .031-5.218.164-7.121.265-10.096-.075-1.731-.218-1.209-.304-2.517zm.102 199.49c.101 1.1-.16 2.746-.573 4.852.19-.525.12.104.156.265-.007.151.294-.132.625-2.636.215-2.033.013-5.912-.208-2.48zm-67.5-299.834c1.873.205 5.303.213 5.05.419 7.322-.107-.015-.505 6.323-.687-1.875-.026-3.18-.047-5.053-.075-1.899.12-1.449.312-6.32.343zm-54.306-.153c4.187.046 3.077-.258 1.259-.266 1.001.133-1.88.146-1.259.266zm65.679-.23c10.327-.06-.213.279 7.57.269.606-.17-1.732-.19 0-.305-3.856.016-6.431-.101-7.57.037zm57.206 256.057c-.24 2.217-.37-3.62-.609 3.785.255.73.385 5.712.648 6.31.057-5.902-.034-4.204-.04-10.095zM6.09 69.545c-.208.535-.328-2.754-.42 2.516.222-.949.308 1.199.42-2.516zM275.525 6.93c-2.536-.135 2.894-.27-3.818-.304-.338.15.502.265 3.818.304zm99.333 273.853c.013 2.478-.052 2.501-.076 3.783.086.551.209 2.912.227-1.269l-.151-2.514zM250.244 6.248c1.425-.047 3.604-.07 2.533-.19-2.203-.016-3.92-.029-5.06-.04.01.102-.708.224 2.527.23zm-1.259-.305c3.329.01 4.148-.052 3.792-.15 1.48-.008 3.573.005 3.779-.04-2.528-.049-4.395-.02-5.644.03-1.25.049-1.88.121-1.927.16zm126.138 298.82c.151 2.58.232 1.512.328 2.583.083-4.298.11-2.065.169-1.313.026-3.393-.078-2.434-.115-3.786-.067 6.42-.325-1.464-.382 2.517zM338.668 5.83c-2.877-.117-6.291-.216-11.365-.265-.65.05-2.549.062-4.283.08-1.735.016-3.306.04-3.306.11 2.89-.01 4.754.007 5.053.075-3.071-.026-9.895.026-6.322.075.073-.02.2-.044 1.27-.036 3.677.086 7.809.14 3.801.265l12.624-.075c1.274-.19-3.982-.122-1.274-.265-1.883-.008-4.637.013-5.048-.04 4.543-.023 6.116.045 8.85.076zm0-.229c3.94.029 11.835-.018 7.57-.114-2.01.14.3-.154-3.786-.076-.11.1-5.4.042-3.784.19zm10.16-.255c3.342.086 5.506.765 6.598 1.098-2.822-.814-4.2-.741-3.94-.692 1.87.205 4.039.7 5.862 1.427a18.14 18.14 0 0 1 2.484 1.043c.712.34 1.331.588 1.734.816-1.277-.798-3.386-1.89-5.76-2.654-2.377-.736-4.99-1.142-6.978-1.038zm20.103 319.023c.466.125-6.944 7.215-.53 1.316-.859.75.473-.767 1.315-1.937.786-1.228 1.316-1.922-.785.62zM267.936 5.184c2.408-.018 5.43-.015 5.053-.114l-3.787-.04c.268.07-1.44.084-1.266.154zm108.331 228.868v-7.584c-.098-1.953-.327 2.085-.457-1.267.023 5.546.247 4.49.268 10.101-.097.182-.185.198-.23-1.25.107 3.216.269 11.253.42 8.835-.024-.92-.237-12.408 0-8.835zM364.193 9.927c.073.171 1.976 1.622-.11.156 1.704 1.151 3.868 3.208 4.156 3.491-4.14-3.892 1.27.929-1.854-2-.229-.204-.915-.683-2.192-1.647zm-77.304-4.972c-2.59-.023-2.489-.114-5.071-.039v.23c-2.738.067-8.878.036-10.111.15 4.234.044 8.806.088 15.182.153-4.881.042-11.1-.07-12.65 0 .412.032-.912.253 1.286.494 1.64.073 6.665-.075 7.554.076l-10.09.229c8.06.054 9.617.039 15.151 0 1.831-.13-1.41-.18 1.251-.266h2.533c-.8.1-.283.117-2.533.23 4.77-.02 4.491.116 7.586.15-4.335-.364.575-.393 0-.837 4.203.015 7.058-.206 2.533-.23-2.393.069 1.716.118-2.533.154 1.953-.377-2.533-.488-7.586-.722-1.592.127 4.96.2 1.282.265a91.152 91.152 0 0 0-8.855-.23c2.12.03 8.673.118 5.071.193zM55.723 4.802c.322.156 5.682.159 8.829.229 5.973-.226-1.795-.388-8.83-.23zM22.409 6.887a20.522 20.522 0 0 1 2.925-.886 16.857 16.857 0 0 1 2.585-.533c.866-.154 1.769-.29 2.814-.315a41.259 41.259 0 0 1 3.503-.083c-1.334-.182-3.464-.219-2.572-.466-3.456.058-5.755.754-7.271 1.168-1.519.457-2.247.858-2.585 1.003-.66.34.348.089.6.112zm354.01 234.733c-.037.008-.045-1.016-.076-1.25.015 6.398.078 1.471.19 1.25-.016 1.81-.045 2.132 0 3.802.052-.063.086.582.114 1.258-.013-5.426.185-4.035.154-10.109-.172.016-.195 6.82-.268 0-.037 1.682-.034 4.696-.115 5.05zM332.345 4.688c.6-.18-1.574-.07-3.777-.037.195-.096-1.984-.12-2.535-.192l-20.21-.037c2.315.078 4.351.11 2.518.23 4.91-.024 4.423.116 7.57.15-7.23-.026-4.793.153-1.25.19-7.641.002-7.72-.224-13.898-.265-4.25.096-3.36.423 3.802.457 1.997-.005.98-.099 3.776-.078-.7.078-3.792.076-1.251.15 8.626-.03 11.554-.233 18.943-.3-.086.213-6.603.23-7.589.418 3.157-.029 5.196.166 7.589.036-1.18-.041-4.66-.01-3.787-.114 3.017.013 9.147.127 10.099.078-1.654-.104-7.225-.088-7.579-.229 5.573-.028 5.178.122 8.853.15 1.204-.07-3.794-.126 0-.15.725.034 2.645.216 3.781.112-2.842-.026-.489-.213-1.261-.302-5.888-.013-5.784-.28-10.106-.228 2.364-.01-.708-.063 1.269-.076 2.273.125 7.807.068 10.098.112-.002.016-.224.026-.556.031-.333.003-.78.008-1.236.01-.907.006-1.851.008-1.99.037 7.706-.091 4.047.504 12.62.19-4.518-.024-1.489-.206 1.266-.23 2.098.058 3.469.144 4.592.375 1.147.154 2.094.38 3.485.718.247.018-1.54-.59-2.7-.777-1.162-.185-1.607-.383 1.428.176-4.098-.925-7.019-.616-8.072-.795 1.443-.024 2.988.135 4 .12-1.087-.068-1.613-.115-1.379-.146-4.049-.057-9.013-.034-12.72.065 6.242.02-1.315.018-1.273.075 7.247-.044 8.207.143 11.372.115-1.425.104-9.107-.003-5.053-.076-3.347 0-7.201-.015-8.84.037zm44.795 238.199c-.15 1.253-.114-3.778-.265-2.517-.088 10.772.091 10.558.302 11.362-.013-3.996-.016-4.462-.037-8.845zm-.494-160.397c.112.733.312 2.392.154 5.06.07 1.409.176 1.622.265 2.519-.026-4.116-.2-3.448-.19-8.83.161.151.19 4.558.302 6.31V77.455c-.094.213-.117-1.942-.149-3.799-.096-.197-.12 1.984-.19 2.533 0-4.218-.155-3.352-.192-6.318.047-.14.089-.377.078-2.533-.166-1.417-.31-6.216-.382-1.253.036 1.355.14.395.114 3.786-.067.299-.19-1.282-.153 2.516.104 4.873.325 7.192.458 7.587-.065-.054-.1.967-.115 2.517zM245.183 4.459c5.924-.122 11.167-.232 16.433-.343-3.966-.019-5.162.09-6.32-.037 2.425-.015 5.431-.013 5.038-.114h-5.037c.283.275-9.565.244-10.114.494zm130.97 175.292c-.068 0-.221-3.406-.268 0 .185-.23.102 3.122.154 10.103.054.206.14-.455.153 1.259-.005 1.976.003 4.376-.078 3.785 0 2.66.153 6.555.19 3.783a47.241 47.241 0 0 1-.112-2.532c.029-1.472.055-2.847.075-3.775.063 3.242.14 4.734.23 2.524-.042-.07-.032-1.614.036-1.266.06 1.763.106 6.531.039 8.85.187 2.952.346 4.29.494 0-.133-2.753-.26-5.68-.34-10.108.124-4.87-.1-13.975.036-18.954.124 2.925.447 11.013.57 2.532-.113-.858-.024-8.445-.154-8.837v11.37c-.026-5.388-.323-8.622-.19-15.161.145-1.34.109 3.13.231 2.53.021-2.618.057-2.689.112-1.274-.073-7.733-.242-.848-.38-8.827-.036 2.345.112 4.217 0 5.052-.075-2.392-.065-4.439-.036-7.585-.161 2.754-.161-.41-.343 3.802v-5.07c.054.306.062 2.087.114 2.535-.028-5.84-.156-8.357-.268-11.37-.028 2.816-.02 6.853-.114 7.584.005-2.746-.133-.572-.19-1.266.062 4.966-.164.434-.15 3.785.098 1.857.14 4.673.264 2.533.006 5.735.279 2.558.19 11.362.125.41.042-6.217.23-3.791v10.096c-.266-4.667-.516-10.985-.838-7.566-.026 5.455.065 7.082.114 10.098.104.928.076-2.504.154-2.532.062 6.739.22 10.384.38 13.9.116 12.141-.42 2.755-.305-7.57zM219.928 3.928c3.792.021 7.176-.16 3.784-.228-1.11.08-3.838.111-3.784.228zm157.25 97.526c.158 1.516.213 6.443.343 8.835-.096-7.67-.273-14.635-.455-10.103-.037-2.359.112-4.215 0-5.05-.008 1.519-.042.77-.078 0-.042 5.208-.037 8.68.114 10.086.031-1.495.06-2.855.076-3.768zm.229-17.68c-.105-.12-.076 2.109-.151 0 .02 6.758.197 20.41.343 11.362-.14-.943-.276-6.95-.192-11.362zm.039 1.25c-.021 5.43.127 7.876.19 3.794-.09-.395-.07-4.383-.19-3.793zM226.24 3.586c-.881-.135 7.64-.327 1.259-.382.952.146-5.155.273-1.259.382zM377.98 201.216c-.377 3.123-.44-9.113-.687-13.897.096 6.896.182 12.142.115 21.466.174 1.269.39 2.574.61 2.535-.064-3.409.053-6.474-.038-10.104zm.039-108.615c-.107 1.04-.1-1.77-.193-1.266.073 6.264-.013 4.714-.075 8.85.14.411.21 3.11.343 3.786-.034-5.083-.034-4.997-.075-11.37zm.418 180.596c.006-4.02.14-3.754.151-7.576-.078.809-.265 4.555-.15 7.576zm.344-180.596c.018 3.573.018 3.266.036 6.318.094.198.159-.644.192-2.532-.062-1.825-.15-2.66-.228-3.786zM144.138 1.947c.778.055 4.853.008 5.05.078-.95.138-4.035-.005-8.844.037 2.895.137 5.99.12 10.114.153 1.748-.174 10.624-.135 12.623-.304-3.282.023-4.54-.016-3.786-.115-4.093.042-14.27-.072-15.157.151zm-46.743-.19c1.787.221-8.538.073-7.563.268 4.359-.07 8.562.057 6.312.19 14.787.177 18.896-.257 27.775-.38-2.04-.244-12.988-.218-18.938-.343-3.077.02-6.5.031-6.32.15 3.496.074 13.664-.038 11.373.115-4.8-.106-7.57.065-12.64 0zm30.326-.036c-.31-.283-11.092-.25-17.687-.343 3.573.205 12.79.26 17.687.343zm-6.322-.533c5.518-.047 7.814.05 10.106-.075-5.147-.01-6.25-.143-12.632-.115-1.087.12 1.982.117 2.526.19zM89.832 2.977c2.739-.044 8.153-.008 8.83-.115-1.967-.01-.882-.083 0-.114-3.967.044-3.07-.06-5.054-.078.466.169-6.831.099-7.578.229 1.982.005 4.393-.005 3.802.078zm215.992 6.315c1.267.029 4.705.182 6.32.076-1.204-.032-4.078-.2-6.32-.076zM149.19 1.453c.213-.15-1.935.013-3.787-.075-.587-.107 6.887.028 6.307-.076 1.565.078-.931.055 5.068.037-.174.067 1.535.08 1.267.153h6.304c1.748-.002 4.925-.148 2.536-.153.928-.086 4.805.054 5.05.114.827-.05.686-.169 0-.265 3.935.21 5.22.502 10.098.684 3.787-.026 1.896-.221 5.053-.265-1.693-.078-8.257-.006-6.32-.19 5.124-.008 6.57.229 8.838 0 3.024.015 7.515.33 8.855.15 1.919.12 2.392.284 5.045.38 6.42-.086.283.08 5.053 0-3.519-.088.842-.192-3.787-.265.859-.094 3.842.057 5.053.075 4.289-.07-2.166-.132-1.266-.228 3.909-.019 3.336-.177 7.586-.19 1.071.535 19.055.257 30.323.229-3.589.335-17.055.208-26.537.304.983.034 1.36.086 1.267.153 2.416-.018 5.43-.015 5.045-.114 3.368.104-1.844.273-6.312.265-1.087.2 4.783.187 7.57.268 3.322-.206 10.01-.307 12.648-.533l7.57.19c3.542-.084 2.882-.294 6.304-.38 2.842.086-3.123.231-3.776.34.07.211 4.356.266 9.796.266 5.44-.024 12.039-.055 16.735-.073-3.77.073-11.232.146-16.44.114-3.345-.013 1.188.21-3.78.151 1.527-.208-4.831.096-7.57.115 3.651.106 10.954-.091 16.4-.154-1.07.122 2.002.117 2.55.19 15.059.075 5.275-.083 13.883-.15-.463.064.99.072 2.536.077-4.723.057-7.862.167-6.315.416-4.371-.008-2.293-.208-3.8-.304h-3.786c-4.878.161 3.196.419 0 .533-6.332-.034-4.39-.694-11.372-.458.551.058 1.623-.013 3.786 0v.154c-3.95.018-5.643-.034-5.037-.154-3.558-.005-3.66.094-3.81.193 3.74.023 5.362.236 2.536.34 1.274.107 5.367-.01 7.593 0-.658.097-2.163.149 2.52.154.913.104-2.504.075-2.52.153 4.715-.073 10.312.112 16.418 0-2.879.172-8.215.094-13.898.037-3.422.049-3.305.205-7.588.228 4.197.052 2.442.281 8.855.266-4.73.057 1.337.218-3.787.228-.944.104 2.49.076 2.52.154 4.486-.06-1.18-.208 5.038-.23.036.141-.552.264-5.038.266 1.07.156-3.432.356 5.038.419 2.928-.115-.034-.17 5.068-.076 6.382-.093-2.998-.423 3.792-.494-.45-.101-3.165-.135-3.792-.228 8.947.023 6.775.38 13.898.457 5.178-.143-3.344-.4 5.053-.496 3.14.117 2.122.257-1.266.343.824.05 2.7.07 5.05.075 4.796-.288 9.045-.348 21.47-.265-1.138-.135-5.767-.312-2.535-.458 5.017.019-1.519.164 3.802.19 1.483-.005 1.056-.067 1.27-.112 2.863.029 7.838.19 10.103.112 2.307.063-.903.122 2.52.19 1.376-.008.85-.073 2.528-.075 4.049-.008 2.067.166 6.317.153-1.07.088-5.54-.031-7.584-.04-.686.058-.772.06-3.781.115 3.544.042 8.01-.083 15.242.05-5.997-.237-4.803-.307-7.677-.583 1.982.016 1.087.12 5.053.078-3.896.05-1.664.14.902.224 1.275.031 2.88.198 3.641.255.786.164.88.125-.528.02 3.34.39 5.672.955 7.912 1.883 2.246.884 4.514 1.96 7.36 4.137-.914-.78-3.675-2.832.046-.06.505.333-.65-.736-2.34-1.763-1.654-1.087-3.842-2.085-4.832-2.467 1.45.478 4.85 1.856 8.3 4.851 3.454 2.938 6.91 7.452 8.684 12.63-.366-.932-.723-1.871-1.225-2.807-.434-.967-.975-1.937-1.625-2.964-1.29-2.044-2.98-4.378-5.776-6.726.967.889 4.392 4.454.918 1.04.876.83 2.67 2.805 4.31 5.234 1.645 2.438 2.86 5.439 3.52 7.651.747 2.746.77 2.655 1.025 4.023.421 5.725.343 4.708.458 10.465-.003-7.972.333 3.25.419 7.584.096-1.66-.1-4.155-.076-7.584.115 2.249.237 6.232.154 11.37.208-7.996.301 13.673.533 8.842.078.71.08 1.976.036 3.786.096-3.162.208 1.942.268-2.517-.031 3.17.127 4.17.19 7.584-.39 2.501-.682-3.786-.648-7.584-.075-.434-.12.25-.114 2.517-.195-3.573-.289-10.543-.458-15.145-.114 3.468.117 6.159.154 8.842.036 4.067-.123 1.779-.154 3.786.055 5.444.208 7.386.343 10.085-.002-3.681-.085-4.664-.15-6.302.028-2.486.132-4.524.19-2.525-.016 1.84-.034-.117-.076 0 .031 5.367.086 2.117.19 5.044l-.078 3.783c.047-.18.07.3.078 1.266.101.411-.037-7.056.114-5.049-.01 9.836.242 7.938.19 16.437.388-7.781.785 4.397 1.105 10.078.029-2.699.138-2.91.266-2.517.072 2.241-.045 3.705.039 6.334.122 1.56.028-4.093.15-2.533l-.036 5.05c-.185 1.944-.294-1.636-.419 0 .086 3.84.195 6.98.419 6.302.094 1.646-.2.814-.153 5.06-.25-2.468-.341-3.91-.57-1.259.042 6.955.408 9.987.57 8.845.096 1.25.109 9.072 0 10.088.046 3.822.15-.663.153-2.52.107 3.628-.174 5.133-.153 10.105.007 2.22.065 2.88.153 2.524-.013 1.017-.023 2.046-.042 3.786-.01 15.602-.023 2.225-.072-3.786-.091.41-.04 5.517-.117 6.32-.06-2.095-.206-6.858-.266-8.844-.177 7.033.43 11.486.193 16.413.062 2.486.174 3.39.304 3.802-.036 4.217-.07.61-.192 1.25.046 3.853.028 4.925-.04 7.582-.109-2.618-.023-8.008-.226-5.05.034-11.226-.32-9.638-.38-17.687.066-.291.19 1.266.151-2.535-.174-2.18-.234 7.319-.343 8.853.01 1.157.143 4.233.154 1.266.01 2.928.098 3.929.039 7.571-.05-7.23-.44-3.1-.497-10.103.107-1.04.099 1.786.19 1.266.01-3.336-.146-.999-.112-5.052-.104-.858-.075 2.605-.114 3.786-.052-1.27-.086-2.08-.154-3.786-.104 1.141.117 2.834 0 5.052.115 2.605.362 7.405.494 5.052-.054 5.413.099 6.232.154 12.628-.188-4.61-.1.944-.154 5.052.021 1.378.148.228.23 2.516-.032 1.056-.105 9.878.038 8.853-.023 4.462-.055 10.393-.075 15.145.135 2.621.114 10.5.34 10.104-.015 1.984-.117 1.087-.075 5.067-.065.45-.073-.998-.076-2.532-.033 4.397-.067 8.64-.114 15.148.034.943.153.046.265 1.266-.05 4.823-.106 7.412 0 11.367-.2.954-.14 10.429-.265 13.881.031.065.075 1.165.104 2.803.031 1.64.047 3.82.01 6.035-.083.715-.057-2.392-.114-2.517-.044 4.319-.127 12.477-.19 18.946-.086.229-.122-1.024-.114-3.785-.148 1.03-.255 3.35-.23 10.103-.116-3.754-.142 2.715-.189 5.052.065 1.786.281 1.872.15 6.318.12 1.417.087.11.23 0 .067 2.597-.042 7.02-.076 10.096-.057-1.857-.25-1.857-.304 0-.057 3.59-.12 4.201.003 4.331-.354 2.97-1.992 7.631-3.038 9.756-1.86 3.424-2.164 3.45-2.333 3.582-.096.065-.192.136-.556.596-.359.46-.962 1.328-2.31 2.797-.028-.19-1.895 1.675-.278-.26-1.708 1.748-1.958 1.88-2.023 2.05-3.42 2.766.45-.458.962-1.08 1.706-1.729 1.857-1.95 2.016-2.023 2.455-3.042-.718.713 1.638-2.347-2.952 3.975-7.011 7.537-11.937 9.919 1.272-.98-3.438 1.216.96-1.264 5.188-2.829 6.369-4.605 7.664-5.936-.325.3-.668.616-1.306 1.126-.624.528-1.48 1.313-2.975 2.366.526-.476 1.594-1.269 2.052-1.823-2.403 1.984-3.178 2.353-3.62 2.58-.442.226-.582.296-2.132 1.081 2.452-1.42 3.924-3.065.788-1.354 1.03-.62 1.89-1.196 2.561-1.771.692-.54 1.246-.998 1.628-1.422 1.584-1.383 2.17-2.137 2.434-2.369.255-.242.112-.031-.062.213-.375.474-.77 1.191 1.472-1.471-.666.772 3.911-6.24-1.272.663.533-.718.364-.767-1.118.717 2.647-2.875 3.784-5.246 4.265-6.578.484-1.346.437-1.671.023-1.16-.977 2.195-1.362 2.739-1.71 3.495-.17.382-.407.77-.836 1.37-.408.614-1.004 1.446-2.072 2.561 2.395-2.974 2.564-3.954 2.486-4.162-.112-.232-.635.158-.578-.567 1.522-2.426 2.016-4.05 2.24-4.805.218-.767.122-.717-.159-.164-.458 1.147-2.06 4.166-3.971 6.524.905-1.186 2.595-3.859 3.074-4.94 1.64-3.742 1.784-6.466 1.883-8.2.033-1.722-.078-2.705-.219-3.3.024 1.498-.044 2.197-.088 2.436.088 1.035-.122 2.569-.305 3.794-.273 1.2-.491 2.098-.327 1.913a23.977 23.977 0 0 1-1.69 4.293c.174-.741-.232.028-.768.754-.549.72-1.097 1.46-.923.897 2.026-3.326 2.07-4.267 2.76-6.12-1.002 2.64-.37-.05-.425-1.26.861-3.837.713-4.562.947-4.294.146.25.27 1.448.447 1.136.078-2.148.031-2.137-.041-2.023-.076.104-.13.398-.195-1.526.023-3.068.145-2.8.228-3.786.013-3.359-.213 1.189-.153-3.783.127 2.463.398.26.419 6.318.946 2.842 1.532-.66 2.437 1.25-.393-5.766-.887-13.737-1.485-18.93.39-.889.73 10.198 1.141 3.786.102 9.656.57 14.383.645 18.951.291-1.996.377-6.715.494-5.057.013-3.712-.15-4.698 0-6.318-.046-2.99-.205-2.446-.304-3.793.05-3.838.133 1.378.229 0l-.684-13.887c.169-3.25.317 2.983.455-2.532-.104-3.7-.244-.38-.34-2.52-.008 1.464.007 2.242.038 2.52-.174-.616-.678-1.474-.876-2.52.114 6.493.312 2.37.458 7.57-.17 1.195-.36.158-.687 0-.055-4.793.172-.237.115-5.05-.097-2.527-.292-3.234-.42-1.269.066 2.062.141 3.833.269 3.801-.06 4.657-.266-2.839-.307 1.27-.138-1.748.008-5.211-.115-7.588-.442 9.033-.483-16.5-.91-7.576-.304-2.512-.434.335-.686-1.269.16 9.844.704 6.966.949 13.897.106-1.417.335-2.732.307 3.783-.442-5.075-.989-6.752-1.332-15.145-.047.195-.034 2.306-.039 3.783.013 1.716.094 1.056.154 1.266-.177.097-.497 7.525-.801 1.261.026-4.64.007-6.286-.076-8.845.094-5.145.312 1.417.304-6.302.222.632.427 1.856.687 1.253v-2.52c-.042-2.87-.24-.493-.343-1.266.348-9.23 1.022 4.641 1.18-11.37-.153-5.485-.28-5.878-.572-5.046.097-3.193-.096-3.224-.15-5.05.005-1.494.067-1.068.114-1.265.003-5.208-.18-4.21-.193-8.838-.028 1.087-.104.746-.111 2.52-.076-2.715.028-10.845-.268-11.362.02-3.945.22-1.945.304-3.786-.114-6.178-.416-1.126-.572-3.801l.039-3.783c.276-.575.6.55.723-5.055-.042-1.518-.11-2.285-.076-6.307-.21-.481-.603-6.885-.798-5.055-.039-4.232.117-1.97.19-2.532-.138-8.12-.541-3.95-.762-11.367.062-1.67.08-4.865.229-3.786-.021-3.052-.143-2.795-.23-3.78.024-5.26-.202-6.968-.186-13.902.067-.156.125-.825.148-2.517-.148-5.06-.317-1.589-.377-8.853.231 1.89.564.496.796 2.535-.073-2.613-.318-6.248-.38-5.052-.068-2.99.099-5.09-.078-7.56.159 3.933.325-5.014.611-1.283.117-5.785.38-6.752.687-6.305-.019-1.565-.05-2.587-.115-2.532.43-3.195.669 6.287 1.217 5.052.133-4.854.258-9.93.305-17.665-.123-1.118-.12 1.935-.154 3.776-.117-3.893-.198-2.052-.304-5.06.143-3.53.45-2.571.723 1.284.112-1.086-.047-3.195 0-6.318.13 2.322.354 4.319.458-1.268.127.426.135 4.786.228 6.302.094.22.12-1.927.151-3.783.645 1.414 1.251 9.017 1.94 15.148.136 7.906.333 25.225.726 16.437.052.431.002 2.202-.04 2.517.503 4.357.726 4.357 1.028 2.524-.055-3.697-.2-4.357-.15-11.362.075 3.81.155-.195.265 2.535-.193 7.23.434 6.846.418 16.396.065-1.14.133-2.343.115-6.318.12-.598.132 2.283.265 1.269-.068-8.986-.377-3.126-.533-10.096.005-2.816.096 1.63.19 0-.04-3.957-.037-4.051.114-3.786.052-5.444-.18-1.565-.15-6.315-.024-.029-.081.522-.128.015-.047-.504-.08-2.072-.065-6.336.216 1.786.33 6.698.457 11.37.068.465.073-.983.079-2.517.067 2.377.111 5.588.265 5.036.083-.174.08-3.18.075-6.305-.09-.504.021 5.736-.114 3.786-.016-2.265-.018-2.66-.037-5.05-.387 1.8-.559-9.765-.725-18.948-.026 3.18-.07 7.836-.112 12.628-.187-6.963-.447-3.611-.723-7.56-.073 1.416.073 8.733-.15 7.56.049.796.004 4.87.075 5.052-.07 3.84-.117-3.572-.115-6.318.078.536.099-.858.154-1.25-.05-3.849-.149 1.832-.193-1.27-.11 7.036-.242-4.664-.38-6.325.042-1.464.094-3.162.151-5.036-.112-3.461-.07-6.23-.114-10.117-.138 6.224-.19 4.8-.419 0 .029-2.252.07-.166.115 0 .033-4.022-.06-3.895-.076-6.295-.104-.55-.036 4.696-.114 5.044-.526-2.732-.965-8.395-1.368-15.163.018 3.053.015 2.754.034 6.318h.228v5.052c-.192.881-.39-.796-.455-3.786-.111 1.11-.041 1.898-.036 5.06-.068.26-.099-2.163-.114 0-.055-.408-.034-3.162-.04-5.06-.236.206-.548.59-.837-1.266-.031 6.058.148 5.247.229 7.577-.075 3.044-.114-2.023-.304-1.251v-3.81c-.125 1.324-.084 3.204-.193 0 .037-1.099.112-.212.23-1.25.015-2.155-.03-2.376-.076-2.535.317-6.16.834 2.252 1.334 1.27-.11-5.744-.203-4.785-.419-7.588.003-1.48.068-1.053.112-1.266-.096-4.357-.31-4.862-.419-8.827.044-1.48.044-4.461.04-7.568-.25-2.229-.531-3.495-.724-7.587.263-7.655.601-3.123.991-7.584-.237-4.792-.619-2-.647 0-.117 3.107-.203-8.523-.383-3.786.1-6.297-.268-2.68-.19 2.535-.093.18-.117-1.984-.19-2.535.024-1.162.073-1.9.11-2.512-.073-1.94-.281-1.921-.154 0-.075-.403-.109-2.074-.08-2.363-.253-1.942-.52-3.13-.77-3.812-.216-.686-.317-.891-.364-.85-.094.089.041 1.139-.01 1.29-.055-1.53-2.29-6.204-1.1-3.302-.487-.848-1.085-2.71-2.81-5.031-.824-1.253.146.075-.538-1.04-2.286-2.434.916 1.404-1.828-1.503-1.474-1.594-3.157-3.047-5.375-4.298.494.094 3.386 2.06 4.702 3.33-.695-.699-1.017-1.143-1.717-1.702-.67-.59-1.643-1.412-3.815-2.535.172.213-.858-.338-2.158-.77-1.288-.483-2.833-.816-3.436-.855-3.32-.663-3.924-.611-5.765-.752-2.04.021-2.167.024-3.787.037-.229.096 2.824.093 3.787.153-1.072.112-4.068-.023-6.32 0 2.14.096 3.644.21 3.8.268-7.657.075-3.628.325-2.533.53-8.452-.187-9.31-.44-13.883-.683-3.731.192-9.91.312-11.372.572-5.823-.076-.702-.25-3.787-.383-2.858.029-.502.214-1.266.305-3.927-.008-2.135-.19-2.536-.305-5.006-.05-2.572.125-7.562.078 1.518-.171.361-.137-3.818-.192-.28-.255 1.425-.27 0-.57 7.81.019 4.811.362 12.647.38.338-.112-2.856-.117-2.533-.229 5.03.052 8.39.154 10.103.305 5.014-.045 9.18-.081 12.642-.115-.567-.083-6.585-.093-1.27-.15-.816-.053-2.69-.073-5.05-.076 2.84-.148-1.48-.177-1.25-.343-1.821.047-2.409.13-2.536.229-4.486-.052-3.888-.104-5.069 0-5.274.03-2.754-.172-5.037-.23h-7.578c-2.66.011 1.825.102-1.251.154-3.977.055-5.178 0-7.586-.078 1.659.005 8.036.029 5.05-.112 4.668-.015 14.701-.08 18.935.076 7.88-.286 2.213-.863-8.837-.762-2.556-.08-3.258-.166-5.042-.343-2.159-.013-2.385.03-2.52.078.434-.177 1.464-.411 0-.572 2.827-.122 7.089-.005 10.098-.076-4.92-.028-3.927-.236-6.32-.343-3.445.037-3.22.182-7.596.19-1.984-.148 3.292-.078 3.818-.15-5.566.023-6.642-.237-10.122-.38-4.16.062-6.452.184-6.32.38-9.687-.113-3.825.262-10.08.379 4.297-.016 1.59-.102 6.294-.04-3.022.092-9.412.458-1.25.534l-10.115.229c5.839.109 1.49.405 10.114.304-1.682.314-11.357.515-8.86.837-3.222.005-4.416.07-6.322.114.985-.262 3.25-.387 5.068-.683-4.21-.052-1.674-.307-8.837-.268 5.815-.23-7.021-.208-2.535-.494-5.753.054-5.948.278-7.563.455-7.76-.151-7.531.437-2.533.343 2.863.138-6.572.075-6.32.304.125.15 5.108.15 7.579.229v.343c-19.156.128-14.852.739-22.745 1.064-2.354-.094-6.619-.13-5.038-.341-8.855.12-4.73.489-8.836.684-4.016-.122 1.25-.447-1.285-.533-4.289.138-7.61.304-13.882.382 4.257-.068-4.762-.273-3.787-.114l-8.852-.268c3.375-.044 5.643-.258 2.533-.38-5.21.122-4.055.437-8.853.57-5.518-.058-1.786-.19-5.045-.341-2.14.15-5.352.27-6.32.455-2.228-.04-3.692-.065-6.306-.114 4.163-.242-6.09-.315-2.533-.609-4.039.096-4.408.3-8.837.382-2.936-.218 4.304-.585 0-.761-2.882.054.016.278-6.32.228.677.151.677.115 0 .266-1.797-.047-2.403-.13-2.527-.227-2.409-.018-5.43.115-5.053-.039-3.841.047 1.36.13 0 .23-3.18-.115-3.756-.107-10.106-.079-.149.07 1.55.08 1.269.154-6.824-.138-8.09-.442-15.151-.572-2.315.044-1 .2-2.536.267-1.997-.005-4.816.019-5.053-.039l-8.837.458c-1.212-.065-4.187-.078-5.06-.153-.693-.084 2.415-.055 2.524-.115-.234-.028-1.258-.036-1.258-.075-6.169.073-7.745.405-3.787.494-7.544.067-2.424.283-6.32.457-3.084-.03 2.505-.2-1.266-.267-4.754.036-7.461.132-10.103.228-2.221-.033-4.385-.07-3.787-.19-2.559.133-6.824.118-10.114 0-3.235.003-2.023.144-3.786.19-2.351-.005-4.218-.026-5.05-.075-3.165.13-8.811.361-13.9.572.296-.117-.386-.205-1.273-.286-.941-.099-1.747-.075-2.26-.161-3.136.244-5.073 1.014-4.244.9-1.742.408-3.37 1.084-4.26 1.474-.905.366-1.115.39.07-.27-2.119.974-3.508 1.993-4.732 2.885-.58.489-1.121.95-1.667 1.407l-1.543 1.578c.544-.606 1.251-1.6 2.263-2.457-1.287.983-3.09 3.276-2.497 2.265-1.622 2.184-1.477 1.97-2.967 4.773-.546.957-.817 1.677-1.071 2.213-.25.535-.469.894-.601 1.245-.25.7-.682 1.217-.975 2.858-.33 2.02-.112 2.35-.086 2.568.088.26.106.276.132 2.112-.22 7.436-.808 2.698-.876 15.147-.364.086-.853 6.066-1.41 3.783.086 6.54.206 5.783.344 8.853-.005 3.219-.128 2.501-.23 2.517l.04 3.793c.133-3.445.25-.881.343 1.267-.21 5.32-.707.962-.952 3.785-.002.086-.075 4.98-.075 5.052-.062.37-.016-3.604-.04-3.801-.046-.346-.1 2.233-.153 2.535-.265 1.62-.733-.648-1.027 1.266-.114-1.552.029-4.826.04-6.32-.03-2.863-.22-.378-.19-5.05-.037 2.14-.107 3.24-.23 2.533-.007-5.076.102-10.073-.038-12.629.007-1.495.07-1.07.114-1.266-.016-2.966-.018-3.73-.039-7.587-.234.567-.315-2.91-.57-1.25.037-10.088-.19-11.41-.42-12.628-.045-4.42 1.294-12.35 6.303-18.642 2.429-3.154 5.61-5.88 9.066-7.738 3.456-1.864 7.128-2.912 10.366-3.203 4.582-.343 2.164-.354 2.762-.53l8.67-.011c2.913-.016 5.27-.018 5.277.094 13.325-.136 8.894.408-2.518.267.44-.05 2.227-.06 2.518-.114-6.517-.005-5.737.208-11.365.229l5.053.38c2.127-.037 5.81-.1 8.847-.154-1.77-.075-4.345.039-7.588-.036.117-.055.213-.11-1.259-.115 7.17-.122 37.007-.145 20.22-.418l8.837-.305c-1.89-.083-3.084.026-6.32-.039-3.32.01-2.66.224-6.303.115.897-.125 5.177-.148 10.106-.151 2.062-.252-8.801-.117-6.32-.382 4.036-.068 13.482-.07 11.365.078 2.036.015 4.234-.143 1.25-.154 1.07-.111 4.084.024 6.336 0 1.014-.015 1.25-.018 2.517-.039 1.945-.184-3.675-.143-3.784-.265 2.965.016 3.714.018 7.57.037 5.178-.138-1.032-.175-2.52-.305-6.514.1-15.392.159-21.47 0-.929-.18 1.797-.25 3.779-.34-1.163-.104-3.935.052-7.579 0 6.036-.086.661-.031 0-.19 4.4-.06 12.018-.02 13.9-.153.196-.107-3.573-.097-5.044-.154 1.966-.06 15.4-.231 12.63-.075 9.79-.203 20.988-.44 29.042-.609-.505-.148-5.997.037-8.84-.075 2.773-.146 12.16-.091 12.642-.304 4.125.054 9.846.06 6.304-.115 6.468.175 17.541.206 17.684.57 8.002-.063 8.658.096 13.898.114zm209.685 14.36c-.057.08.19.374-.983-.286-.691-.463-2.194-1.253-2.585-1.427 1.48.603 1.626.74 1.823.77.183.056.396.064 1.745.943zm5.379 4.449c1.58 2.483.322 1.25-1.267-.247-1.18-1.763.635-.03 1.267.247zm-11.64-7.59c2.972.848-.992-.031-.076.333-3.586-.7-1.103-.494.075-.333zM10.77 159.198c.184-5.658.572-4.59.913-5.036-.14 1.463-.12 4.39.075 3.785-.198 2.234-.658 2.603-.988 1.25zm0 121.243c.117.73.268.322.265 5.036-.143.117-.307.975-.265-5.036zM214.875 11.383c2.11-.11.999.197 1.267.267.023.016.551.019 1.36.016l3.032-.013c2.284-.01 4.786-.013 5.706.036-.663.029-1.308.063-1.253.115-6.302-.174-10.041.086-8.845.265-5.927-.023-4.164-.28-8.855-.343 1.44-.044 3.604-.068 2.535-.19 1.69.026 2.362.08 2.518.153 2.195-.062 2.746-.171 2.535-.306zM365.65 20.48c1.23 1.596.14.694.281 1.06-1.204-1.57-.146-.688-.28-1.06zm-152.024-9.438c5.822.02-.593.237 0 .34-2.552-.041-1.449-.29 0-.34zM9.972 150.352c.518-.928 1.072-9.835 1.787-3.775-.424 4.517-1.207 3.1-1.787 3.776zm-.039-6.302c.112-3.744.128-3.115.305-3.783-.086 3.57-.143 5.34-.305 3.783zM370.38 308.225c-.112.876-.224 1.752-.557 3.205-.242-.488-.19-.478-.408-1.175.46-1.947.627-.676.965-2.03zM261.616 10.623c3.644.042 4.18.115 2.533.23-3.22-.006-2.517-.128-2.533-.23zm107.736 15.143c.632 1.763.474 1.77.502 1.822-.07.076.133.193.427 2.42-.88-3.644-.333.919-.983-.914-.71-2.683.54.892-.697-3.063.122-.803.819.74.751-.265zM9.44 256.443c-.028-3.448.076-2.54.076-5.044.03.668.06 1.323.114 1.25.016 3.95-.08 4.054-.19 3.794zM86.03 10.356c4.322-.026 1.605.156 6.32.114.205.083-4.479.018-6.32.039v-.153zM9.361 236.246c-.099-2.155.06-6.372.193-5.067-.01 3.492-.143 2.886-.193 5.067zm-.15-108.633c.023-4.641.226-3.414.343-5.036-.01 5.195-.188 4.784-.344 5.036zm-.079 6.336c.156-3.588.46-8.018.648-6.336-.044 7.207-.489 6.98-.648 6.336zm361.96 165.766c-.223 5.743-.452 3.367-.762-2.52.159-4.594.364-.715.455-6.31.253.54.013 9.646.307 8.83zm0-262.68c-.086 4.515-.45 5.334-.533 0h.533zM9.057 180.678c.426-11.198.918-8.247 1.56-11.362-.476 5.892-.894 7.68-1.56 11.362zm362.072 105.154c-.089 2.486-.242 2.967-.38 3.786.029-4.48.255-2.431.38-3.786zm.19-173.017c.062 3.39-.29 2.125-.266-1.268.133-1.007.146 1.874.265 1.268zm-.76 131.332c.154-1.165.117-8.72.265-10.096.097 3.091.234 4.838.458 3.783.273 10.592-.593 5.416-.723 6.313zm-154.147 85.787c-2.124-.18-4.337-.403 1.267-.497-.198.231-.182.37-1.267.497zM8.526 116.269c.1-7.94.614-12.623.684-1.269-.22-4.927-.32 4.054-.684 1.27zM286.89 9.482c2.502 0 1.59.104 5.035.075.38.102-1.748.125-5.035.115 2.351-.073.125-.096 0-.19zm-38.902 320.757h-3.784c3.248-.107-.859-.14-2.536-.04-1.305-.098-2.447-.306 2.536-.303-.237.03-1.285.039-1.27.078.396.049 3.158.028 5.054.036v.229zm14.88-320.947c-5.822.063-6.91.44-13.882.343 2.983-.163 4.148-.384 13.882-.343zm109.138 93.413c-.029 2.943-.068 5.301-.19 5.067.013-3.51.115-7.443.19-5.067zM7.955 252.65c-.022-2.8.072-1.787.075-3.786.099 3.88.296 4.454.457 6.313-.143 3.029-.4-.967-.533-2.527zm245.085 78.197c-2.833-.262 2.824-.8 0-1.066 8.043.12-.567.723 0 1.066zm24.006 0c-2.806-.002-.551-.161-1.272-.226 2.505.062 1.607-.005 5.056 0 .738.099-.513.133-3.784.114v.112zm91.687-11.32c-2.062 3.024-2.293 2.82-.158-.102l.158.102zM6.66 63.234c-.013-4.264.167-2.116.229-3.8.005 3.91-.114 3.754-.229 3.8zm-.036 73.232c.145-3.801.356-9.924.608-6.318-.19 4.602-.372 6.796-.608 6.318zm-.458-34.086c.075-3.627.24.424.343 0-.044 2.288-.2.983-.268 2.517.016-2.148-.028-2.392-.075-2.517zM191.14 332.75c-2.354-.098 6.587-.18 5.053-.382 3.235.005 2.504.128 2.533.229-3.912.008-4.91.107-7.586.153zm183.302-34.296c-.021 2.038-.024 2.179-.04 3.793-.07-1.006-.14-2.124-.228-2.532.062-1.615.205-3.258.268-1.261zm.075-8.835c-.099 4.287-.496.59-.647-3.786.13-1.424.47-.03.647 3.786zM12.54 324.464c-.273-.359-.034-.244.83.575.933.743 2.476 2.246 5.341 3.965-.171-.026 1.285.876 1.01.772-4.393-2.532-5.662-3.994-7.18-5.312zM5.174 240.03c0-1.872.226-1.833.04-2.532l.075-3.786c.044.315.028 2.501.078 2.535-.089 4.074.013 6.591-.154 7.569.005-1.786.008-3.573-.039-3.786zm302.177 93.595c-7.948-.226-22.912-.091-29.057-.416l10.114.034c4.086-.385 10.61-.817 12.623-1.368 4.59.029 1.748.276 2.536.419 8.444-.19 1.66-.458 11.365-.609-.983-.169 1.675-.228 1.25-.382-.267.702 4.85 1.292 2.536 1.753 3.98.018 4.941-.055 7.586-.076-4.48-.44 12.678-.491 20.218-.686 1.677.114 1.269.29 1.253.457-15.49.078-35.095.484-40.424.874zM4.834 234.977c.143-1.086.135 5.64.075 7.572-.062-1.27-.042-5.36-.075-7.572zm163.568 98.99c-3.825.016-2.621-.125-3.784-.192.77-.05 4.856-.003 5.05-.076-.55-.083-6.217-.015-8.852-.036 3.927-.122 10.71-.159 11.388-.38 3.753.221-1.921.427-3.802.684zm207.522-232.513c-.078 4.132-.161-2.142-.229-2.535-.044.214-.034 2.307-.039 3.786-.143-2.353-.346-2.772-.38-8.853.172 2.943.414.803.648 7.602zM3.986 308.362c.104.999.143.494.2.5.039 0 .039.132.146.629.114.494.208 1.373.528 2.836-.253-.715-.344.448-.874-3.965zm-.409-67.082c-.026-3.123.164-5.34.19-2.517-.005 4.108-.065.913-.19 2.517zm250.729 93.829c-7.729-.232-1.456-.458 1.259-.723 3.084.268-1.007.42-1.259.723zM3.349 280.44c.044-1.864.033-5.65.153-5.06-.013 2.936-.026 5.918-.153 5.06zm-.266-11.378c.076.034.047 3.464.151 2.533-.062 6.021.018 4.659.04 10.096-.105-2.894-.175-6.846-.19-12.629zm-.078 10.11c.12-.18.133 3.244.154 6.304-.102-.418-.128-3.304-.154-6.305zM281.818 4.002c-.205.045.283.068 1.261.076-1.919.115-5.534-.031-8.84 0 1.559-.054 4.344-.073 7.579-.075zm-18.95-.114l7.585.115c-1.784.086-8.215-.003-7.586-.115zM2.55 236.246c.052-1.731.187-2.748.229-1.269 0 3.448-.18 2.998-.229 1.27zM271.707 3.396h5.068c1.093.122-3.284.077-3.786.15-1.732-.01-1.053-.093-1.282-.15zM215.143 336.21c1.228-.099 2.786-.224 3.787-.302 2.645.068 1.896.357-3.787.302zM355.962 4.539c.983.172 2.663.79 4.213 1.5a26.677 26.677 0 0 1 3.596 2.02c-1-.71-5.55-2.997-7.81-3.52zM2.322 255.177c.025-1.01.06-3.456 0-3.778.163-2.55.176-7.925.379-11.37l-.112 5.036c.167 1.355.125-4.264.265-3.785-.02 6.46-.226 6.853-.38 8.853l.04 3.785c-.094-.514-.086 2.304-.193 1.259zM24.54 4.367c4.902-1.206 6.312-.878 8.444-.935-1.979.05-6.252.268-9.775 1.503-.606.039 2.499-.762 1.331-.567zm249.97 331.958c-4.354-.07-.357-.171 0-.304 3.736.068-.734.203 0 .304zM2.245 210.98c-.073-4.932.138-11.354.19-16.43.075.024.047 3.449.153 2.541-.015 2.977-.018 3.716-.039 7.571-.114 1.709-.247 2.77-.304 6.318zm.419-175.536c-.024-2.002.07-3.848.158-5.262.224-1.412.276-2.533.554-3.557.473-2.06.89-3.978 2.679-7.457-.871 2.002-2.125 4.766-2.817 8.856-.12 1.027-.361 2.113-.364 3.296a47.812 47.812 0 0 0-.07 3.59c.003 2.398.008 5.092.01 8.118-.187 3.227-.403 10.174-.608 8.838.031-4.745.153-16.61.458-16.422zm373.29-13.554c.575 1.391 1.73 4.467 2.016 7.53.226 1.5.203 3.04.25 4.165a932.15 932.15 0 0 0-.053 2.184c-.01-.53-.023-1.248-.041-2.051-.013-.814-.096-1.906-.15-2.879-.204-1.983-.56-3.879-.87-4.737-.548-2.215-.697-2.452-.668-2.576.008-.12.078-.089-.484-1.636zM1.903 199.61v-2.519c.052-.195.14 4.243.153 1.266.117.986.018 5.928.075 6.305-.067 2.96-.13-4.864-.228-5.051zM290.673 2.863c3.212.05 8.665.13 12.624.19-.156.024-.786.034-1.376.031-.593 0-1.157-.03-1.157-.03-1.197.132-4.07-.024-6.304.075-.497-.1-2-.13-3.787-.266zM1.637 193.3c.013-3.296.12-3.515.076-8.837.145 1.11.07 9.82-.076 8.837zm0 47.98c.206-5.514.297-3.145.494-6.302-.018 6.948-.26 6.513-.494 6.303zm-.039 18.947c.019-2.925.029-4.836.04-6.308.23 4.972.358 2.68.569-1.268l-.076 3.793c.172-1.93.17 1.58.268 3.783-.135-.221-.286-1.037-.229 5.07-.19-1.763-.431-1.732-.572-5.07zm8.874-248.573c-1.212 1.368-2.786 3.133-4.268 5.655-1.508 2.486-3.03 5.691-3.87 9.724.073-.458.276-1.37.575-2.574.398-1.167.814-2.673 1.586-4.178 1.392-3.081 3.701-6.342 5.977-8.627zm368.04 67.051c.036-3.43.12 1.774.229 0-.047 4.935-.164 3.401-.23 0zM60.772 2.52c-.311.055-10.402.089-8.852-.039 3.628-.11 3.961.076 8.853.04zM1.409 260.226c-.039-5.907.063-7.173.115-10.093.042 3.02.044 8.749-.115 10.093zM379.084 81.239c-.08-.748-.125-2.644-.19-3.785.055-3.375.208.52.19 3.785zm.036 117.442c-.033 3.432-.117-1.752-.226 0 .026-4.43.047-7.144.075-11.362.193 1.646.013 7.933.151 11.362zm-128.598 138.75c.029-.024.523-.04 1.306-.055.782-.01 1.849-.024 3.03-.034 2.36-.029 5.172-.062 7.026-.14 1.27.026 1.298.085 3.787.075-2.463.104-.757.333-6.32.343.156-.067-1.542-.08-1.269-.153-3.47.093-6.382.047-10.095-.037.153-.026.777-.033 1.37-.033.593.002 1.147.013 1.165.033zm128.713-170.316c-.016 1.123-.034 2.251-.076 2.52-.124-.11-.08-5.723-.265-3.781-.029 3.4.078 2.441.114 3.78-.005 2.8-.163.536-.228 1.266.005-4.485.137-4.589.114-10.095.237-2.086.13 7.38.34 6.31zm0 17.672c.096 3.39-.04 3.713-.151 2.532.005-3.122.005-6.136-.076-6.315.164-4.641.089 8.427.227 3.783zM278.039 1.91c-4.049.08-8.444.15-15.172.15 1.379-.187 9.602-.19 15.172-.15zM9.985 11.169c-.16.221-.977 1.126-.949 1.152.736-.827 1.932-1.913 3.267-3.065-.157.174-.848.806-1.701 1.59-.846.789-1.738 1.842-2.481 2.671.03-.145-.536.53-.622.593-.075.07.245-.551 2.486-2.94zm23-9.487c3.449-.026 2.525.075 5.038.075-.58.034-1.566.055-2.861.068-1.313.018-2.775-.029-5.069.117.117-.029.804-.075 1.68-.117.913-.052 1.683-.016 2.463-.029-.66-.03-1.305-.062-1.25-.114zm49.259-.114c1.016.01 2.039.02 3.786.039-.676.03-1.321.062-1.266.114-2.929.01-4.84-.005-6.304-.04.125-.07 4.163-.025 3.784-.113zM379.575 179.75c-.026-1.997-.12-1.903-.111-5.068.044-.195.067.284.075 1.27.052-.396.031-3.15.036-5.053.146.983.026 6.12 0 8.85zM.381 265.296c.034.967.086 1.352.151 1.25.013 3.305-.013 5.43-.114 5.05l-.037-6.3zM379.16 82.49c.008-1.126.021-2.84.04-5.036.272 2.023.298 4.433.644 3.785-.104 4.392-.385 6.02-.684 1.25zm-27.116-81c2.176.335 2.397.455 2.897.65.476.252 1.326.265 4.452 1.463-5.102-1.72.796.82-1.63.091-3.043-1.042-4.159-1.32-4.64-1.55-.484-.236-.343-.39-1.08-.654zM12.992 7.675c1.88-1.443 2.6-1.693 3.209-2.111.621-.403 1.28-.739 3.425-1.766 1.155-.413-.38.227-2.086 1.085-1.685.886-3.495 2.061-3.258 1.978-1.035.772-1.16.843-1.244.876l-.046-.062zm-3.493 3.013c-.101.33-1.516 1.584-2.918 3.534-1.506 1.867-2.91 4.448-3.87 6.638.149-.333 1.093-2.73 2.593-5.018.731-1.15 1.605-2.26 2.351-3.188A59.875 59.875 0 0 1 9.5 10.688zm182.64-9.614c4.303.01 3.95.16 5.05.265-4.494-.003-5.085-.125-5.05-.265zm-154.116 0c1.29.023 1.32.088 3.791.075-1.742.042-4.015.042-6.137.031l-2.983-.02c-.928 0-1.992.067-2.647.098.236-.093 2.278-.22 3.765-.166 1.628.018 3.4.041 4.21-.018zM.418 159.198c-.016-3.04-.016-2.746-.037-6.318-.166.788-.278 3.445-.382 6.318.221-1.48.19-.393.419 0z"/>
    </g>
</svg>
