<svg xmlns="http://www.w3.org/2000/svg" xmlns:xlink="http://www.w3.org/1999/xlink" viewBox="0 0 377 685">
  <defs/>
  <defs>
    <path id="a" d="M8 0h360a8 8 0 018 8v669a8 8 0 01-8 8H8a8 8 0 01-8-8V8a8 8 0 018-8z"/>
    <path id="c" d="M0 .412h202.462v173.015H0z"/>
  </defs>
  <g fill="none" fill-rule="evenodd">
    <mask id="b" fill="#fff">
      <use xlink:href="#a"/>
    </mask>
    <use fill="#F1F7ED" xlink:href="#a"/>
    <g mask="url(#b)">
      <g transform="rotate(-43 736.365 328.397)">
        <mask id="d" fill="#fff">
          <use xlink:href="#c"/>
        </mask>
        <path fill="#D4ECB1" d="M201.33 21.628c-.206-.729-.471-1.548-.855-2.748.046-.1.338.711.356.556.183.524.32.932.424 1.284l.225.936c.143.572.235 1.127.427 2.116a24.34 24.34 0 00-.577-2.144zm-2.71 11.959c-.323 1.793-.972 3.83-1.83 5.665-.225.453-.445.903-.658 1.338-.208.393-.408.775-.6 1.14a90.57 90.57 0 00-1.007 1.986c-.247.081.212-.985 1.08-2.66.11-.21.225-.432.346-.66.123-.25.254-.51.388-.78.133-.27.28-.543.414-.83.127-.293.254-.593.386-.9.537-1.221.982-2.598 1.352-4.02-.143.004.095-1.023-.373.495.543-2.422.428-3.91.314-5.044.203-.882.36-.732.46.109.065.835.08 2.371-.272 4.16zm-4.771 12.786c.65-1.635-2.1 2.179 1.322-3.51.038.271-2.253 4.753.013 1.217.12-.036-.954 1.62-1.335 2.293zm-2.87-1.59c-.12.46-.72 1.821-1.652 3.33.316-.257-.326.855-.006.595-.552.986-1.232 2.023-1.854 3.223.125.147.709-.356-.73 2.018.247-.747-1.005 1.426-1.261 1.726-1.56 1.836 2.113-4.824 1.298-4.127-3.064 5.55-4.379 8.935-8.033 14.942.462-1.041-.231-.094-.601.27 1.089-1.93 1.604-3.28 1.147-2.966l2.344-3.888c-.24.611-.563 1.362-.68 1.748.314-.535.495-.805.579-.888.433-.977.741-1.688.859-2.118l1.405-2.337c.058-.053.121-.12.21-.238.056-.13.089-.22.13-.325l5.319-8.83a4.281 4.281 0 01-.247.518c.481-.785.662-1.137.788-1.416l.889-1.476c.102-.008.135.099.096.24zm-8.306 15.401c-.56.959-.749 1.193-1.129 1.798.198-.607.708-1.654 2.267-4.2-.638 1.17-.897 1.797-1.138 2.402zm-11.67 19.592c.04-.294 1.447-2.6-.372.402.047-.46 1.586-2.765 2.191-3.64-.125.398-.76 1.519-1.82 3.238zm-.713.822c-.58.86-.35.132-.809.758.688-1.238 1.531-2.7 1.138-2.399.602-.827 1.603-2.84 1.74-2.673-1.653 2.828-1.852 3.72-2.07 4.314zm-.825-.456c.634-.994.8-1.076 1.26-1.727.078.126-.634 1.378-.556 1.506-1.339 2.009-.799.691-.704.22zm-3.178 7.321c-1.613 2.647-.677 1.648-2.779 5.126-.018-.36-1.15 1.863-1.472 2.22.262-1.13-.423-.942-1.766.56l4.378-7.266c.334-.055-.492 1.89 1.649-1.241-.459.789-.755 1.145-.824 1.367.88-1.267-.209.818.814-.766zm-4.171 8.604c-.12-.158-.106-.5.425-1.582-.478.747-2.072 3.637-2.573 4.636-1.54 2.3-2.22 3.637-3.522 5.92.294-.263.256-.284.165.093-1.797 2.792-.085-.395-.157-.69 1.52-2.52 2.849-4.786 3.67-6.453.485-.708.452-.394 1.018-1.255.338-.634.458-.956.688-1.435 1.011-1.601 1.73-2.622 2.146-3.053-1.546 2.648.494-.058-1.86 3.819zm-4.696 8.307c-1.018 1.743-1.295 2.198-2.223 3.619.093-.378.13-.358-.166-.092.799-1.32 2.356-4.094 3.528-5.93-.572 1.16-1.347 2.502-1.14 2.403zm-3.938 6.903c-.031-.105.618-1.183 1.3-2.304-.004.09.12-.07.342-.42-.235.614-.979 1.547-1.642 2.724zm-4.072 6.837c.57-.927.633-.858.95-1.29.67-1.08-.301.172.723-1.416.58-.827-.103.3.165.09 1.089-1.745.306-.826 1.542-2.782-.135.072-1.21 1.99-1.431 2.233.971-1.906 1.845-2.908 2.801-4.505-.22.964-5.47 9.29-4.75 7.67zm-.067 1.786c.105-.037.95-1.531 1.161-1.781-.088.37-.125.348.166.092-1.085 1.743-1.366 1.908-2.147 3.05.505-1.082 2.426-4.466 3.397-6.003-.434.946-1.678 3.04-2.577 4.642zm-6.58 13.92c-.392.645-.782 1.29-.79 1.385-1.357 2.068.478-1.318 1.073-2.437.034.167-.095.567-.282 1.052zm-3.166-4.122l.116-.194c.318-.4.251-.042 1.148-1.577.134-.344.129-.444.057-.424l1.19-1.977c-.347.833-.584 1.52-.95 2.563-.623.8-1.652 2.006-1.56 1.609zm-2.493 14.32c.072-.362.505-1.239.828-1.958.214-.253 1.062-1.749 1.165-1.788-.444.936-1.148 2.242-1.993 3.745zm.64-8.729c-.485 1.166-.85 1.973-.666 2.057-1.388 2.062-1.388 1.307.667-2.057zm.4-3.18c-.116.305-.17.53-.293.813-.377.654-.421.788-.822 1.363.274-.536.447-.937.517-1.183l.598-.992zm-11.176 19.027c-.835 1.27-.815 1.087-.814.876l.552-.912c.062.017.066.154.262.036zm-20.989 21.206c-.305.103-1.371.48-4.39.574.4-.211-.54-.313-1.182-.491.618.026 1.134.026 1.589-.002.454-.023.852-.023 1.234-.072l1.146-.108 1.324-.16c.118.089.582.124.28.259zm-19.248-3.903c-.782-.577-.891-.761.325-.088 1.174.874 3.427 1.973 3.519 2.134-1.546-.594-3.077-1.452-3.844-2.046zm-8.487-5.78c-.076-.06-.254-.294-.474-.608a23.319 23.319 0 01-.7-1.043c-.42-.66-.812-1.263-.835-1.138-.415-.722-.13-.449-1.029-1.854.219.302.519.658.1-.054.238.192 1.381 2.157 2.012 3.121-.086-.075-.04.06.17.395l.756 1.18zm-3.62-3.713c-1.043-1.854-1.792-2.77-2.74-4.547-.629-.75 1.672 2.856 2.367 4.147-.065.122-.817-1.105-1.5-2.2-1.182-2.203-3.576-6.128-3.806-6.977 2.03 3.134 3.295 4.402 6.346 9.809-.601-.748.2.825 1.202 2.361.044.444-2.066-3.341-1.869-2.593zm-6.604-10.89c.99 1.8 2.94 5.141 3.536 6.526-1.349-2.416-3.713-6.282-3.536-6.526zm1.29 3.53c-1.405-2.284-1.53-2.744-2.636-4.6.604.764 1.02 1.635 2.255 3.598.055.23.722 1.333.381 1.002zm-4.647-9.548c-.39-.21-2.495-3.926-3.418-5.378.25.223.01-.247-.722-1.416.58.637 2.469 3.85 3 4.395.864 1.5 1.55 2.604 2.06 3.71-1.078-1.71-1.623-2.888-1.949-3.163-.02.103.903 1.548 1.029 1.852zm-15.726-29.465c-.676-1.252.216-.124 1.018 1.252-.09.075-.71-.891-1.018-1.252zm-1.25-1.124c-1.336-2.323.677.652.605.27.748 1.452-.683-.683-.605-.27zm-1.939-8.625a37.478 37.478 0 00-1.063-1.838c-.129-.444.364.33.712.82.698 1.165.437.966.351 1.018zm-2.146-3.051c.082.051.525.81.851 1.34.01-.176.242.088.954 1.292-.09.005-.795-.768-1.805-2.632zm-1.278 1.311c-.362-.605-.73-1.211-1.091-1.813.002-.19.652.894 1.19 1.758-.138-.478-.494-.856-1.335-2.293 1.244 1.837 2.485 3.664 3.856 5.75-.336-.08-2.442-3.636-2.62-3.402zm-1.81-8.7c.685 1.21.768 1.57.564 1.518-1.425-2.431-.132-.541-.564-1.518zm-.279 3.185a28.892 28.892 0 00-.786-1.38c.005-.184.657.905 1.192 1.763-.021.094-.401-.514-.406-.383zM37.6 90.976l-.197.11c-.626-.892-.524-.901-1.067-1.842-.844-1.262.5 1.14.935 1.914a16.287 16.287 0 01-1.72-3.295c-.854-1.29.502 1.1.045.59-.892-1.93-1.768-3.597-1.016-3.076-.952-1.513-.104-.01-.682-.84-.96-1.638-.15-.716.747.804.261-.42 1.35 1.331.728-.402.639 1.128.463 1.094 1.51 2.803-.584-.757-.486-.562-.747-.804l.55.913c.651.914-.01-.275.501.322 1.233 1.973 1.585 2.524 3.283 5.45-.675-.939-1.714-2.593-2.384-3.52.06.394 1.278 2.128 1.572 2.754.266.906-.212.537-.152.7-.394-.524-1.645-2.816-2.74-4.55 1.348 2.31 2.241 4.011 3.158 5.534-.369-.39-1.67-2.612-2.324-3.565zm-4.466-6.614c-1.303-2.243-1.124-2.38-2.78-5.128.735 1.292 1.105 2.257-.437-.358.653 1.147.425 1.04 1.508 2.796-.5-.603-.083.145.349 1.015-.96-1.478-2.462-4.282-4.347-7.29-.057-.232-.51-1.028-.385-1.001-.506-.777-1.07-1.507-.784-1.377-.4-.564-1.223-1.959-1.95-3.164.945 1.424-.628-1.39-1.026-1.852.707 1.125.755 1.56 2.364 4.145-.042.042-1.678-2.677-.342-.42-.899-1.263-1.962-3.117-2.836-4.491.083.055 0-.128-.209-.492.26.301.504.828.824 1.367-.132-.481-.793-1.36-1.611-2.748 1.304 1.993-.271-.673-.044-.584.644.911.764 1.307 1.643 2.73.618.979 1.432 1.983.473.346 2.128 2.932.822 1.902 2.568 4.63-.106-.072-.828-1.35-.883-1.323.456.845 1.705 2.81 2.088 3.688.44.705-.179-.425.34.419-.979-1.529-.726-1.62-1.99-3.744-.09-.32.58.436-.01-.599.335.358.592 1.137.72 1.413.844 1.354-.191-.472.132-.073.77 1.336.554 1.268 1.787 3.257.045-.195-1.176-2.191-1.445-2.835.25.319 1.479 2.58 2.121 3.67.28.266-.5-.972-.722-1.418.631.8.903 1.626 1.613 2.748-.375-.265-1.805-2.6-2.01-2.527 1.664 2.626 2.474 3.58 4.37 6.668.485.952-.183-.163-.402-.378.587 1.016.447.606.884 1.324 1.523 2.591 1.433 3.068.429 1.586zM22.84 65.815c-.02.128-.326-.311-.918-1.307.186.417.618 1.182 1.302 2.309-1.03-1.218-2.109-3.525-2.639-4.6.52.556 1.406 2.355 2.255 3.598zm-3.359-4.193c-.316-.536-.495-.806-.583-.892-.816-1.448.755.903-.38-.997.127.109.709 1.117 1.126 1.797-.574-.816-.112-.005-.163.092zm-13.13-21.23c-.5-.864-.513-.978-.503-1.055-.356-.584-.466-.803-.649-1.066-.163-.272-.403-.592-.739-1.511.01.131.103.434.178.699.086.26.16.48.096.456-.398-.774-.743-1.724-.81-1.597-.246-.629-.35-1.104-.47-1.465a9.806 9.806 0 01-.243-.903c-.102-.535-.275-1.021-.456-2.215.11.401.265 1.105.463 1.703.17.604.36 1.102.455 1.115-.6-2.421-.674-2.1-.96-3.998.118.409.246.492.417 1.128.008.622.11 1.115.25 1.483.13.37.268.623.361.774.162.693.29 1.146.212 1.143.186.134.657 1.119 1.69 3.08.375.78.5 1 .49 1.064-.005.06-.117-.047-.114.026.729 1.362.613.957.936 1.426 1.01 1.814-.148.184-.605-.286zm-3.485-6.87a26.346 26.346 0 01-.292-1.633 23.24 23.24 0 01-.24-1.627c-.152-1.017-.197-1.841-.279-2.066.021-1.077.13-1.471.15-1.416.046.054.02.56.069 1.299.013 1.478.35 3.87.74 5.411-.297-.954-.036.064-.148.031zm-.656-2.32c-.078-.973-.024-1.17.044-.805.064.367.224 1.286.442 2.555-.088.302-.377-1.574-.486-1.75zm-.308-1.182c-.072.248-.171-1.102-.24-.597L1.61 27.61c.013-.47.024-.83.036-1.171.005-.342.028-.663.073-1.05.05-.388.072-.85.188-1.453.047.34-.012 1.643.1 1.846-.165 1.971-.32 1.235-.105 4.238zm.742-4.777l.14-.769.209-.96c.023.67-.28 2.254-.328 4.679-.04-.357-.078-.708-.077.001-.135-.39.053-1.256.101-2.352-.282 2.116-.49-1.193.452-4.738-.199 1.122-.628 3.408-.497 4.14zm1.03-6.99c.623-1.738 1.125-2.83.736-2.53.575-1.03.645-1.214 1.26-2.151.41-.884-1.175 1.77-1.087 1.535.363-.682.812-1.304 1.123-1.789.34-.469.599-.772.657-.783.144-.067-.011.225-.28.657-.264.433-.6 1.031-.89 1.536.41-.631.803-1.222.733-.999-1.185 1.962-2.08 4.174-2.165 5.052.796-1.88 1.169-2.537 1.239-2.774.078-.233-.103-.025-.117-.047.569-1 .588-1.108.63-1.257.043-.142.089-.339.858-1.424.062.196.056.136 1.214-1.402.58-.553-.731 1.158.148.111 1.016-1.347 1.073-1.486 1.163-1.75.109-.249.26-.634 1.924-2.133.24-.114.084.061-.093.25-.172.191-.35.41-.204.35.732-.653 1.252-1.032 1.626-1.306.394-.256.65-.397.9-.535-1.94 1.354-2.62 2.283-3.242 3.023-.584.784-1.084 1.426-2.24 2.725-.687 1.11.508-.378-.501 1.119.985-1.335 1.585-2.023 2.032-2.58.473-.54.776-.97 1.422-1.58.872-.387.96-.223-.124 1.518-.13.079-.732.638-.83.816.773-.673 1.014-.8.906-.583-.1.224-.575.77-1.13 1.548-.293.376-.595.816-.903 1.285-.325.458-.618.966-.913 1.464a23.831 23.831 0 00-1.409 2.845c-.245 1.37-.45 2.871-.422 4.117a8.17 8.17 0 00.112 1.5 20.75 20.75 0 00-.243 1.587c-.114.268-.161-.045-.202-.419-.062-.512-.068-1.114-.307-.276.069-.538.191-1.058.286-1.59-.313 1.138-.33.72-.294.069.048-.646.216-1.509.077-1.237.037.018-.2.941-.27 1.071-.061.04.133-.792-.074-.015-.263 1.794.037.123.186.037-.408 2.537-.08 3.642.173 4.017.091.128.192.16.29.16-.06 2.08.184 4.196.765 6.294.005.038.013.074.016.114-.383-1.185-.708-1.849-.824-1.447.157.694.31 1.396.54 2.077l.219-.062c.192.726.347 1.038.473 1.331.14.286.223.565.497 1.148-1.564-2.45-2.408-4.815-3.092-5.954-.027.083.067.699.152 1.264.1.563.225 1.073.14.965-.254-1.041-.34-.974-.54-2.762.048.07.18.99.113-.01l-.245-1.283c-.045-.317-.08-.51-.11-.548-.053-.08-.134.46-.062 1.87-.235-1.752-.136-3.01-.137-4.584.138-.844.285-1.6.482-2.237-.013-.383.255-1.877.533-2.868.263-.994.377-1.527-.185-.01.404-1.37-.51 1.09.001-.61.098-.161.35-.752.338-.496.115-.295.282-.713.455-1.15.182-.435.398-.876.557-1.238.33-.721.53-1.087.064-.324.023.103-.84 1.784-.895 2.157.01-.286-.317.352-.58 1.172-.293.813-.524 1.796-.637 2.107.098-.916-.02-1.023-.065-1.29-.021-.135-.024-.31.031-.652.057-.344.153-.859.434-1.639-.923 2.095-1.442 4.272-1.68 5.771.214-2.186.851-4.61 1.487-6.338zm13.17-12.294c-.166.141-.903.547-1.004.66.706-.377 1.394-.761 2.141-1.079-.952.327-1.08.362-1.131.343-.054-.019-.028-.077-.65.167.666-.355 1.237-.606 1.763-.844.52-.252 1.015-.453 1.541-.686-.209.019-.512.142-.895.308-.375.181-.825.419-1.345.634 1.71-.866 1.837-.925 1.914-1.042.042-.05.083-.099.331-.22a9.38 9.38 0 01.558-.25c.262-.088.605-.202 1.053-.354-.647.253-.6.275.628-.075.31.027-1.776.624-1.11.566.764-.207 1.426-.394 2.043-.533.306-.078.598-.153.88-.227.285-.06.561-.12.833-.18.543-.122 1.072-.243 1.631-.314.56-.081 1.143-.181 1.797-.192-.633-.019-1.6.092-2.61.205l-1.509.256c-.486.095-.946.219-1.349.311.08-.067 1.018-.345 2.013-.492.983-.196 2.01-.268 2.214-.347 2.072-.086 2.113.073 1.477.186-.639.097-1.947.347-2.633.476.597-.018 1.313-.104 2.089-.14.774-.027 1.64-.07 2.367-.072 1.522-.024 3.037-.047 4.09.014 1.92-.077 3.19-.2 4.385-.328 1.857.142 1.278.294 0 .475-1.007-.067-3.074-.02-3.839.037-.15.066.52.074.55.036.958.085.311.158-1.096.22.403.032 1.001.054 1.639.073a9.267 9.267 0 001.097-.111c1.2.037-.488.183-1.64.183.256-.077-.783-.07-1.64-.072-.744.01-.457.09-.547.145l-3.36.025c-.716.003-1.126.061-1.056.14-1.576.009-.008-.19-.006-.256l1.686-.003a60.994 60.994 0 001.498-.031c.928-.03 1.693-.081 2.151-.131.918-.1.621-.202-2.01-.146a71.71 71.71 0 01-2.489.218l-1.68.132c-.627.041-1.317.161-2.096.244.024.07 1.61-.112 1.189.03-.693.092-1.225.163-1.889.313l-1.135.226-1.552.364c-1.616.17 1.109-.978 3.31-1.475-1.811.29-2.407.35-4.694 1.053-1.042.504 1.94-.495 1.797-.278-2.03.475-2.627.797-3.056 1.015-.214.112-.385.21-.659.337-.266.147-.633.332-1.242.611.968-.301-.227.252-.92.763-.678.37-.585.261-.572.202.014-.06-.06-.083-1.018.553.245-.214-.693.207.398-.464-.166.058-.662.32-1.231.69-.56.382-1.225.83-1.732 1.247 1.027-.95 1.89-1.798 4.331-3.116zm20.962-4.125c1.572-.086 2.903.025 4.378-.037.018.214-.55.42-1.097.584-4.042-.062-6.317.02-9.304.11 2.074-.235 7.376-.296 6.023-.657zm10.945 1.643c2.043.003 1.562.04 3.287 0-1.55.227 3.43.02 3.83 0 1.047.142-2.436.299-3.83.402.628-.044.62-.13.541-.219-2.431.02-1.974.231-4.378.256 1.451-.125-.297-.345.55-.439zm4.378-.51c2.633-.03 2.028.155 4.383.144-.294.03-.574.06-.546.111-.724.044-.863.013-1.647 0 .096.105 2.23.166-.543.182.104-.03.546-.038.543-.074-.154-.073-1.46-.072-2.19-.108 2.958-.068.006-.095 0-.254zm2.74-.33c1.899.03 2.1-.055 3.833-.037-.348.205-.258.377-4.926.294-.545-.147 1.634-.11 1.092-.256zM69.006 5.23c-.08.077-.346.141-.674.202h-3.507c.067-.052.06-.105-.196-.166 2.554-.006 1.817-.093 4.377-.036zm0-3.832c-1.311.108-2.934-.07-3.286-.146 1.659.011 1.541.141 3.286.146zm1.639 3.685c1.93.11.543.224.678.349h-.747c.023-.017.05-.044.069-.055-.12.027-.457.043-1.09.036.927-.092-.513-.23 1.09-.33zm2.74-.4c1.81.02.788.138.549.22-.558-.026-.568-.085-1.642-.074.28-.053.805-.093 1.092-.146zm4.379.182c.597.093-1.665.175 0 .218.582-.095.347-.243 1.643-.29.702.145 1.129-.011 2.738 0-.719.092 1.33.26 2.184.364-.623.094-1.262.186-1.969.275h-1.695c.231-.06.593-.114.93-.166-.697-.001-.76-.047-1.643-.036-.657.044-.404.135.062.202h-3.263c.343-.119.258-.231-.628-.275-.702.073-1.201.173-1.514.275h-2.022c1.723-.19 3.272-.39 5.177-.567zm5.472-.766c-.334.034-1.272.134.55.108-.45.123.02.226-1.098.367-1.725-.055 1.691-.302-1.092-.367.587-.033.171-.133 1.64-.108zm27.394 1.02c1.145-.02 1.562-.089 3.287-.071-.269.118-.296.246-.208.384h-3.72c.897-.077 1.275-.175.641-.313zM6.391 34.426c.216.688.454 1.373.741 2.054-.222-.303-.429-.697-.95-2.03.053-.075.125-.07.21-.024zm17.55 33.213c-.844-1.58.908 1.238 1.738 2.668.22.652-.876-1.279-.985-1.27-.952-1.434-.198-.745-.754-1.398zm5.976 9.413c-.121.067-1.44-2.22-1.807-2.637a63.929 63.929 0 01-2.234-4.218c.564.998.848 1.596 1.85 3.219-.042-.172-.656-1.152-1.058-1.834.711.905-.485-.953-.047-.586 1.244 2.11 1.649 2.571 2.802 4.505-.976-1.382-.13.131.593 1.496.225.388.27.422.308.436.73 1.311-.79-1.12-1.436-2.237.008.14.394.82 1.029 1.856zm5.612 7.2c-.955-1.57-1.032-1.419-1.81-2.642-.313-.666-.189-.715-.507-1.388l6.687 11.102c-.416-.403-.292.15-1.767-2.457-.14.14-.74-.627-1.7-2.091-.629-1.321-.635-1.836-1.863-3.825.179.154 1.26 2.085.96 1.3zM192.94 11.26c.422.42.787.888 1.166 1.332-.628-.368.766 1.402 1.332 2.611-.369-.348-1.593-2.077-3.007-3.506-1.06-1.306 1.831 1.47-.535-1.086.194.014.576.29 1.044.649zm-42.733 104.872c-.12.256-.23.5-.175.51-.799 1.267-.66 1.2-1.332 2.286l-.1-.055c.86-1.373.963-1.672 1.607-2.741zm33.054-53.2c-2.756 4.163-.514-1.031-1.155-.64.059-.163 1.471-2.284 1.538-2.187-1.01 2.207-.003 1.572-.383 2.827zm-48.605 82.16a35.02 35.02 0 00-1.125 1.798c.042-.237.367-.87.96-1.888.398-.566.476-.522.165.09zm.137 1.889c-1.192 1.899-2.01 3.059-2.454 3.49.332-.622.773-1.402.998-1.874.365-.525.587-.766 1.431-2.23.082.328-.013.334.025.614zm-4.7 6.493c-1.464 2.402-1.544 2.087-2.969 4.416 2.263-3.872 2.337-4.627 4.531-8.399-.202.702 1.069-1.49 1.326-1.69.282.13-.985 2.056-2.888 5.673zm2.992-8.037c-.006-.16 1.183-2.004 1.369-2.272.164-.104-.754 1.33-.721 1.417-.4.647-.193.101-.648.855zM.642 27.574c.079-.944.167-1.359.255-1.255-.1 1.517-.005 1.366.006 3.141-.1-.556-.195-.969-.26-1.886zm91.35-23.987c3.533.106-.621.283-.542.475-2.718-.105 1.463-.261.542-.475zm110.435 24.121c-.042-.8-.044-1.754-.155-2.687-.107.22-.083.946-.153.658a25.554 25.554 0 00-.94-5.575c-.565-1.962-1.424-4.125-2.949-6.539.19.383-.18-.142-.476-.555-.3-.412-.528-.71-.005.088.595.742 1.486 2.545 2.095 3.976-.226-.28-.753-1.331-1.405-2.366-.647-1.036-1.394-2.062-1.78-2.43-1.088-1.592-3.143-3.785-5.235-5.396-2.066-1.643-4.103-2.708-4.427-3.105-1.476-.722-1.87-.831-3.054-1.256-.09-.077.145-.058-.584-.335-.272-.053-.845-.19-1.932-.52a11.326 11.326 0 00-1-.308 15.014 15.014 0 00-1.63-.37 21.143 21.143 0 00-2.122-.31c-.385-.038-.786-.085-1.195-.114-.41-.013-.827-.029-1.252-.044l-.644-.02h-.547c-.36-.002-.725-.002-1.09-.002l-2.172-.005a181.225 181.225 0 01-3.86-.045c.618.236-5.865-.003-5.466.219-1.454-.044-3.228.07-3.289 0 .909-.074 3.597-.028 3.83-.146a229.896 229.896 0 01-5.47-.109c-.866.123-.946.19-.55.328a47.607 47.607 0 01-2.737-.037c-2.218.131-2.927.365-6.024.439V.995c-3.87-.028-2.731.28-4.924.364 1.078-.13-.496-.147-2.74-.145-.362.098-2.405.194-1.09.292 2.12.031 1.945-.09 3.284-.11-.089.091.84.115 1.64.146.5-.064 1.02-.127 2.738-.11-2.112.213-3.806.452-4.923.732 1.09.052 1.913-.04 2.734.072.884-.087.41-.264 2.189-.292.427.15-.842.186-.548.328 2.408-.02 2.11-.223 5.477-.181.086.042-.1.103.55.11.053-.095 2.036-.087 2.727-.037.747-.233 3.708-.314 6.577-.403.1.142.016.269-.55.366 1.774.045.42-.12 2.19-.072.173.084.866.136.55.255 1.766.043.417-.12 2.191-.074-.456.025-1.472.253.543.219 1.647-.066.023-.313 3.28-.219.376-.244 4.496-.237 5.483-.438-.706-.089-4.313.02-4.933-.073 1.29-.038 2.66-.075 4.04-.114.355-.006.66-.024 1.062-.02l1.197.009c.796-.006 1.587.095 2.36.14 3.098.309 5.84 1.13 7.64 1.73-.02.065 1.636.743 1.723.889 1.404.717 1.247.598 3.323 1.955-.227-.123-2.11-1.32-1.694-.925-1.204-.708-1.778-1.004-1.63-1.03-2.183-.632-4.604-.95-5.817-.76 3.434 1.193 4.298 2.098 4.39 2.387.074.333-.708.303-1.036.458.06.073-.321-.09-.727-.263-.418-.151-.865-.31-.905-.289 2.088.799 2.614 1.263 2.866 1.518.242.278.217.378.938.917-1.963-1.12-3.653-1.674-5.425-2.125-1.782-.433-3.674-.774-6.273-.937-.455.055-.87.111-1.265.166h-4.455c.38-.033.569-.06.236-.092-.611.023-1.024.06-1.524.092h-2.435c.145-.037.336-.069.672-.092 3.537.105 7.67-.425 5.479-.62-.13.174-1.942-.029-3.29 0V4.9c.733.09 1.656-.065 2.19.036-.865.09-1.464.194-2.19.292-.549 0-.643.03-1.09.036-1.402-.045.504-.178-.55-.183-.314.093-1.544.232-2.038.349h-40.282c.993-.203 2.07-.39 2.909-.567 1.883-.016 3.065.014 4.383.037-2.664-.312-9.15-.184-12.593-.402-2.31.372-10.804.763-17.516.84-.002.031-.01.06-.016.092h-9.453l.134-.019c-.405 0-.706.008-.967.019h-2.896c.315-.227 1.515-.438 3.863-.456-.894-.094-.917-.247-.542-.329-3.624-.048-.109-.456-.55-.548 2.87.036-1.308.312 2.19.292.47-.066 1.198-.116 2.19-.147-1.472-.184-.58-.724.55-.766-1.396-.095-.25-.17-2.74-.219.285-.053.813-.093 1.092-.147-1.45-.012-1.841-.095-2.19-.18.747-.074 1.523-.143 3.838-.11 1.967-.318-.062-.374.55-.694-2.092.13-4.126.108-6.025 0 1.482.025-.398-.172 1.095-.146.06.044.16.085 1.091.074.308-.025 2.228-.111.55-.147-.062.044-.163.084-1.1.073.96-.147-.046-.204 0-.365-3.003.136-.363-.247-3.275-.22-.884.179-2.725.07-3.838 0-.048.13-.255.25-1.64.291-.805-.051-.805-.237 0-.29-1.333-.033-3.25-.138-4.374-.074.046.138.613.105 0 .22-1.93-.124-1.967.084-2.74.144-1.014-.045-3.817-.068-2.19-.18-2.926.024-3.932-.08-4.378-.22 1.196.007 1.739-.03 1.64-.11l-8.215-.18c.055-.058 1.404-.03 1.092-.111-1.92-.066-3.774.053-3.828.111C58.747.876 54.64.931 54.227.74c-1.715.102-2.837.049-4.926 0-.53.108-.14.22-.55.255-2.82-.025-4.66-.119-6.566-.111.667-.002 1.293-.01 1.1-.072-1.726.042-1.338-.058-2.197-.072.17.218-3.245.197-4.38.328-2.06-.023-4.63-.053-6.563-.073.11.033-.047.055-.35.067-.325.01-.81.017-1.323.03-.566.022-1.168.016-1.658.055-.495.034-.88.062-1.015.07-1.162.197-.556.261-1.252.384-2.1.237-4.823 1.156-2.578.363-1.595.427-2.457.782-3.246 1.127-.8.328-1.517.67-2.77 1.255.562-.222.327.005-.179.377-.252.184-.572.405-.896.625-.312.235-.627.474-.89.67-.508.237-.891.542-1.214.807-.323.27-.598.486-.851.626.65-.55.96-.812 1.445-1.22-.514.304-1.9 1.346-1.613 1.02.828-.593.995-.73 1.11-.86.123-.12.19-.242.915-.679.27-.07-.937.69-.435.49.738-.479 1.172-.785 1.454-1.009.294-.206.43-.34.571-.476.285-.266.56-.583 2.258-1.357-1.743.711-2.152 1.041-3.443 1.798 1.306-.77.018.135-.468.464-.369.148-1.558.902-2.498 1.593-.951.683-1.664 1.284-1.315.847 1.455-1.282.936-.668 1.088-.72a67.76 67.76 0 013.082-2.417c.85-.59 1.883-1.342 4.634-2.381-.762.183-.478.044.161-.214.628-.278 1.649-.55 2.293-.811a37.19 37.19 0 00-1.71.456c-.54.186-1.155.411-2.085.818-.358.034 1.378-.763-.683.107-.138.21-.546.463-1.656 1.145-.605.243-1.147.567-1.675.925-.54.342-1.034.756-1.554 1.188-1.039.869-2.099 1.888-3.424 3.104.293-.419.921-1.016 1.537-1.638.66-.578 1.31-1.186 1.732-1.532-.419.15-2.415 1.9-2.607 2.009.55-.554 1.343-1.205 2.093-1.815.786-.574 1.52-1.124 2.008-1.411.477-.302.652-.415.272-.183-.38.231-1.337.79-2.932 2.063-.712.567-1.118.92-1.52 1.268.204-.058-.039.187-.833 1.013-1.758 1.864-2.42 2.357-3.414 3.942.531-.8 2.02-2.572.877-.973-.1.09-.323.358-.607.726a44.3 44.3 0 00-.885 1.336c-.585.988-1.105 2.026-1.184 2.34.442-.438-.09 1.025-1.089 4.34-.285.606-.398.738-.437.552-.04-.184-.002-.683.086-1.313-.329 1.029-.443 1.45-.582 1.693-.117.249-.202.338-.244.76.142-.149.16.177.114.775a60.673 60.673 0 00-.194 2.443c-.222.815-.12-1.002-.418-.036-.08 1.12-.143 2.014-.148 2.583.068.398.062-.125.072-.65.032-.521.067-1.042.107-.641l.004 1.686c-.007.497-.005.972.088 1.538.16.19.205.074.195-1.288.04.358.103.765.188 1.194.083.427.148.882.26 1.326.22.894.452 1.77.718 2.418.24.656.46 1.093.582 1.13.114.04.088-.31-.018-1.254.457 2.015.822 2.748 1.186 3.552.176.402.378.817.68 1.391l.51 1.008.752 1.337c.3.384-.018-.19-.385-.846-.386-.644-.729-1.424-.647-1.352.205.419.324.617.327.519.387.761.428.914.804 1.624.742 1.057.072-.177 1.267 1.75-.013.063-.451-.633-.067.038.483.69.13-.092-.383-1-.208-.288-.373-.48-.608-.829-.233-.367-.538-.834-.944-1.613.352.544.698.986 1.096 1.58a39.55 39.55 0 011.443 2.132c.41.735-.224-.012.688 1.435.611.948 1.394 1.806 2.048 3.11-1.141-1.578-2.733-4.041-3.679-5.232.494.814.607 1.08.447.96A18.299 18.299 0 005.25 41.07c-.51-.674-.889-1.008-.763-.385.45.757.725 1.09.996 1.457.27.364.523.725.853 1.304-.915-1.634.287.151-.313-1.033.354.672.63 1.127.851 1.342-.845-1.849 3.931 5.904 2.379 2.926 1.044 1.889 2.01 3.264 2.596 4.02-.722-1.245-1.432-2.05-1.71-2.694 1.015 1.52 3.738 5.396 2.008 2.529 1.26 2.043 1.298 1.637 2.286 3.578.318.431.38.361.953 1.288.86 1.552 2.512 4.226 2.88 5.077-1.031-1.554-.027.05.14.522-1.448-2.357-2.15-3.736-3.043-4.979 2.175 3.516 4.212 7.233 4.959 8.163-.36-.727-1.884-3.115-1.51-2.8.852 1.55.246.39.065-.037 1.448 2.329 1.937 3.259 3.217 5.488-1.122-1.841 2.271 4.303.496 1.549.896 1.405.613 1.133 1.029 1.855-.397-1.142-.043-.828-1.184-2.987 1.497 2.554 2.542 4.181 3.284 5.452-.701-1.055-.723-1.086-.92-1.305-.437-.74-1.301-2.406-1.61-2.748.933 1.524.353.893 1.238 2.348.362.602.307.381.613.872.682 1.265-.065.138.38.996.56.778 1.496 2.648 2.09 3.692.086.054.05-.128.376.398 1.128 1.93-.414-.351.657 1.46.827 1.094-.021-.656-.153-1.13 2.623 4.51 3.595 6.01 4.883 7.597.506.849.894 1.532 1.028 1.852-.808-1.179-1.152-1.476-.57-.29 1.903 2.974.278-.215 1.522 1.58 1.477 2.6.696 1.99 2.617 5.219-.054-.27-.615-1.263-.625-1.474 1.535 2.41-.213-1.124 1.251 1.128 1.026 1.88.43.79 1.166 1.785 1.779 3.076.63 1.554.727 2.014-.976-1.612-1.208-1.767-1.322-1.685 1.366 2.225.266.118 1.288 1.703-.057.047.71 1.27.414.979-1.117-1.838.057.423-1.017-1.252 1.404 2.3.823 1.779 1.687 3.312-.949-1.527-1.056-1.412-1.842-2.618-1.18-2.073-2.268-4.03-3.045-4.983 1.422 2.143 2.476 4.245 3.558 5.905-.068.031-.786-1.21-.676-.833 1.01 1.688.639 1.172.412.98.475.806 1.463 2.223 1.647 2.732-.703-.966-.538-.28.251 1.077-.115-.008-.225.003-.991-1.28.236.161-.087-.47-.957-1.885l-.132.073c.455.785.748 1.137.818 1.362-1.717-2.396-.722-2.015-2.067-4.311-.791-1.094.735 1.935-.462.256l-.82-1.361c-.245-.586.382.064-.56-1.513.12.676-.655-.4-1.731-2.071.333.558.64 1.084.483.948 1.924 3.066-.06-.53 3.14 4.921.057.234.724 1.336.387 1.01 1.234 1.929 2.989 4.46 3.686 5.827-.608-.979-2.251-3.118-1.738-2.67-1.024-1.815-.236-.075-.95-1.286-1.101-1.89-2.782-4.536-3.661-5.859 2.06 3.36 5.914 9.383 5.581 9.635-.234-.183-1.653-2.259-1.113-1.196.817 1.191.854.852 1.696 2.087.684 1.215.789 1.6 1.474 2.815.768.84 2.305 3.197 3.202 4.294.533 1.041 1.817 3.148 1.409 2.851-.96-1.61-2.237-3.404-1.598-2.143.005-.186.655.9 1.192 1.76-.078-.001-.04.16.143.528-2.139-3.363-4.947-8.27-6.013-9.398 2.465 4.04 6.604 10.375 6.372 11.016.93 1.524.943 1.241 1.808 2.639.276.278-1.068-2.073-.076-.565.246.446.76 1.59 1.029 1.854-.941-1.699.096-.181-.589-1.49 1.102 1.678-.373-.451 1.094 1.819.491 1.001.45 1.248.763 1.996.444.397 1.147 2.163 1.786 3.259.691.705.8 1.34 1.916 3.18.58.607-.905-1.72-1.204-2.366.721 1.114.483.342 1.324 1.691.899 1.843.925 2.443 1.595 3.96-.065-.291.008-.4.232-.127 0 .117.72 1.58.994 1.873-.515-.863.299.21.682.837.457.76.911 1.515 1.366 2.268-.12-.06.238.558.142.53 1.313 2.15.796 1.24 1.065 1.842-.034-.261 1.468 2.494 1.433 2.232-.324-.708-.93-1.404-.755-1.4 1.119 1.895 1.122 2.206 2.913 5.056-.286.223 2.085 4.225 3.336 6.635-.615-1.358.621.702 1.464 2.213.29.07 2.278 3.475 3.004 4.4-.517-1.075-1.869-2.962-1.85-3.215.982 1.387 2.114 3.07 3.286 4.833l.886 1.335 1.099 1.576c.384.526.813 1.023 1.216 1.525.418.494.872.954 1.3 1.413-.263-.244-.172-.106.133.244.326.333.861.882 1.487 1.45 1.266 1.123 2.911 2.283 3.37 2.516-.62-.444-2.151-1.659-2.001-1.673.432.244 1.38 1.015 2.563 1.746a26.392 26.392 0 003.586 1.935c-.24-.284-2.737-1.457.083-.162-.832-.43-1.58-.771-2.158-1.1-.588-.309-1.027-.56-1.242-.773.897.488 2.159 1.079 1.831.707a37.625 37.625 0 01-4.332-3.075c-1.48-1.199-2.794-2.6-3.852-3.823-.166-.333-.72-1.104-.98-1.571-.246-.475-.306-.582.481.41 1.145 1.497 1.36 1.8 2.348 2.879.013-.09-1.795-2.167-1.034-1.551.405.467.503.536.834.903.378.4.818.87 1.211 1.285.395.414.786.735 1.018.874-1.094-.975-.176-.37.56.292-.216-.143-.166-.06.066.16.241.21.667.55 1.174.94.517.377 1.138.78 1.733 1.151.615.34 1.19.677 1.645.883.61.163-.306-.315-1.192-.883-.896-.553-1.748-1.207-1.262-1.014 1.98 1.347 3.917 2.182 4.367 2.235-.79-.394-1.109-.558-1.441-.668-.33-.109-.641-.215-1.342-.617-.674-.406-1.112-.711-1.5-.953-.389-.241-.7-.45-1.034-.765.513.347 1.201.72 1.86 1.107.682.356 1.362.7 1.908.916-1.741-1.011-2.193-1.432-1.955-1.316l.867.466c.446.236 1.011.562 1.695.864 1.337.655 3.077 1.3 4.712 1.718.812.231 1.606.362 2.293.5.691.105 1.283.17 1.705.222-.691-.11-.639-.155-.575-.197l-1.072-.192c-.336-.07-.65-.133-.945-.193a8.737 8.737 0 01-1.48-.392c1.387.38 3.114.618 4.11.683.683.185 1.549.413 2.354.536-.67-.003-1.15-.037-1.542-.048-.392-.019-.698-.005-1.014-.028-.633-.046-1.331-.063-2.859-.414.15-.02.99.148 1.207.143-2.666-.584-4.455-1.213-4.884-1.267-.209-.044-.088.086.483.317.287.114.683.261 1.202.44.523.154 1.17.337 1.956.509-.02.089 1.088.389 2.493.553.698.116 1.476.135 2.202.208.732.03 1.422.06 1.963.08.263-.127-.799-.291 1.21-.365 1.417-.053 3.054-.204 4.72-.61a27.337 27.337 0 004.951-1.684 31.191 31.191 0 004.264-2.414c.615-.423 1.179-.844 1.694-1.223l1.358-1.068c.124-.281.255-.57.772-1.204.482-.656 1.376-1.646 2.672-3.574-.627.503.17-.868-.176-.766.912-1.407.982-1.69 1.637-2.764.082-.048.044.135.372-.4.435-.988 1.611-2.734 2.705-4.564.048-.313-.25.05-.747.803 1.036-1.67.335-.866.93-1.908.334-.535 1.167-1.643 1.402-2.256-.668.546-.582-.492-1.166-.037-.107.083-.714.986-.68.838.022-.082.925-1.49.791-1.385.007-.005-.06.101-.166.267l-.395.605c-.293.444-.588.894-.6.908-.129.14-.218.202-.295.234l9.233-15.33c-.002.017.001.022-.007.047-1.23 2.077-1.25 2.433-2.265 4.201-.646 1.02.023-.545-1.017 1.254.32.081.277.677 1.513-.98-.468.95-1.225 1.908-1.303 2.31 1.066-1.577-.05.499-.623 1.472 1.792-2.6 2.987-4.282 1.657-1.514.337-.55.657-1.068.608-.865.078.13-1.629 2.795-1.474 2.815.419-.654 1.376-2.37 1.402-2.253-.698 1.166-.262.719-.962 1.89-1.04 1.867-1.417 2.017-1.952 3.163.964-1.447-.026.424-.039.578.752-1.27 1.898-3.476 2.462-4.087-1.074 1.797-1.67 2.827-2.025 3.73.153-.157 1.647-2.533.956-1.296-.646 1.072-.866 1.311-1.678 2.712.393-.382.667-.918.505-.329-1.516 2.484-1.425 2.681-2.266 4.2-.42.607-.414.372-.504.329-.656 1.122-1.22 1.735-1.639 2.722 1.447-2.279.294.158.087.655.329-.531.768-1.29.854-1.344.277-.14-.776 1.444-.077.566-1.118 1.935-1.57 3.009-2.67 4.578.732-.964.934-1.264 1.084-1.214a41.542 41.542 0 00-1.042 1.808c-.132.244-.258.47-.383.704-.155.262-.317.531-.498.834.724-1.09.946-1.543 1.214-1.996.249-.433.45-.77.808-1.296a33.22 33.22 0 01-1.042 2.134c-.194.394-.554.98-.882 1.529-.324.573-.758 1.133-1.184 1.741-.435.603-.957 1.193-1.483 1.813-.573.586-1.135 1.224-1.806 1.798-1.286 1.197-2.806 2.307-4.464 3.284.97-.543-.093.108.059.094 1.712-1.018 3.197-2.126 4.48-3.335.67-.578 1.236-1.231 1.835-1.844.536-.66 1.12-1.282 1.6-1.977l.746-1.03c.229-.357.457-.715.687-1.077l.346-.544.28-.474.577-.961c.78-1.293 1.621-2.646 2.562-4.113.039.185-1.32 2.354-1.474 2.815.856-1.44 2.035-3.671 2.974-5.012-.664 1.297.4-.504.439-.365a546.929 546.929 0 01-3.389 6.037l-.901 1.598-.43.762c-.18.294-.355.582-.524.862-.34.567-.679 1.092-1.02 1.553-.335.465-.617.9-.91 1.243.198-.21.914-1.144.842-1.007-2.403 3.153-5.17 5.276-6.581 6.487.858-.516 1.225-.775 1.215-.634a28.278 28.278 0 006.113-6.251c.448-.613.836-1.265 1.25-1.906l.954-1.602c.63-1.064 1.26-2.124 1.874-3.165 2.469-4.166 4.756-8.014 6.271-10.426.038-.37 1.2-2.088 1.546-2.787-.152.146-.266-.019.313-1.03.369-.503.403-.484.13.074 1.034-1.685.353-.934 1.209-2.368.585-.932.95-1.428 1.467-2.22-.172-.202.989-1.93 1.685-3.306-1.11 1.876.039-.222-.44.366 1.606-2.698 2.491-4.367 3.052-5.58.742-1.263.383-.365.956-1.296.344-.908.345-.797 1.575-2.76.585-1.05.897-1.71.895-1.925-.184.088-.962 1.337-.81.765.74-1.373 1.312-2.256 1.85-3.22.02-.177-.065-.5.49-1.545-.167.524.906-1.39 1.438-2.243.751-1.649-.32.019.763-1.994.057.006-.054.25-.175.508 1.608-2.697 2.474-4.396 3.423-5.976-.36.52-.289.26-.197-.11-1.3 2.064-1.119 1.317-.33-.184.679-1.183 1.391-2.022 1.678-2.713-.473.681-1.32 2.097-1.743 2.677 1.244-2.127-.005-.369.897-1.927 1.293-2.018 2.503-3.797 3.93-6.307-.292.702.34-.317-.074.561.507-.86.641-.982 1.127-1.8.33-.72-.232.073.11-.546.563-.83 1.47-2.334 1.775-2.656-.124.405-.827 1.762-1.305 2.314-.433.848.449-.462.747-.802-.461.46.27-.776 1.236-2.343.005-.443-.063-.127-.33-.183-.79 1.303-1.34 2.13-1.258 1.724.543-.9.437-.525 1.16-1.779-.188.15-.692.913-.986 1.266-.138.447-.732 1.124-1.368 2.274.162-.075.256-.057-.688 1.435.145-.458.142-.46-.197-.11.685-1.13.918-1.386 1.057-1.83-.217.344-.542.898-.578.89.406-.686 1.023-1.674 1.062-1.837-1.247 2.134.073-.364-.65.858-.19.5-1.232 1.989-1.19 1.757 1.01-1.628.795-1.513 2.091-3.692-.126.554.925-1.202 1.564-2.158-.721 1.202-1.628 2.665-1.574 2.762 1.65-2.747 1.952-3.377 3.524-5.926-.086-.048-.083-.277-.506.328 1.295-2.093.256-.703.69-1.435 1.345-2.229 1.68-2.47 2.423-3.512-.006-.192.788-1.436 1.093-1.815-.8 1.376-.827 1.653-2.089 3.686 1.466-1.502 1.91-1.432 2.183-1.214.684-.89.902-1.78 1.33-2.284-.128.344-.198.558.133.073.528-1.361-1.626 1.826-.659-.365.628-.702 1.57-1.828 1.011-.655 1.722-3.26-1.79 1.563-.616-.949 1.518-2.723 2.376-4.511 3.436-6.582-1.166 1.944-1.94 3.367-3.009 4.994.096.081-.655 1.368-1.515 2.809.155-.58-.626.677-.809.76 1.3-2.097.234-.504.754-1.398.822-1.154 1.643-2.939 2.465-4.09-.039-.068-.164.043-.407.38.675-1.089.538-1.021 1.337-2.29.114-.005.311-.171.747-.803.657-1.24 1.924-2.782 3.076-4.962.318-.236-.073.539.018.625.478-.797.863-1.415 1.134-1.805-.031-.285-.01-.493-.64.254 2.205-3.85 3.293-6.113 5.046-9.323.492-.6-.111.43.47-.346 1.002-1.62 1.289-2.223 1.853-3.221.786-1.095.708-.741-.01.603-.996 1.407-.598 1.035-2.157 3.653-.156 1.216.541.642-1.639 4.547-.194.144.426-.866.108-.544-1.135 1.87-.367.935-1.578 2.767.088.533-.692 2.235-1.978 4.96 1.05-1.114-.434 2.133-1.913 5.001.295-.06.14.993-1.254 3.544.735-1.417 1.611-2.544.952-1.288-.037-.014-.52.772-.546.905.745-1.159 1.852-3.03 2.288-3.581.288-.279-.48.944-.418.984 1.53-2.702 1.35-2.64 1.86-3.814.803-1.238.726-.814.537-.31.848-1.468.9-1.38 1.437-2.237.098-.38-.157-.257.556-1.509.377-.586 1.056-1.649 1.435-2.237a81.48 81.48 0 011.071-2.433c.933-1.274 1.091-1.854 1.852-3.222 1.853-2.81 2.003-2.274 4.838-7.012a77.312 77.312 0 013.462-5.966c.915-1.757.683-1.885 1.758-3.867-.096.583 2.3-3.595 1.39-1.655.98-1.615 1.214-1.771 1.331-1.695a46.53 46.53 0 011.354-2.454c.295-.54.606-1.102.926-1.682.315-.598.592-1.24.895-1.882 1.132-2.602 1.844-5.605 1.921-8.325.26-2.358.256-.062.356-.622a23.728 23.728 0 01-.035-1.81z" mask="url(#d)"/>
      </g>
    </g>
    <g fill="#FF5E16" mask="url(#b)">
      <path d="M280.754 176a2.495 2.495 0 012.493 2.498 2.497 2.497 0 01-2.493 2.502 2.499 2.499 0 01-2.494-2.502 2.496 2.496 0 012.494-2.498zm-25.931-7a2.496 2.496 0 012.493 2.498 2.497 2.497 0 01-2.493 2.502 2.497 2.497 0 01-2.494-2.502 2.496 2.496 0 012.494-2.498zm-23.935-6a2.497 2.497 0 012.491 2.502 2.496 2.496 0 01-2.491 2.498 2.5 2.5 0 110-5zm66.818-3c1.38 0 2.496 1.12 2.496 2.498a2.497 2.497 0 01-2.496 2.502 2.498 2.498 0 01-2.491-2.502 2.498 2.498 0 012.491-2.498zm24.934-3a2.497 2.497 0 012.495 2.5c0 1.38-1.117 2.5-2.495 2.5a2.495 2.495 0 01-2.491-2.5c0-1.382 1.114-2.5 2.491-2.5zm-49.867-4a2.499 2.499 0 012.495 2.502 2.497 2.497 0 01-2.495 2.498 2.495 2.495 0 01-2.492-2.498 2.497 2.497 0 012.492-2.502zm-25.933-5c1.38 0 2.497 1.12 2.497 2.501A2.496 2.496 0 01246.84 153a2.492 2.492 0 01-2.49-2.499 2.495 2.495 0 012.49-2.501zm-25.926-3a2.496 2.496 0 012.492 2.501 2.496 2.496 0 01-2.492 2.499 2.498 2.498 0 01-2.495-2.499 2.498 2.498 0 012.495-2.501zm88.763-5a2.498 2.498 0 012.493 2.5c0 1.382-1.117 2.5-2.493 2.5a2.497 2.497 0 01-2.494-2.5c0-1.379 1.118-2.5 2.494-2.5zm-20.945-4a2.5 2.5 0 110 5 2.498 2.498 0 01-2.493-2.502 2.496 2.496 0 012.493-2.498zm-89.761-3a2.5 2.5 0 012.493 2.502 2.498 2.498 0 01-2.493 2.498 2.5 2.5 0 110-5zm63.832-2a2.497 2.497 0 012.491 2.501 2.495 2.495 0 01-2.491 2.499 2.497 2.497 0 01-2.495-2.499 2.498 2.498 0 012.495-2.501zm67.82-2a2.496 2.496 0 012.491 2.501 2.495 2.495 0 01-2.49 2.499 2.497 2.497 0 01-2.497-2.499 2.498 2.498 0 012.496-2.501zm-91.76-2a2.498 2.498 0 012.495 2.499 2.498 2.498 0 01-2.495 2.501 2.496 2.496 0 01-2.492-2.501 2.496 2.496 0 012.492-2.499zm-21.942-7a2.498 2.498 0 012.495 2.5c0 1.379-1.117 2.5-2.495 2.5a2.497 2.497 0 01-2.491-2.5c0-1.38 1.116-2.5 2.49-2.5zm88.768-1a2.495 2.495 0 012.491 2.498 2.496 2.496 0 01-2.49 2.502 2.499 2.499 0 01-2.495-2.502A2.497 2.497 0 01305.69 119zm-24.938-6a2.498 2.498 0 012.496 2.501A2.497 2.497 0 01280.75 118a2.496 2.496 0 01-2.491-2.499 2.497 2.497 0 012.49-2.501zm-23.932-5a2.498 2.498 0 012.491 2.5c0 1.38-1.115 2.5-2.49 2.5a2.497 2.497 0 01-2.496-2.5c0-1.378 1.115-2.5 2.495-2.5zm84.773 0a2.495 2.495 0 012.493 2.5 2.494 2.494 0 01-4.987 0c0-1.385 1.115-2.5 2.494-2.5zm-147.783-1.01c1.283 0 2.32 1.217 2.32 2.713 0 1.5-1.037 2.712-2.32 2.712-1.278 0-2.318-1.212-2.318-2.712 0-1.496 1.04-2.713 2.318-2.713zm40.068-3.99a2.498 2.498 0 012.494 2.498 2.5 2.5 0 01-2.494 2.502 2.496 2.496 0 01-2.492-2.502 2.495 2.495 0 012.492-2.498zm86.77 0a2.494 2.494 0 012.494 2.499 2.494 2.494 0 01-2.494 2.501 2.497 2.497 0 01-2.493-2.501 2.496 2.496 0 012.493-2.499zm-107.715-6a2.5 2.5 0 010 5 2.495 2.495 0 01-2.492-2.498A2.498 2.498 0 01212.932 97zm83.782-1c1.376 0 2.49 1.12 2.49 2.499a2.495 2.495 0 01-2.49 2.501 2.499 2.499 0 01-2.496-2.501A2.499 2.499 0 01296.714 96zm-25.934-5a2.494 2.494 0 012.493 2.498A2.497 2.497 0 01270.78 96a2.497 2.497 0 01-2.494-2.502A2.493 2.493 0 01270.78 91zm66.822-7a2.499 2.499 0 012.493 2.503A2.498 2.498 0 01337.602 89a2.498 2.498 0 01-2.493-2.497A2.499 2.499 0 01337.602 84zm-90.76 0a2.499 2.499 0 012.495 2.5c0 1.38-1.118 2.5-2.494 2.5a2.498 2.498 0 01-2.493-2.5c0-1.38 1.118-2.5 2.493-2.5zm-48.868-4a2.496 2.496 0 012.493 2.498A2.495 2.495 0 01197.974 85a2.495 2.495 0 01-2.494-2.502A2.496 2.496 0 01197.974 80zm114.697-1a2.499 2.499 0 012.49 2.502 2.496 2.496 0 01-2.49 2.498 2.5 2.5 0 110-5zm-89.763-2a2.498 2.498 0 012.493 2.503A2.496 2.496 0 01222.908 82a2.495 2.495 0 01-2.494-2.497A2.497 2.497 0 01222.908 77zm63.828-4a2.496 2.496 0 012.495 2.498A2.498 2.498 0 01286.736 78a2.5 2.5 0 01-2.492-2.502A2.497 2.497 0 01286.736 73zm-23.932-6c1.377 0 2.49 1.12 2.49 2.498a2.494 2.494 0 11-4.986 0A2.496 2.496 0 01262.804 67zm66.822-6a2.493 2.493 0 012.49 2.498 2.497 2.497 0 01-2.49 2.502 2.502 2.502 0 01-2.496-2.502c0-1.38 1.12-2.498 2.496-2.498zm-91.762-1a2.5 2.5 0 010 5 2.494 2.494 0 01-2.49-2.5c0-1.38 1.112-2.5 2.49-2.5zm64.83-4a2.497 2.497 0 012.494 2.5c0 1.38-1.116 2.5-2.494 2.5a2.498 2.498 0 01-2.492-2.5c0-1.38 1.116-2.5 2.492-2.5zm-92.757 0a2.5 2.5 0 012.498 2.5c0 1.38-1.117 2.5-2.498 2.5a2.496 2.496 0 01-2.489-2.5c0-1.38 1.117-2.5 2.49-2.5zm68.82-7a2.498 2.498 0 012.495 2.499A2.497 2.497 0 01278.758 54a2.496 2.496 0 01-2.493-2.501A2.496 2.496 0 01278.758 49zm-24.931-5a2.498 2.498 0 012.492 2.503A2.496 2.496 0 01253.826 49a2.495 2.495 0 01-2.494-2.497A2.497 2.497 0 01253.826 44zm62.831-3a2.498 2.498 0 012.494 2.501 2.494 2.494 0 01-4.987 0A2.495 2.495 0 01316.657 41zM225.9 40a2.495 2.495 0 012.493 2.499A2.495 2.495 0 01225.9 45a2.497 2.497 0 01-2.494-2.501A2.497 2.497 0 01225.9 40zm68.817-11a2.498 2.498 0 012.493 2.501A2.498 2.498 0 01294.717 34a2.498 2.498 0 01-2.494-2.499A2.499 2.499 0 01294.717 29zm-23.94-2a2.5 2.5 0 010 5 2.495 2.495 0 01-2.49-2.496 2.497 2.497 0 012.49-2.504zm-25.428-2c1.1 0 1.993.897 1.993 2s-.894 2-1.993 2a1.998 1.998 0 01-1.996-2c0-1.103.892-2 1.996-2z"/>
    </g>
  </g>
</svg>
