<svg xmlns="http://www.w3.org/2000/svg" xmlns:xlink="http://www.w3.org/1999/xlink" width="374" height="335" viewBox="0 0 374 335">
    <defs>
        <path id="a" d="M0 .623h373.277v334.115H0z"/>
    </defs>
    <g fill="none" fill-rule="evenodd" transform="rotate(180 187 167.5)">
        <mask id="b" fill="#fff">
            <use xlink:href="#a"/>
        </mask>
        <path fill="#F0F0FB" d="M248.726 328.163c-3.6-.054-4.336-.023-1.162.048-2.128-.008-8.979-.04-13.118-.142h14.796c-.334.025-.645.048-.516.094zm-12.734.515c2.34.15-4.573.147-1.175.185-2.474.013-13.605-.243-11.563-.421 1.311.01.657.048 0 .048 2.307.142 9.68.076 12.738.188zm-22-.094c-.968-.053-1.524-.127-1.162-.236h-2.323c-.788.17-1.248.256-5.786.094.614.04 1.212.079 1.17.142-6.141-.028-2.194-.28-5.787-.327.166.126 1.776.403-5.807.42-.556.194 2.13.26 3.5.376-2.848.082-7.546-.162-10.425-.233 2.14-.091 2.113-.04 1.148-.188 2.206.086 2.092-.028 5.777 0-2.77-.13-7.531-.04-12.716-.142 2.14.091 2.112.038 1.147.188-3.278-.04-4.82-.056-8.11-.094.511.152 7.559.038 5.793.28-5.65-.1-10.245-.24-12.716-.468-4.114-.025-2.866.165-6.97.14-1.104-.196.72-.335-5.78-.373v-.094h2.326c5.893.076 13.517.172 21.992.279.607-.155-7.113-.135-12.746-.234.025-.012.045-.03.048-.045h47.945c1.666.13 2.96.271 6.421.327-.7.13-3.174.183-6.939.188zm-2.31 1.5c2.411.053-5.663.079-4.644.233-1.688-.04-3.657-.07-3.462-.187 2.062.012 2.378-.044 1.145-.046 2.46-.13 3.36.124 6.961 0zm8.102-.61c.324.191-8.604-.045-4.645.14-5.425.163.177-.243-5.779-.236 3.174-.137 7.53.069 10.424.097zm1.147.046c4.963.051 3.245.368 9.27.376 1.718-.02-.463-.06 0-.142 5.511-.003 2.797.11 4.616.188h2.323c-4.63.106-12.05-.074-16.209-.14v-.282zm-30.104.282c2.797-.02 2.532.086 5.794.046 1.716-.226-6.646-.043-5.794-.234 7.303-.028 7.265.236 11.586.328-2.893.226-10.26.053-11.586-.14zm-26.617-1.03c2.176.091 5.468.023 8.099 0 .932.312 4.703.22 5.794.512-4.402-.16-8.89-.327-13.893-.512zm11.571 1.591c-1.782.099-7.467-.035-6.942-.185 2.735-.003 3.404.078 6.942.045-.804.039-1.797.127 0 .14zm-13.896-.794c2.843-.13 9.054.005 11.586.045v.188c-6.27.018-6.37-.213-11.586-.233zm4.632.56v.188c-4.617.013-6.876-.066-6.947-.233 2.727-.003 3.412.079 6.947.046zm8.102 1.077c-9.755-.041-15.453-.247-21.988-.422 1.607-.14 6.99-.04 10.416 0-.26.069-3.454.018-3.477.094.172.087 3.93.028 4.64.094 3.454-.03-1.112-.101 0-.188h4.63c-4.423.28 5.662.193 5.779.422zm-3.455 1.593c-1.979.122-5.398-.091-9.28-.045 1.191-.11 5.333-.097 9.28-.097.228.081-1.991.122 0 .142zm-3.47.843c-3.032.013-4.993-.018-4.647-.14 3.03-.012 4.976.016 4.648.14zm-8.124-2.436c3.672-.008 3.882.124 8.125.094-2.477.076-9.431.177-8.125-.094zm-3.47.842c2.186.026 5.469.066 8.11.094-1.474.102-8.895.053-8.11-.094zm0 1.173c-4.002.035-4.892-.051-6.939-.094 1.064-.102 8.418-.064 6.94.094zm-15.04-2.482c.72.096 5.842.015 4.617.187-7.223.026-3.68-.383-10.424-.378 3.396-.193 7.032-.218 12.746-.23-.167.1-2.916.1-5.792.093 1.65.066-.26.229-1.147.328zm-17.371 1.124c4.046-.038 13.062-.135 15.048.091-6.19.018-11.08-.02-15.048-.091zm6.94 1.543h-6.94c.18-.135 8.122-.198 6.94 0zm-8.1-3.652c2.782.081 9.858-.071 10.414.188 2.155-.03 4.233-.056 6.942-.094-5.241.195 13.711-.02 13.9.33-5.374-.064-6.703-.079-16.21-.188-2.575.008 1.498.117 0 .233l-4.632-.093c1.668-.353-8.577-.173-10.414-.376zm-3.472.282c-3.73.04-2.403-.122-4.632-.14 4.417-.134 2.438-.142 0-.282 2.77-.02 2.52.084 5.78.049-1.525.14-.312.162-1.148.373zm-1.16-1.125c-.38.112-4.026.087-3.472.236-3.42-.104-.592-.215-4.645-.327l8.117.091zm-2.17-.842a.518.518 0 0 1-.152.045l-8.102-.045h8.253zm-18.676 2.67c-2.307-.036 4.506-.051 5.795.045-.958.175-4.069.01-5.795-.045zm-8.67-2.67h3.182c-.779.012-1.986.005-3.182 0zm-46.92 4.355c5.694.05 15.095-.048 16.227.188-4.013-.12-13.772-.005-16.226-.188zm3.486.33c-.033-.033.695-.061 1.799-.079 1.107-.01 2.593-.02 4.071-.033 2.957-.005 5.888.025 5.709.112-4.392.07-5.57-.008-11.58 0zm-11.572-4.45c1.929-.08 5.578-.088 6.942-.19 4.387.044 4.387.262 11.569.19-6.94.16-10.914-.088-18.51 0zm-2.175 3.143c-1.034-.003-2.356-.104-3.485-.165-1.15-.183-2.239-.317-3.106-.495 1.448.165 2.901.46 4.74.505a38.49 38.49 0 0 0 2.882.089c1.016.002 2.155.007 3.447.012-.607.054-2.424.059-4.478.054zm-17.786-4.251c-4.04-2.893-7.775-6.946-10.338-12.811 1.628 3.41 4.198 7.342 8.16 10.81 3.445 2.996 8.056 5.554 13.411 6.68-4.066-.76-7.826-2.273-11.233-4.68zm-12.26-24.922c.025-1.213.045-2.343.065-3.345.01.68.028 2.017.053 3.629.056.914.089 1.909.177 2.921.162 1.005.29 2.04.493 3.033.798 3.997 2.534 7.172 2.236 6.878-1.364-2.579-2.342-5.695-2.726-8.728-.276-1.505-.23-3.008-.299-4.388zm-.122-14.958c-.217-2.434.083-7.56 0-13.969.154-.794.076 2.4.046 3.5.154 1.444.037-3.766.187-2.333-.074-1.73-.051-5.195.093-4.644-.06 2.454-.073 5.924-.068 8.789l.023 5.157c-.079 2.698-.25-3.2-.281 3.5zm.513-63.965c.068.987.101 2.934.094 5.82h-.142l.048-5.82zm.28 61.632c-.065-3.578-.022-5.22.046-8.136.068.284.109 9.573-.045 8.136zm0-32.566c.21-.614.11 6.596.185 9.32-.144.855-.088-3.206-.232-2.336.022-3.548.022-3.416.048-6.984zm0-1.152c.036-8.75.049-12.278.091-23.262.056 6.84.172 17.62-.09 23.262zm-.015-39.906c.026-2.045.05-4.012.066-5.456.033-1.444.08-2.363.134-2.315-.038 7.048-.07 13.446-.094 17.438-.09-1.167-.123-5.573-.106-9.667zm.435-150.79c-.04-1.35-.063-3.124-.048-5.82.131.224.197 2.036.187 5.82h-.139zm.604 52.313c.215 1.987-.129 5.89.093 9.312-.164.621-.133-2.734-.419 0 .023-5.27.359-2.734.326-9.312zm-.278-9.301c.131-.168.134 2.855.139 5.817-.144.53-.15-2.47-.139-5.817zm.654 147.684a35.637 35.637 0 0 0-.141-2.332c-.023-3.665.144-2.622.091-6.977.03 5.022.111 9.027.05 16.28-.144.704-.23 2.84-.235 6.985-.106-1.231-.017-7.32-.048-10.469.15-.992.145 1.825.233 2.332-.015-2.708.01-4.471.05-5.819zm.137-66.29c.005 1.648.008 3.29-.046 3.5.145 1.363-.025 3.353.14 3.5v8.129c-.059-.05-.076-8.187-.188 0-.053 1.624-.017.109 0-1.168-.043-1.586-.075.493-.139-2.324.16-2.071.028-8.774.233-11.636zm-.094-67.426c.268 4.802-.083 10.439.094 18.598-.08-1.036-.142-2.602-.187-4.652.025-4.063.164-5.855-.046-6.984.064-3.094.084-4.066.14-6.962zm.094-1.167c-.182.32-.013-8.203-.137-9.302.117-3.26.155 5.338.137 9.302zm-.046-41.86c.104.485.036 6.172 0 6.977-.103-.495-.037-6.18 0-6.977zm.094 81.387c-.02 2.216-.018 5.015-.142 4.652v-6.984c.051.769.051 2.68.142 2.332zm0 130.242c-.04-3.718.073-3.602.093-5.82.104.843.023 6.64-.093 5.82zm.093-218.598c.296 8.388.036 15.126.048 23.247-.058-1.297-.098-1.015-.096 1.167-.068-2.928-.22-3.776-.187-9.316.064.411.074 2.056.142 2.332-.023-4.426.02-7.253.141-8.136-.002-3.558-.174-6.058-.048-9.294zm.094 131.383c.212 2.087.172 12.512 0 12.789-.086-2.718.048-7.398 0-12.789zm.558 80.23c.038 2.528.177 2.594.187 5.817-.043.906-.106 1.254-.187 1.168v-6.985zm-.184-136.035c.018-3.68.023-4.124.045-8.152-.043.52-.083 1.02-.093 2.317-.088-.114.038-4.324.048-5.801.07.492.038 3.652.184 2.317-.09 4.39-.03 9.418.046 12.804-.07-1.297-.096-3.79-.23-3.485zm0 25.567c.23 5.786.093 15.582-.048 20.93-.139-7.233.136-15.52.048-20.93zm.139-16.273c-.038-1.008-.129-.68-.139-2.325-.048.761-.05 2.68-.142 2.325-.03-4.246.033-6.188.094-8.144.063-.196.058 6.733.141 2.335.102-.196.018 4.113.046 5.809zm-.187-62.79c-.21-1.429-.096-6.152-.094-13.953.099-.028.114 2.053.102 4.406-.02 2.352-.046 4.979-.056 6.047.412-1.789.546 9.106.56-11.613.125 1.563.218 3.896.279 6.977.056-.198.04-2.125.048-3.5.192 12.344.035 31.543.048 47.677-.22-2.29.005-15.641-.142-19.763-.12 1.645-.103 6.703-.232 8.136-.068-1.76-.076-5.1-.094-8.136-.126 1.477-.222 1.855-.141 5.817-.038.21-.043-.454-.046-1.165-.04-.218-.043.454-.045 1.165l-.187-12.794c-.048.762-.05 2.668-.142 2.325.102-3.484-.058-9.141.142-11.626zm.561 96.523c.109-2.644.222-6.573.371-2.335.016 3.86-.23 1.254-.141 6.972-.089-.132-.03-3.85-.137-3.487-.166 1.167.038 5.16-.141 4.667.023-5.32-.08-6.593 0-10.484.063.363.038 2.911.048 4.667zm0 15.098c.008-1.34-.013-2.056-.048-2.32.035-4.167.222 5.863.232-1.164.11 1.312.127-.25.235 2.332-.083 3.515-.237.903-.419 1.152zm.093 96.523c-.181-2.654.02-4.492 0-9.311.14 2.16-.055 5.53 0 9.311zm.463-114.443v2.822c-.086-1-.043-1.789 0-2.822zM39.953 2.921c4.22.096-.492.3-4.632.327-1.556-.236 3.99-.182 4.632-.327zm59.052-.142c2.042.012 2.633.08 2.322.188h-3.482c-.478-.097.799-.125 1.16-.188zm34.734 1.781c-1.456.153-1.65.1-2.307.234H126.8c-1.067-.216 2.453-.244 6.939-.234zm31.264-2.718c.202.102-4.104.023-5.792.048-.783.125 2.401.092 3.485.14.28-.084 1.984-.107 4.632-.094-.39.165-3.189.114-1.162.282-3.19.02-1.09-.175-3.47-.188-.131.175-5.236.033-2.322.234-4.076-.066-5.368-.003-10.424 0 .902-.041 1.253-.107 1.16-.186-2.292.186-8.137-.043-9.254-.188 7.798-.015 15.718-.033 23.147-.048zm-5.792-.373c2.05.01 2.649.081 2.323.188-2.047.01-5.807-.048-4.63.091h-2.325c-.604-.035-1.198-.073-1.16-.14 5.368-.05 7.791.07 5.792-.139zm12.221.345c1.107-.01 2.59-.023 4.069-.033 2.956-.005 5.887.026 5.713.11-2.633-.094-6.461.048-11.579 0-.035-.034.693-.059 1.797-.077zm-.642-.3c1.125.003.91.057 1.163.095 1.354.007 2.064-.01 2.307-.046 4.351.203-7.907.12-3.47-.048zm24.31.516c3.252-.046-1.673-.124 1.163-.188h13.906c-.359-.109-4.026-.086-3.482-.233 1.03-.02 2.08-.04 2.322-.094 1.718.02-.468.06 0 .142 7.957-.317 13.325.056 30.102 0-.223.036-1.16.046-1.16.091 21.513.155-10.95.074-15.056.188.131-.16-3.98-.15-4.625-.279-2.89.005-3.59.086-5.792 0-.141.084 1.408.096 1.163.185 2.15-.091 4.243-.012 6.947 0-.195.056-2.115.04-3.477.048-4.039.013.1.127-2.31.14-7.508-.17-12.039.193-23.163.094-1.087-.13-5.532-.12-5.78-.282 4.15-.132 8.406.043 9.242.188zm57.9-.327c-.39.264-3.976.023-6.94 0-2.719-.104 3.846.045 6.94 0zm-30.105.327c4.682-.142 11.816-.053 20.84-.094-3 .18-8.647.018-9.254.236-10.194.003-2.89-.167-11.586-.142zm-22 .327c3.366.165-3.983.153-5.795.049.493-.16 6.363.07 5.795-.049zm-55.57.328c.023-.14 3.015-.16 3.462-.28 3.99.074 4.617-.073 9.277-.048-3.78.1-8.82.229-12.739.328zm-19.329 326.32c-1.19.104-7.755.038-6.94-.094l6.94.094zm-5.792-.563c1.91-.132 6.282.023 8.117.048-.96.094-6.105-.03-8.117-.048zm16.211.842c1.059-.124 4.066.051 5.792.049-.758.063-2.461.088-4.632.094.093-.066.18-.132-1.16-.143zm11.584-.842c-.167.02-4.94.145-3.47.284-5.332-.056-8.824-.089-13.9-.142 1.116-.117 4.442.063 8.108 0-1.963-.173-7.957-.058-9.271-.28-6.247-.014-6.13-.04-10.41.044-.214-.038.446-.04 1.148-.043 3.161-.046-3.52-.107 0-.19l4.645.096c2.393-.048.455-.094-.533-.142h3.724c2.333.13 2.985.325 9.535.279-3.869-.094-.917-.099 3.485-.091-2.644-.087-3.364-.148-2.886-.188h13.765c-.546.048.434.05-1.63.094-.326.17 7.823-.005 5.792.233-4.726-.089-7.923-.045-12.732-.185-3.997.21-3.328.337 4.63.23zm63.683 4.637h4.633c2.357.152-6.58.068-2.323.142.207.04-.447.043-1.162.045h-2.323c.915-.04 1.256-.104 1.175-.187zm16.211.563c-.187.147-7.093.089-6.962-.046 2.864-.007 5.583-.007 6.962.046zm1.145-.14c-2.05.153-4.688-.055-5.784-.096 3.08-.195 2.64.14 5.784.096zm10.427-.236c-1.79.13-6.942.005-8.11-.045 2.757-.168 3.44.137 8.11.045zm39.37.61c2.159.167-5.632.121-9.268.048-.23-.244 8.07.106 9.269-.049zM.566 173.354v-8.142c.103-1.066.31-2.58.374-1.167-.079 4.246-.165 8.332-.374 9.309zM.519 212.89c-.243-.325-.354-6.837-.232-12.786.088.492.083 3.32.232 2.317v10.469zm1.539-108.144c-.111.472.025-5.294-.142-3.485-.032-3.172.094-2.34.094-4.644.124 1.538.088 5.152.048 8.129zm-.048 6.984c-.038-.622-.073-1.216-.139-1.165l.045-2.332c-.03-1.183-.106-1.19-.09-3.487.12.87.283 4.21.184 6.984zM103.637 1.797c-.14-.084 1.418-.1 1.16-.188 5.857.023 6.86.028 11.586.048-3.224.175-8.814-.023-12.746.14zm269.401 27.919c.015-.1.015-.64-.005-1.401-.048-.762-.194-1.741-.326-2.723-.354-1.944-.907-3.868-1.12-4.02.157.576.284 1.076.529 1.845.245.769.573 1.82.763 3.555-.48-2.35.076 1.574-.442-1.337-.48-2.411-.84-3.627-1.34-4.929-.475-1.31-1.02-2.76-2.544-5.352.161.137-.117-.784-1.352-2.436-.75-.78-2.71-2.937-1.122-.876 1.41 1.845 2.987 4.124 4.142 6.796 1.137 2.66 2.084 5.596 2.39 8.492.23 1.416.217 2.896.28 4.155-.002 1.137-.007 2.215-.01 3.2-.015 1.974-.045 3.586-.095 4.601-.006-2.703-.008-5.284-.013-7.784-.07-2.847-.316-5.776-1.14-8.448-1.5-5.39-4.435-10.172-8.486-13.872-.879-1.056-6.643-6.122-14.05-7.606-1.81-.378-3.654-.65-5.42-.688-.93-.056-1.68-.056-2.358-.046-.705.003-1.377.008-2.017.01-1.817.013-3.305.033-4.29.064 1.202-.094-2.859-.234-4.433-.104 1.261.013 2.782.079 1.16.094-4.038.023-5.792-.147-9.277 0 .05-.064-.54-.102-1.147-.14-2.833.097-19.382-.02-10.416.14-6.5-.003-13.78.028-17.366-.094 13.355.053 11.442.018 2.312-.14 1.355-.007 3.288.008 3.47-.049-5.009.004-14.356-.024-6.947.098-8.299.045-15.238-.098-19.676.045 5.449.213 11.132-.205 13.894.188-2.14-.147-6.383-.091-2.322.046l-17.363.187c-1.481-.114-4.653-.258-6.947-.093 2.05.01 5.784-.049 4.63.093l-28.943.094c.397-.16-3.315-.393-4.63-.327 2.361.066-3.679.112-5.794.046-1 .15 1.014.177 2.31.236-6.383.025-12.54.08-16.21 0 1.113-.13 9.582.043 9.27-.142-2.683.015-1.29-.135-3.476-.14-11.081.142-27.318.137-33.575.046-12.321.378-29.444.08-52.104.187 1.427.153-3.75.036-2.323.188 2.171.043 3.88-.14 4.63 0-2.36.018-7.581.155-9.262.046.015-.091 3.16-.058 2.323-.185-5.909.08-4.344.2-10.417.233-6.017-.383-15.157-.04-23.162.046-.357-.107 3.353-.05 3.47-.14-3.733-.109-11.408.043-12.735.046 1.459.02 2.373.06 2.31.142-2.03.025-6.798-.058-6.942.046 6.978.157-5.122.07-4.63.188 4.221-.036 2.194.16-1.162.093 1.883.19 4.971.15 3.485.282.65-.137 1.805.071 3.455.046.131-.137-4.878-.27 0-.328.894.198 10.805.03 12.749.188-.016.076-3.212.026-3.47.094h16.208c-6.29-.005 1.471-.375 3.47-.188-5.676.016 2.208.028 0 .188 3.03.013 4.978-.018 4.632-.142-1.37-.008-3.29.008-3.47-.046 2.568-.068-1.458-.114 1.16-.142 2.037.043 1.473.19 5.78.142.773-.172 3.424-.21 0-.327 5.112-.107 8.758-.06 13.9-.094-1.617.058-.505.228-3.484.234-3.624.053-2.805-.074-4.632-.094-2.525.157-1.825.314 1.162.327.374.124-6.484-.043-4.624.142 4.998.152 15.278-.13 20.84.046-8.872.03-17.643.06-26.632.094-1.061.081-.39.233-2.31.281-2.994-.203-7.033.087-9.261 0 .1-.17 7.22-.053 5.776-.281l-8.099.045c.048.064-.556.104-1.162.143 3.007-.028 1.999.19 1.162.233-2.64-.127-4.654-.18-6.946 0-1.395-.274 6.302-.183 5.784-.421-5.297.058-7.01.084-12.739.045.463.25-5.367.092-6.942.094-1.607.028-.179.18-2.307.188-2.605-.198-7.647.013-10.431-.14 1.084-.05 4.275-.015 3.484-.142h-5.792c.243.135-.295.239-2.324.282-1.522-.124-7.336-.079-10.41-.14-2.395.247-15.604.056-17.385.328-.036-.066.556-.104 1.162-.142-2.787-.01-3.92-.018-5.258.078-.675.049-1.347.097-2.234.163-.875.16-1.979.249-3.47.591-.414.18.912-.147 2.494-.33 1.572-.259 3.4-.213 3.851-.22-7.563.408 4.218.043-2.52.406-3.54.297-7.429.85-13.039 4.413.764-.761-3.065 1.82-5.842 4.885.382-.48.809-1.121 1.648-1.959 1.41-1.325 4.162-3.456 5.051-4-4.14 2.49-6.41 5.188-7.765 6.995-1.36 1.84-1.762 2.934-1.79 3.195.61-1.02 1.176-1.921 1.704-2.622.497-.72.91-1.269 1.256-1.517-2.623 3.124-5.792 9.02-6.538 13.651-.144.558-.096-.272.121-1.29.238-1.014.521-2.23.582-2.494-.571 2.058-.837 3.436-.902 4.086-.102.642-.117.538-.076-.35-.081.566-.187 1.317-.301 2.132a944.11 944.11 0 0 0-.136 2.52c-.028 1.52-.005 2.718.04 2.802.06-2.617.263-4.637.28-2.333-.149.556-.133 5.208-.232 6.984-.088-.116-.033-3.847-.142-3.487v8.152c-.146-.195-.154 3.063-.325 2.304.025 6.708-.084 8.29-.233 12.794.08 1.079.104 3.644.094 6.984.28-.05.265-8.02.277-11.633.286 1.766.198 11.36.094 17.453.104 1.301.111 12.336 0 13.945-.152-.672-.066-4.39-.045-6.984-.319-.992-.112-7.977-.374-10.446l-.14 17.43c-.288.036.102-13.418-.232-13.945.005 5.53.023 10.027-.088 10.494.1.467.207 3.142.088 4.603-.124.36-.038-4.507-.187-3.484-.015 2.723-.048 5.012-.139 5.817-.078-.856.01-5.688-.141-4.652v12.8c.096-3.02.275-3.968.467-4.649.091 5.266-.162 7.693.094 10.462.007-1.747-.018-4.297.045-4.652.106 2.76.167 6.702.233 10.456-.213 3.25-.223-3.124-.372-4.652.023 4.07.02 8.788.094 11.636.118-1.48-.046-5.703.045-5.82.192 2.203.207 13.266.233 16.279.012-1.81.103-.797.141 0 .04-4.751.046-10.474.139-13.946.182 3.863.086 7.773.139 15.113-.129-3.817-.232-1.102-.232 1.152-.25.328-.246 1-.42-1.152.046 5.57-.21-.607-.187 2.317.202.805.094 9.334.28 10.471.081-1.984-.068-4.57.14-4.652 0 3.094-.026 6.855.093 6.985l.142-9.304c.063.71.007 4.484.09 4.636.089-2.055-.037-2.941 0-6.969.114.48.102-2.121.236-1.167-.147 4.695.22 9.718-.049 12.804.051 4.129.208 8.745.049 11.613.207-.827.159 10.649.138 11.636-.078-5.065-.164-9.832-.374-11.636.006 2.035-.01 3.63-.045 4.652.407.223.086 10.352.139 12.8.01-.897.003-2.296.048-2.331.076 8.96.058 21.747-.232 26.746-.04-1.332-.064-3.109-.048-5.816-.172 2.355-.185 1.53-.374 3.5-.02-2.196.063-7.015-.091-5.82v17.448c.078.457.118-1.734.139 0-.018 1.657-.056 1.957 0 3.484-.086-1.725-.16-3.121-.233 0 .091 11.505.15 28-.141 36.048.065.049.103 1.023.12 2.556.003 1.533.003 3.614.003 5.868-.045 4.502-.093 9.69-.123 12.509.065-6.39-.145-5.058-.185-5.82.013-.708.116-4.466 0-4.649-.02 1.462-.063 2.383-.141 2.332.007-1.738-.018-4.304.048-4.667.169.886.23 5.921.326 0-.21 1.495.083-5.888-.094-6.961-.078 1.949-.038 6.827-.232 5.809.012-2.7-.008-4.47-.048-5.81.093-1.946.06.102.187 0-.03-4.253.03-6.192.093-8.133-.157.79-.076-2.414-.048-3.5H.752c.04-4.492-.114-4.132-.142-6.971.18-1.79.197 1.776.468 0-.003-2.028.01-3.622.048-4.657-.208.187-.122-4.086-.048-5.805-.145.066-.18 2.03-.278 0 0-1.54.08-1.078.093-2.332-.08-1.066-.235-.406-.283-2.332.086-3.421.162-11.707.329-9.304.055-6.02-.18-4.837-.233-8.129-.008-3.677-.002-7.02.094-8.134.169 4.063.318-4.588.139-7-.071 1.376-.056 4.833-.187 4.665.21-7.527.358-19.582.141-26.746-.152.738-.29.687-.513 0l.046 29.081c.181.957.227 7.662.093 10.454-.167 1.812-.028-3.942-.139-3.485-.068 5.134-.07 1.812-.19 0C.159 211.948.118 231.99.078 252.61c-.013 10.311-.028 20.765-.043 31.282-.008 5.256-.018 10.53-.025 15.808-.038 2.406.012 5.873.636 8.918a32.32 32.32 0 0 0 3.32 8.848c3.11 5.484 7.862 10.047 13.566 12.712 2.83 1.35 5.865 2.32 8.973 2.703 1.51.276 3.19.258 4.59.324l3.904.008c10.393.033 20.691.064 30.807.091 20.231.1 39.742.198 57.884.292 7.025.244 27.845-.066 31.257.328 5.893.017 10.85-.246 15.04-.142-2.034.012-5.791-.049-4.616.093 4.308-.099 5.612.006 8.101.094 3.485-.157 10.806-.066 16.211-.045-.465-.216-8.812-.112-9.271-.328 5.145.054 12.415.132 17.385.186-2.893-.006-4.814.025-5.791.093 6.497.069 15.4.254 19.677.143-2.1-.12-7.61-.1-9.269-.236 13.656.045 23.135.406 37.052.236-.645 0-1.31-.038 0-.049 1.614.003 4.435-.01 2.307-.045-3.803.015-5.764.025-10.417.045 3.462-.14-1.65-.17-3.462-.236 3.756-.106 1.729-.109 3.462-.23 4.948.09 10.121.187 15.064.279-3.566.213 2.77.225-4.647.33 3.533.012 7.907-.008 8.117.137-.716-.01-4.468-.115-4.648 0l15.064.048c-4.913.137 3.636.106-1.162.281 7.07-.005 14.399.229 19.693.14-6.636-.076-12.004-.14-16.224-.185 1.458-.158-1.688-.147-1.162-.376-5.893-.073-9.41-.243-13.886-.375 3.55.025 3.421.025 6.954.045 1.703-.177-5.17-.007-3.485-.185 3.212.127 1.1-.069 3.485-.094.187.056-.21.135 1.147.142 10.642-.086 18.865.665 28.95.467-1.35-.07-4.811-.056-4.632-.188 5.057.03 7.768.013 5.794.236 3.715.038 2.401-.124 4.63-.142 2.77.09 9.133.036 9.264.234-5.534.053-5.628-.114-9.264-.14-.864.117-.144.147-3.485.234 1.486.01 5.694.137 5.81.048-.773-.203 18.856.112 11.561-.094.601-.162 6.58-.033 6.954-.096-5.632-.066-14.482-.216-8.099-.374-5.195.039-9.68-.286-12.741-.048 2.866.087 6.891-.066 8.102.142-7.806.084-20.169-.05-23.15-.42-4.986.05-12.214-.102-15.054-.283 1.501.023 1.6.023 3.47.046.502-.226-6.748-.132-6.94 0 1.587.005 4.516.185 2.308.19-2.23-.02-.9-.182-4.625-.142-2.385.016-1.097.175-3.485.188-.697-.063-4.45-.008-4.614-.094 3.831-.063 4.862-.025 3.47-.233 3.012-.02 6.355-.026 8.106-.094-2.994-.066-9.168-.005-9.269-.188 2.525-.03 3.687.134 3.47-.048-4.827.04-5.461-.09-9.25-.092-1.111.087 3.458.158 0 .186-8.23-.257-21.82-.016-26.631-.422 13.618-.147 26.538.188 37.04.143-2.12.002-7.414-.1-4.629-.143 2.345.064 9.542.071 5.792.236l18.397.165c-.77-.022-1.15-.06-1.039-.119 2.28.015 2.307-.063 3.483-.091.368.218 6.436.208 9.256.325-.28-.3 10.33.04 8.117-.094-2.454-.071-6.429-.084-6.955-.231-6.226.228-9.582-.2-16.21-.236-.258.035-.03.094-1.148.094-3.252-.15-11.129-.112-11.584-.376-3.211.132-9.4.11-11.594-.046 2.886-.063 4.827.137 5.792 0-3.626.023-2.602-.144-6.924-.094-1.913.257-6.58-.08-9.292-.093-3.608-.013 2.972.134-1.147.14-.253-.036-.968-.054-2.315-.047.071-.06 1.494-.066 1.168-.142-4.551-.017-9.593-.017-10.417-.185 8.251.038 13.619.04 18.519.28 4.407-.303 15.025.162 17.37.093-2.062-.226-10.285-.208-13.886-.373 3.556-.008 6.523.112 9.247 0 .55-.091-3.106-.241-3.467-.142 2.898.18-10.851.043-11.587.048 1.008-.096 8.064-.05 9.262 0 .477-.112-2.105-.101-1.145-.233-4.013.157-6.25.025-9.28-.094-.318.081 3.27.233 0 .279-3.734-.025-8.121.079-10.416-.185 3.766.02 5.39.03 8.094.048-1.334-.13-7.568-.31-9.24-.142-4.545-.02-3.42-.27-8.115-.282-1.112.294 5.185.29 8.114.424-6.464.058-6.153-.018-10.437.137 1.486.068 5.691.02 5.792.142-.8.091-3.08.124-5.792.14-2.216-.087-.902-.087-4.632-.046-.369-.112-1.38-.193-2.294-.282-5.8.071-7.48.107-8.11.234-.36-.064-1.652-.09-1.16-.188 6.513.079-.477-.229 4.633-.094-.73-.261-3.94-.066-4.632.048-2.6-.19-4.415-.05-4.647.046-1.724-.008-4.256.018-4.615-.046 2.424-.157-3.045-.325-9.271-.281.05-.064-.541-.105-1.148-.14 5.787-.046 10.452.198 13.889.094-7.7-.216-15.59-.173-23.165-.421 3.55.033 4.227-.049 6.954-.049 1.233.14 8.25.287 11.579.188-5.13.005-6.272-.152-6.94-.327 3.152.114 4.595-.19 9.247.045-1.342.183 3.21.368 5.794.236-3.305-.162 4.731.016 4.63-.187-7.005-.17-23.423-.206-24.31-.47 5.519.147 22.564.033 30.097.33-3.773.025-2.216.218 0 .28h-5.787c.988.149-.996.18-2.307.233 5.814.053 10.04.086 16.195.142.541-.203-.566-.259-1.147-.421-.28.08-1.999.106-4.632.093.354-.096 2.322-.126 3.47-.187-2.15.043-3.867-.14-4.617 0 1.21.002.902.058-1.175.045-.164-.116.604-.193 2.322-.236 5.173.076 14.139.241 18.533.19-4.126-.02-5.064-.17-8.109-.233 2.967-.053 5.517.142 6.94 0-3.571-.188-8.565-.16-10.41-.327 8.484.111 13.015-.043 18.503.279.195-.053-.179-.132 1.175-.14 2.52.221 11.198.353 8.117.655-.72-.013-4.465-.114-4.644 0 4.174.104 11.556.282 16.2.094 8.087.282 24.088.495 34.742.515-5.57-.101-12.964-.132-13.901-.421-6.103-.023 2.704.124-1.147.14-4.205-.08-5.497-.277-10.424-.328 4.783 0-.44-.254-1.16-.14 2.062.112-2.992.19 1.16.328-6.55-.033-8.772-.239-11.58-.421.19.193-6.951.005-8.114-.049 2.8-.017 2.525.087 5.792.049.14-.092-4.877-.117-2.307-.234 5.042.092 7.308.297 13.886.328-2.358-.186-8.463-.221-10.416-.422 4.258-.002 9.385.112 6.947.234 4.927.023 11.03-.097 15.056.14-2.727.002-3.407-.082-6.94-.046 1.047.127 4.408.165 8.1.187 1.458-.073-1.203-.269 3.477-.142.93-.177-2.472-.18-4.637-.236-2.75.26-5.808-.213-9.264-.23-.102.073.161.162-2.323.139-.1-.183-5.648-.145-5.777-.327-3.75-.059-.89.152-4.64.093-1.536-.236-9.594-.32-4.631-.56-4.041.114-7.645-.061-13.894.091 1.226-.173-2.438-.152-3.47-.234h3.47c.225-.167-7.465-.256-9.254-.187 1.34.015 5.438.147 2.307.187-3.694-.08-7.922-.175-12.73-.279 3.83-.127 6.102.061 9.26-.094-3.39-.048-3.562-.05-6.938-.094.164.15-5.5-.027-5.808.188-4.126-.03-.672-.226 1.175-.284-3.338.01-5.893-.01-6.961-.094 7.993.018-4.415-.127 2.317-.23 1.34.037 3.108.06 5.792.045.078.137 2.474.216 5.794.327.177-.053-.21-.134 1.16-.142 1.327.198 9.04.135 10.417.33.664-.266 8.475-.155 10.424-.046-.102.074-2.965.033-2.323.137 4.617-.012 8.557-.002 10.424.094-.078-.08.253-.142 1.163-.185-3.847-.127-7.483-.259-12.75-.33 1.148-.31-3.555-.363-6.938-.373 4.27-.117 4.745-.2 5.791-.327 2.982.058 5.562.111 6.955.142-3.303.18 6.654.228 8.086.373-3.626-.025-3.057.162-5.792.048 1.07.284 10.18.241 13.902.421.21-.213-7.172-.116-5.787-.375 7.467-.023 12.82.29 17.373.233-4.539-.13-8.642-.274-15.064-.327 1.148-.19-4.826-.147-5.776-.373 2.719-.003 3.411.078 6.946.043 1.63-.162-7.027-.145-3.48-.234 3.248.046 6.654.092 10.42.143-.703-.059-1.2-.127-1.762-.188h80.501c14.17 0 25.655-11.535 25.655-25.765v-18.828c.043-3.843.065-5.82.093-8.152.116 5.621.152 13.263.42 15.11.048-.71-.005-4.852.187-4.641.022 3.83-.22 6.136 0 8.141-.023-5.52.055-1.281.139-3.5.017 2.234.131 2.117.093 5.82.142-2.332.243 1.492.372-1.167-.005 3.494.075 7.035.093 8.2.162-1.594.048-5.716.19-5.868.06 1.583.358 3.753.096 7.545.07-1.35.134-3.746-.005-2.893.017 3.2-.372 5.969-1.168 8.753-.826 2.779-2.135 5.604-4.46 8.667.523-.536-.04.46-1.087 1.599-.965 1.213-2.459 2.492-3.098 3.114a28.013 28.013 0 0 0 7.627-9.167 27.139 27.139 0 0 0 3.073-12.966c-.18-.277-.198 4.284-.622 5.032.184-1.114.288-1.723.303-2.05.008-.333-.012-.386-.035-.391-.046-.01-.106.162-.02-1.345.285-6.172.803-9.606 1.074-1.246-.21 4.043-.225 2.14-.187 0-.01 2.906-.445 5.976-1.221 8.415-.384 1.224-.821 2.305-1.188 3.213l-.988 2.104c.258-.368-.652 1.55-1.948 3.475-.637.97-1.36 1.939-1.999 2.657-.599.753-1.069 1.294-1.165 1.429 3.43-3.114 7.422-8.685 8.703-16.154.354-1.797.43-3.896.463-5.662.005-1.738.012-3.52.02-5.332.007-3.63.017-7.385.025-11.187.03-15.21.066-31.137.089-42.271-.01 1.274-.074 2.794-.091 1.167-.013-2.03.128-5.804 0-6.971.007 2.543-.038 3.695-.142 3.487.27-32.952.445-54.658.7-86.057-.033 1.919.094 5.063.094 2.332.045-8.86.176-33.65.232-44.18-.01 1.305-.05 1.813-.094 2.32.006-6.172.033-14.163.142-19.77-.21-21.214-.06-30.038-.048-45.346.083 3.715.088 5.867.048 10.453.18-2.056.109 7.977.232 3.508-.053-5.513.079-10.903.094-17.461a84.066 84.066 0 0 0-.005-1.678c.008-.134.023-.568.05-1.791.081-3.2-.03-14.456-.212-13.055z" mask="url(#b)"/>
    </g>
</svg>
