<?xml version="1.0" encoding="utf-8"?>
<!-- Generator: Adobe Illustrator 24.0.0, SVG Export Plug-In . SVG Version: 6.00 Build 0)  -->
<svg version="1.1" id="Layer_1" xmlns="http://www.w3.org/2000/svg" xmlns:xlink="http://www.w3.org/1999/xlink" x="0px" y="0px"
	 viewBox="0 0 344.7 20.4" style="enable-background:new 0 0 344.7 20.4;" xml:space="preserve">
<style type="text/css">
	.st0{fill:none;stroke:#00B6CD;stroke-width:2;stroke-linecap:round;stroke-linejoin:round;stroke-miterlimit:10;}
	.st1{fill:#00B6CD;}
	.st2{fill:#FFFFFF;stroke:#00B6CD;stroke-width:2;stroke-linecap:round;stroke-linejoin:round;stroke-miterlimit:10;}
	.st3{fill:none;stroke:#00B6CD;stroke-width:2;stroke-linecap:round;stroke-linejoin:round;stroke-miterlimit:9.9999;}
</style>
<g>
	<rect x="64.4" y="1.3" class="st0" width="17.4" height="17.4"/>
	<line class="st0" x1="71.5" y1="2.1" x2="71.5" y2="18.6"/>
	<line class="st0" x1="71.9" y1="8.7" x2="81.8" y2="8.7"/>
</g>
<g>
	<circle class="st1" cx="37.6" cy="8.1" r="1.5"/>
	<circle class="st1" cx="43.6" cy="8.1" r="1.5"/>
	<path class="st0" d="M37.2,13.9c0.9-0.9,2.1-1.4,3.4-1.4s2.5,0.5,3.4,1.4"/>
	<circle class="st0" cx="40.6" cy="10" r="9"/>
</g>
<g>
	<g>
		<rect x="1" y="1.3" class="st0" width="16.4" height="17.4"/>
		<path class="st0" d="M7.1,18.6"/>
	</g>
	<g>
		<path class="st0" d="M9.2,14L9.2,14c-0.3-0.2-4.4-2.8-4.4-5.5C4.8,7.1,5.9,6,7.3,6C8,6,8.7,6.3,9.2,6.8C9.7,6.3,10.4,6,11.1,6
			c1.4,0,2.5,1.1,2.5,2.5C13.6,11.3,9.5,13.8,9.2,14L9.2,14z"/>
	</g>
</g>
<g>
	<g>
		<circle class="st0" cx="168.8" cy="10.4" r="8.5"/>
	</g>
	<circle class="st2" cx="163.1" cy="4.8" r="2.5"/>
	<circle class="st2" cx="174.5" cy="16.1" r="2.5"/>
</g>
<g>
	<polygon class="st0" points="102.7,14.9 112.7,14.9 112.7,1.9 93.7,1.9 93.7,14.9 97.7,14.9 97.7,18.9 	"/>
	<g>
		<circle class="st1" cx="98.2" cy="8.4" r="1.5"/>
		<circle class="st1" cx="103.2" cy="8.4" r="1.5"/>
		<circle class="st1" cx="108.2" cy="8.4" r="1.5"/>
	</g>
</g>
<g>
	<path class="st0" d="M199.2,12.4h-6.6V7.3l4.4-5.2c0.4-0.5,0.9-0.7,1.5-0.7h12.1v11h-6.5l-2.5,7l-2-1.3c-0.6-0.4-1-1.2-0.9-1.9
		L199.2,12.4z"/>
	<line class="st0" x1="206.6" y1="1.4" x2="206.6" y2="12.4"/>
</g>
<g>
	<circle class="st0" cx="265.3" cy="7.5" r="6.1"/>
	
		<rect x="272.6" y="13.1" transform="matrix(0.7071 -0.7071 0.7071 0.7071 68.7954 198.5126)" class="st3" width="2.8" height="6.2"/>
	<line class="st0" x1="271.1" y1="13.3" x2="269.6" y2="11.8"/>
</g>
<g>
	<g>
		<g>
			<polygon class="st0" points="145.8,6.5 145.8,19.3 127.1,19.3 127.1,6.5 136.7,14.3 			"/>
		</g>
		<line class="st0" x1="127.9" y1="19.1" x2="134.4" y2="12.6"/>
		<line class="st0" x1="145.5" y1="19.1" x2="139" y2="12.6"/>
		<polyline class="st0" points="128.6,7.2 128.6,1.5 144.4,1.5 144.4,7.5 		"/>
	</g>
	<line class="st0" x1="133.5" y1="5.3" x2="139.5" y2="5.3"/>
	<line class="st0" x1="133.5" y1="8.3" x2="139.5" y2="8.3"/>
</g>
<g>
	<circle class="st1" cx="233" cy="8.5" r="1.5"/>
	<circle class="st1" cx="239" cy="8.4" r="1.5"/>
	<path class="st0" d="M239.4,13.9c-0.9,0.9-2.1,1.4-3.4,1.4c-1.3,0-2.5-0.5-3.4-1.4"/>
	<circle class="st0" cx="236" cy="10.4" r="9"/>
</g>
<g>
	<line class="st0" x1="293.2" y1="5.2" x2="311.2" y2="5.2"/>
	<circle class="st2" cx="304.9" cy="5" r="3.2"/>
	<line class="st0" x1="311.2" y1="14.7" x2="293.2" y2="14.7"/>
	<circle class="st2" cx="299.4" cy="15" r="3.2"/>
</g>
<g>
	<circle class="st0" cx="332.8" cy="7.4" r="6.2"/>
	<circle class="st0" cx="337.5" cy="12.5" r="6.2"/>
</g>
</svg>
