<?xml version="1.0" encoding="utf-8"?>
<!-- Generator: Adobe Illustrator 24.0.2, SVG Export Plug-In . SVG Version: 6.00 Build 0)  -->
<svg version="1.1" id="Layer_1" xmlns="http://www.w3.org/2000/svg" xmlns:xlink="http://www.w3.org/1999/xlink" x="0px" y="0px"
	 viewBox="0 0 54 22.3" style="enable-background:new 0 0 54 22.3;" xml:space="preserve">
<style type="text/css">
	.st0{fill:#00B6CD;}
</style>
<g transform="translate(1 1)">
	<g>
		<path id="a_1_" class="st0" d="M18.7,0.3c0.6,0,1,0.4,1,1v12c0,0.6-0.4,1-1,1H14V19c0,0.5-0.4,0.9-0.9,1H13H1c-0.6,0-1-0.4-1-1V7
			c0-0.6,0.4-1,1-1h4.7V1.3c0-0.5,0.4-0.9,0.9-1h0.1C6.7,0.3,18.7,0.3,18.7,0.3z M5.7,8H2v10h10v-3.7H6.7c-0.5,0-0.9-0.4-1-0.9v-0.1
			V8z M12,8H7.7v4.3H12V8z M17.7,2.3h-10V6H13c0.5,0,0.9,0.4,1,0.9V7v5.3h3.7V2.3z"/>
	</g>
</g>
<g transform="translate(2 1)">
	<g>
		<path id="a_4_" class="st0" d="M33,20.4c-0.5,0-0.9-0.4-1-0.9v-0.1V2c0-0.5,0.4-0.9,0.9-1H33h15.4c0.5,0,0.9,0.4,1,0.9V2v17.4
			c0,0.5-0.4,0.9-0.9,1h-0.1H33L33,20.4z M35,3h-1v15.4h1V3z M47.4,3H37v15.4h10.4V3z M39.4,9.1h5.9c0.6,0,1,0.4,1,1
			c0,0.5-0.4,0.9-0.9,1h-0.1h-5.9c-0.6,0-1-0.4-1-1C38.4,9.6,38.8,9.2,39.4,9.1L39.4,9.1h5.9H39.4z M45.3,5.8c0.6,0,1,0.4,1,1
			c0,0.5-0.4,0.9-0.9,1h-0.1h-5.9c-0.6,0-1-0.4-1-1c0-0.5,0.4-0.9,0.9-1h0.1H45.3z"/>
	</g>
</g>
</svg>
