<?xml version="1.0" encoding="utf-8"?>
<!-- Generator: Adobe Illustrator 24.0.0, SVG Export Plug-In . SVG Version: 6.00 Build 0)  -->
<svg version="1.1" id="Layer_1" xmlns="http://www.w3.org/2000/svg" xmlns:xlink="http://www.w3.org/1999/xlink" x="0px" y="0px"
	 viewBox="0 0 85.4 19" style="enable-background:new 0 0 85.4 19;" xml:space="preserve">
<style type="text/css">
	.st0{fill:none;stroke:#00B6CD;stroke-width:2;stroke-linecap:round;stroke-linejoin:round;stroke-miterlimit:10;}
	.st1{fill:#FFFFFF;stroke:#00B6CD;stroke-width:2;stroke-linecap:round;stroke-linejoin:round;stroke-miterlimit:10;}
</style>
<g>
	<polyline class="st0" points="7.9,6 4.5,6 1,12 4.5,18 11.4,18 14.9,12 	"/>
	<polygon class="st0" points="7.9,1 7.9,6 11.4,6 14.9,12 18.9,12 18.9,1 	"/>
	<polyline class="st0" points="14.9,12 11.4,6 7.9,6 	"/>
</g>
<g>
	<line class="st0" x1="33.7" y1="4.7" x2="51.7" y2="4.7"/>
	<circle class="st1" cx="45.5" cy="4.5" r="3.2"/>
	<line class="st0" x1="51.7" y1="14.2" x2="33.7" y2="14.2"/>
	<circle class="st1" cx="40" cy="14.5" r="3.2"/>
</g>
<g>
	<polyline class="st0" points="66.6,10.1 75.5,11.9 84.2,10.1 	"/>
	<g>
		<g>
			<rect x="66.6" y="4.9" class="st0" width="17.8" height="12.3"/>
		</g>
	</g>
	<polyline class="st0" points="71.8,4.8 71.8,1.7 79.3,1.7 79.3,4.8 	"/>
</g>
</svg>
