<?xml version="1.0" encoding="utf-8"?>
<!-- Generator: Adobe Illustrator 24.0.0, SVG Export Plug-In . SVG Version: 6.00 Build 0)  -->
<svg version="1.1" id="Layer_1" xmlns="http://www.w3.org/2000/svg" xmlns:xlink="http://www.w3.org/1999/xlink" x="0px" y="0px"
	 viewBox="0 0 1031.7 21.5" style="enable-background:new 0 0 1031.7 21.5;" xml:space="preserve">
<style type="text/css">
	.st0{fill:none;stroke:#00B6CD;stroke-width:2;stroke-linecap:round;stroke-linejoin:round;}
	.st1{fill:#00B6CD;}
	.st2{fill:#00B6CD;stroke:#00B6CD;stroke-width:1.2;stroke-linecap:round;stroke-linejoin:round;}
	.st3{fill:none;stroke:#00B6CD;stroke-width:2.11;stroke-linecap:round;stroke-linejoin:round;}
	.st4{fill:none;stroke:#00B6CD;stroke-width:2.12;stroke-linecap:round;stroke-linejoin:round;}
</style>
<title>job_descriptions</title>
<path class="st0" d="M412.5,2c-0.7,0-1.2,0.6-1.2,1.2v0.9c-0.9,0.3-1.7,0.8-2.4,1.4l-0.8-0.4c-0.6-0.3-1.3-0.1-1.7,0.5l-1.2,2.2
	c-0.3,0.6-0.1,1.3,0.5,1.7l0.8,0.4c-0.1,0.4-0.1,0.8-0.1,1.2c0,0.4,0.1,0.8,0.1,1.2l-0.8,0.4c-0.6,0.3-0.8,1.1-0.5,1.7l1.2,2.2
	c0.3,0.6,1.1,0.8,1.7,0.5l0.8-0.4c0.7,0.6,1.5,1.1,2.4,1.4v0.9c0,0.7,0.5,1.2,1.2,1.3c0,0,0,0,0,0h2.5c0.7,0,1.2-0.6,1.2-1.2V18
	c0.9-0.3,1.7-0.8,2.4-1.4l0.8,0.4c0.6,0.3,1.3,0.1,1.7-0.5c0.4-0.8,0.8-1.5,1.2-2.2c0.3-0.6,0.1-1.4-0.5-1.7c0,0,0,0,0,0l-0.8-0.4
	c0.1-0.4,0.1-0.8,0.1-1.2c0-0.4-0.1-0.8-0.1-1.2l0.8-0.4c0.6-0.3,0.8-1.1,0.5-1.7c-0.4-0.7-0.9-1.5-1.2-2.2
	c-0.3-0.6-1.1-0.8-1.7-0.5l-0.8,0.4c-0.7-0.6-1.5-1.1-2.4-1.4V3.2c0-0.7-0.6-1.2-1.2-1.2L412.5,2z"/>
<circle class="st0" cx="413.7" cy="11" r="3.5"/>
<path class="st0" d="M323.1,13.7c0-5.2,4.3-9.5,9.5-9.5s9.5,4.3,9.5,9.5"/>
<circle class="st1" cx="332.6" cy="4.3" r="2.5"/>
<polygon class="st0" points="336.9,20.3 332.6,10.9 328.2,20.3 332.6,17.8 "/>
<rect x="892.5" y="7.5" class="st0" width="16" height="11"/>
<rect x="892.5" y="3.5" class="st0" width="16" height="4"/>
<line class="st0" x1="894" y1="7.5" x2="898" y2="3.5"/>
<line class="st0" x1="898.5" y1="7.5" x2="902.5" y2="3.5"/>
<line class="st0" x1="903" y1="7.5" x2="907" y2="3.5"/>
<polygon class="st2" points="902.3,13 899.7,11.5 899.7,14.5 "/>
<line class="st0" x1="164.6" y1="8.1" x2="165.6" y2="7.1"/>
<polygon class="st0" points="165.8,19.1 161.8,19.5 162.2,15.5 175.3,2.5 178.8,6 173.8,11.1 "/>
<polyline class="st0" points="166.7,11.1 161.6,6 165.2,2.5 170.2,7.5 "/>
<polyline class="st0" points="174,11.2 178.9,16 175.3,19.6 170.4,14.7 "/>
<line class="st0" x1="173.3" y1="16.7" x2="174.3" y2="15.7"/>
<line class="st0" x1="172.4" y1="6.1" x2="175.5" y2="9.2"/>
<rect x="80.6" y="4.5" class="st0" width="14" height="16"/>
<polyline class="st0" points="94.6,17.5 97.6,17.5 97.6,1.5 83.6,1.5 83.6,4.5 "/>
<line class="st0" x1="84.6" y1="8.5" x2="90.6" y2="8.5"/>
<line class="st0" x1="84.6" y1="12.5" x2="90.6" y2="12.5"/>
<line class="st0" x1="84.6" y1="16.5" x2="90.6" y2="16.5"/>
<rect x="1" y="2.5" class="st0" width="14" height="17"/>
<line class="st0" x1="1" y1="7.5" x2="15" y2="7.5"/>
<line class="st0" x1="8" y1="7.5" x2="8" y2="19.5"/>
<line class="st0" x1="1" y1="13.5" x2="15" y2="13.5"/>
<path class="st0" d="M203.3,8.8c-0.1-3.8,2.7-7.1,6.4-7.7c4.1-0.6,8,2.2,8.6,6.3c0.1,0.4,0.1,0.7,0.1,1.1"/>
<circle class="st1" cx="212.3" cy="19" r="2"/>
<path class="st0" d="M218.3,16.1v1.5c0,0.8-0.7,1.5-1.5,1.5h-2.5"/>
<path class="st3" d="M203.2,9h0.2c1,0,1.9,0.9,1.9,1.9v2.2c0,1-0.9,1.9-1.9,1.9h-0.2c-1,0-1.9-0.9-1.9-1.9v-2.2
	C201.3,9.9,202.2,9,203.2,9z"/>
<path class="st3" d="M218.2,9h0.2c1,0,1.9,0.9,1.9,1.9v2.2c0,1-0.9,1.9-1.9,1.9h-0.2c-1,0-1.9-0.9-1.9-1.9v-2.2
	C216.3,9.9,217.2,9,218.2,9z"/>
<polyline class="st0" points="127.3,15.4 124.9,13 127.3,10.5 "/>
<polyline class="st0" points="132.1,10.5 134.5,13 132.1,15.4 "/>
<rect x="121.2" y="2.5" class="st0" width="17" height="17"/>
<line class="st0" x1="121.2" y1="6.5" x2="138.2" y2="6.5"/>
<rect x="364.6" y="14" class="st0" width="6" height="6"/>
<rect x="364.6" y="2" class="st0" width="8" height="6"/>
<rect x="370.6" y="14" class="st0" width="11" height="6"/>
<rect x="375.6" y="8" class="st0" width="6" height="6"/>
<rect x="364.6" y="8" class="st0" width="11" height="6"/>
<circle class="st0" cx="292" cy="8.1" r="6"/>
<circle class="st0" cx="292" cy="8.1" r="2.5"/>
<polyline class="st0" points="292.2,14.6 289.2,19.9 288.1,16.8 284.8,17.5 287.5,12.7 "/>
<polyline class="st0" points="291.8,14.6 294.8,19.9 295.9,16.8 299.2,17.5 296.5,12.7 "/>
<rect x="445.4" y="6.5" class="st0" width="17.8" height="12.3"/>
<polyline class="st0" points="450.5,6.4 450.5,3.3 458,3.3 458,6.4 "/>
<line class="st0" x1="456.8" y1="13.1" x2="451.8" y2="13.1"/>
<line class="st0" x1="454.3" y1="10.6" x2="454.3" y2="15.6"/>
<line class="st0" x1="454.3" y1="10.6" x2="454.3" y2="15.6"/>
<line class="st0" x1="490.3" y1="2.5" x2="499.3" y2="2.5"/>
<polygon class="st0" points="488.3,19.5 501.4,19.5 497.3,9.5 497.3,2.5 492.3,2.5 492.3,9.5 "/>
<line class="st0" x1="491.3" y1="12.5" x2="498.3" y2="12.5"/>
<line class="st0" x1="526.9" y1="18" x2="543.9" y2="18"/>
<path class="st0" d="M543.9,15.1c0-4.7-3.8-8.5-8.5-8.5s-8.5,3.8-8.5,8.5H543.9z"/>
<line class="st0" x1="534.4" y1="4" x2="536.4" y2="4"/>
<line class="st0" x1="535.4" y1="6" x2="535.4" y2="4"/>
<rect x="567.1" y="6.5" class="st0" width="17.8" height="12.3"/>
<polyline class="st0" points="572.2,6.4 572.2,3.3 579.7,3.3 579.7,6.4 "/>
<path class="st0" d="M570.3,6.8c0.1,0.3,0.2,0.5,0.2,0.8c0,1.1-0.9,2-2,2c-0.5,0-0.9-0.2-1.3-0.5"/>
<path class="st0" d="M584.6,9.3c-0.3,0.2-0.7,0.3-1.1,0.3c-1.1,0-2-0.9-2-2c0-0.4,0.1-0.7,0.3-1"/>
<path class="st0" d="M567.1,16.2c0.4-0.4,0.9-0.6,1.4-0.6c1.1,0,2,0.9,2,2c0,0.4-0.1,0.7-0.3,1"/>
<path class="st0" d="M581.8,18.6c-0.2-0.3-0.3-0.6-0.3-1c0-1.1,0.9-2,2-2c0.5,0,1,0.2,1.4,0.6"/>
<path class="st0" d="M657.1,3c-1.7,1.9-4.1,3-6.7,3.1c0,13,6.7,13,6.7,13s6.7,0,6.7-13C661.2,6,658.8,4.9,657.1,3z"/>
<polyline class="st0" points="659.2,10.6 656.4,13.4 655,12 "/>
<line class="st0" x1="689.1" y1="18.4" x2="698.7" y2="18.4"/>
<path class="st0" d="M696.4,6.9l7.9-2.8c0.8-0.3,1.6,0.1,1.9,0.9c0.3,0.8-0.1,1.6-0.9,1.9l-8,2.8"/>
<rect x="691" y="4.4" transform="matrix(0.9423 -0.3346 0.3346 0.9423 36.88 232.7737)" class="st0" width="6" height="10"/>
<path class="st0" d="M774.3,11.1h9c0.8,0,1.5,0.7,1.5,1.5l0,0c0,0.8-0.7,1.5-1.5,1.5h-9c-0.8,0-1.5-0.7-1.5-1.5l0,0
	C772.8,11.8,773.5,11.1,774.3,11.1z"/>
<line class="st0" x1="778.8" y1="15.1" x2="778.8" y2="16.1"/>
<polyline class="st0" points="782.3,19.9 778.8,15.9 775.3,19.9 "/>
<polygon class="st0" points="783.3,11.1 774.3,11.1 775.3,2.1 782.3,2.1 "/>
<line class="st0" x1="935.1" y1="9.3" x2="935.1" y2="18.3"/>
<line class="st0" x1="947.1" y1="18.3" x2="947.1" y2="9.3"/>
<line class="st0" x1="932.4" y1="19.2" x2="949.8" y2="19.2"/>
<path class="st0" d="M939.1,18.3v-4c0-1.1,0.9-2,2-2l0,0c1.1,0,2,0.9,2,2v4"/>
<polyline class="st0" points="948.6,10 941.1,2.8 933.6,10 "/>
<line class="st0" x1="985.2" y1="6.5" x2="985.2" y2="6.5"/>
<line class="st0" x1="985.2" y1="9.5" x2="985.2" y2="9.5"/>
<polygon class="st0" points="974.7,2.5 988.7,2.5 988.7,17.5 986.3,19.5 984,17.5 981.7,19.5 979.3,17.5 977,19.5 974.7,17.5 "/>
<line class="st0" x1="978.2" y1="6.5" x2="982.2" y2="6.5"/>
<line class="st0" x1="978.2" y1="9.5" x2="982.2" y2="9.5"/>
<line class="st0" x1="978.2" y1="12.5" x2="982.2" y2="12.5"/>
<line class="st0" x1="985.2" y1="12.5" x2="985.2" y2="12.5"/>
<polygon class="st0" points="1030.7,19 1019.7,19 1020.7,6 1029.7,6 "/>
<polyline class="st0" points="1021.7,19 1013.7,19 1014.7,11 1019.4,11 "/>
<path class="st0" d="M1022.7,5.5c0-1.4,1.1-2.5,2.5-2.5c1.4,0,2.5,1.1,2.5,2.5"/>
<path class="st0" d="M1016.7,10.5c0-1.4,1.1-2.5,2.5-2.5c0.5,0,0.9,0.1,1.3,0.4"/>
<polyline class="st0" points="857.8,11.7 867.7,14.8 867.7,4.1 857.7,7.1 "/>
<rect x="852.2" y="6.2" class="st0" width="5.4" height="6.4"/>
<polygon class="st0" points="856.5,18 854.4,18 853.3,12.6 856.5,12.6 "/>
<polyline class="st0" points="730.8,7.5 730.8,18.5 745.8,18.5 745.8,7.5 "/>
<polyline class="st0" points="740.3,7.5 747.3,7.5 747.3,3.5 729.3,3.5 729.3,7.5 736,7.5 "/>
<polyline class="st0" points="736.3,3.5 736.3,12.5 740.3,12.5 740.3,3.5 "/>
<polygon class="st0" points="251.4,11.7 242.2,7.9 251.4,4 260.6,7.9 "/>
<polyline class="st0" points="245.9,10.1 245.9,15.5 256.9,15.5 256.9,10 "/>
<line class="st0" x1="260.6" y1="8" x2="260.6" y2="18"/>
<path class="st0" d="M46.9,5.2c-4.1,0-7.5,3.4-7.5,7.5s3.4,7.5,7.5,7.5s7.5-3.4,7.5-7.5h-7.5V5.2z"/>
<path class="st0" d="M50.3,1.9h-0.4v7.9h7.9c0-0.1,0-0.3,0-0.4C57.7,5.2,54.4,1.9,50.3,1.9z"/>
<rect x="610.4" y="4.2" class="st0" width="12.3" height="15.8"/>
<line class="st0" x1="616.5" y1="4.1" x2="616.5" y2="2.1"/>
<circle class="st0" cx="616.5" cy="11.3" r="2.7"/>
<path class="st0" d="M612,20v-1.5c0.2-2.5,2.3-4.4,4.8-4.2c2.3,0.2,4,1.9,4.2,4.2V20"/>
<path class="st4" d="M828.4,2.6c-2,0-3.9-0.2-5.8,0.6c-4.5,1.8-7.4,6.5-8.9,10.9l3.1,3.1c4.4-1.5,9.1-4.4,10.9-8.9
	C828.3,6.4,828.5,4.5,828.4,2.6z"/>
<polyline class="st4" points="823.4,13.7 822.4,19.5 818.6,16.6 "/>
<polyline class="st4" points="817.1,7.4 811.4,8.5 814.3,12.3 "/>
<circle class="st1" cx="823.2" cy="7.7" r="1.6"/>
<line class="st4" x1="812.4" y1="16.5" x2="810.4" y2="18.5"/>
<line class="st4" x1="814.4" y1="18.5" x2="813.4" y2="19.5"/>
</svg>
